<svg xmlns="http://www.w3.org/2000/svg" xmlns:xlink="http://www.w3.org/1999/xlink" width="1080" zoomAndPan="magnify" viewBox="0 0 810 809.999993" height="1080" preserveAspectRatio="xMidYMid meet" version="1.0"><defs><clipPath id="15d4e177dd"><path d="M 303 254.882812 L 517.597656 254.882812 L 517.597656 400 L 303 400 Z M 303 254.882812 " clip-rule="nonzero"/></clipPath><clipPath id="190dcf5f9b"><path d="M 260.347656 340 L 389 340 L 389 432 L 260.347656 432 Z M 260.347656 340 " clip-rule="nonzero"/></clipPath></defs><path fill="#1685bb" d="M 488.847656 456.613281 C 488.847656 457.554688 488.757812 458.484375 488.574219 459.410156 C 488.390625 460.332031 488.117188 461.226562 487.757812 462.097656 C 487.398438 462.964844 486.957031 463.792969 486.433594 464.574219 C 485.910156 465.355469 485.316406 466.082031 484.652344 466.746094 C 483.984375 467.410156 483.261719 468.003906 482.480469 468.527344 C 481.699219 469.050781 480.871094 469.492188 480.003906 469.851562 C 479.132812 470.210938 478.238281 470.484375 477.3125 470.667969 C 476.390625 470.851562 475.460938 470.945312 474.519531 470.945312 C 473.578125 470.945312 472.644531 470.851562 471.722656 470.667969 C 470.800781 470.484375 469.902344 470.210938 469.035156 469.851562 C 468.164062 469.492188 467.339844 469.050781 466.558594 468.527344 C 465.773438 468.003906 465.050781 467.410156 464.386719 466.746094 C 463.71875 466.082031 463.125 465.355469 462.601562 464.574219 C 462.082031 463.792969 461.640625 462.964844 461.277344 462.097656 C 460.917969 461.226562 460.648438 460.332031 460.464844 459.410156 C 460.28125 458.484375 460.1875 457.554688 460.1875 456.613281 C 460.1875 455.671875 460.28125 454.742188 460.464844 453.816406 C 460.648438 452.894531 460.917969 452 461.277344 451.128906 C 461.640625 450.261719 462.082031 449.433594 462.601562 448.652344 C 463.125 447.871094 463.71875 447.144531 464.386719 446.480469 C 465.050781 445.816406 465.773438 445.222656 466.558594 444.699219 C 467.339844 444.175781 468.164062 443.734375 469.035156 443.375 C 469.902344 443.015625 470.800781 442.742188 471.722656 442.558594 C 472.644531 442.375 473.578125 442.28125 474.519531 442.28125 C 475.460938 442.28125 476.390625 442.375 477.3125 442.558594 C 478.238281 442.742188 479.132812 443.015625 480.003906 443.375 C 480.871094 443.734375 481.699219 444.175781 482.480469 444.699219 C 483.261719 445.222656 483.984375 445.816406 484.652344 446.480469 C 485.316406 447.144531 485.910156 447.871094 486.433594 448.652344 C 486.957031 449.433594 487.398438 450.261719 487.757812 451.128906 C 488.117188 452 488.390625 452.894531 488.574219 453.816406 C 488.757812 454.742188 488.847656 455.671875 488.847656 456.613281 Z M 488.847656 456.613281 " fill-opacity="1" fill-rule="nonzero"/><path fill="#1685bb" d="M 474.519531 476.296875 C 459.757812 476.296875 447.746094 488.308594 447.746094 503.070312 L 447.746094 511.886719 L 501.289062 511.886719 L 501.289062 503.070312 C 501.289062 488.308594 489.28125 476.296875 474.519531 476.296875 Z M 474.519531 476.296875 " fill-opacity="1" fill-rule="nonzero"/><path fill="#1685bb" d="M 305.859375 335.199219 C 316.054688 335.199219 324.347656 326.90625 324.347656 316.710938 C 324.347656 304.8125 313.195312 295.941406 301.550781 298.734375 C 301.339844 298.824219 301.113281 298.875 300.882812 298.910156 C 293.097656 301.089844 287.371094 308.242188 287.371094 316.710938 C 287.371094 326.90625 295.664062 335.199219 305.859375 335.199219 Z M 305.859375 335.199219 " fill-opacity="1" fill-rule="nonzero"/><path fill="#1685bb" d="M 403.179688 456.613281 C 403.179688 457.554688 403.089844 458.484375 402.90625 459.410156 C 402.722656 460.332031 402.449219 461.226562 402.089844 462.097656 C 401.730469 462.964844 401.289062 463.792969 400.765625 464.574219 C 400.242188 465.355469 399.648438 466.082031 398.984375 466.746094 C 398.316406 467.410156 397.59375 468.003906 396.8125 468.527344 C 396.03125 469.050781 395.203125 469.492188 394.335938 469.851562 C 393.464844 470.210938 392.570312 470.484375 391.644531 470.667969 C 390.722656 470.851562 389.792969 470.945312 388.851562 470.945312 C 387.910156 470.945312 386.976562 470.851562 386.054688 470.667969 C 385.132812 470.484375 384.234375 470.210938 383.367188 469.851562 C 382.496094 469.492188 381.671875 469.050781 380.890625 468.527344 C 380.105469 468.003906 379.382812 467.410156 378.71875 466.746094 C 378.050781 466.082031 377.457031 465.355469 376.933594 464.574219 C 376.414062 463.792969 375.972656 462.964844 375.609375 462.097656 C 375.25 461.226562 374.980469 460.332031 374.796875 459.410156 C 374.613281 458.484375 374.519531 457.554688 374.519531 456.613281 C 374.519531 455.671875 374.613281 454.742188 374.796875 453.816406 C 374.980469 452.894531 375.25 452 375.609375 451.128906 C 375.972656 450.261719 376.414062 449.433594 376.933594 448.652344 C 377.457031 447.871094 378.050781 447.144531 378.71875 446.480469 C 379.382812 445.816406 380.105469 445.222656 380.890625 444.699219 C 381.671875 444.175781 382.496094 443.734375 383.367188 443.375 C 384.234375 443.015625 385.132812 442.742188 386.054688 442.558594 C 386.976562 442.375 387.910156 442.28125 388.851562 442.28125 C 389.792969 442.28125 390.722656 442.375 391.644531 442.558594 C 392.570312 442.742188 393.464844 443.015625 394.335938 443.375 C 395.203125 443.734375 396.03125 444.175781 396.8125 444.699219 C 397.59375 445.222656 398.316406 445.816406 398.984375 446.480469 C 399.648438 447.144531 400.242188 447.871094 400.765625 448.652344 C 401.289062 449.433594 401.730469 450.261719 402.089844 451.128906 C 402.449219 452 402.722656 452.894531 402.90625 453.816406 C 403.089844 454.742188 403.179688 455.671875 403.179688 456.613281 Z M 403.179688 456.613281 " fill-opacity="1" fill-rule="nonzero"/><path fill="#1685bb" d="M 388.851562 476.296875 C 374.089844 476.296875 362.078125 488.308594 362.078125 503.070312 L 362.078125 511.886719 L 415.621094 511.886719 L 415.621094 503.070312 C 415.621094 488.308594 403.613281 476.296875 388.851562 476.296875 Z M 388.851562 476.296875 " fill-opacity="1" fill-rule="nonzero"/><path fill="#1685bb" d="M 320.894531 335.199219 L 380.820312 335.199219 C 388.199219 335.199219 394.203125 341.203125 394.203125 348.585938 C 394.203125 355.976562 388.214844 361.96875 380.820312 361.96875 L 335.308594 361.96875 L 335.308594 378.03125 L 495.933594 378.03125 L 495.933594 276.300781 L 324.597656 276.300781 L 324.597656 301.996094 C 332.671875 312.253906 330.96875 326.988281 320.894531 335.199219 Z M 472.816406 361.96875 L 413.605469 361.96875 C 412.128906 361.96875 410.929688 360.769531 410.929688 359.292969 C 410.929688 357.8125 412.125 356.613281 413.605469 356.613281 L 472.816406 356.613281 C 474.296875 356.613281 475.496094 357.8125 475.496094 359.292969 C 475.496094 360.769531 474.296875 361.96875 472.816406 361.96875 Z M 475.496094 337.527344 C 475.496094 339.007812 474.296875 340.207031 472.816406 340.207031 L 413.605469 340.207031 C 412.125 340.207031 410.929688 339.007812 410.929688 337.527344 C 410.929688 336.050781 412.125 334.851562 413.605469 334.851562 L 472.816406 334.851562 C 474.296875 334.851562 475.496094 336.050781 475.496094 337.527344 Z M 348.695312 292.363281 L 471.839844 292.363281 C 473.320312 292.363281 474.519531 293.5625 474.519531 295.042969 C 474.519531 296.519531 473.320312 297.71875 471.839844 297.71875 L 348.695312 297.71875 C 347.214844 297.71875 346.015625 296.519531 346.015625 295.042969 C 346.015625 293.5625 347.214844 292.363281 348.695312 292.363281 Z M 348.695312 313.78125 L 471.839844 313.78125 C 473.320312 313.78125 474.519531 314.980469 474.519531 316.457031 C 474.519531 317.9375 473.320312 319.136719 471.839844 319.136719 L 348.695312 319.136719 C 347.214844 319.136719 346.015625 317.9375 346.015625 316.457031 C 346.015625 314.980469 347.214844 313.78125 348.695312 313.78125 Z M 348.695312 313.78125 " fill-opacity="1" fill-rule="nonzero"/><path fill="#1685bb" d="M 281.765625 436.929688 L 303.183594 436.929688 L 303.183594 511.886719 L 281.765625 511.886719 Z M 281.765625 436.929688 " fill-opacity="1" fill-rule="nonzero"/><path fill="#1685bb" d="M 308.535156 436.929688 L 329.953125 436.929688 L 329.953125 511.886719 L 308.535156 511.886719 Z M 308.535156 436.929688 " fill-opacity="1" fill-rule="nonzero"/><g clip-path="url(#15d4e177dd)"><path fill="#1685bb" d="M 503.96875 254.882812 L 316.566406 254.882812 C 309.1875 254.882812 303.183594 260.890625 303.183594 268.269531 L 303.183594 293.023438 C 309.0625 292.363281 314.683594 293.886719 319.246094 296.992188 L 319.246094 273.625 C 319.246094 272.144531 320.445312 270.945312 321.921875 270.945312 L 498.613281 270.945312 C 500.089844 270.945312 501.289062 272.144531 501.289062 273.625 L 501.289062 380.710938 C 501.289062 382.1875 500.089844 383.386719 498.613281 383.386719 L 335.308594 383.386719 L 335.308594 399.449219 L 503.96875 399.449219 C 511.347656 399.449219 517.351562 393.445312 517.351562 386.0625 L 517.351562 268.269531 C 517.351562 260.890625 511.347656 254.882812 503.96875 254.882812 Z M 503.96875 254.882812 " fill-opacity="1" fill-rule="nonzero"/></g><g clip-path="url(#190dcf5f9b)"><path fill="#1685bb" d="M 388.851562 348.585938 C 388.851562 344.15625 385.246094 340.550781 380.820312 340.550781 L 289.796875 340.550781 C 273.558594 340.550781 260.347656 353.761719 260.347656 370 L 260.347656 418.1875 C 260.347656 425.570312 266.351562 431.574219 273.734375 431.574219 L 276.410156 431.574219 L 276.410156 375.355469 C 276.410156 373.875 277.609375 372.679688 279.089844 372.679688 C 280.566406 372.679688 281.765625 373.875 281.765625 375.355469 L 281.765625 431.574219 L 329.953125 431.574219 L 329.953125 359.292969 C 329.953125 357.8125 331.152344 356.613281 332.632812 356.613281 L 380.820312 356.613281 C 385.253906 356.613281 388.851562 353.019531 388.851562 348.585938 Z M 388.851562 348.585938 " fill-opacity="1" fill-rule="nonzero"/></g></svg>