<svg xmlns="http://www.w3.org/2000/svg" xmlns:xlink="http://www.w3.org/1999/xlink" width="1080" zoomAndPan="magnify" viewBox="0 0 810 809.999993" height="1080" preserveAspectRatio="xMidYMid meet" version="1.0"><defs><clipPath id="9473d5c64e"><path d="M 278.191406 236.167969 L 572.191406 236.167969 L 572.191406 525.667969 L 278.191406 525.667969 Z M 278.191406 236.167969 " clip-rule="nonzero"/></clipPath></defs><g clip-path="url(#9473d5c64e)"><path fill="#1685bb" d="M 466.203125 255.960938 C 466.765625 255.964844 467.324219 255.992188 467.886719 256.050781 C 468.445312 256.105469 469 256.191406 469.554688 256.300781 C 470.105469 256.410156 470.648438 256.550781 471.1875 256.714844 C 471.726562 256.878906 472.253906 257.070312 472.773438 257.285156 C 473.292969 257.5 473.800781 257.742188 474.296875 258.007812 C 474.792969 258.273438 475.277344 258.5625 475.742188 258.875 C 476.210938 259.1875 476.664062 259.523438 477.097656 259.882812 C 477.53125 260.238281 477.949219 260.617188 478.347656 261.015625 C 478.746094 261.414062 479.121094 261.828125 479.480469 262.265625 C 479.835938 262.699219 480.171875 263.148438 480.484375 263.617188 C 480.796875 264.085938 481.085938 264.566406 481.355469 265.0625 C 481.621094 265.558594 481.859375 266.066406 482.078125 266.585938 C 482.292969 267.105469 482.484375 267.636719 482.648438 268.171875 C 482.8125 268.710938 482.949219 269.257812 483.0625 269.808594 C 483.171875 270.359375 483.253906 270.914062 483.3125 271.476562 C 483.367188 272.035156 483.398438 272.597656 483.398438 273.160156 L 483.398438 289.84375 L 278.226562 289.84375 L 278.226562 273.160156 C 278.230469 272.597656 278.257812 272.035156 278.316406 271.476562 C 278.371094 270.914062 278.457031 270.359375 278.566406 269.808594 C 278.679688 269.257812 278.816406 268.710938 278.980469 268.171875 C 279.144531 267.632812 279.335938 267.105469 279.550781 266.585938 C 279.769531 266.066406 280.007812 265.558594 280.273438 265.0625 C 280.539062 264.566406 280.832031 264.085938 281.144531 263.617188 C 281.457031 263.148438 281.792969 262.699219 282.148438 262.261719 C 282.507812 261.828125 282.882812 261.410156 283.28125 261.011719 C 283.679688 260.617188 284.097656 260.238281 284.53125 259.882812 C 284.964844 259.523438 285.417969 259.1875 285.886719 258.875 C 286.351562 258.5625 286.835938 258.273438 287.332031 258.007812 C 287.828125 257.742188 288.335938 257.5 288.855469 257.285156 C 289.375 257.066406 289.902344 256.878906 290.441406 256.714844 C 290.980469 256.550781 291.523438 256.410156 292.078125 256.300781 C 292.628906 256.191406 293.183594 256.105469 293.746094 256.050781 C 294.304688 255.992188 294.867188 255.964844 295.429688 255.960938 L 304.605469 255.960938 L 304.605469 269.34375 C 304.609375 270.296875 304.703125 271.234375 304.886719 272.167969 C 305.074219 273.101562 305.347656 274.003906 305.710938 274.882812 C 306.078125 275.761719 306.523438 276.59375 307.050781 277.382812 C 307.578125 278.171875 308.179688 278.90625 308.851562 279.578125 C 309.523438 280.25 310.253906 280.847656 311.042969 281.375 C 311.832031 281.90625 312.667969 282.351562 313.546875 282.714844 C 314.421875 283.078125 315.328125 283.355469 316.261719 283.539062 C 317.191406 283.726562 318.132812 283.820312 319.082031 283.820312 L 329.121094 283.820312 C 330.070312 283.820312 331.011719 283.726562 331.945312 283.539062 C 332.875 283.355469 333.78125 283.078125 334.660156 282.714844 C 335.535156 282.351562 336.371094 281.90625 337.160156 281.375 C 337.949219 280.847656 338.679688 280.25 339.351562 279.578125 C 340.023438 278.90625 340.625 278.171875 341.152344 277.382812 C 341.679688 276.59375 342.128906 275.761719 342.492188 274.882812 C 342.855469 274.003906 343.128906 273.101562 343.316406 272.167969 C 343.503906 271.234375 343.597656 270.296875 343.597656 269.34375 L 343.597656 255.960938 L 361.320312 255.960938 L 361.320312 269.34375 C 361.320312 270.296875 361.414062 271.234375 361.601562 272.167969 C 361.789062 273.101562 362.0625 274.003906 362.425781 274.882812 C 362.789062 275.761719 363.238281 276.59375 363.765625 277.382812 C 364.292969 278.171875 364.894531 278.90625 365.566406 279.578125 C 366.238281 280.25 366.96875 280.847656 367.757812 281.375 C 368.546875 281.90625 369.382812 282.351562 370.257812 282.714844 C 371.136719 283.078125 372.042969 283.355469 372.972656 283.539062 C 373.90625 283.726562 374.847656 283.820312 375.796875 283.820312 L 385.835938 283.820312 C 386.785156 283.820312 387.726562 283.726562 388.660156 283.539062 C 389.589844 283.355469 390.496094 283.078125 391.375 282.714844 C 392.253906 282.351562 393.085938 281.90625 393.875 281.375 C 394.664062 280.847656 395.398438 280.25 396.070312 279.578125 C 396.742188 278.90625 397.339844 278.171875 397.867188 277.382812 C 398.398438 276.59375 398.84375 275.761719 399.207031 274.882812 C 399.570312 274.003906 399.847656 273.101562 400.03125 272.167969 C 400.21875 271.234375 400.3125 270.296875 400.3125 269.34375 L 400.3125 255.960938 L 418.035156 255.960938 L 418.035156 269.34375 C 418.035156 270.296875 418.128906 271.234375 418.316406 272.167969 C 418.503906 273.101562 418.777344 274.003906 419.140625 274.882812 C 419.507812 275.761719 419.953125 276.59375 420.480469 277.382812 C 421.007812 278.171875 421.609375 278.90625 422.28125 279.578125 C 422.953125 280.25 423.683594 280.847656 424.472656 281.375 C 425.261719 281.90625 426.097656 282.351562 426.976562 282.714844 C 427.851562 283.078125 428.757812 283.355469 429.6875 283.539062 C 430.621094 283.726562 431.5625 283.820312 432.511719 283.820312 L 442.550781 283.820312 C 443.5 283.820312 444.441406 283.726562 445.375 283.539062 C 446.304688 283.355469 447.210938 283.078125 448.089844 282.714844 C 448.964844 282.351562 449.800781 281.90625 450.589844 281.375 C 451.378906 280.847656 452.109375 280.25 452.78125 279.578125 C 453.453125 278.90625 454.054688 278.171875 454.582031 277.382812 C 455.109375 276.59375 455.558594 275.761719 455.921875 274.882812 C 456.285156 274.003906 456.558594 273.101562 456.746094 272.167969 C 456.933594 271.234375 457.027344 270.296875 457.027344 269.34375 L 457.027344 255.960938 Z M 341.972656 445.359375 C 342.230469 446.3125 342.535156 447.25 342.886719 448.171875 C 343.234375 449.09375 343.628906 450 344.070312 450.882812 C 344.507812 451.769531 344.988281 452.628906 345.511719 453.464844 C 346.035156 454.304688 346.597656 455.113281 347.199219 455.894531 C 347.800781 456.675781 348.4375 457.429688 349.113281 458.148438 C 349.789062 458.867188 350.5 459.550781 351.242188 460.203125 C 351.984375 460.851562 352.757812 461.464844 353.558594 462.039062 C 354.363281 462.613281 355.191406 463.148438 356.046875 463.644531 C 356.898438 464.136719 357.777344 464.585938 358.675781 464.996094 C 359.574219 465.402344 360.492188 465.765625 361.425781 466.082031 C 362.359375 466.402344 363.308594 466.671875 364.269531 466.898438 C 365.230469 467.125 366.199219 467.300781 367.179688 467.429688 C 368.15625 467.5625 369.140625 467.644531 370.125 467.675781 C 371.113281 467.710938 372.097656 467.699219 373.082031 467.636719 C 374.070312 467.574219 375.046875 467.460938 376.023438 467.304688 C 376.996094 467.144531 377.960938 466.941406 378.914062 466.6875 L 403.539062 460.089844 C 403.773438 460.027344 403.984375 459.921875 404.171875 459.777344 C 404.363281 459.628906 404.519531 459.453125 404.636719 459.246094 C 404.757812 459.039062 404.832031 458.816406 404.867188 458.578125 C 404.898438 458.339844 404.882812 458.105469 404.820312 457.875 L 390.144531 403.097656 C 390.082031 402.867188 389.976562 402.65625 389.832031 402.464844 C 389.683594 402.273438 389.507812 402.117188 389.300781 402 C 389.09375 401.878906 388.867188 401.804688 388.632812 401.773438 C 388.394531 401.742188 388.160156 401.753906 387.925781 401.816406 L 363.300781 408.417969 C 362.347656 408.675781 361.410156 408.980469 360.488281 409.328125 C 359.566406 409.679688 358.660156 410.074219 357.777344 410.511719 C 356.894531 410.949219 356.03125 411.429688 355.195312 411.953125 C 354.359375 412.476562 353.546875 413.039062 352.765625 413.640625 C 351.984375 414.242188 351.234375 414.882812 350.511719 415.558594 C 349.792969 416.234375 349.109375 416.941406 348.457031 417.683594 C 347.808594 418.425781 347.195312 419.199219 346.621094 420.003906 C 346.046875 420.804688 345.511719 421.632812 345.019531 422.488281 C 344.523438 423.34375 344.074219 424.21875 343.667969 425.121094 C 343.257812 426.019531 342.894531 426.933594 342.578125 427.871094 C 342.261719 428.804688 341.988281 429.75 341.761719 430.710938 C 341.539062 431.671875 341.359375 432.644531 341.230469 433.621094 C 341.097656 434.601562 341.015625 435.582031 340.984375 436.570312 C 340.949219 437.554688 340.964844 438.542969 341.027344 439.527344 C 341.089844 440.511719 341.199219 441.492188 341.355469 442.464844 C 341.515625 443.441406 341.722656 444.40625 341.972656 445.359375 Z M 512.316406 473.976562 C 511.425781 474.214844 510.519531 474.359375 509.597656 474.417969 C 508.679688 474.476562 507.761719 474.445312 506.847656 474.324219 C 505.933594 474.203125 505.039062 473.992188 504.164062 473.695312 C 503.292969 473.398438 502.457031 473.019531 501.65625 472.558594 C 500.859375 472.097656 500.113281 471.5625 499.417969 470.957031 C 498.722656 470.347656 498.097656 469.679688 497.535156 468.945312 C 496.96875 468.214844 496.484375 467.4375 496.074219 466.609375 C 495.664062 465.785156 495.339844 464.925781 495.097656 464.035156 L 465.246094 352.621094 C 465 351.726562 464.84375 350.820312 464.78125 349.894531 C 464.714844 348.972656 464.742188 348.050781 464.859375 347.132812 C 464.976562 346.210938 465.183594 345.3125 465.476562 344.433594 C 465.773438 343.558594 466.152344 342.714844 466.613281 341.914062 C 467.074219 341.109375 467.609375 340.359375 468.21875 339.660156 C 468.828125 338.964844 469.5 338.332031 470.234375 337.769531 C 470.96875 337.203125 471.75 336.714844 472.578125 336.304688 C 473.410156 335.894531 474.273438 335.570312 475.167969 335.332031 C 476.0625 335.089844 476.972656 334.941406 477.894531 334.882812 C 478.820312 334.820312 479.742188 334.851562 480.660156 334.976562 C 481.578125 335.097656 482.476562 335.308594 483.351562 335.609375 C 484.230469 335.90625 485.066406 336.289062 485.867188 336.753906 C 486.667969 337.21875 487.417969 337.761719 488.109375 338.371094 C 488.804688 338.984375 489.433594 339.660156 489.992188 340.398438 C 490.554688 341.136719 491.039062 341.921875 491.445312 342.753906 C 491.847656 343.585938 492.171875 344.449219 492.40625 345.347656 L 522.257812 456.761719 C 522.496094 457.652344 522.640625 458.558594 522.699219 459.480469 C 522.757812 460.398438 522.726562 461.316406 522.605469 462.230469 C 522.484375 463.144531 522.273438 464.039062 521.976562 464.914062 C 521.679688 465.785156 521.300781 466.621094 520.839844 467.421875 C 520.378906 468.21875 519.84375 468.964844 519.234375 469.660156 C 518.628906 470.355469 517.960938 470.980469 517.226562 471.546875 C 516.496094 472.109375 515.71875 472.59375 514.890625 473.003906 C 514.066406 473.414062 513.207031 473.738281 512.316406 473.980469 Z M 398.332031 401.03125 C 423.140625 390.667969 444.082031 377.363281 459.253906 362.878906 L 484.78125 458.148438 C 464.402344 453.1875 439.613281 452.140625 412.949219 455.570312 L 398.335938 401.03125 Z M 542.214844 427.121094 C 541.949219 427.050781 541.691406 426.953125 541.441406 426.832031 C 541.191406 426.707031 540.957031 426.5625 540.738281 426.394531 C 540.519531 426.226562 540.316406 426.039062 540.132812 425.832031 C 539.949219 425.621094 539.789062 425.398438 539.648438 425.160156 C 539.511719 424.917969 539.398438 424.667969 539.308594 424.40625 C 539.21875 424.144531 539.15625 423.875 539.117188 423.601562 C 539.082031 423.324219 539.074219 423.050781 539.089844 422.773438 C 539.109375 422.496094 539.152344 422.222656 539.226562 421.957031 C 539.296875 421.6875 539.394531 421.429688 539.515625 421.183594 C 539.636719 420.933594 539.785156 420.699219 539.953125 420.480469 C 540.121094 420.257812 540.308594 420.058594 540.519531 419.875 C 540.726562 419.691406 540.949219 419.53125 541.191406 419.394531 C 541.429688 419.253906 541.683594 419.140625 541.945312 419.050781 C 542.207031 418.964844 542.476562 418.902344 542.75 418.863281 C 543.023438 418.828125 543.300781 418.820312 543.578125 418.839844 C 543.851562 418.855469 544.125 418.902344 544.394531 418.972656 L 564.933594 424.476562 C 565.203125 424.546875 565.460938 424.644531 565.707031 424.769531 C 565.957031 424.890625 566.191406 425.035156 566.410156 425.203125 C 566.628906 425.371094 566.828125 425.5625 567.011719 425.769531 C 567.195312 425.976562 567.355469 426.203125 567.492188 426.441406 C 567.632812 426.679688 567.746094 426.929688 567.835938 427.195312 C 567.921875 427.457031 567.988281 427.722656 568.023438 427.996094 C 568.058594 428.273438 568.066406 428.546875 568.050781 428.824219 C 568.03125 429.101562 567.988281 429.371094 567.917969 429.640625 C 567.84375 429.90625 567.746094 430.164062 567.625 430.414062 C 567.503906 430.660156 567.359375 430.894531 567.191406 431.113281 C 567.023438 431.335938 566.832031 431.535156 566.625 431.71875 C 566.417969 431.902344 566.195312 432.0625 565.957031 432.199219 C 565.714844 432.339844 565.464844 432.453125 565.203125 432.542969 C 564.941406 432.632812 564.671875 432.695312 564.398438 432.730469 C 564.125 432.769531 563.847656 432.777344 563.574219 432.761719 C 563.296875 432.742188 563.023438 432.699219 562.757812 432.628906 L 542.214844 427.125 Z M 530.472656 367 L 545.511719 351.964844 C 545.707031 351.769531 545.882812 351.554688 546.035156 351.324219 C 546.1875 351.09375 546.320312 350.851562 546.425781 350.59375 C 546.53125 350.335938 546.613281 350.074219 546.664062 349.800781 C 546.71875 349.53125 546.746094 349.253906 546.746094 348.976562 C 546.746094 348.699219 546.71875 348.425781 546.664062 348.15625 C 546.613281 347.882812 546.53125 347.617188 546.425781 347.363281 C 546.320312 347.105469 546.1875 346.863281 546.035156 346.632812 C 545.882812 346.402344 545.707031 346.1875 545.511719 345.992188 C 545.3125 345.796875 545.101562 345.621094 544.871094 345.46875 C 544.640625 345.3125 544.394531 345.183594 544.140625 345.078125 C 543.882812 344.972656 543.621094 344.890625 543.347656 344.835938 C 543.074219 344.78125 542.800781 344.753906 542.523438 344.753906 C 542.246094 344.753906 541.972656 344.78125 541.699219 344.835938 C 541.429688 344.890625 541.164062 344.972656 540.910156 345.078125 C 540.652344 345.183594 540.410156 345.3125 540.179688 345.46875 C 539.949219 345.621094 539.734375 345.796875 539.539062 345.992188 L 524.503906 361.027344 C 524.304688 361.226562 524.132812 361.4375 523.976562 361.667969 C 523.824219 361.898438 523.695312 362.144531 523.589844 362.398438 C 523.484375 362.65625 523.402344 362.917969 523.351562 363.191406 C 523.296875 363.460938 523.269531 363.738281 523.269531 364.015625 C 523.269531 364.289062 523.296875 364.566406 523.351562 364.835938 C 523.40625 365.109375 523.484375 365.371094 523.589844 365.628906 C 523.699219 365.882812 523.828125 366.128906 523.980469 366.355469 C 524.136719 366.585938 524.308594 366.800781 524.507812 366.996094 C 524.703125 367.191406 524.914062 367.367188 525.144531 367.519531 C 525.375 367.675781 525.617188 367.804688 525.875 367.910156 C 526.128906 368.015625 526.394531 368.097656 526.667969 368.152344 C 526.9375 368.207031 527.210938 368.234375 527.488281 368.234375 C 527.765625 368.234375 528.039062 368.207031 528.3125 368.152344 C 528.585938 368.097656 528.847656 368.019531 529.105469 367.914062 C 529.359375 367.808594 529.601562 367.679688 529.832031 367.523438 C 530.0625 367.371094 530.277344 367.195312 530.472656 367 Z M 549.375 394.148438 C 549.109375 394.222656 548.835938 394.265625 548.558594 394.285156 C 548.285156 394.300781 548.007812 394.292969 547.734375 394.257812 C 547.460938 394.21875 547.191406 394.15625 546.929688 394.066406 C 546.667969 393.980469 546.414062 393.863281 546.175781 393.726562 C 545.9375 393.585938 545.710938 393.425781 545.503906 393.246094 C 545.296875 393.0625 545.109375 392.859375 544.941406 392.640625 C 544.769531 392.421875 544.625 392.1875 544.503906 391.9375 C 544.382812 391.691406 544.285156 391.433594 544.214844 391.164062 C 544.140625 390.898438 544.097656 390.625 544.078125 390.347656 C 544.0625 390.074219 544.070312 389.796875 544.105469 389.523438 C 544.144531 389.25 544.207031 388.980469 544.296875 388.71875 C 544.382812 388.457031 544.5 388.203125 544.636719 387.964844 C 544.773438 387.726562 544.9375 387.5 545.117188 387.292969 C 545.300781 387.085938 545.503906 386.898438 545.722656 386.730469 C 545.941406 386.5625 546.175781 386.414062 546.425781 386.292969 C 546.671875 386.171875 546.929688 386.074219 547.199219 386.003906 L 566.671875 380.785156 C 566.941406 380.710938 567.214844 380.660156 567.492188 380.640625 C 567.769531 380.621094 568.046875 380.625 568.324219 380.660156 C 568.601562 380.695312 568.871094 380.757812 569.136719 380.84375 C 569.402344 380.933594 569.65625 381.046875 569.898438 381.183594 C 570.140625 381.320312 570.367188 381.480469 570.574219 381.664062 C 570.785156 381.847656 570.976562 382.050781 571.148438 382.269531 C 571.316406 382.492188 571.464844 382.726562 571.585938 382.976562 C 571.710938 383.226562 571.808594 383.488281 571.882812 383.757812 C 571.953125 384.027344 572 384.300781 572.015625 384.578125 C 572.035156 384.855469 572.023438 385.132812 571.984375 385.410156 C 571.949219 385.6875 571.882812 385.957031 571.792969 386.222656 C 571.703125 386.484375 571.585938 386.738281 571.445312 386.976562 C 571.304688 387.21875 571.140625 387.441406 570.957031 387.652344 C 570.769531 387.859375 570.566406 388.046875 570.34375 388.214844 C 570.121094 388.382812 569.882812 388.527344 569.632812 388.648438 C 569.378906 388.769531 569.121094 388.863281 568.847656 388.933594 Z M 511.46875 383.863281 L 519.507812 413.867188 C 520.234375 413.40625 520.917969 412.890625 521.5625 412.320312 C 522.207031 411.746094 522.800781 411.128906 523.347656 410.464844 C 523.894531 409.800781 524.382812 409.09375 524.820312 408.351562 C 525.253906 407.609375 525.625 406.835938 525.9375 406.035156 C 526.25 405.234375 526.496094 404.410156 526.679688 403.570312 C 526.859375 402.730469 526.976562 401.878906 527.023438 401.019531 C 527.070312 400.160156 527.046875 399.304688 526.957031 398.449219 C 526.871094 397.589844 526.714844 396.746094 526.492188 395.917969 C 526.269531 395.085938 525.980469 394.277344 525.628906 393.492188 C 525.28125 392.707031 524.871094 391.953125 524.398438 391.230469 C 523.929688 390.511719 523.40625 389.832031 522.828125 389.195312 C 522.25 388.558594 521.625 387.96875 520.953125 387.429688 C 520.28125 386.890625 519.574219 386.410156 518.824219 385.984375 C 518.078125 385.558594 517.300781 385.191406 516.496094 384.890625 C 515.691406 384.585938 514.867188 384.347656 514.023438 384.175781 C 513.179688 384.003906 512.328125 383.898438 511.46875 383.859375 Z M 319.082031 236.175781 C 318.6875 236.175781 318.292969 236.214844 317.90625 236.292969 C 317.519531 236.371094 317.140625 236.484375 316.777344 236.636719 C 316.410156 236.789062 316.0625 236.976562 315.734375 237.195312 C 315.40625 237.414062 315.101562 237.664062 314.820312 237.945312 C 314.539062 238.226562 314.289062 238.527344 314.070312 238.859375 C 313.851562 239.1875 313.664062 239.535156 313.511719 239.898438 C 313.359375 240.265625 313.246094 240.644531 313.167969 241.03125 C 313.089844 241.417969 313.050781 241.8125 313.050781 242.207031 L 313.050781 269.34375 C 313.050781 269.742188 313.089844 270.132812 313.167969 270.519531 C 313.246094 270.910156 313.359375 271.285156 313.511719 271.652344 C 313.664062 272.015625 313.851562 272.363281 314.070312 272.691406 C 314.289062 273.023438 314.539062 273.328125 314.820312 273.605469 C 315.101562 273.886719 315.40625 274.136719 315.734375 274.355469 C 316.0625 274.578125 316.410156 274.761719 316.777344 274.914062 C 317.140625 275.066406 317.519531 275.179688 317.90625 275.257812 C 318.292969 275.335938 318.6875 275.375 319.082031 275.375 L 329.121094 275.375 C 329.515625 275.375 329.910156 275.335938 330.296875 275.257812 C 330.683594 275.179688 331.0625 275.066406 331.425781 274.914062 C 331.792969 274.761719 332.140625 274.578125 332.46875 274.355469 C 332.796875 274.136719 333.101562 273.886719 333.382812 273.605469 C 333.664062 273.328125 333.914062 273.023438 334.132812 272.691406 C 334.351562 272.363281 334.539062 272.015625 334.691406 271.652344 C 334.84375 271.285156 334.957031 270.910156 335.035156 270.519531 C 335.113281 270.132812 335.152344 269.742188 335.152344 269.34375 L 335.152344 242.207031 C 335.152344 241.8125 335.113281 241.417969 335.035156 241.03125 C 334.957031 240.644531 334.84375 240.265625 334.691406 239.898438 C 334.539062 239.535156 334.351562 239.1875 334.132812 238.859375 C 333.914062 238.53125 333.664062 238.226562 333.382812 237.945312 C 333.101562 237.664062 332.796875 237.414062 332.46875 237.195312 C 332.140625 236.976562 331.792969 236.789062 331.425781 236.636719 C 331.0625 236.484375 330.683594 236.371094 330.296875 236.292969 C 329.910156 236.214844 329.515625 236.175781 329.121094 236.175781 Z M 432.507812 236.175781 C 432.113281 236.175781 431.722656 236.214844 431.332031 236.292969 C 430.945312 236.371094 430.570312 236.484375 430.203125 236.636719 C 429.835938 236.789062 429.488281 236.976562 429.160156 237.195312 C 428.832031 237.414062 428.527344 237.664062 428.246094 237.945312 C 427.96875 238.226562 427.71875 238.527344 427.496094 238.859375 C 427.277344 239.1875 427.089844 239.535156 426.941406 239.898438 C 426.789062 240.265625 426.671875 240.644531 426.59375 241.03125 C 426.519531 241.417969 426.476562 241.8125 426.476562 242.207031 L 426.476562 269.34375 C 426.476562 269.742188 426.519531 270.132812 426.59375 270.519531 C 426.671875 270.910156 426.789062 271.285156 426.941406 271.652344 C 427.089844 272.015625 427.277344 272.363281 427.496094 272.691406 C 427.71875 273.023438 427.96875 273.328125 428.246094 273.605469 C 428.527344 273.886719 428.832031 274.136719 429.160156 274.355469 C 429.488281 274.578125 429.835938 274.761719 430.203125 274.914062 C 430.570312 275.066406 430.945312 275.179688 431.332031 275.257812 C 431.722656 275.335938 432.113281 275.375 432.507812 275.375 L 442.546875 275.375 C 442.945312 275.375 443.335938 275.335938 443.722656 275.257812 C 444.113281 275.179688 444.488281 275.066406 444.855469 274.914062 C 445.21875 274.761719 445.566406 274.578125 445.894531 274.355469 C 446.226562 274.136719 446.53125 273.886719 446.808594 273.605469 C 447.089844 273.328125 447.339844 273.023438 447.558594 272.691406 C 447.78125 272.363281 447.964844 272.015625 448.117188 271.652344 C 448.269531 271.285156 448.382812 270.910156 448.460938 270.519531 C 448.539062 270.132812 448.578125 269.742188 448.578125 269.34375 L 448.578125 242.207031 C 448.578125 241.8125 448.539062 241.417969 448.460938 241.03125 C 448.382812 240.644531 448.269531 240.265625 448.117188 239.898438 C 447.964844 239.535156 447.78125 239.1875 447.558594 238.859375 C 447.339844 238.527344 447.089844 238.226562 446.808594 237.945312 C 446.53125 237.664062 446.226562 237.414062 445.894531 237.195312 C 445.566406 236.976562 445.21875 236.789062 444.855469 236.636719 C 444.488281 236.484375 444.113281 236.371094 443.722656 236.292969 C 443.335938 236.214844 442.945312 236.175781 442.546875 236.175781 Z M 375.796875 236.175781 C 375.398438 236.175781 375.007812 236.214844 374.621094 236.292969 C 374.230469 236.371094 373.855469 236.484375 373.488281 236.636719 C 373.125 236.789062 372.777344 236.976562 372.449219 237.195312 C 372.117188 237.414062 371.8125 237.664062 371.535156 237.945312 C 371.253906 238.226562 371.003906 238.527344 370.785156 238.859375 C 370.5625 239.1875 370.378906 239.535156 370.226562 239.898438 C 370.074219 240.265625 369.960938 240.644531 369.882812 241.03125 C 369.804688 241.417969 369.765625 241.8125 369.765625 242.207031 L 369.765625 269.34375 C 369.765625 269.742188 369.804688 270.132812 369.882812 270.519531 C 369.960938 270.910156 370.074219 271.285156 370.226562 271.652344 C 370.378906 272.015625 370.5625 272.363281 370.785156 272.691406 C 371.003906 273.023438 371.253906 273.328125 371.535156 273.605469 C 371.8125 273.886719 372.117188 274.136719 372.449219 274.355469 C 372.777344 274.578125 373.125 274.761719 373.488281 274.914062 C 373.855469 275.066406 374.230469 275.179688 374.621094 275.257812 C 375.007812 275.335938 375.398438 275.375 375.796875 275.375 L 385.835938 275.375 C 386.234375 275.375 386.625 275.335938 387.011719 275.257812 C 387.402344 275.179688 387.777344 275.066406 388.144531 274.914062 C 388.507812 274.761719 388.855469 274.578125 389.183594 274.355469 C 389.515625 274.136719 389.820312 273.886719 390.097656 273.605469 C 390.378906 273.328125 390.628906 273.023438 390.847656 272.691406 C 391.070312 272.363281 391.253906 272.015625 391.40625 271.652344 C 391.558594 271.285156 391.671875 270.910156 391.75 270.519531 C 391.828125 270.132812 391.867188 269.742188 391.867188 269.34375 L 391.867188 242.207031 C 391.867188 241.8125 391.828125 241.417969 391.75 241.03125 C 391.671875 240.644531 391.558594 240.265625 391.40625 239.898438 C 391.253906 239.535156 391.070312 239.1875 390.847656 238.859375 C 390.628906 238.527344 390.378906 238.226562 390.097656 237.945312 C 389.820312 237.664062 389.515625 237.414062 389.183594 237.195312 C 388.855469 236.976562 388.507812 236.789062 388.144531 236.636719 C 387.777344 236.484375 387.402344 236.371094 387.011719 236.292969 C 386.625 236.214844 386.234375 236.175781 385.835938 236.175781 Z M 408.28125 467.171875 L 426.4375 513.015625 C 426.578125 513.355469 426.683594 513.710938 426.757812 514.074219 C 426.832031 514.433594 426.875 514.800781 426.878906 515.171875 C 426.886719 515.542969 426.859375 515.910156 426.796875 516.273438 C 426.734375 516.640625 426.640625 516.996094 426.511719 517.34375 C 426.382812 517.691406 426.222656 518.023438 426.035156 518.339844 C 425.84375 518.660156 425.625 518.957031 425.382812 519.234375 C 425.136719 519.511719 424.867188 519.765625 424.578125 519.992188 C 424.285156 520.21875 423.972656 520.417969 423.644531 520.589844 L 415.019531 525.023438 C 414.652344 525.214844 414.269531 525.367188 413.871094 525.476562 C 413.472656 525.589844 413.066406 525.65625 412.65625 525.683594 C 412.242188 525.710938 411.832031 525.695312 411.421875 525.632812 C 411.011719 525.574219 410.613281 525.472656 410.226562 525.332031 C 409.835938 525.1875 409.46875 525.007812 409.117188 524.789062 C 408.765625 524.570312 408.441406 524.316406 408.144531 524.027344 C 407.847656 523.742188 407.582031 523.425781 407.351562 523.082031 C 407.117188 522.742188 406.925781 522.378906 406.769531 521.996094 L 387.277344 473.191406 L 405.726562 468.242188 C 406.625 468.003906 407.476562 467.644531 408.28125 467.167969 Z M 390.875 355.90625 L 390.875 376.757812 L 411.726562 376.757812 L 411.726562 355.90625 Z M 308.929688 314.933594 L 308.929688 335.785156 L 329.78125 335.785156 L 329.78125 314.933594 Z M 308.929688 396.875 L 308.929688 417.730469 L 329.78125 417.730469 L 329.78125 396.875 Z M 349.902344 355.90625 L 349.902344 376.757812 L 370.757812 376.757812 L 370.757812 355.90625 Z M 308.929688 355.90625 L 308.929688 376.757812 L 329.78125 376.757812 L 329.78125 355.90625 Z M 431.847656 314.933594 L 431.847656 335.785156 L 452.699219 335.785156 L 452.699219 314.933594 Z M 390.875 314.933594 L 390.875 335.785156 L 411.726562 335.785156 L 411.726562 314.933594 Z M 349.902344 314.933594 L 349.902344 335.785156 L 370.757812 335.785156 L 370.757812 314.933594 Z M 483.398438 298.289062 L 483.398438 326.976562 C 479.910156 326.230469 476.445312 326.320312 473 327.246094 C 472.316406 327.433594 471.644531 327.652344 470.984375 327.898438 C 470.324219 328.148438 469.675781 328.429688 469.039062 328.738281 C 468.402344 329.050781 467.785156 329.390625 467.179688 329.757812 C 466.578125 330.128906 465.992188 330.523438 465.425781 330.945312 C 464.859375 331.371094 464.3125 331.820312 463.789062 332.292969 C 463.265625 332.769531 462.761719 333.265625 462.285156 333.789062 C 461.808594 334.308594 461.355469 334.851562 460.929688 335.414062 C 460.5 335.980469 460.101562 336.5625 459.730469 337.164062 C 459.359375 337.765625 459.015625 338.382812 458.699219 339.015625 C 458.386719 339.648438 458.101562 340.296875 457.847656 340.957031 C 457.59375 341.617188 457.371094 342.285156 457.183594 342.96875 C 456.992188 343.648438 456.832031 344.335938 456.707031 345.035156 C 456.582031 345.730469 456.488281 346.429688 456.425781 347.132812 C 456.367188 347.839844 456.339844 348.542969 456.34375 349.25 C 456.351562 349.960938 456.390625 350.664062 456.460938 351.367188 C 456.53125 352.070312 456.636719 352.769531 456.773438 353.464844 C 439.539062 371.308594 415.253906 385.054688 392.632812 394.242188 C 391.550781 393.75 390.421875 393.449219 389.238281 393.351562 C 388.054688 393.25 386.890625 393.355469 385.742188 393.660156 L 361.117188 400.257812 C 343.65625 404.9375 332.113281 421.207031 332.53125 438.59375 L 295.429688 438.59375 C 294.867188 438.59375 294.304688 438.5625 293.746094 438.507812 C 293.183594 438.449219 292.628906 438.367188 292.078125 438.253906 C 291.523438 438.144531 290.980469 438.007812 290.441406 437.84375 C 289.902344 437.675781 289.375 437.488281 288.855469 437.269531 C 288.335938 437.054688 287.828125 436.8125 287.332031 436.546875 C 286.835938 436.28125 286.351562 435.992188 285.886719 435.679688 C 285.417969 435.367188 284.964844 435.03125 284.53125 434.675781 C 284.097656 434.316406 283.679688 433.941406 283.28125 433.542969 C 282.882812 433.144531 282.507812 432.726562 282.148438 432.292969 C 281.792969 431.859375 281.457031 431.40625 281.144531 430.9375 C 280.832031 430.472656 280.539062 429.988281 280.273438 429.492188 C 280.007812 428.996094 279.769531 428.488281 279.550781 427.96875 C 279.335938 427.449219 279.144531 426.921875 278.980469 426.382812 C 278.816406 425.84375 278.679688 425.300781 278.566406 424.746094 C 278.457031 424.195312 278.371094 423.640625 278.316406 423.078125 C 278.257812 422.519531 278.230469 421.957031 278.226562 421.394531 L 278.226562 298.289062 Z M 483.398438 298.289062 " fill-opacity="1" fill-rule="evenodd"/></g></svg>