<svg xmlns="http://www.w3.org/2000/svg" xmlns:xlink="http://www.w3.org/1999/xlink" width="1080" zoomAndPan="magnify" viewBox="0 0 810 809.999993" height="1080" preserveAspectRatio="xMidYMid meet" version="1.0"><defs><clipPath id="5df1ab7ad8"><path d="M 269.4375 283.332031 L 539 283.332031 L 539 526.332031 L 269.4375 526.332031 Z M 269.4375 283.332031 " clip-rule="nonzero"/></clipPath></defs><g clip-path="url(#5df1ab7ad8)"><path fill="#1685bb" d="M 480.664062 526.65625 L 299.4375 526.65625 C 296.429688 526.65625 293.976562 524.203125 293.976562 521.191406 L 293.976562 397.699219 L 450.859375 397.699219 C 455.011719 397.699219 458.878906 396.445312 462.105469 394.296875 C 453.042969 409.988281 443.980469 425.683594 434.921875 441.378906 L 433.78125 443.351562 L 429.835938 478.308594 C 429.230469 483.652344 431.773438 488.792969 436.382812 491.558594 C 440.992188 494.316406 446.730469 494.136719 451.152344 491.089844 L 480.761719 470.691406 L 481.996094 468.554688 L 486.128906 461.398438 L 486.128906 521.195312 C 486.128906 524.203125 483.675781 526.65625 480.664062 526.65625 Z M 507.929688 336.777344 C 512.402344 329.035156 522.390625 326.359375 530.132812 330.828125 C 537.871094 335.296875 540.550781 345.289062 536.078125 353.027344 L 534.570312 355.644531 L 506.421875 339.390625 Z M 529.105469 365.105469 L 500.957031 348.851562 L 447.25 441.878906 L 475.398438 458.132812 Z M 467.796875 466.355469 L 443.75 452.472656 L 440.691406 479.535156 C 440.570312 480.625 441.0625 481.621094 442.003906 482.183594 C 442.941406 482.746094 444.054688 482.710938 444.957031 482.089844 Z M 278.863281 316.113281 L 450.859375 316.113281 C 456.03125 316.113281 460.265625 320.34375 460.265625 325.519531 L 460.265625 377.367188 C 460.265625 382.542969 456.03125 386.773438 450.859375 386.773438 L 278.863281 386.773438 C 273.691406 386.773438 269.457031 382.542969 269.457031 377.367188 L 269.457031 325.519531 C 269.457031 320.34375 273.691406 316.113281 278.863281 316.113281 Z M 315.207031 327.890625 L 292.585938 327.890625 C 289.570312 327.890625 287.125 330.335938 287.125 333.355469 L 287.125 369.535156 C 287.125 372.550781 289.570312 374.996094 292.585938 374.996094 L 315.207031 374.996094 C 318.222656 374.996094 320.667969 372.550781 320.667969 369.535156 C 320.667969 366.515625 318.222656 364.070312 315.207031 364.070312 L 298.050781 364.070312 L 298.050781 356.90625 L 308.351562 356.90625 C 311.367188 356.90625 313.8125 354.460938 313.8125 351.445312 C 313.8125 348.425781 311.367188 345.980469 308.351562 345.980469 L 298.050781 345.980469 L 298.050781 338.816406 L 315.207031 338.816406 C 318.222656 338.816406 320.667969 336.371094 320.667969 333.355469 C 320.667969 330.335938 318.222656 327.890625 315.207031 327.890625 Z M 332.878906 372.542969 L 340.304688 361.320312 L 347.730469 372.542969 C 349.390625 375.054688 352.773438 375.742188 355.285156 374.078125 C 357.792969 372.417969 358.480469 369.035156 356.820312 366.523438 L 346.839844 351.445312 L 356.820312 336.363281 C 358.480469 333.851562 357.792969 330.46875 355.285156 328.808594 C 352.773438 327.148438 349.390625 327.835938 347.730469 330.34375 L 340.304688 341.566406 L 332.878906 330.34375 C 331.214844 327.835938 327.835938 327.148438 325.324219 328.808594 C 322.8125 330.46875 322.125 333.851562 323.789062 336.363281 L 333.765625 351.445312 L 323.789062 366.523438 C 322.125 369.035156 322.8125 372.417969 325.324219 374.078125 C 327.835938 375.742188 331.214844 375.054688 332.878906 372.542969 Z M 363.609375 358.523438 L 360.28125 367.675781 C 359.253906 370.507812 360.714844 373.628906 363.546875 374.65625 C 366.375 375.679688 369.5 374.21875 370.523438 371.390625 L 372.683594 365.449219 L 384.445312 365.449219 L 386.605469 371.390625 C 387.632812 374.21875 390.753906 375.679688 393.582031 374.65625 C 396.410156 373.628906 397.875 370.503906 396.847656 367.675781 L 393.519531 358.519531 C 393.441406 358.246094 393.34375 357.980469 393.230469 357.726562 L 383.6875 331.496094 C 382.660156 328.667969 379.535156 327.207031 376.707031 328.230469 C 375.128906 328.804688 373.976562 330.03125 373.441406 331.496094 L 363.898438 357.726562 C 363.785156 357.980469 363.6875 358.246094 363.609375 358.523438 Z M 376.660156 354.523438 L 380.46875 354.523438 L 378.566406 349.289062 Z M 410.316406 369.535156 L 410.316406 345.726562 L 417.324219 352.140625 C 419.421875 354.054688 422.613281 354.023438 424.667969 352.140625 L 431.675781 345.726562 L 431.675781 369.535156 C 431.675781 372.550781 434.121094 374.996094 437.136719 374.996094 C 440.152344 374.996094 442.601562 372.550781 442.601562 369.535156 L 442.601562 333.355469 L 442.574219 333.355469 C 442.574219 332.042969 442.105469 330.726562 441.148438 329.683594 C 439.121094 327.46875 435.683594 327.316406 433.46875 329.34375 L 420.996094 340.753906 L 408.914062 329.695312 C 407.914062 328.589844 406.464844 327.890625 404.855469 327.890625 C 401.839844 327.890625 399.390625 330.335938 399.390625 333.355469 L 399.390625 369.535156 C 399.390625 372.550781 401.839844 374.996094 404.855469 374.996094 C 407.871094 374.996094 410.316406 372.550781 410.316406 369.535156 Z M 293.976562 305.1875 L 293.976562 288.796875 C 293.976562 285.789062 296.429688 283.335938 299.4375 283.335938 L 480.664062 283.335938 C 483.675781 283.335938 486.128906 285.789062 486.128906 288.796875 L 486.128906 352.6875 L 471.152344 378.625 C 471.175781 378.210938 471.191406 377.789062 471.191406 377.367188 L 471.191406 325.519531 C 471.191406 314.316406 462.0625 305.1875 450.859375 305.1875 Z M 333.09375 431.214844 L 418.078125 431.214844 C 421.09375 431.214844 423.539062 428.765625 423.539062 425.75 C 423.539062 422.734375 421.09375 420.285156 418.078125 420.285156 L 333.09375 420.285156 C 330.078125 420.285156 327.632812 422.734375 327.632812 425.75 C 327.632812 428.765625 330.078125 431.214844 333.09375 431.214844 Z M 333.09375 490.953125 L 418.078125 490.953125 C 421.09375 490.953125 423.539062 488.507812 423.539062 485.492188 C 423.539062 482.476562 421.09375 480.027344 418.078125 480.027344 L 333.09375 480.027344 C 330.078125 480.027344 327.632812 482.476562 327.632812 485.492188 C 327.632812 488.507812 330.078125 490.953125 333.09375 490.953125 Z M 333.09375 461.085938 L 418.078125 461.085938 C 421.09375 461.085938 423.539062 458.636719 423.539062 455.621094 C 423.539062 452.605469 421.09375 450.15625 418.078125 450.15625 L 333.09375 450.15625 C 330.078125 450.15625 327.632812 452.605469 327.632812 455.621094 C 327.632812 458.636719 330.078125 461.085938 333.09375 461.085938 Z M 333.09375 461.085938 " fill-opacity="1" fill-rule="evenodd"/></g></svg>