<svg xmlns="http://www.w3.org/2000/svg" xmlns:xlink="http://www.w3.org/1999/xlink" width="1080" zoomAndPan="magnify" viewBox="0 0 810 809.999993" height="1080" preserveAspectRatio="xMidYMid meet" version="1.0"><defs><clipPath id="a1a61ff5ae"><path d="M 287.726562 405 L 316 405 L 316 435 L 287.726562 435 Z M 287.726562 405 " clip-rule="nonzero"/></clipPath><clipPath id="9601644d60"><path d="M 493 398 L 522.476562 398 L 522.476562 428 L 493 428 Z M 493 398 " clip-rule="nonzero"/></clipPath></defs><path fill="#1685bb" d="M 393.425781 315.695312 C 340.785156 321.226562 301.050781 364.53125 298.492188 415.863281 C 298.433594 416.933594 299.386719 417.824219 300.457031 417.707031 C 301.347656 417.589844 302.003906 416.875 302.0625 415.980469 C 304.558594 366.433594 342.925781 324.558594 393.84375 319.265625 C 444.761719 313.96875 490.917969 346.984375 503.648438 394.925781 C 503.886719 395.757812 504.660156 396.351562 505.550781 396.234375 C 506.621094 396.113281 507.394531 395.042969 507.097656 394.03125 C 493.890625 344.304688 446.070312 310.164062 393.425781 315.695312 Z M 508.644531 418.777344 C 507.75 418.898438 507.039062 419.671875 507.039062 420.5625 C 507.394531 472.667969 468.015625 517.636719 415.136719 523.167969 C 362.257812 528.703125 314.433594 492.832031 304.023438 441.796875 C 303.847656 440.90625 303.011719 440.25 302.0625 440.371094 C 300.992188 440.488281 300.277344 441.441406 300.515625 442.511719 C 311.28125 495.332031 360.769531 532.507812 415.496094 526.738281 C 470.21875 521.027344 510.964844 474.453125 510.546875 420.503906 C 510.605469 419.492188 509.65625 418.660156 508.644531 418.777344 Z M 508.644531 418.777344 " fill-opacity="1" fill-rule="nonzero"/><g clip-path="url(#a1a61ff5ae)"><path fill="#1685bb" d="M 287.726562 405.039062 L 294.449219 432.933594 C 294.921875 435.015625 297.660156 435.550781 298.910156 433.765625 L 315.921875 409.378906 " fill-opacity="1" fill-rule="nonzero"/></g><g clip-path="url(#9601644d60)"><path fill="#1685bb" d="M 522.265625 427.757812 L 511.558594 400.339844 C 510.90625 398.613281 508.464844 398.496094 507.632812 400.160156 L 493.773438 427.222656 " fill-opacity="1" fill-rule="nonzero"/></g><path fill="#1685bb" d="M 487.945312 421.214844 C 487.945312 422.582031 487.910156 423.945312 487.84375 425.308594 C 487.777344 426.671875 487.675781 428.03125 487.542969 429.390625 C 487.410156 430.75 487.242188 432.101562 487.042969 433.453125 C 486.839844 434.804688 486.609375 436.148438 486.339844 437.484375 C 486.074219 438.824219 485.777344 440.15625 485.445312 441.480469 C 485.113281 442.804688 484.75 444.117188 484.351562 445.425781 C 483.957031 446.730469 483.527344 448.027344 483.070312 449.3125 C 482.609375 450.597656 482.117188 451.871094 481.597656 453.128906 C 481.074219 454.390625 480.519531 455.636719 479.9375 456.871094 C 479.355469 458.105469 478.742188 459.324219 478.097656 460.527344 C 477.453125 461.730469 476.78125 462.917969 476.078125 464.089844 C 475.378906 465.261719 474.648438 466.414062 473.890625 467.546875 C 473.132812 468.683594 472.347656 469.796875 471.53125 470.894531 C 470.71875 471.992188 469.878906 473.066406 469.015625 474.121094 C 468.148438 475.175781 467.257812 476.210938 466.339844 477.222656 C 465.425781 478.230469 464.484375 479.21875 463.519531 480.183594 C 462.554688 481.148438 461.566406 482.089844 460.554688 483.007812 C 459.542969 483.925781 458.507812 484.816406 457.453125 485.679688 C 456.398438 486.546875 455.324219 487.386719 454.226562 488.199219 C 453.132812 489.011719 452.015625 489.796875 450.882812 490.554688 C 449.746094 491.316406 448.59375 492.042969 447.421875 492.746094 C 446.253906 493.449219 445.066406 494.121094 443.863281 494.765625 C 442.65625 495.40625 441.4375 496.019531 440.207031 496.605469 C 438.972656 497.1875 437.722656 497.742188 436.464844 498.261719 C 435.203125 498.785156 433.929688 499.277344 432.644531 499.734375 C 431.359375 500.195312 430.0625 500.625 428.757812 501.019531 C 427.453125 501.417969 426.136719 501.78125 424.8125 502.113281 C 423.488281 502.441406 422.15625 502.742188 420.820312 503.007812 C 419.480469 503.273438 418.136719 503.507812 416.785156 503.707031 C 415.4375 503.910156 414.082031 504.074219 412.722656 504.210938 C 411.367188 504.34375 410.003906 504.445312 408.640625 504.511719 C 407.277344 504.578125 405.914062 504.609375 404.550781 504.609375 C 403.183594 504.609375 401.820312 504.578125 400.457031 504.511719 C 399.09375 504.445312 397.734375 504.34375 396.375 504.210938 C 395.015625 504.074219 393.664062 503.910156 392.3125 503.707031 C 390.964844 503.507812 389.617188 503.273438 388.28125 503.007812 C 386.941406 502.742188 385.609375 502.441406 384.285156 502.113281 C 382.960938 501.78125 381.648438 501.417969 380.339844 501.019531 C 379.035156 500.625 377.738281 500.195312 376.457031 499.734375 C 375.171875 499.277344 373.898438 498.785156 372.636719 498.261719 C 371.375 497.742188 370.128906 497.1875 368.894531 496.605469 C 367.660156 496.019531 366.441406 495.40625 365.238281 494.765625 C 364.035156 494.121094 362.847656 493.449219 361.675781 492.746094 C 360.507812 492.042969 359.351562 491.316406 358.21875 490.554688 C 357.082031 489.796875 355.96875 489.011719 354.871094 488.199219 C 353.777344 487.386719 352.699219 486.546875 351.644531 485.679688 C 350.589844 484.816406 349.558594 483.925781 348.546875 483.007812 C 347.535156 482.089844 346.546875 481.148438 345.582031 480.183594 C 344.617188 479.21875 343.675781 478.230469 342.757812 477.222656 C 341.84375 476.210938 340.949219 475.175781 340.085938 474.121094 C 339.21875 473.066406 338.378906 471.992188 337.566406 470.894531 C 336.753906 469.796875 335.96875 468.683594 335.210938 467.546875 C 334.453125 466.414062 333.722656 465.261719 333.019531 464.089844 C 332.320312 462.917969 331.644531 461.730469 331.003906 460.527344 C 330.359375 459.324219 329.746094 458.105469 329.164062 456.871094 C 328.578125 455.636719 328.027344 454.390625 327.503906 453.128906 C 326.980469 451.871094 326.488281 450.597656 326.03125 449.3125 C 325.570312 448.027344 325.144531 446.730469 324.746094 445.425781 C 324.351562 444.117188 323.988281 442.804688 323.65625 441.480469 C 323.324219 440.15625 323.023438 438.824219 322.757812 437.484375 C 322.492188 436.148438 322.257812 434.804688 322.058594 433.453125 C 321.859375 432.101562 321.691406 430.75 321.558594 429.390625 C 321.421875 428.03125 321.324219 426.671875 321.257812 425.308594 C 321.1875 423.945312 321.15625 422.582031 321.15625 421.214844 C 321.15625 419.851562 321.1875 418.488281 321.257812 417.125 C 321.324219 415.761719 321.421875 414.402344 321.558594 413.042969 C 321.691406 411.683594 321.859375 410.328125 322.058594 408.980469 C 322.257812 407.628906 322.492188 406.285156 322.757812 404.945312 C 323.023438 403.609375 323.324219 402.277344 323.65625 400.953125 C 323.988281 399.628906 324.351562 398.316406 324.746094 397.007812 C 325.144531 395.703125 325.570312 394.40625 326.03125 393.121094 C 326.488281 391.835938 326.980469 390.5625 327.503906 389.304688 C 328.027344 388.042969 328.578125 386.792969 329.164062 385.5625 C 329.746094 384.328125 330.359375 383.109375 331.003906 381.90625 C 331.644531 380.699219 332.320312 379.515625 333.019531 378.34375 C 333.722656 377.171875 334.453125 376.019531 335.210938 374.886719 C 335.96875 373.75 336.753906 372.636719 337.566406 371.539062 C 338.378906 370.441406 339.21875 369.367188 340.085938 368.3125 C 340.949219 367.257812 341.84375 366.222656 342.757812 365.210938 C 343.675781 364.199219 344.617188 363.214844 345.582031 362.246094 C 346.546875 361.28125 347.535156 360.34375 348.546875 359.425781 C 349.558594 358.507812 350.589844 357.617188 351.644531 356.75 C 352.699219 355.886719 353.777344 355.046875 354.871094 354.234375 C 355.96875 353.421875 357.082031 352.636719 358.21875 351.875 C 359.351562 351.117188 360.507812 350.386719 361.675781 349.6875 C 362.847656 348.984375 364.035156 348.3125 365.238281 347.667969 C 366.441406 347.027344 367.660156 346.414062 368.894531 345.828125 C 370.128906 345.246094 371.375 344.691406 372.636719 344.171875 C 373.898438 343.648438 375.171875 343.15625 376.457031 342.695312 C 377.738281 342.238281 379.035156 341.808594 380.339844 341.414062 C 381.648438 341.015625 382.960938 340.652344 384.285156 340.320312 C 385.609375 339.988281 386.941406 339.691406 388.28125 339.425781 C 389.617188 339.160156 390.964844 338.925781 392.3125 338.726562 C 393.664062 338.523438 395.015625 338.359375 396.375 338.222656 C 397.734375 338.089844 399.09375 337.988281 400.457031 337.921875 C 401.820312 337.855469 403.183594 337.820312 404.550781 337.820312 C 405.914062 337.820312 407.277344 337.855469 408.640625 337.921875 C 410.003906 337.988281 411.367188 338.089844 412.722656 338.222656 C 414.082031 338.359375 415.4375 338.523438 416.785156 338.726562 C 418.136719 338.925781 419.480469 339.160156 420.820312 339.425781 C 422.15625 339.691406 423.488281 339.988281 424.8125 340.320312 C 426.136719 340.652344 427.453125 341.015625 428.757812 341.414062 C 430.0625 341.808594 431.359375 342.238281 432.644531 342.695312 C 433.929688 343.15625 435.203125 343.648438 436.464844 344.171875 C 437.722656 344.691406 438.972656 345.246094 440.207031 345.828125 C 441.4375 346.414062 442.65625 347.027344 443.863281 347.667969 C 445.066406 348.3125 446.253906 348.984375 447.421875 349.6875 C 448.59375 350.386719 449.746094 351.117188 450.882812 351.875 C 452.015625 352.636719 453.132812 353.421875 454.226562 354.234375 C 455.324219 355.046875 456.398438 355.886719 457.453125 356.75 C 458.507812 357.617188 459.542969 358.507812 460.554688 359.425781 C 461.566406 360.34375 462.554688 361.28125 463.519531 362.246094 C 464.484375 363.214844 465.425781 364.199219 466.339844 365.210938 C 467.257812 366.222656 468.148438 367.257812 469.015625 368.3125 C 469.878906 369.367188 470.71875 370.441406 471.53125 371.539062 C 472.347656 372.636719 473.132812 373.75 473.890625 374.886719 C 474.648438 376.019531 475.378906 377.171875 476.078125 378.34375 C 476.78125 379.515625 477.453125 380.699219 478.097656 381.90625 C 478.742188 383.109375 479.355469 384.328125 479.9375 385.5625 C 480.519531 386.792969 481.074219 388.042969 481.597656 389.304688 C 482.117188 390.5625 482.609375 391.835938 483.070312 393.121094 C 483.527344 394.40625 483.957031 395.703125 484.351562 397.007812 C 484.75 398.316406 485.113281 399.628906 485.445312 400.953125 C 485.777344 402.277344 486.074219 403.609375 486.339844 404.945312 C 486.609375 406.285156 486.839844 407.628906 487.042969 408.980469 C 487.242188 410.328125 487.410156 411.683594 487.542969 413.042969 C 487.675781 414.402344 487.777344 415.761719 487.84375 417.125 C 487.910156 418.488281 487.945312 419.851562 487.945312 421.214844 Z M 487.945312 421.214844 " fill-opacity="1" fill-rule="nonzero"/><path fill="#ffffff" d="M 396.9375 468.863281 C 386.765625 468.207031 377.542969 466.125 369.21875 462.496094 C 368.085938 462.019531 367.550781 460.773438 367.847656 459.640625 L 372.609375 443.699219 C 373.023438 442.332031 374.570312 441.617188 375.878906 442.214844 C 379.152344 443.699219 382.660156 444.890625 386.347656 445.78125 C 389.976562 446.617188 393.367188 447.269531 396.519531 447.625 C 397.949219 447.804688 399.136719 446.675781 399.136719 445.246094 L 399.136719 428.769531 C 399.136719 427.699219 398.421875 426.75 397.351562 426.511719 L 396.875 426.390625 C 387.179688 423.714844 379.804688 419.609375 374.570312 414.199219 C 369.394531 408.785156 366.777344 402.359375 366.777344 394.984375 C 366.777344 386.835938 369.632812 380.113281 375.402344 374.9375 C 380.757812 370.121094 387.953125 367.148438 397.054688 366.015625 C 398.246094 365.898438 399.136719 364.886719 399.136719 363.695312 L 399.136719 354 C 399.136719 352.691406 400.207031 351.621094 401.515625 351.621094 L 409.488281 351.621094 C 410.796875 351.621094 411.867188 352.691406 411.867188 354 L 411.867188 363.636719 C 411.867188 364.828125 412.757812 365.839844 413.949219 366.015625 C 422.039062 366.910156 429.828125 368.992188 437.445312 372.203125 C 438.632812 372.679688 439.167969 374.046875 438.753906 375.238281 L 432.804688 390.582031 C 432.269531 391.890625 430.722656 392.488281 429.472656 391.832031 C 425.429688 389.632812 420.429688 388.144531 414.601562 387.253906 C 413.175781 387.015625 411.925781 388.144531 411.925781 389.570312 L 411.925781 405.097656 C 411.925781 406.167969 412.640625 407.121094 413.710938 407.417969 C 423.109375 409.796875 430.304688 413.664062 435.480469 419.015625 C 440.597656 424.367188 443.152344 430.734375 443.152344 438.109375 C 443.152344 446.792969 440.417969 453.753906 435.003906 459.046875 C 429.949219 463.984375 422.929688 467.136719 413.886719 468.503906 C 412.757812 468.683594 411.867188 469.695312 411.867188 470.824219 L 411.867188 477.605469 C 411.867188 478.914062 410.796875 479.984375 409.488281 479.984375 L 401.515625 479.984375 C 400.207031 479.984375 399.136719 478.914062 399.136719 477.605469 L 399.136719 471.300781 C 399.136719 469.992188 398.183594 468.921875 396.9375 468.863281 Z M 399.136719 390.105469 C 399.136719 388.382812 397.351562 387.191406 395.804688 387.964844 C 392.832031 389.394531 391.34375 391.652344 391.34375 394.804688 C 391.34375 396.710938 391.878906 398.257812 393.011719 399.503906 C 393.605469 400.160156 394.4375 400.8125 395.566406 401.46875 C 397.175781 402.359375 399.136719 401.230469 399.136719 399.386719 Z M 418.886719 439.835938 C 418.886719 437.753906 418.410156 436.027344 417.457031 434.777344 C 417.042969 434.183594 416.386719 433.589844 415.554688 433.054688 C 413.949219 431.984375 411.867188 433.113281 411.867188 435.015625 L 411.867188 443.640625 C 411.867188 445.425781 413.828125 446.617188 415.375 445.722656 C 417.695312 444.296875 418.886719 442.332031 418.886719 439.835938 Z M 418.886719 439.835938 " fill-opacity="1" fill-rule="nonzero"/></svg>