<svg xmlns="http://www.w3.org/2000/svg" xmlns:xlink="http://www.w3.org/1999/xlink" width="1080" zoomAndPan="magnify" viewBox="0 0 810 809.999993" height="1080" preserveAspectRatio="xMidYMid meet" version="1.0"><defs><filter x="0%" y="0%" width="100%" height="100%" id="3f3ded43df"><feColorMatrix values="0 0 0 0 1 0 0 0 0 1 0 0 0 0 1 0 0 0 1 0" color-interpolation-filters="sRGB"/></filter><clipPath id="94d8953fb5"><path d="M 391 261.835938 L 395 261.835938 L 395 277 L 391 277 Z M 391 261.835938 " clip-rule="nonzero"/></clipPath><clipPath id="09d5cc7fdf"><path d="M 385 261.835938 L 406 261.835938 L 406 473 L 385 473 Z M 385 261.835938 " clip-rule="nonzero"/></clipPath><mask id="8ad4a87732"><g filter="url(#3f3ded43df)"><rect x="-81" width="972" fill="#000000" y="-80.999999" height="971.999992" fill-opacity="0.15"/></g></mask><clipPath id="cbb477698d"><path d="M 0.441406 0.835938 L 20 0.835938 L 20 211.320312 L 0.441406 211.320312 Z M 0.441406 0.835938 " clip-rule="nonzero"/></clipPath><clipPath id="e11db9dda7"><rect x="0" width="21" y="0" height="212"/></clipPath><mask id="bc57400b26"><g filter="url(#3f3ded43df)"><rect x="-81" width="972" fill="#000000" y="-80.999999" height="971.999992" fill-opacity="0.5"/></g></mask><clipPath id="d6aadfb34f"><path d="M 0.28125 0.078125 L 28 0.078125 L 28 52.640625 L 0.28125 52.640625 Z M 0.28125 0.078125 " clip-rule="nonzero"/></clipPath><clipPath id="ce7bd912b7"><rect x="0" width="29" y="0" height="53"/></clipPath><mask id="0cb152a37e"><g filter="url(#3f3ded43df)"><rect x="-81" width="972" fill="#000000" y="-80.999999" height="971.999992" fill-opacity="0.5"/></g></mask><clipPath id="7eaa790429"><path d="M 1 0.558594 L 43 0.558594 L 43 49 L 1 49 Z M 1 0.558594 " clip-rule="nonzero"/></clipPath><clipPath id="f642e9de52"><rect x="0" width="44" y="0" height="50"/></clipPath><mask id="3882cf9cb8"><g filter="url(#3f3ded43df)"><rect x="-81" width="972" fill="#000000" y="-80.999999" height="971.999992" fill-opacity="0.45"/></g></mask><clipPath id="8547bcfc5f"><path d="M 0.121094 2 L 27 2 L 27 37.960938 L 0.121094 37.960938 Z M 0.121094 2 " clip-rule="nonzero"/></clipPath><clipPath id="c59847004a"><rect x="0" width="30" y="0" height="38"/></clipPath><mask id="bd58d284b5"><g filter="url(#3f3ded43df)"><rect x="-81" width="972" fill="#000000" y="-80.999999" height="971.999992" fill-opacity="0.15"/></g></mask><clipPath id="445f019669"><path d="M 1 0.078125 L 49.921875 0.078125 L 49.921875 150.558594 L 1 150.558594 Z M 1 0.078125 " clip-rule="nonzero"/></clipPath><clipPath id="6e059324e4"><rect x="0" width="50" y="0" height="151"/></clipPath><mask id="40e44984e5"><g filter="url(#3f3ded43df)"><rect x="-81" width="972" fill="#000000" y="-80.999999" height="971.999992" fill-opacity="0.15"/></g></mask><clipPath id="46860312b8"><rect x="0" width="18" y="0" height="153"/></clipPath><clipPath id="d80ad115ca"><path d="M 367 402 L 461 402 L 461 490.585938 L 367 490.585938 Z M 367 402 " clip-rule="nonzero"/></clipPath><clipPath id="311ddf433a"><path d="M 367 402 L 416 402 L 416 490.585938 L 367 490.585938 Z M 367 402 " clip-rule="nonzero"/></clipPath><mask id="44fda38481"><g filter="url(#3f3ded43df)"><rect x="-81" width="972" fill="#000000" y="-80.999999" height="971.999992" fill-opacity="0.15"/></g></mask><clipPath id="d29fbd1969"><path d="M 0.199219 0 L 48 0 L 48 88.585938 L 0.199219 88.585938 Z M 0.199219 0 " clip-rule="nonzero"/></clipPath><clipPath id="186a8aa6d0"><rect x="0" width="49" y="0" height="89"/></clipPath></defs><g clip-path="url(#94d8953fb5)"><path fill="#e9e6e5" d="M 391.34375 263.984375 C 391.292969 263.167969 391.539062 262.4375 391.929688 262.078125 C 392.085938 261.929688 392.273438 261.835938 392.476562 261.824219 L 392.496094 261.824219 C 392.832031 261.816406 393.152344 262.027344 393.398438 262.386719 C 393.652344 262.746094 393.820312 263.265625 393.859375 263.839844 L 394.214844 269.792969 L 394.46875 274.046875 C 394.535156 275.199219 394.035156 276.167969 393.339844 276.207031 C 393.136719 276.214844 392.945312 276.148438 392.769531 276.019531 C 392.335938 275.703125 392.007812 275.007812 391.960938 274.191406 L 391.699219 269.765625 L 391.351562 263.984375 Z M 391.34375 263.984375 " fill-opacity="1" fill-rule="nonzero"/></g><path fill="#7ba9d3" d="M 400.148438 456.457031 L 403.828125 456.238281 L 408.507812 455.953125 L 408.808594 460.933594 L 409.0625 465.175781 C 409.28125 468.796875 408.652344 471.78125 407.65625 471.835938 L 404.746094 472.011719 L 402.875 472.121094 C 401.886719 472.183594 400.917969 469.296875 400.699219 465.671875 L 400.445312 461.441406 Z M 400.148438 456.457031 " fill-opacity="1" fill-rule="nonzero"/><path fill="#1685bb" d="M 385.726562 297.511719 L 385.855469 297.511719 C 385.855469 297.511719 394.546875 296.984375 394.546875 296.984375 L 404.125 296.410156 L 412.640625 438.449219 L 412.863281 442.160156 L 413.269531 448.945312 L 413.386719 450.917969 L 413.578125 454.078125 C 413.796875 457.699219 412.199219 460.742188 410.03125 460.863281 L 408.8125 460.9375 L 404.125 461.222656 L 400.453125 461.445312 L 399.503906 461.503906 C 397.328125 461.632812 395.390625 458.804688 395.179688 455.183594 L 394.867188 450.058594 L 394.464844 443.269531 L 385.730469 297.515625 Z M 385.726562 297.511719 " fill-opacity="1" fill-rule="nonzero"/><path fill="#7ba9d3" d="M 394.132812 443.285156 L 394.457031 443.261719 L 403.042969 442.746094 L 412.859375 442.160156 L 412.636719 438.449219 L 414.359375 438.347656 L 411.386719 388.710938 C 411.308594 387.425781 411.894531 386.351562 412.683594 386.304688 C 413.46875 386.257812 414.183594 387.253906 414.269531 388.539062 L 418.023438 451.246094 C 418.117188 452.730469 417.910156 453.960938 417.574219 453.984375 L 415.925781 454.085938 C 415.582031 454.105469 415.242188 452.910156 415.148438 451.417969 L 415.148438 451.339844 C 415.148438 451.339844 414.152344 451.394531 414.152344 451.394531 C 413.746094 451.421875 413.402344 451.210938 413.382812 450.917969 L 413.261719 448.945312 C 412.667969 449.085938 411.207031 449.246094 409.492188 449.34375 L 403.445312 449.707031 L 398.617188 449.996094 C 396.941406 450.09375 395.488281 450.109375 394.863281 450.046875 C 394.652344 450.027344 394.53125 450.003906 394.53125 449.960938 L 394.132812 443.277344 Z M 394.132812 443.285156 " fill-opacity="1" fill-rule="nonzero"/><path fill="#7ba9d3" d="M 385.777344 297.894531 L 385.855469 297.507812 L 391.023438 270.886719 L 391.292969 269.554688 C 391.421875 269.636719 391.558594 269.710938 391.699219 269.773438 C 391.753906 269.804688 391.820312 269.835938 391.882812 269.859375 C 392.113281 269.949219 392.355469 270.019531 392.59375 270.046875 C 392.71875 270.066406 392.847656 270.078125 392.976562 270.078125 C 393.035156 270.078125 393.097656 270.078125 393.160156 270.074219 L 393.191406 270.074219 C 393.546875 270.046875 393.894531 269.953125 394.210938 269.796875 C 394.273438 269.765625 394.335938 269.742188 394.398438 269.703125 C 394.589844 269.605469 394.769531 269.480469 394.941406 269.335938 L 395.375 270.632812 L 404.125 296.417969 L 394.5625 297.195312 L 385.78125 297.90625 Z M 385.777344 297.894531 " fill-opacity="1" fill-rule="nonzero"/><g clip-path="url(#09d5cc7fdf)"><g mask="url(#8ad4a87732)"><g transform="matrix(1, 0, 0, 1, 385, 261)"><g clip-path="url(#e11db9dda7)"><g clip-path="url(#cbb477698d)"><path fill="#000000" d="M 9.457031 182.261719 L 0.726562 36.511719 L 0.855469 36.511719 C 0.855469 36.511719 6.023438 9.886719 6.023438 9.886719 L 6.292969 8.554688 C 6.421875 8.636719 6.558594 8.710938 6.699219 8.773438 L 6.351562 2.992188 C 6.296875 2.171875 6.542969 1.441406 6.9375 1.085938 C 7.089844 0.933594 7.277344 0.839844 7.480469 0.832031 L 7.5 0.832031 C 7.5 0.832031 19.757812 211.019531 19.757812 211.019531 L 17.886719 211.125 C 16.898438 211.1875 15.929688 208.304688 15.710938 204.675781 L 15.457031 200.445312 L 14.507812 200.503906 C 12.332031 200.632812 10.394531 197.804688 10.183594 194.183594 L 9.875 189.058594 C 9.660156 189.039062 9.542969 189.011719 9.542969 188.972656 L 9.144531 182.289062 L 9.46875 182.269531 Z M 9.457031 182.261719 " fill-opacity="1" fill-rule="nonzero"/></g></g></g></g></g><path fill="#7ba9d3" d="M 373.867188 326.699219 C 367.625 316.300781 357.304688 311.03125 350.820312 314.929688 C 344.339844 318.816406 344.136719 330.40625 350.378906 340.796875 C 353.636719 346.226562 358.011719 350.25 362.363281 352.3125 C 364.03125 353.105469 365.230469 354.570312 365.628906 356.355469 L 368.820312 370.644531 L 372.582031 387.527344 L 373.109375 389.886719 L 373.371094 391.050781 L 373.339844 391.070312 L 408.777344 440.144531 C 408.9375 440.367188 409.144531 440.46875 409.363281 440.492188 C 409.988281 440.554688 410.667969 439.917969 410.324219 439.210938 L 402.246094 422.75 L 389.640625 397.070312 L 383.65625 384.871094 L 383.027344 382.015625 L 382.875 381.339844 L 376.976562 354.851562 C 376.425781 352.382812 376.640625 349.78125 377.523438 347.324219 C 379.472656 341.925781 378.269531 334.007812 373.871094 326.683594 Z M 367.613281 330.453125 C 372.453125 338.507812 371.574219 345.6875 369.894531 346.699219 C 368.222656 347.703125 361.472656 345.101562 356.632812 337.046875 C 351.800781 328.992188 352.679688 321.8125 354.347656 320.808594 C 356.015625 319.800781 362.78125 322.398438 367.613281 330.449219 Z M 367.613281 330.453125 " fill-opacity="1" fill-rule="nonzero"/><g mask="url(#bc57400b26)"><g transform="matrix(1, 0, 0, 1, 383, 388)"><g clip-path="url(#ce7bd912b7)"><g clip-path="url(#d6aadfb34f)"><path fill="#e9e6e5" d="M 2.417969 0.523438 L 0.90625 1.285156 L 2.113281 3.726562 L 2.886719 4.714844 L 2.875 4.886719 L 20.09375 39.800781 L 22.683594 45.050781 L 26.363281 52.5 C 26.988281 52.5625 27.667969 51.925781 27.324219 51.222656 L 19.246094 34.757812 L 6.640625 9.082031 L 2.414062 0.523438 Z M 2.417969 0.523438 " fill-opacity="1" fill-rule="nonzero"/></g></g></g></g><path fill="#7ba9d3" d="M 385.046875 383.660156 L 385.046875 383.648438 C 385.046875 383.648438 383.019531 382.027344 383.019531 382.027344 L 382.472656 381.585938 L 368.820312 370.644531 L 366.324219 368.648438 C 365.507812 367.992188 364.792969 367.234375 364.199219 366.378906 C 361.082031 361.902344 355.921875 355.980469 350.421875 348.453125 C 339.253906 333.402344 331.097656 323.054688 324.132812 331.539062 C 317.230469 339.734375 315.96875 358.300781 328.753906 368.316406 C 335.820312 374.101562 345.003906 376.785156 352.597656 377.410156 C 355.808594 377.675781 358.828125 378.824219 361.296875 380.738281 L 371.15625 388.382812 L 373.105469 389.890625 L 375.339844 391.621094 L 375.976562 392.117188 L 376.976562 392.894531 L 377.007812 393.0625 L 402.238281 422.765625 L 406.035156 427.234375 L 414.078125 436.6875 C 414.175781 436.804688 414.285156 436.886719 414.402344 436.933594 C 414.929688 437.15625 415.59375 436.742188 415.671875 436.1875 C 415.699219 436.015625 415.667969 435.835938 415.558594 435.652344 L 414.753906 434.285156 L 385.042969 383.664062 Z M 358.222656 370.554688 C 352.261719 370.847656 341.363281 369.285156 333.550781 362.886719 L 333.4375 362.796875 C 327.648438 358.261719 326.433594 351.875 326.230469 348.464844 C 325.863281 342.488281 327.808594 337.898438 329.59375 335.785156 L 329.628906 335.742188 C 330.414062 336.175781 331.929688 337.265625 334.363281 339.90625 C 337.386719 343.191406 340.886719 347.835938 344.511719 352.71875 C 347.402344 356.664062 350.164062 360.15625 352.609375 363.226562 C 354.515625 365.625 356.699219 368.382812 358.226562 370.558594 Z M 358.222656 370.554688 " fill-opacity="1" fill-rule="nonzero"/><g mask="url(#0cb152a37e)"><g transform="matrix(1, 0, 0, 1, 373, 388)"><g clip-path="url(#f642e9de52)"><g clip-path="url(#7eaa790429)"><path fill="#e9e6e5" d="M 42.675781 48.179688 L 2.53125 0.96875 L 1.226562 2.042969 L 2.992188 4.117188 L 3.992188 4.894531 L 4.023438 5.0625 L 29.253906 34.765625 L 33.050781 39.234375 L 41.09375 48.6875 C 41.191406 48.804688 41.300781 48.886719 41.417969 48.933594 C 41.945312 49.15625 42.609375 48.742188 42.6875 48.1875 Z M 42.675781 48.179688 " fill-opacity="1" fill-rule="nonzero"/></g></g></g></g><path fill="#1685bb" d="M 384.300781 380.300781 C 384.574219 380.753906 384.796875 381.234375 384.972656 381.734375 C 385.144531 382.234375 385.265625 382.753906 385.332031 383.28125 C 385.398438 383.8125 385.410156 384.347656 385.371094 384.882812 C 385.328125 385.421875 385.234375 385.953125 385.085938 386.480469 C 384.9375 387.003906 384.738281 387.515625 384.488281 388.007812 C 384.238281 388.5 383.941406 388.96875 383.601562 389.410156 C 383.257812 389.851562 382.878906 390.257812 382.460938 390.628906 C 382.039062 391.003906 381.589844 391.332031 381.105469 391.621094 C 380.625 391.914062 380.117188 392.15625 379.59375 392.351562 C 379.066406 392.546875 378.527344 392.691406 377.980469 392.785156 C 377.429688 392.878906 376.878906 392.917969 376.324219 392.910156 C 375.773438 392.898438 375.230469 392.832031 374.695312 392.71875 C 374.164062 392.601562 373.648438 392.433594 373.152344 392.21875 C 372.660156 392.003906 372.195312 391.738281 371.757812 391.429688 C 371.320312 391.121094 370.921875 390.773438 370.5625 390.386719 C 370.199219 389.996094 369.882812 389.578125 369.609375 389.121094 C 369.339844 388.667969 369.117188 388.191406 368.941406 387.691406 C 368.769531 387.1875 368.648438 386.671875 368.582031 386.140625 C 368.515625 385.613281 368.503906 385.078125 368.542969 384.539062 C 368.585938 384 368.679688 383.46875 368.828125 382.945312 C 368.976562 382.417969 369.175781 381.910156 369.425781 381.417969 C 369.675781 380.921875 369.972656 380.457031 370.3125 380.015625 C 370.652344 379.574219 371.035156 379.167969 371.453125 378.792969 C 371.875 378.421875 372.324219 378.089844 372.808594 377.800781 C 373.289062 377.511719 373.792969 377.269531 374.320312 377.074219 C 374.847656 376.878906 375.382812 376.734375 375.933594 376.640625 C 376.484375 376.546875 377.035156 376.503906 377.589844 376.515625 C 378.140625 376.527344 378.683594 376.589844 379.21875 376.707031 C 379.75 376.824219 380.265625 376.988281 380.757812 377.207031 C 381.253906 377.421875 381.71875 377.683594 382.15625 377.992188 C 382.59375 378.300781 382.992188 378.648438 383.351562 379.039062 C 383.714844 379.425781 384.03125 379.847656 384.300781 380.300781 Z M 384.300781 380.300781 " fill-opacity="1" fill-rule="nonzero"/><path fill="#e9e6e5" d="M 380.238281 382.742188 C 380.484375 383.152344 380.636719 383.59375 380.699219 384.074219 C 380.757812 384.550781 380.722656 385.027344 380.585938 385.5 C 380.453125 385.976562 380.234375 386.410156 379.925781 386.808594 C 379.617188 387.207031 379.246094 387.539062 378.808594 387.800781 C 378.375 388.058594 377.910156 388.234375 377.414062 388.316406 C 376.917969 388.402344 376.429688 388.394531 375.945312 388.289062 C 375.464844 388.183594 375.027344 387.992188 374.632812 387.714844 C 374.238281 387.4375 373.921875 387.09375 373.675781 386.683594 C 373.429688 386.273438 373.277344 385.828125 373.214844 385.351562 C 373.15625 384.875 373.191406 384.398438 373.324219 383.921875 C 373.460938 383.449219 373.679688 383.011719 373.988281 382.613281 C 374.296875 382.214844 374.667969 381.886719 375.101562 381.625 C 375.539062 381.363281 376.003906 381.191406 376.5 381.105469 C 376.996094 381.023438 377.484375 381.03125 377.96875 381.136719 C 378.449219 381.242188 378.886719 381.433594 379.28125 381.710938 C 379.671875 381.988281 379.992188 382.332031 380.238281 382.742188 Z M 380.238281 382.742188 " fill-opacity="1" fill-rule="nonzero"/><g mask="url(#3882cf9cb8)"><g transform="matrix(1, 0, 0, 1, 447, 305)"><g clip-path="url(#c59847004a)"><g clip-path="url(#8547bcfc5f)"><path fill="#e9e6e5" d="M 17.378906 2.832031 L 20.613281 3.726562 C 25.128906 4.976562 27.785156 9.65625 26.535156 14.171875 L 20.167969 37.210938 L 0.566406 31.792969 L 6.933594 8.753906 C 8.179688 4.242188 12.859375 1.585938 17.378906 2.832031 Z M 17.378906 2.832031 " fill-opacity="1" fill-rule="nonzero"/></g></g></g></g><path fill="#7ba9d3" d="M 477.601562 316.53125 L 477.992188 316.640625 C 478.121094 316.675781 478.238281 316.734375 478.34375 316.816406 C 478.449219 316.898438 478.535156 317 478.601562 317.113281 C 478.667969 317.230469 478.707031 317.355469 478.722656 317.488281 C 478.742188 317.621094 478.730469 317.753906 478.695312 317.882812 L 468.554688 354.570312 C 468.519531 354.699219 468.460938 354.816406 468.378906 354.921875 C 468.296875 355.027344 468.195312 355.113281 468.078125 355.179688 C 467.964844 355.246094 467.839844 355.289062 467.707031 355.304688 C 467.574219 355.320312 467.441406 355.3125 467.3125 355.273438 L 466.921875 355.167969 C 466.792969 355.132812 466.675781 355.074219 466.570312 354.992188 C 466.464844 354.90625 466.378906 354.808594 466.3125 354.691406 C 466.246094 354.574219 466.207031 354.449219 466.191406 354.316406 C 466.171875 354.183594 466.183594 354.054688 466.21875 353.925781 L 476.359375 317.234375 C 476.394531 317.105469 476.453125 316.988281 476.535156 316.882812 C 476.617188 316.777344 476.71875 316.691406 476.835938 316.625 C 476.949219 316.558594 477.074219 316.519531 477.207031 316.503906 C 477.339844 316.484375 477.472656 316.496094 477.601562 316.53125 Z M 477.601562 316.53125 " fill-opacity="1" fill-rule="nonzero"/><path fill="#7ba9d3" d="M 473.859375 317.175781 L 476.195312 317.820312 L 474.792969 322.894531 L 472.457031 322.25 Z M 473.859375 317.175781 " fill-opacity="1" fill-rule="nonzero"/><path fill="#1685bb" d="M 465.847656 362.445312 L 431.808594 463.203125 C 430.8125 466.148438 427.203125 467.6875 423.613281 466.699219 L 420.574219 465.859375 C 416.980469 464.863281 414.671875 461.695312 415.335938 458.648438 L 437.878906 354.710938 C 438.507812 351.804688 440.757812 349.644531 443.695312 348.671875 C 445.773438 347.984375 448.199219 347.890625 450.632812 348.5625 L 458.066406 350.621094 C 460.5 351.292969 462.542969 352.621094 463.96875 354.28125 C 465.988281 356.625 466.800781 359.628906 465.851562 362.445312 Z M 465.847656 362.445312 " fill-opacity="1" fill-rule="nonzero"/><path fill="#7ba9d3" d="M 467.648438 345.148438 L 465.390625 353.324219 C 465.230469 353.910156 464.640625 354.277344 463.960938 354.28125 C 463.789062 354.28125 463.621094 354.261719 463.445312 354.210938 L 444.167969 348.882812 C 443.996094 348.835938 443.828125 348.765625 443.6875 348.675781 C 443.105469 348.324219 442.785156 347.707031 442.945312 347.121094 L 445.203125 338.949219 C 445.585938 337.566406 447.027344 336.714844 448.652344 336.792969 C 448.96875 336.808594 449.296875 336.859375 449.617188 336.949219 L 464.890625 341.171875 C 465.210938 341.257812 465.511719 341.378906 465.789062 341.527344 C 467.21875 342.289062 468.023438 343.765625 467.644531 345.148438 Z M 467.648438 345.148438 " fill-opacity="1" fill-rule="nonzero"/><path fill="#e9e6e5" d="M 459.230469 328.261719 L 462.464844 316.550781 L 464.332031 317.066406 L 461.097656 328.777344 Z M 459.230469 328.261719 " fill-opacity="1" fill-rule="nonzero"/><path fill="#e9e6e5" d="M 466.613281 338.582031 L 465.71875 341.820312 L 448.582031 337.078125 L 449.476562 333.839844 L 449.683594 333.898438 L 458.179688 326.714844 L 462.804688 327.992188 L 466.40625 338.523438 Z M 466.613281 338.582031 " fill-opacity="1" fill-rule="nonzero"/><path fill="#7ba9d3" d="M 446.105469 395.714844 C 439.984375 417.863281 433.238281 435.332031 431.046875 434.726562 C 428.851562 434.121094 432.035156 415.667969 438.160156 393.515625 C 444.28125 371.367188 446.539062 370.117188 448.738281 370.722656 C 450.933594 371.332031 452.230469 373.5625 446.105469 395.714844 Z M 446.105469 395.714844 " fill-opacity="1" fill-rule="nonzero"/><g mask="url(#bd58d284b5)"><g transform="matrix(1, 0, 0, 1, 414, 316)"><g clip-path="url(#6e059324e4)"><g clip-path="url(#445f019669)"><path fill="#000000" d="M 49.386719 0.808594 L 8.074219 150.269531 L 6.585938 149.859375 C 2.988281 148.863281 0.675781 145.683594 1.335938 142.632812 L 23.875 38.710938 C 24.5 35.804688 26.753906 33.644531 29.691406 32.671875 C 29.113281 32.320312 28.789062 31.703125 28.949219 31.117188 L 31.210938 22.945312 C 31.59375 21.558594 33.03125 20.710938 34.660156 20.789062 L 35.472656 17.835938 L 35.679688 17.894531 L 44.175781 10.707031 L 45.554688 11.089844 L 48.464844 0.554688 L 49.382812 0.808594 Z M 49.386719 0.808594 " fill-opacity="1" fill-rule="nonzero"/></g></g></g></g><path fill="#b2d2c9" d="M 432.539062 325.945312 L 438.183594 446.011719 C 438.316406 448.773438 436.558594 451.089844 434.269531 451.199219 L 423.183594 451.722656 C 420.894531 451.832031 418.929688 449.6875 418.800781 446.925781 L 413.152344 326.859375 Z M 432.539062 325.945312 " fill-opacity="1" fill-rule="nonzero"/><path fill="#1685bb" d="M 437.851562 438.996094 L 438.183594 446.011719 C 438.316406 448.773438 436.558594 451.089844 434.269531 451.199219 L 423.183594 451.722656 C 420.894531 451.832031 418.929688 449.6875 418.800781 446.925781 L 418.46875 439.90625 Z M 437.851562 438.996094 " fill-opacity="1" fill-rule="nonzero"/><path fill="#e9e6e5" d="M 432.539062 325.945312 L 413.152344 326.859375 L 419.625 306.5625 L 421.617188 300.292969 L 421.65625 300.386719 L 424.191406 306.34375 Z M 432.539062 325.945312 " fill-opacity="1" fill-rule="nonzero"/><path fill="#000000" d="M 424.191406 306.34375 C 423.582031 306.917969 422.820312 307.273438 421.988281 307.324219 L 421.949219 307.324219 C 421.101562 307.363281 420.296875 307.078125 419.625 306.5625 L 421.617188 300.300781 L 421.660156 300.390625 L 424.191406 306.347656 Z M 424.191406 306.34375 " fill-opacity="1" fill-rule="nonzero"/><g mask="url(#40e44984e5)"><g transform="matrix(1, 0, 0, 1, 412, 300)"><g clip-path="url(#46860312b8)"><path fill="#000000" d="M 9.65625 0.386719 L 16.761719 151.457031 L 11.183594 151.722656 C 8.894531 151.832031 6.929688 149.6875 6.800781 146.925781 L 1.152344 26.859375 L 7.625 6.5625 L 9.617188 0.300781 L 9.660156 0.390625 Z M 9.65625 0.386719 " fill-opacity="1" fill-rule="nonzero"/></g></g></g><g clip-path="url(#d80ad115ca)"><path fill="#1685bb" d="M 460.101562 402.332031 L 457.078125 418.195312 L 450.445312 452.9375 L 444.941406 481.808594 C 443.972656 486.875 436.796875 490.703125 428.265625 490.703125 L 399.179688 490.703125 C 390.644531 490.699219 383.472656 486.863281 382.507812 481.796875 L 377.011719 452.929688 L 370.398438 418.183594 L 367.375 402.324219 L 460.101562 402.34375 Z M 460.101562 402.332031 " fill-opacity="1" fill-rule="nonzero"/></g><path fill="#e9e6e5" d="M 457.078125 418.191406 L 450.445312 452.933594 L 377.007812 452.925781 L 370.390625 418.175781 Z M 457.078125 418.191406 " fill-opacity="1" fill-rule="nonzero"/><g clip-path="url(#311ddf433a)"><g mask="url(#44fda38481)"><g transform="matrix(1, 0, 0, 1, 367, 402)"><g clip-path="url(#186a8aa6d0)"><g clip-path="url(#d29fbd1969)"><path fill="#000000" d="M 47.828125 0.324219 L 47.8125 88.699219 L 32.179688 88.699219 C 23.644531 88.699219 16.472656 84.863281 15.507812 79.792969 L 10.011719 50.925781 L 3.398438 16.179688 L 0.375 0.316406 L 47.828125 0.328125 Z M 47.828125 0.324219 " fill-opacity="1" fill-rule="nonzero"/></g></g></g></g></g></svg>