<svg xmlns="http://www.w3.org/2000/svg" xmlns:xlink="http://www.w3.org/1999/xlink" width="1080" zoomAndPan="magnify" viewBox="0 0 810 809.999993" height="1080" preserveAspectRatio="xMidYMid meet" version="1.0"><defs><clipPath id="b07a5a2006"><path d="M 357 257.816406 L 447 257.816406 L 447 348 L 357 348 Z M 357 257.816406 " clip-rule="nonzero"/></clipPath><clipPath id="76433a85a8"><path d="M 281.746094 492 L 528.496094 492 L 528.496094 517 L 281.746094 517 Z M 281.746094 492 " clip-rule="nonzero"/></clipPath></defs><g clip-path="url(#b07a5a2006)"><path fill="#1685bb" d="M 402.355469 347.105469 C 426.972656 347.105469 447 327.078125 447 302.460938 C 447 277.847656 426.972656 257.820312 402.355469 257.820312 C 377.738281 257.820312 357.710938 277.847656 357.710938 302.460938 C 357.710938 327.078125 377.738281 347.105469 402.355469 347.105469 Z M 402.355469 347.105469 " fill-opacity="1" fill-rule="nonzero"/></g><path fill="#1685bb" d="M 320.472656 484.335938 L 484.199219 484.335938 C 490.4375 484.335938 496.363281 481.632812 500.460938 476.917969 C 504.554688 472.207031 506.402344 465.957031 505.53125 459.78125 C 493.457031 374.226562 442.859375 353.277344 440.710938 352.425781 L 437.59375 351.195312 L 402.335938 418.542969 L 367.074219 351.195312 L 363.957031 352.425781 C 361.8125 353.277344 311.210938 374.230469 299.140625 459.78125 C 298.269531 465.960938 300.117188 472.207031 304.210938 476.921875 C 308.308594 481.632812 314.234375 484.335938 320.472656 484.335938 Z M 337.777344 430.644531 C 337.578125 429.90625 337.804688 429.257812 338.078125 428.894531 C 338.21875 428.710938 338.449219 428.492188 338.746094 428.492188 L 465.921875 428.492188 C 466.222656 428.492188 466.453125 428.710938 466.59375 428.894531 C 466.867188 429.257812 467.09375 429.90625 466.894531 430.644531 L 457.386719 465.867188 L 454.410156 476.890625 L 350.257812 476.890625 Z M 337.777344 430.644531 " fill-opacity="1" fill-rule="nonzero"/><path fill="#1685bb" d="M 400.503906 360.082031 L 392.355469 384.375 C 392.15625 384.972656 392.210938 385.628906 392.511719 386.183594 L 400.664062 401.300781 C 401.523438 402.894531 403.808594 402.898438 404.675781 401.304688 L 412.84375 386.273438 C 413.148438 385.714844 413.203125 385.058594 413.003906 384.460938 L 404.828125 360.082031 C 404.132812 358.007812 401.199219 358.007812 400.503906 360.082031 Z M 400.503906 360.082031 " fill-opacity="1" fill-rule="nonzero"/><g clip-path="url(#76433a85a8)"><path fill="#1685bb" d="M 281.953125 492.226562 L 528.046875 492.226562 L 528.046875 516.949219 L 281.953125 516.949219 Z M 281.953125 492.226562 " fill-opacity="1" fill-rule="nonzero"/></g></svg>