<svg xmlns="http://www.w3.org/2000/svg" xmlns:xlink="http://www.w3.org/1999/xlink" width="1080" zoomAndPan="magnify" viewBox="0 0 810 809.999993" height="1080" preserveAspectRatio="xMidYMid meet" version="1.0"><defs><clipPath id="b174c5d46c"><path d="M 321 472 L 496.804688 472 L 496.804688 556.414062 L 321 556.414062 Z M 321 472 " clip-rule="nonzero"/></clipPath><clipPath id="698fde004c"><path d="M 313.054688 463 L 496.804688 463 L 496.804688 556.414062 L 313.054688 556.414062 Z M 313.054688 463 " clip-rule="nonzero"/></clipPath><clipPath id="aae45eac6e"><path d="M 459 507 L 464 507 L 464 556.414062 L 459 556.414062 Z M 459 507 " clip-rule="nonzero"/></clipPath><clipPath id="1ad065b8fc"><path d="M 345 507 L 351 507 L 351 556.414062 L 345 556.414062 Z M 345 507 " clip-rule="nonzero"/></clipPath></defs><path fill="#6d6e6f" d="M 451.078125 334.460938 L 451.132812 334.449219 C 451.117188 334.453125 451.097656 334.457031 451.078125 334.460938 Z M 410.835938 350.535156 C 411.023438 350.582031 411.214844 350.609375 411.402344 350.609375 C 411.210938 350.609375 411.023438 350.585938 410.835938 350.535156 Z M 368.6875 339.390625 L 410.835938 350.535156 C 411.023438 350.582031 411.214844 350.609375 411.402344 350.609375 C 411.40625 350.609375 411.410156 350.609375 411.414062 350.609375 C 411.414062 350.609375 411.417969 350.609375 411.417969 350.609375 C 411.625 350.605469 411.828125 350.574219 412.027344 350.515625 L 453.925781 338.25 L 467.664062 334.226562 L 467.664062 333.347656 L 457.242188 332.660156 L 409.25 329.488281 C 408.03125 329.40625 407.105469 328.351562 407.1875 327.125 C 407.265625 325.90625 408.324219 324.996094 409.542969 325.0625 L 469.640625 329.03125 L 470.027344 329.054688 C 471.195312 329.128906 472.101562 330.101562 472.101562 331.269531 L 472.101562 332.929688 L 483.769531 329.511719 C 484.734375 329.230469 485.386719 328.332031 485.363281 327.328125 C 485.335938 326.316406 484.636719 325.457031 483.65625 325.226562 L 409.113281 307.613281 C 408.769531 307.53125 408.410156 307.535156 408.0625 307.625 L 334.53125 326.050781 C 333.546875 326.292969 332.863281 327.179688 332.855469 328.1875 C 332.84375 329.199219 333.527344 330.089844 334.503906 330.347656 L 364.253906 338.214844 Z M 368.6875 339.390625 " fill-opacity="1" fill-rule="evenodd"/><g clip-path="url(#b174c5d46c)"><path fill="#1685bb" d="M 454.746094 472.328125 L 437.265625 472.355469 L 410.894531 507.300781 C 410.472656 507.855469 409.820312 508.183594 409.121094 508.183594 C 408.429688 508.183594 407.769531 507.855469 407.355469 507.300781 L 380.914062 472.273438 L 363.480469 472.328125 C 340.398438 472.394531 321.625 491.164062 321.625 514.175781 L 321.625 556.015625 L 350.042969 556.015625 L 350.042969 514.175781 C 350.042969 512.945312 351.035156 511.957031 352.257812 511.957031 C 353.484375 511.957031 354.476562 512.945312 354.476562 514.175781 L 354.480469 556.015625 L 463.734375 556.015625 L 463.734375 514.175781 C 463.734375 512.945312 464.730469 511.957031 465.953125 511.957031 C 467.179688 511.957031 468.171875 512.945312 468.171875 514.175781 L 468.171875 556.015625 L 496.59375 556.015625 L 496.59375 514.175781 C 496.59375 503.023438 492.214844 492.511719 484.265625 484.574219 C 476.351562 476.675781 465.898438 472.328125 454.8125 472.328125 Z M 454.746094 472.328125 " fill-opacity="1" fill-rule="evenodd"/></g><path fill="#fcc09c" d="M 409.121094 502.28125 L 433.941406 469.394531 L 433.941406 446.859375 C 426.773438 451.992188 418.242188 454.972656 409.09375 454.972656 C 399.941406 454.972656 391.40625 451.992188 384.242188 446.859375 L 384.242188 469.3125 Z M 409.121094 502.28125 " fill-opacity="1" fill-rule="evenodd"/><path fill="#fcc09c" d="M 409.09375 450.539062 C 431.945312 450.539062 450.535156 429.734375 450.535156 404.15625 C 450.535156 399.527344 449.941406 395.011719 448.777344 390.703125 C 448.777344 390.699219 448.773438 390.695312 448.773438 390.695312 C 448.726562 390.566406 448.691406 390.433594 448.667969 390.304688 C 447.320312 385.476562 445.257812 380.910156 442.515625 376.742188 L 375.660156 376.742188 C 372.933594 380.894531 370.875 385.441406 369.527344 390.253906 C 369.503906 390.394531 369.46875 390.539062 369.417969 390.675781 C 369.410156 390.699219 369.402344 390.71875 369.394531 390.738281 C 368.234375 395.039062 367.644531 399.539062 367.644531 404.15625 C 367.644531 429.734375 386.238281 450.539062 409.09375 450.539062 Z M 409.09375 450.539062 " fill-opacity="1" fill-rule="evenodd"/><path fill="#fcc09c" d="M 454.972656 404.15625 C 454.972656 408.421875 454.496094 412.570312 453.597656 416.53125 C 455.175781 416.597656 456.480469 415.882812 457.613281 414.351562 C 461.21875 409.480469 461.222656 398.464844 457.625 393.675781 C 456.488281 392.164062 455.167969 391.46875 453.566406 391.566406 C 454.496094 395.632812 454.972656 399.851562 454.972656 404.15625 Z M 454.972656 404.15625 " fill-opacity="1" fill-rule="evenodd"/><path fill="#fcc09c" d="M 363.207031 404.15625 C 363.207031 399.851562 363.683594 395.632812 364.617188 391.566406 C 363.023438 391.488281 361.710938 392.1875 360.578125 393.691406 C 356.996094 398.476562 357.007812 409.46875 360.597656 414.332031 C 361.71875 415.855469 363.015625 416.578125 364.582031 416.53125 C 363.683594 412.570312 363.207031 408.421875 363.207031 404.15625 Z M 363.207031 404.15625 " fill-opacity="1" fill-rule="evenodd"/><path fill="#6d6e6f" d="M 374.484375 372.308594 L 449.492188 372.308594 L 449.492188 339.550781 L 412.027344 350.515625 C 411.828125 350.578125 411.609375 350.609375 411.402344 350.609375 C 411.214844 350.609375 411.023438 350.582031 410.835938 350.535156 L 368.691406 339.390625 L 368.691406 372.308594 Z M 374.484375 372.308594 " fill-opacity="1" fill-rule="evenodd"/><path fill="#e2e3e4" d="M 465.863281 370.636719 C 465.863281 372.855469 467.664062 374.664062 469.882812 374.664062 C 472.101562 374.664062 473.902344 372.855469 473.902344 370.636719 C 473.90625 368.425781 472.101562 366.617188 469.882812 366.617188 C 467.664062 366.617188 465.863281 368.425781 465.863281 370.636719 Z M 465.863281 370.636719 " fill-opacity="1" fill-rule="evenodd"/><g clip-path="url(#698fde004c)"><path fill="#000000" d="M 494.613281 556.257812 L 315.210938 556.257812 C 313.984375 556.257812 312.992188 555.261719 312.992188 554.039062 L 312.992188 509.980469 C 312.992188 484.53125 333.75 463.769531 359.265625 463.695312 L 377.820312 463.636719 C 377.820312 463.636719 377.824219 463.636719 377.824219 463.636719 C 379.050781 463.636719 380.039062 464.628906 380.042969 465.847656 C 380.050781 467.074219 379.058594 468.074219 377.832031 468.074219 L 359.28125 468.128906 C 336.203125 468.199219 317.429688 486.96875 317.429688 509.980469 L 317.429688 551.820312 L 492.398438 551.820312 L 492.398438 509.980469 C 492.398438 498.828125 488.019531 488.316406 480.070312 480.378906 C 472.15625 472.480469 461.699219 468.128906 450.613281 468.128906 C 450.59375 468.128906 450.574219 468.128906 450.550781 468.128906 L 431.96875 468.160156 C 431.96875 468.160156 431.964844 468.160156 431.960938 468.160156 C 430.742188 468.160156 429.75 467.167969 429.742188 465.941406 C 429.742188 464.714844 430.734375 463.722656 431.960938 463.722656 L 450.546875 463.695312 C 450.570312 463.695312 450.589844 463.695312 450.613281 463.695312 C 462.886719 463.695312 474.457031 468.5 483.207031 477.242188 C 491.996094 486.015625 496.828125 497.640625 496.828125 509.980469 L 496.828125 554.039062 C 496.828125 555.261719 495.839844 556.257812 494.613281 556.257812 Z M 494.613281 556.257812 " fill-opacity="1" fill-rule="evenodd"/></g><path fill="#000000" d="M 371.464844 372.546875 C 366.214844 380.535156 363.445312 389.988281 363.445312 399.957031 C 363.445312 425.539062 382.042969 446.339844 404.894531 446.339844 C 427.75 446.339844 446.339844 425.539062 446.339844 399.957031 C 446.339844 389.988281 443.574219 380.535156 438.320312 372.546875 Z M 404.894531 450.777344 C 379.59375 450.777344 359.011719 427.980469 359.011719 399.957031 C 359.011719 388.683594 362.28125 377.996094 368.460938 369.0625 C 368.878906 368.460938 369.558594 368.109375 370.285156 368.109375 L 439.5 368.109375 C 440.230469 368.109375 440.910156 368.460938 441.324219 369.0625 C 447.511719 377.996094 450.777344 388.683594 450.777344 399.957031 C 450.777344 427.980469 430.191406 450.777344 404.894531 450.777344 Z M 404.894531 450.777344 " fill-opacity="1" fill-rule="evenodd"/><path fill="#000000" d="M 364.492188 368.109375 L 445.292969 368.109375 L 445.292969 335.355469 L 407.832031 346.320312 C 407.445312 346.4375 407.035156 346.441406 406.640625 346.335938 L 364.492188 335.195312 Z M 447.511719 372.546875 L 362.273438 372.546875 C 361.050781 372.546875 360.054688 371.554688 360.054688 370.328125 L 360.058594 332.390625 C 360.058594 331.167969 361.050781 330.175781 362.273438 330.175781 L 362.59375 330.175781 C 362.78125 330.175781 362.972656 330.203125 363.160156 330.25 L 407.179688 341.890625 L 446.882812 330.265625 C 447.085938 330.207031 447.296875 330.175781 447.507812 330.175781 C 448.730469 330.175781 449.730469 331.167969 449.730469 332.390625 L 449.730469 370.328125 C 449.730469 371.554688 448.738281 372.546875 447.511719 372.546875 Z M 447.511719 372.546875 " fill-opacity="1" fill-rule="evenodd"/><path fill="#000000" d="M 339.769531 324.0625 L 407.179688 341.890625 L 470.273438 323.421875 L 404.421875 307.859375 Z M 407.207031 346.414062 C 407.015625 346.414062 406.824219 346.390625 406.640625 346.335938 L 330.304688 326.152344 C 329.332031 325.894531 328.648438 325.003906 328.660156 323.992188 C 328.667969 322.980469 329.351562 322.097656 330.335938 321.855469 L 403.867188 303.425781 C 404.214844 303.339844 404.574219 303.335938 404.917969 303.414062 L 479.460938 321.027344 C 480.441406 321.261719 481.140625 322.121094 481.167969 323.132812 C 481.191406 324.136719 480.539062 325.03125 479.574219 325.316406 L 407.832031 346.320312 C 407.628906 346.382812 407.414062 346.414062 407.207031 346.414062 Z M 407.207031 346.414062 " fill-opacity="1" fill-rule="evenodd"/><path fill="#000000" d="M 465.6875 362.421875 C 464.460938 362.421875 463.46875 361.425781 463.46875 360.203125 L 463.46875 329.152344 L 405.050781 325.292969 C 403.832031 325.210938 402.910156 324.15625 402.988281 322.929688 C 403.070312 321.710938 404.128906 320.796875 405.347656 320.867188 L 465.828125 324.859375 C 466.996094 324.933594 467.902344 325.90625 467.902344 327.070312 L 467.90625 360.203125 C 467.90625 361.425781 466.910156 362.421875 465.6875 362.421875 Z M 465.6875 362.421875 " fill-opacity="1" fill-rule="evenodd"/><path fill="#000000" d="M 449.566406 416.761719 C 448.398438 416.761719 447.183594 416.542969 445.953125 416.09375 C 444.796875 415.675781 444.203125 414.40625 444.625 413.25 C 445.042969 412.101562 446.3125 411.507812 447.464844 411.921875 C 449.960938 412.828125 451.851562 412.269531 453.417969 410.15625 C 457.023438 405.285156 457.027344 394.269531 453.429688 389.480469 C 451.863281 387.398438 449.957031 386.867188 447.433594 387.808594 C 446.28125 388.238281 445.003906 387.648438 444.578125 386.5 C 444.152344 385.355469 444.734375 384.078125 445.882812 383.648438 C 450.277344 382.015625 454.214844 383.140625 456.976562 386.808594 C 461.777344 393.199219 461.78125 406.3125 456.980469 412.792969 C 455.050781 415.40625 452.453125 416.761719 449.566406 416.761719 Z M 449.566406 416.761719 " fill-opacity="1" fill-rule="evenodd"/><path fill="#000000" d="M 360.269531 416.757812 C 357.371094 416.757812 354.765625 415.394531 352.828125 412.773438 C 348.050781 406.300781 348.058594 393.210938 352.835938 386.839844 C 355.585938 383.164062 359.511719 382.027344 363.898438 383.632812 C 365.046875 384.054688 365.640625 385.332031 365.222656 386.480469 C 364.800781 387.628906 363.523438 388.21875 362.371094 387.796875 C 359.847656 386.875 357.949219 387.417969 356.382812 389.496094 C 352.800781 394.28125 352.8125 405.273438 356.398438 410.136719 C 357.960938 412.25 359.847656 412.824219 362.339844 411.933594 C 363.488281 411.519531 364.757812 412.117188 365.175781 413.273438 C 365.585938 414.429688 364.984375 415.695312 363.835938 416.109375 C 362.617188 416.542969 361.417969 416.757812 360.269531 416.757812 Z M 360.269531 416.757812 " fill-opacity="1" fill-rule="evenodd"/><path fill="#000000" d="M 404.925781 503.988281 C 404.230469 503.988281 403.574219 503.660156 403.15625 503.105469 L 376.050781 467.195312 C 375.765625 466.808594 375.609375 466.339844 375.609375 465.855469 L 375.609375 438.097656 C 375.609375 436.871094 376.601562 435.878906 377.824219 435.878906 C 379.050781 435.878906 380.042969 436.871094 380.042969 438.097656 L 380.042969 465.113281 L 404.925781 498.082031 L 429.742188 465.195312 L 429.742188 438.097656 C 429.742188 436.871094 430.734375 435.878906 431.960938 435.878906 C 433.1875 435.878906 434.179688 436.871094 434.179688 438.097656 L 434.179688 465.941406 C 434.179688 466.421875 434.023438 466.890625 433.734375 467.277344 L 406.699219 503.105469 C 406.277344 503.660156 405.625 503.988281 404.925781 503.988281 Z M 404.925781 503.988281 " fill-opacity="1" fill-rule="evenodd"/><g clip-path="url(#aae45eac6e)"><path fill="#000000" d="M 461.757812 556.257812 C 460.535156 556.257812 459.539062 555.261719 459.539062 554.039062 L 459.539062 509.980469 C 459.539062 508.746094 460.535156 507.761719 461.757812 507.761719 C 462.984375 507.761719 463.976562 508.746094 463.976562 509.980469 L 463.976562 554.039062 C 463.976562 555.261719 462.984375 556.257812 461.757812 556.257812 Z M 461.757812 556.257812 " fill-opacity="1" fill-rule="evenodd"/></g><g clip-path="url(#1ad065b8fc)"><path fill="#000000" d="M 348.0625 556.257812 C 346.839844 556.257812 345.84375 555.261719 345.84375 554.039062 L 345.84375 509.980469 C 345.84375 508.746094 346.839844 507.761719 348.0625 507.761719 C 349.289062 507.761719 350.28125 508.746094 350.28125 509.980469 L 350.28125 554.039062 C 350.28125 555.261719 349.289062 556.257812 348.0625 556.257812 Z M 348.0625 556.257812 " fill-opacity="1" fill-rule="evenodd"/></g><path fill="#000000" d="M 465.6875 362.421875 C 463.46875 362.421875 461.664062 364.226562 461.664062 366.441406 C 461.664062 368.660156 463.46875 370.46875 465.6875 370.46875 C 467.90625 370.46875 469.707031 368.660156 469.707031 366.441406 C 469.707031 364.226562 467.902344 362.421875 465.6875 362.421875 Z M 465.6875 374.902344 C 461.019531 374.902344 457.226562 371.109375 457.226562 366.441406 C 457.230469 361.777344 461.019531 357.984375 465.6875 357.984375 C 470.347656 357.984375 474.144531 361.777344 474.144531 366.441406 C 474.144531 371.109375 470.347656 374.902344 465.6875 374.902344 Z M 465.6875 374.902344 " fill-opacity="1" fill-rule="evenodd"/></svg>