<svg xmlns="http://www.w3.org/2000/svg" xmlns:xlink="http://www.w3.org/1999/xlink" width="1080" zoomAndPan="magnify" viewBox="0 0 810 809.999993" height="1080" preserveAspectRatio="xMidYMid meet" version="1.0"><defs><clipPath id="65cc08e3b7"><path d="M 280.398438 258.121094 L 529.398438 258.121094 L 529.398438 500.371094 L 280.398438 500.371094 Z M 280.398438 258.121094 " clip-rule="nonzero"/></clipPath></defs><g clip-path="url(#65cc08e3b7)"><path fill="#1685bb" d="M 526.191406 332.945312 L 522.894531 332.945312 L 522.894531 327.8125 C 522.894531 322.957031 518.945312 319.007812 514.089844 319.007812 L 503.636719 319.007812 L 503.636719 276.46875 C 503.636719 266.339844 495.429688 258.132812 485.300781 258.132812 L 324.664062 258.132812 C 314.539062 258.132812 306.328125 266.339844 306.328125 276.46875 L 306.328125 319.011719 L 295.878906 319.011719 C 291.023438 319.011719 287.074219 322.960938 287.074219 327.816406 L 287.074219 332.949219 L 283.773438 332.949219 C 281.953125 332.949219 280.472656 334.429688 280.472656 336.25 L 280.472656 366.324219 C 280.472656 368.144531 281.953125 369.625 283.773438 369.625 L 296.242188 369.625 C 298.0625 369.625 299.542969 368.144531 299.542969 366.324219 L 299.542969 336.25 C 299.542969 334.429688 298.0625 332.949219 296.242188 332.949219 L 292.941406 332.949219 L 292.941406 327.8125 C 292.941406 326.195312 294.257812 324.875 295.878906 324.875 L 306.328125 324.875 L 306.328125 468.644531 C 306.328125 476.230469 310.941406 482.746094 317.511719 485.53125 L 317.511719 497.25 C 317.511719 498.867188 318.828125 500.183594 320.449219 500.183594 L 342.453125 500.183594 C 344.074219 500.183594 345.390625 498.867188 345.390625 497.25 L 345.390625 486.980469 L 465.316406 486.980469 L 465.316406 497.25 C 465.316406 498.867188 466.632812 500.183594 468.253906 500.183594 L 490.257812 500.183594 C 491.878906 500.183594 493.191406 498.867188 493.191406 497.25 L 493.191406 485.203125 C 499.375 482.253906 503.644531 475.949219 503.644531 468.644531 L 503.644531 324.878906 L 514.097656 324.878906 C 515.714844 324.878906 517.03125 326.195312 517.03125 327.816406 L 517.03125 332.949219 L 513.730469 332.949219 C 511.910156 332.949219 510.429688 334.429688 510.429688 336.25 L 510.429688 366.324219 C 510.429688 368.144531 511.910156 369.625 513.730469 369.625 L 526.199219 369.625 C 528.019531 369.625 529.5 368.144531 529.5 366.324219 L 529.5 336.25 C 529.492188 334.425781 528.015625 332.945312 526.191406 332.945312 Z M 342.269531 269.132812 L 467.695312 269.132812 C 469.722656 269.132812 471.363281 270.773438 471.363281 272.800781 L 471.363281 287.472656 C 471.363281 289.699219 469.558594 291.503906 467.332031 291.503906 L 342.632812 291.503906 C 340.40625 291.503906 338.597656 289.699219 338.597656 287.472656 L 338.597656 272.800781 C 338.597656 270.773438 340.242188 269.132812 342.269531 269.132812 Z M 316.59375 313.507812 C 316.59375 308.445312 320.699219 304.339844 325.761719 304.339844 L 484.199219 304.339844 C 489.261719 304.339844 493.367188 308.445312 493.367188 313.507812 L 493.367188 411.0625 C 493.367188 416.125 489.261719 420.230469 484.199219 420.230469 L 325.761719 420.230469 C 320.699219 420.230469 316.59375 416.125 316.59375 411.0625 Z M 358.957031 454.707031 C 358.957031 456.9375 357.148438 458.742188 354.921875 458.742188 L 320.445312 458.742188 C 318.21875 458.742188 316.414062 456.9375 316.414062 454.707031 L 316.414062 442.238281 C 316.414062 440.011719 318.21875 438.207031 320.445312 438.207031 L 354.917969 438.207031 C 357.148438 438.207031 358.953125 440.011719 358.953125 442.238281 L 358.953125 454.707031 Z M 434.507812 476.347656 C 434.507812 477.765625 433.359375 478.914062 431.9375 478.914062 L 380.59375 478.914062 C 379.171875 478.914062 378.023438 477.765625 378.023438 476.347656 L 378.023438 468.277344 C 378.023438 466.859375 379.171875 465.710938 380.59375 465.710938 L 431.9375 465.710938 C 433.359375 465.710938 434.507812 466.859375 434.507812 468.277344 Z M 495.386719 454.707031 C 495.386719 456.9375 493.578125 458.742188 491.351562 458.742188 L 456.875 458.742188 C 454.648438 458.742188 452.84375 456.9375 452.84375 454.707031 L 452.84375 442.238281 C 452.84375 440.011719 454.648438 438.207031 456.875 438.207031 L 491.347656 438.207031 C 493.578125 438.207031 495.382812 440.011719 495.382812 442.238281 L 495.382812 454.707031 Z M 495.386719 454.707031 " fill-opacity="1" fill-rule="nonzero"/></g></svg>