<svg xmlns="http://www.w3.org/2000/svg" xmlns:xlink="http://www.w3.org/1999/xlink" width="1080" zoomAndPan="magnify" viewBox="0 0 810 809.999993" height="1080" preserveAspectRatio="xMidYMid meet" version="1.0"><defs><clipPath id="9313ef6ef8"><path d="M 313.890625 260 L 496.140625 260 L 496.140625 497.6875 L 313.890625 497.6875 Z M 313.890625 260 " clip-rule="nonzero"/></clipPath><clipPath id="64e556f4ce"><path d="M 395 247.9375 L 415 247.9375 L 415 266 L 395 266 Z M 395 247.9375 " clip-rule="nonzero"/></clipPath></defs><path fill="#1685bb" d="M 390.136719 351.941406 L 346.992188 351.941406 C 345.671875 351.941406 344.605469 350.871094 344.605469 349.554688 L 344.605469 346.023438 C 344.605469 336.457031 352.386719 328.675781 361.953125 328.675781 L 375.175781 328.675781 C 384.742188 328.675781 392.523438 336.457031 392.523438 346.023438 L 392.523438 349.554688 C 392.523438 350.871094 391.453125 351.941406 390.136719 351.941406 Z M 349.375 347.171875 L 387.753906 347.171875 L 387.753906 346.023438 C 387.753906 339.085938 382.109375 333.445312 375.175781 333.445312 L 361.953125 333.445312 C 355.015625 333.445312 349.375 339.085938 349.375 346.023438 Z M 349.375 347.171875 " fill-opacity="1" fill-rule="nonzero"/><path fill="#1685bb" d="M 368.5625 333.214844 C 361.40625 333.214844 355.578125 327.390625 355.578125 320.230469 C 355.578125 313.070312 361.40625 307.246094 368.5625 307.246094 C 375.722656 307.246094 381.550781 313.070312 381.550781 320.230469 C 381.550781 327.390625 375.722656 333.214844 368.5625 333.214844 Z M 368.5625 312.015625 C 364.035156 312.015625 360.347656 315.703125 360.347656 320.230469 C 360.347656 324.761719 364.035156 328.445312 368.5625 328.445312 C 373.09375 328.445312 376.777344 324.761719 376.777344 320.230469 C 376.777344 315.703125 373.09375 312.015625 368.5625 312.015625 Z M 368.5625 312.015625 " fill-opacity="1" fill-rule="nonzero"/><path fill="#1685bb" d="M 446.277344 351.941406 L 428.476562 351.941406 C 421.0625 351.941406 415.03125 345.90625 415.03125 338.492188 L 415.03125 320.691406 C 415.03125 313.277344 421.0625 307.246094 428.476562 307.246094 L 446.277344 307.246094 C 453.691406 307.246094 459.722656 313.277344 459.722656 320.691406 L 459.722656 338.492188 C 459.722656 345.90625 453.691406 351.941406 446.277344 351.941406 Z M 428.476562 312.015625 C 423.691406 312.015625 419.800781 315.90625 419.800781 320.691406 L 419.800781 338.492188 C 419.800781 343.277344 423.691406 347.171875 428.476562 347.171875 L 446.277344 347.171875 C 451.0625 347.171875 454.953125 343.277344 454.953125 338.492188 L 454.953125 320.691406 C 454.953125 315.90625 451.0625 312.015625 446.277344 312.015625 Z M 428.476562 312.015625 " fill-opacity="1" fill-rule="nonzero"/><path fill="#1685bb" d="M 390.136719 413.355469 L 346.992188 413.355469 C 345.671875 413.355469 344.605469 412.289062 344.605469 410.96875 L 344.605469 407.4375 C 344.605469 397.871094 352.386719 390.089844 361.953125 390.089844 L 375.175781 390.089844 C 384.742188 390.089844 392.523438 397.871094 392.523438 407.4375 L 392.523438 410.96875 C 392.523438 412.289062 391.453125 413.355469 390.136719 413.355469 Z M 349.375 408.585938 L 387.753906 408.585938 L 387.753906 407.4375 C 387.753906 400.5 382.109375 394.859375 375.175781 394.859375 L 361.953125 394.859375 C 355.015625 394.859375 349.375 400.503906 349.375 407.4375 Z M 349.375 408.585938 " fill-opacity="1" fill-rule="nonzero"/><path fill="#1685bb" d="M 368.5625 394.632812 C 361.40625 394.632812 355.578125 388.804688 355.578125 381.644531 C 355.578125 374.488281 361.40625 368.660156 368.5625 368.660156 C 375.722656 368.660156 381.550781 374.488281 381.550781 381.644531 C 381.550781 388.804688 375.722656 394.632812 368.5625 394.632812 Z M 368.5625 373.429688 C 364.035156 373.429688 360.347656 377.117188 360.347656 381.644531 C 360.347656 386.175781 364.035156 389.859375 368.5625 389.859375 C 373.09375 389.859375 376.777344 386.175781 376.777344 381.644531 C 376.777344 377.117188 373.09375 373.429688 368.5625 373.429688 Z M 368.5625 373.429688 " fill-opacity="1" fill-rule="nonzero"/><path fill="#1685bb" d="M 446.277344 413.355469 L 428.476562 413.355469 C 421.0625 413.355469 415.03125 407.324219 415.03125 399.910156 L 415.03125 382.109375 C 415.03125 374.695312 421.0625 368.660156 428.476562 368.660156 L 446.277344 368.660156 C 453.691406 368.660156 459.722656 374.695312 459.722656 382.109375 L 459.722656 399.910156 C 459.722656 407.324219 453.691406 413.355469 446.277344 413.355469 Z M 428.476562 373.429688 C 423.691406 373.429688 419.800781 377.324219 419.800781 382.109375 L 419.800781 399.910156 C 419.800781 404.691406 423.691406 408.585938 428.476562 408.585938 L 446.277344 408.585938 C 451.0625 408.585938 454.953125 404.691406 454.953125 399.910156 L 454.953125 382.109375 C 454.953125 377.324219 451.0625 373.429688 446.277344 373.429688 Z M 428.476562 373.429688 " fill-opacity="1" fill-rule="nonzero"/><path fill="#1685bb" d="M 390.136719 474.769531 L 346.992188 474.769531 C 345.671875 474.769531 344.605469 473.703125 344.605469 472.386719 L 344.605469 468.851562 C 344.605469 459.289062 352.386719 451.503906 361.953125 451.503906 L 375.175781 451.503906 C 384.742188 451.503906 392.523438 459.289062 392.523438 468.851562 L 392.523438 472.386719 C 392.523438 473.703125 391.453125 474.769531 390.136719 474.769531 Z M 349.375 470 L 387.753906 470 L 387.753906 468.851562 C 387.753906 461.917969 382.109375 456.277344 375.175781 456.277344 L 361.953125 456.277344 C 355.015625 456.277344 349.375 461.917969 349.375 468.851562 Z M 349.375 470 " fill-opacity="1" fill-rule="nonzero"/><path fill="#1685bb" d="M 368.5625 456.046875 C 361.40625 456.046875 355.578125 450.222656 355.578125 443.0625 C 355.578125 435.902344 361.40625 430.078125 368.5625 430.078125 C 375.722656 430.078125 381.550781 435.902344 381.550781 443.0625 C 381.550781 450.222656 375.722656 456.046875 368.5625 456.046875 Z M 368.5625 434.847656 C 364.035156 434.847656 360.347656 438.53125 360.347656 443.0625 C 360.347656 447.589844 364.035156 451.277344 368.5625 451.277344 C 373.09375 451.277344 376.777344 447.589844 376.777344 443.0625 C 376.777344 438.53125 373.09375 434.847656 368.5625 434.847656 Z M 368.5625 434.847656 " fill-opacity="1" fill-rule="nonzero"/><path fill="#1685bb" d="M 446.277344 474.769531 L 428.476562 474.769531 C 421.0625 474.769531 415.03125 468.738281 415.03125 461.324219 L 415.03125 443.523438 C 415.03125 436.109375 421.0625 430.078125 428.476562 430.078125 L 446.277344 430.078125 C 453.691406 430.078125 459.722656 436.109375 459.722656 443.523438 L 459.722656 461.324219 C 459.722656 468.738281 453.691406 474.769531 446.277344 474.769531 Z M 428.476562 434.847656 C 423.691406 434.847656 419.800781 438.738281 419.800781 443.523438 L 419.800781 461.324219 C 419.800781 466.109375 423.691406 470 428.476562 470 L 446.277344 470 C 451.0625 470 454.953125 466.109375 454.953125 461.324219 L 454.953125 443.523438 C 454.953125 438.738281 451.0625 434.847656 446.277344 434.847656 Z M 428.476562 434.847656 " fill-opacity="1" fill-rule="nonzero"/><g clip-path="url(#9313ef6ef8)"><path fill="#1685bb" d="M 480.121094 497.5625 L 329.847656 497.5625 C 321.054688 497.5625 313.902344 490.410156 313.902344 481.617188 L 313.902344 276.851562 C 313.902344 268.0625 321.054688 260.910156 329.847656 260.910156 L 480.121094 260.910156 C 488.914062 260.910156 496.066406 268.0625 496.066406 276.851562 L 496.066406 481.617188 C 496.066406 490.410156 488.914062 497.5625 480.121094 497.5625 Z M 329.847656 265.679688 C 323.683594 265.679688 318.671875 270.691406 318.671875 276.851562 L 318.671875 481.617188 C 318.671875 487.777344 323.683594 492.792969 329.847656 492.792969 L 480.121094 492.792969 C 486.28125 492.792969 491.296875 487.777344 491.296875 481.617188 L 491.296875 276.851562 C 491.296875 270.691406 486.285156 265.679688 480.121094 265.679688 Z M 329.847656 265.679688 " fill-opacity="1" fill-rule="nonzero"/></g><path fill="#1685bb" d="M 430.621094 290.523438 L 379.347656 290.523438 C 374.105469 290.523438 369.839844 286.257812 369.839844 281.015625 L 369.839844 263.292969 C 369.839844 261.976562 370.910156 260.910156 372.226562 260.910156 L 437.742188 260.910156 C 439.058594 260.910156 440.128906 261.976562 440.128906 263.292969 L 440.128906 281.015625 C 440.128906 286.257812 435.863281 290.523438 430.621094 290.523438 Z M 374.609375 265.679688 L 374.609375 281.019531 C 374.609375 283.628906 376.734375 285.753906 379.347656 285.753906 L 430.621094 285.753906 C 433.234375 285.753906 435.359375 283.628906 435.359375 281.019531 L 435.359375 265.679688 Z M 374.609375 265.679688 " fill-opacity="1" fill-rule="nonzero"/><g clip-path="url(#64e556f4ce)"><path fill="#1685bb" d="M 412.105469 265.679688 L 397.863281 265.679688 C 396.546875 265.679688 395.476562 264.609375 395.476562 263.292969 L 395.476562 257.445312 C 395.476562 252.203125 399.742188 247.9375 404.984375 247.9375 C 410.226562 247.9375 414.492188 252.203125 414.492188 257.445312 L 414.492188 263.292969 C 414.492188 264.609375 413.421875 265.679688 412.105469 265.679688 Z M 400.246094 260.910156 L 409.722656 260.910156 L 409.722656 257.445312 C 409.722656 254.832031 407.597656 252.707031 404.984375 252.707031 C 402.371094 252.707031 400.246094 254.832031 400.246094 257.445312 Z M 400.246094 260.910156 " fill-opacity="1" fill-rule="nonzero"/></g><path fill="#1685bb" d="M 435.332031 340.433594 C 434.699219 340.433594 434.09375 340.183594 433.644531 339.734375 L 425.1875 331.28125 C 424.257812 330.347656 424.257812 328.839844 425.1875 327.90625 C 426.121094 326.976562 427.628906 326.976562 428.5625 327.90625 L 435.332031 334.675781 L 462.695312 307.3125 C 463.628906 306.382812 465.136719 306.382812 466.066406 307.3125 C 467 308.242188 467 309.753906 466.066406 310.683594 L 437.019531 339.734375 C 436.570312 340.183594 435.964844 340.433594 435.332031 340.433594 Z M 435.332031 340.433594 " fill-opacity="1" fill-rule="nonzero"/><path fill="#1685bb" d="M 435.332031 463.898438 C 434.722656 463.898438 434.109375 463.664062 433.644531 463.199219 L 425.1875 454.742188 C 424.257812 453.8125 424.257812 452.300781 425.1875 451.371094 C 426.121094 450.4375 427.628906 450.4375 428.5625 451.371094 L 435.332031 458.140625 L 462.695312 430.777344 C 463.628906 429.84375 465.136719 429.84375 466.066406 430.777344 C 467 431.707031 467 433.214844 466.066406 434.148438 L 437.019531 463.199219 C 436.550781 463.664062 435.941406 463.898438 435.332031 463.898438 Z M 435.332031 463.898438 " fill-opacity="1" fill-rule="nonzero"/><path fill="#1685bb" d="M 427.964844 402.804688 C 427.355469 402.804688 426.742188 402.574219 426.277344 402.109375 C 425.347656 401.175781 425.347656 399.667969 426.277344 398.734375 L 445.105469 379.910156 C 446.035156 378.976562 447.546875 378.976562 448.476562 379.910156 C 449.410156 380.839844 449.410156 382.351562 448.476562 383.28125 L 429.648438 402.109375 C 429.183594 402.574219 428.574219 402.804688 427.964844 402.804688 Z M 427.964844 402.804688 " fill-opacity="1" fill-rule="nonzero"/><path fill="#1685bb" d="M 446.789062 402.804688 C 446.179688 402.804688 445.570312 402.574219 445.105469 402.109375 L 426.277344 383.28125 C 425.347656 382.351562 425.347656 380.839844 426.277344 379.910156 C 427.210938 378.976562 428.71875 378.976562 429.648438 379.910156 L 448.476562 398.734375 C 449.410156 399.667969 449.410156 401.175781 448.476562 402.109375 C 448.011719 402.574219 447.402344 402.804688 446.789062 402.804688 Z M 446.789062 402.804688 " fill-opacity="1" fill-rule="nonzero"/></svg>