<svg xmlns="http://www.w3.org/2000/svg" xmlns:xlink="http://www.w3.org/1999/xlink" width="1080" zoomAndPan="magnify" viewBox="0 0 810 809.999993" height="1080" preserveAspectRatio="xMidYMid meet" version="1.0"><defs><clipPath id="9033c28e62"><path d="M 289.113281 315 L 461 315 L 461 523.382812 L 289.113281 523.382812 Z M 289.113281 315 " clip-rule="nonzero"/></clipPath><clipPath id="0a5b944331"><path d="M 349 286.59375 L 401 286.59375 L 401 319 L 349 319 Z M 349 286.59375 " clip-rule="nonzero"/></clipPath><clipPath id="eea340f1ee"><path d="M 377 347.003906 L 520.863281 347.003906 L 520.863281 491.5 L 377 491.5 Z M 377 347.003906 " clip-rule="nonzero"/></clipPath></defs><path fill="#1685bb" d="M 437.613281 507.191406 L 312.28125 507.191406 C 308.429688 507.191406 305.296875 504.058594 305.296875 500.207031 L 305.296875 338.433594 C 305.296875 334.585938 308.429688 331.449219 312.28125 331.449219 L 334.261719 331.449219 C 336.304688 331.449219 337.960938 333.105469 337.960938 335.148438 C 337.960938 337.191406 336.304688 338.847656 334.261719 338.847656 L 312.695312 338.847656 L 312.695312 499.796875 L 437.199219 499.796875 L 437.199219 487.097656 C 437.199219 485.050781 438.855469 483.394531 440.902344 483.394531 C 442.941406 483.394531 444.597656 485.050781 444.597656 487.097656 L 444.597656 500.207031 C 444.597656 504.058594 441.464844 507.191406 437.613281 507.191406 " fill-opacity="1" fill-rule="evenodd"/><path fill="#1685bb" d="M 440.902344 355.25 C 438.859375 355.25 437.203125 353.59375 437.203125 351.550781 L 437.203125 338.847656 L 415.636719 338.847656 C 413.59375 338.847656 411.9375 337.191406 411.9375 335.148438 C 411.9375 333.105469 413.59375 331.449219 415.636719 331.449219 L 437.613281 331.449219 C 441.46875 331.449219 444.601562 334.585938 444.601562 338.433594 L 444.601562 351.550781 C 444.601562 353.59375 442.945312 355.25 440.902344 355.25 Z M 437.613281 338.847656 L 437.617188 338.847656 L 437.613281 338.847656 " fill-opacity="1" fill-rule="evenodd"/><path fill="#1685bb" d="M 415.632812 346.144531 L 334.261719 346.144531 C 332.21875 346.144531 330.5625 344.488281 330.5625 342.445312 L 330.5625 313.042969 C 330.5625 307.035156 335.449219 302.152344 341.457031 302.152344 L 353.28125 302.152344 C 355.320312 302.152344 356.976562 303.808594 356.976562 305.851562 C 356.976562 307.894531 355.320312 309.550781 353.28125 309.550781 L 341.457031 309.550781 C 339.53125 309.550781 337.960938 311.117188 337.960938 313.042969 L 337.960938 338.746094 L 411.933594 338.746094 L 411.933594 313.042969 C 411.933594 311.117188 410.367188 309.550781 408.441406 309.550781 L 396.617188 309.550781 C 394.574219 309.550781 392.917969 307.894531 392.917969 305.851562 C 392.917969 303.808594 394.574219 302.152344 396.617188 302.152344 L 408.441406 302.152344 C 414.449219 302.152344 419.332031 307.035156 419.332031 313.042969 L 419.332031 342.445312 C 419.332031 344.488281 417.675781 346.144531 415.632812 346.144531 " fill-opacity="1" fill-rule="evenodd"/><g clip-path="url(#9033c28e62)"><path fill="#1685bb" d="M 450.515625 523.382812 L 299.382812 523.382812 C 293.71875 523.382812 289.113281 518.773438 289.113281 513.109375 L 289.113281 325.535156 C 289.113281 319.871094 293.71875 315.265625 299.382812 315.265625 L 334.261719 315.265625 C 336.304688 315.265625 337.960938 316.921875 337.960938 318.964844 C 337.960938 321.007812 336.304688 322.664062 334.261719 322.664062 L 299.382812 322.664062 C 297.796875 322.664062 296.507812 323.949219 296.507812 325.535156 L 296.507812 513.109375 C 296.507812 514.695312 297.796875 515.984375 299.382812 515.984375 L 450.515625 515.984375 C 452.097656 515.984375 453.386719 514.695312 453.386719 513.109375 L 453.386719 487.089844 C 453.386719 485.042969 455.042969 483.386719 457.085938 483.386719 C 459.128906 483.386719 460.785156 485.042969 460.785156 487.089844 L 460.785156 513.109375 C 460.785156 518.773438 456.179688 523.382812 450.515625 523.382812 " fill-opacity="1" fill-rule="evenodd"/></g><path fill="#1685bb" d="M 457.085938 355.257812 C 455.042969 355.257812 453.386719 353.601562 453.386719 351.558594 L 453.386719 325.535156 C 453.386719 323.953125 452.097656 322.664062 450.515625 322.664062 L 415.632812 322.664062 C 413.59375 322.664062 411.9375 321.007812 411.9375 318.964844 C 411.9375 316.921875 413.59375 315.265625 415.632812 315.265625 L 450.515625 315.265625 C 456.179688 315.265625 460.785156 319.871094 460.785156 325.535156 L 460.785156 351.558594 C 460.785156 353.601562 459.128906 355.257812 457.085938 355.257812 " fill-opacity="1" fill-rule="evenodd"/><g clip-path="url(#0a5b944331)"><path fill="#1685bb" d="M 396.617188 318.132812 L 353.28125 318.132812 C 351.234375 318.132812 349.578125 316.476562 349.578125 314.433594 L 349.578125 293.417969 C 349.578125 289.679688 352.621094 286.636719 356.363281 286.636719 L 393.535156 286.636719 C 397.273438 286.636719 400.316406 289.679688 400.316406 293.417969 L 400.316406 314.433594 C 400.316406 316.476562 398.660156 318.132812 396.617188 318.132812 Z M 356.976562 310.734375 L 392.917969 310.734375 L 392.917969 294.035156 L 356.976562 294.035156 L 356.976562 310.734375 " fill-opacity="1" fill-rule="evenodd"/></g><path fill="#1685bb" d="M 395.941406 380.042969 L 361.902344 380.042969 C 359.855469 380.042969 358.203125 378.386719 358.203125 376.34375 C 358.203125 374.300781 359.855469 372.644531 361.902344 372.644531 L 395.941406 372.644531 C 397.984375 372.644531 399.640625 374.300781 399.640625 376.34375 C 399.640625 378.386719 397.984375 380.042969 395.941406 380.042969 " fill-opacity="1" fill-rule="evenodd"/><path fill="#1685bb" d="M 335.199219 383.011719 C 334.25 383.011719 333.304688 382.648438 332.582031 381.925781 L 327.457031 376.800781 C 326.011719 375.355469 326.011719 373.015625 327.457031 371.570312 C 328.902344 370.125 331.242188 370.125 332.6875 371.570312 L 335.199219 374.078125 L 344.449219 364.828125 C 345.894531 363.382812 348.238281 363.382812 349.683594 364.828125 C 351.128906 366.269531 351.128906 368.613281 349.683594 370.058594 L 337.8125 381.925781 C 337.089844 382.648438 336.144531 383.011719 335.199219 383.011719 " fill-opacity="1" fill-rule="evenodd"/><path fill="#1685bb" d="M 381.613281 411.871094 L 361.902344 411.871094 C 359.855469 411.871094 358.203125 410.214844 358.203125 408.171875 C 358.203125 406.128906 359.855469 404.472656 361.902344 404.472656 L 381.613281 404.472656 C 383.660156 404.472656 385.316406 406.128906 385.316406 408.171875 C 385.316406 410.214844 383.660156 411.871094 381.613281 411.871094 " fill-opacity="1" fill-rule="evenodd"/><path fill="#1685bb" d="M 335.199219 414.839844 C 334.25 414.839844 333.304688 414.480469 332.582031 413.757812 L 327.457031 408.632812 C 326.011719 407.1875 326.011719 404.84375 327.457031 403.402344 C 328.902344 401.957031 331.242188 401.957031 332.6875 403.398438 L 335.199219 405.910156 L 344.449219 396.65625 C 345.894531 395.210938 348.238281 395.210938 349.683594 396.65625 C 351.128906 398.101562 351.128906 400.441406 349.683594 401.886719 L 337.8125 413.757812 C 337.089844 414.480469 336.144531 414.839844 335.199219 414.839844 " fill-opacity="1" fill-rule="evenodd"/><path fill="#1685bb" d="M 383.902344 443.703125 L 361.902344 443.703125 C 359.855469 443.703125 358.203125 442.046875 358.203125 440 C 358.203125 437.960938 359.855469 436.304688 361.902344 436.304688 L 383.902344 436.304688 C 385.945312 436.304688 387.601562 437.960938 387.601562 440 C 387.601562 442.046875 385.945312 443.703125 383.902344 443.703125 " fill-opacity="1" fill-rule="evenodd"/><path fill="#1685bb" d="M 335.199219 446.667969 C 334.214844 446.667969 333.277344 446.28125 332.582031 445.585938 L 327.457031 440.460938 C 326.011719 439.015625 326.011719 436.671875 327.457031 435.230469 C 328.902344 433.785156 331.242188 433.785156 332.6875 435.230469 L 335.199219 437.738281 L 344.449219 428.488281 C 345.894531 427.042969 348.238281 427.042969 349.683594 428.484375 C 351.128906 429.929688 351.128906 432.273438 349.683594 433.71875 L 337.8125 445.585938 C 337.117188 446.28125 336.179688 446.667969 335.199219 446.667969 " fill-opacity="1" fill-rule="evenodd"/><path fill="#1685bb" d="M 405.363281 475.53125 L 361.902344 475.53125 C 359.855469 475.53125 358.203125 473.875 358.203125 471.832031 C 358.203125 469.789062 359.855469 468.132812 361.902344 468.132812 L 405.363281 468.132812 C 407.402344 468.132812 409.058594 469.789062 409.058594 471.832031 C 409.058594 473.875 407.402344 475.53125 405.363281 475.53125 " fill-opacity="1" fill-rule="evenodd"/><path fill="#1685bb" d="M 335.199219 478.5 C 334.25 478.5 333.304688 478.136719 332.582031 477.414062 L 327.457031 472.292969 C 326.011719 470.847656 326.011719 468.503906 327.457031 467.058594 C 328.902344 465.613281 331.242188 465.613281 332.6875 467.058594 L 335.199219 469.570312 L 344.449219 460.3125 C 345.894531 458.871094 348.238281 458.867188 349.683594 460.3125 C 351.128906 461.757812 351.128906 464.101562 349.683594 465.546875 L 337.8125 477.414062 C 337.089844 478.136719 336.144531 478.5 335.199219 478.5 " fill-opacity="1" fill-rule="evenodd"/><g clip-path="url(#eea340f1ee)"><path fill="#1685bb" d="M 448.953125 491.265625 C 439.25 491.265625 429.828125 489.363281 420.949219 485.605469 C 412.375 481.980469 404.683594 476.796875 398.082031 470.195312 C 391.484375 463.59375 386.296875 455.902344 382.671875 447.332031 C 378.917969 438.453125 377.015625 429.027344 377.015625 419.324219 C 377.015625 409.621094 378.917969 400.199219 382.671875 391.316406 C 386.296875 382.746094 391.484375 375.054688 398.082031 368.453125 C 404.683594 361.851562 412.375 356.667969 420.949219 353.042969 C 429.828125 349.289062 439.253906 347.382812 448.953125 347.382812 C 458.65625 347.382812 468.082031 349.289062 476.960938 353.042969 C 485.535156 356.667969 493.226562 361.851562 499.828125 368.453125 C 506.425781 375.054688 511.613281 382.746094 515.238281 391.3125 C 518.992188 400.199219 520.894531 409.621094 520.894531 419.324219 C 520.894531 429.027344 518.992188 438.453125 515.238281 447.332031 C 511.613281 455.902344 506.425781 463.59375 499.828125 470.195312 C 493.226562 476.796875 485.535156 481.980469 476.960938 485.605469 C 468.082031 489.363281 458.660156 491.265625 448.953125 491.265625 Z M 448.953125 354.78125 C 440.25 354.78125 431.792969 356.488281 423.828125 359.855469 C 416.140625 363.109375 409.238281 367.761719 403.3125 373.6875 C 397.390625 379.609375 392.742188 386.511719 389.488281 394.195312 C 386.121094 402.160156 384.410156 410.617188 384.410156 419.324219 C 384.410156 428.03125 386.121094 436.484375 389.488281 444.449219 C 392.742188 452.136719 397.390625 459.039062 403.3125 464.960938 C 409.238281 470.886719 416.140625 475.539062 423.828125 478.792969 C 431.792969 482.160156 440.246094 483.867188 448.957031 483.867188 C 457.664062 483.867188 466.117188 482.160156 474.082031 478.789062 C 481.769531 475.539062 488.671875 470.886719 494.597656 464.960938 C 500.519531 459.039062 505.167969 452.136719 508.421875 444.449219 C 511.789062 436.488281 513.5 428.03125 513.5 419.324219 C 513.5 410.617188 511.789062 402.160156 508.421875 394.195312 C 505.167969 386.511719 500.519531 379.609375 494.597656 373.6875 C 488.671875 367.761719 481.769531 363.109375 474.082031 359.855469 C 466.117188 356.488281 457.660156 354.78125 448.953125 354.78125 " fill-opacity="1" fill-rule="evenodd"/></g><path fill="#1685bb" d="M 448.953125 476.300781 C 441.265625 476.300781 433.804688 474.792969 426.777344 471.820312 C 419.992188 468.949219 413.898438 464.84375 408.667969 459.613281 C 403.4375 454.378906 399.328125 448.289062 396.457031 441.5 C 393.484375 434.476562 391.980469 427.011719 391.980469 419.324219 C 391.980469 411.632812 393.484375 404.171875 396.457031 397.144531 C 399.328125 390.359375 403.4375 384.265625 408.667969 379.035156 C 413.898438 373.804688 419.992188 369.695312 426.777344 366.824219 C 433.804688 363.851562 441.265625 362.347656 448.953125 362.347656 C 456.644531 362.347656 464.105469 363.851562 471.136719 366.824219 C 477.917969 369.695312 484.011719 373.804688 489.242188 379.035156 C 494.476562 384.265625 498.582031 390.359375 501.453125 397.144531 C 504.425781 404.171875 505.929688 411.632812 505.929688 419.324219 C 505.929688 427.011719 504.425781 434.476562 501.453125 441.5 C 498.582031 448.285156 494.476562 454.378906 489.242188 459.609375 C 484.011719 464.84375 477.917969 468.949219 471.136719 471.820312 C 464.105469 474.792969 456.644531 476.300781 448.953125 476.300781 Z M 448.953125 369.746094 C 421.617188 369.746094 399.378906 391.988281 399.378906 419.324219 C 399.378906 446.660156 421.617188 468.902344 448.953125 468.902344 C 476.292969 468.902344 498.53125 446.660156 498.53125 419.324219 C 498.53125 391.988281 476.292969 369.746094 448.953125 369.746094 " fill-opacity="1" fill-rule="evenodd"/><path fill="#1685bb" d="M 448.953125 377.226562 C 446.910156 377.226562 445.257812 375.574219 445.257812 373.527344 L 445.257812 366.046875 C 445.257812 364.003906 446.910156 362.347656 448.953125 362.347656 C 451 362.347656 452.652344 364.003906 452.652344 366.046875 L 452.652344 373.527344 C 452.652344 375.574219 451 377.226562 448.953125 377.226562 " fill-opacity="1" fill-rule="evenodd"/><path fill="#1685bb" d="M 426.058594 383.359375 C 424.785156 383.359375 423.539062 382.695312 422.855469 381.507812 L 419.109375 375.027344 C 418.089844 373.257812 418.699219 370.996094 420.464844 369.976562 C 422.234375 368.953125 424.496094 369.558594 425.519531 371.332031 L 429.261719 377.808594 C 430.28125 379.578125 429.675781 381.839844 427.90625 382.863281 C 427.324219 383.199219 426.691406 383.359375 426.058594 383.359375 " fill-opacity="1" fill-rule="evenodd"/><path fill="#1685bb" d="M 409.289062 400.117188 C 408.664062 400.117188 408.027344 399.957031 407.445312 399.621094 L 400.960938 395.878906 C 399.191406 394.855469 398.589844 392.59375 399.609375 390.824219 C 400.628906 389.054688 402.894531 388.449219 404.660156 389.472656 L 411.144531 393.214844 C 412.914062 394.238281 413.519531 396.496094 412.496094 398.265625 C 411.8125 399.453125 410.566406 400.117188 409.289062 400.117188 " fill-opacity="1" fill-rule="evenodd"/><path fill="#1685bb" d="M 403.152344 423.011719 L 395.671875 423.011719 C 393.625 423.011719 391.96875 421.359375 391.96875 419.3125 C 391.96875 417.269531 393.625 415.617188 395.671875 415.617188 L 403.152344 415.617188 C 405.195312 415.617188 406.851562 417.269531 406.851562 419.3125 C 406.851562 421.359375 405.195312 423.011719 403.152344 423.011719 " fill-opacity="1" fill-rule="evenodd"/><path fill="#1685bb" d="M 402.804688 449.652344 C 401.527344 449.652344 400.285156 448.988281 399.597656 447.800781 C 398.578125 446.03125 399.183594 443.769531 400.953125 442.75 L 407.433594 439.007812 C 409.203125 437.988281 411.464844 438.59375 412.484375 440.359375 C 413.507812 442.132812 412.898438 444.394531 411.132812 445.414062 L 404.652344 449.15625 C 404.070312 449.492188 403.433594 449.652344 402.804688 449.652344 " fill-opacity="1" fill-rule="evenodd"/><path fill="#1685bb" d="M 422.292969 469.15625 C 421.667969 469.15625 421.03125 468.996094 420.449219 468.660156 C 418.679688 467.640625 418.074219 465.375 419.09375 463.609375 L 422.835938 457.125 C 423.859375 455.355469 426.121094 454.75 427.890625 455.769531 C 429.660156 456.792969 430.265625 459.058594 429.242188 460.824219 L 425.503906 467.304688 C 424.816406 468.492188 423.574219 469.15625 422.292969 469.15625 " fill-opacity="1" fill-rule="evenodd"/><path fill="#1685bb" d="M 448.9375 476.300781 C 446.894531 476.300781 445.238281 474.644531 445.238281 472.597656 L 445.238281 465.117188 C 445.238281 463.074219 446.894531 461.417969 448.9375 461.417969 C 450.980469 461.417969 452.636719 463.074219 452.636719 465.117188 L 452.636719 472.597656 C 452.636719 474.644531 450.980469 476.300781 448.9375 476.300781 " fill-opacity="1" fill-rule="evenodd"/><path fill="#1685bb" d="M 475.578125 469.167969 C 474.296875 469.167969 473.058594 468.503906 472.371094 467.316406 L 468.632812 460.832031 C 467.609375 459.066406 468.214844 456.800781 469.984375 455.78125 C 471.753906 454.761719 474.019531 455.367188 475.039062 457.136719 L 478.777344 463.617188 C 479.800781 465.386719 479.191406 467.648438 477.425781 468.671875 C 476.84375 469.007812 476.207031 469.167969 475.578125 469.167969 " fill-opacity="1" fill-rule="evenodd"/><path fill="#1685bb" d="M 495.078125 449.667969 C 494.449219 449.667969 493.8125 449.507812 493.230469 449.171875 L 486.75 445.429688 C 484.980469 444.410156 484.375 442.148438 485.394531 440.378906 C 486.417969 438.609375 488.679688 438.003906 490.449219 439.023438 L 496.929688 442.765625 C 498.699219 443.789062 499.304688 446.046875 498.285156 447.820312 C 497.597656 449.003906 496.355469 449.667969 495.078125 449.667969 " fill-opacity="1" fill-rule="evenodd"/><path fill="#1685bb" d="M 502.222656 423.03125 L 494.738281 423.03125 C 492.695312 423.03125 491.042969 421.375 491.042969 419.332031 C 491.042969 417.289062 492.695312 415.632812 494.738281 415.632812 L 502.222656 415.632812 C 504.265625 415.632812 505.921875 417.289062 505.921875 419.332031 C 505.921875 421.375 504.265625 423.03125 502.222656 423.03125 " fill-opacity="1" fill-rule="evenodd"/><path fill="#1685bb" d="M 488.609375 400.132812 C 487.332031 400.132812 486.089844 399.46875 485.402344 398.28125 C 484.382812 396.515625 484.992188 394.25 486.757812 393.230469 L 493.238281 389.488281 C 495.007812 388.46875 497.269531 389.074219 498.292969 390.84375 C 499.316406 392.609375 498.707031 394.875 496.9375 395.894531 L 490.457031 399.636719 C 489.875 399.972656 489.238281 400.132812 488.609375 400.132812 " fill-opacity="1" fill-rule="evenodd"/><path fill="#1685bb" d="M 471.847656 383.371094 C 471.21875 383.371094 470.585938 383.207031 470 382.871094 C 468.234375 381.851562 467.625 379.589844 468.648438 377.820312 L 472.390625 371.339844 C 473.410156 369.570312 475.671875 368.960938 477.441406 369.984375 C 479.210938 371.003906 479.816406 373.265625 478.796875 375.039062 L 475.054688 381.519531 C 474.371094 382.703125 473.128906 383.371094 471.847656 383.371094 " fill-opacity="1" fill-rule="evenodd"/><path fill="#1685bb" d="M 448.953125 429.5625 C 443.34375 429.5625 438.777344 424.996094 438.777344 419.382812 C 438.777344 413.769531 443.34375 409.203125 448.953125 409.203125 C 454.566406 409.203125 459.132812 413.769531 459.132812 419.382812 C 459.132812 424.996094 454.566406 429.5625 448.953125 429.5625 Z M 448.953125 416.601562 C 447.421875 416.601562 446.175781 417.851562 446.175781 419.382812 C 446.175781 420.917969 447.421875 422.164062 448.953125 422.164062 C 450.488281 422.164062 451.734375 420.917969 451.734375 419.382812 C 451.734375 417.851562 450.488281 416.601562 448.953125 416.601562 " fill-opacity="1" fill-rule="evenodd"/><path fill="#1685bb" d="M 453.53125 418.503906 C 452.582031 418.503906 451.636719 418.144531 450.914062 417.421875 C 449.46875 415.980469 449.46875 413.636719 450.914062 412.191406 L 464.738281 398.355469 C 466.183594 396.910156 468.523438 396.910156 469.96875 398.351562 C 471.414062 399.796875 471.417969 402.140625 469.972656 403.582031 L 456.148438 417.417969 C 455.425781 418.140625 454.476562 418.503906 453.53125 418.503906 " fill-opacity="1" fill-rule="evenodd"/><path fill="#1685bb" d="M 467.359375 441.488281 C 466.410156 441.488281 465.464844 441.128906 464.742188 440.40625 L 450.90625 426.585938 C 449.464844 425.140625 449.460938 422.800781 450.90625 421.351562 C 452.347656 419.90625 454.691406 419.90625 456.136719 421.351562 L 469.972656 435.171875 C 471.417969 436.617188 471.417969 438.960938 469.976562 440.40625 C 469.253906 441.128906 468.304688 441.488281 467.359375 441.488281 " fill-opacity="1" fill-rule="evenodd"/></svg>