<svg xmlns="http://www.w3.org/2000/svg" xmlns:xlink="http://www.w3.org/1999/xlink" width="1080" zoomAndPan="magnify" viewBox="0 0 810 809.999993" height="1080" preserveAspectRatio="xMidYMid meet" version="1.0"><defs><clipPath id="b6b93f0437"><path d="M 379 389 L 515.582031 389 L 515.582031 480 L 379 480 Z M 379 389 " clip-rule="nonzero"/></clipPath><clipPath id="40ca3d0278"><path d="M 389 291.929688 L 482 291.929688 L 482 384 L 389 384 Z M 389 291.929688 " clip-rule="nonzero"/></clipPath><clipPath id="161373f745"><path d="M 297 394 L 422 394 L 422 518.429688 L 297 518.429688 Z M 297 394 " clip-rule="nonzero"/></clipPath></defs><g clip-path="url(#b6b93f0437)"><path fill="#1685bb" d="M 506.523438 427.355469 C 500.433594 410.292969 487.703125 397.035156 471.925781 389.804688 C 461.621094 397.085938 449.03125 401.34375 435.46875 401.34375 C 421.90625 401.34375 409.363281 397.109375 399.058594 389.777344 C 391.945312 393.039062 385.496094 397.511719 379.929688 402.984375 C 386.636719 413.910156 389.113281 426.878906 386.996094 439.5625 L 427.164062 479.683594 L 504.121094 479.683594 C 510.425781 479.683594 515.566406 474.28125 515.113281 467.972656 C 514.066406 454.078125 511.164062 440.371094 506.523438 427.355469 Z M 506.523438 427.355469 " fill-opacity="1" fill-rule="nonzero"/></g><g clip-path="url(#40ca3d0278)"><path fill="#1685bb" d="M 435.492188 383.640625 C 460.8125 383.640625 481.347656 363.101562 481.347656 337.785156 C 481.347656 312.464844 460.8125 291.929688 435.492188 291.929688 C 410.171875 291.929688 389.636719 312.464844 389.636719 337.785156 C 389.636719 363.101562 410.171875 383.640625 435.492188 383.640625 Z M 435.492188 383.640625 " fill-opacity="1" fill-rule="nonzero"/></g><g clip-path="url(#161373f745)"><path fill="#1685bb" d="M 420.097656 497.601562 L 367.246094 444.726562 C 372.742188 431.613281 370.171875 415.929688 359.511719 405.269531 C 345.421875 391.183594 322.601562 391.183594 308.515625 405.269531 C 294.429688 419.359375 294.429688 442.179688 308.515625 456.265625 C 319.175781 466.925781 334.882812 469.496094 347.96875 464 L 361.222656 477.253906 C 361.652344 477.683594 362.222656 477.921875 362.84375 477.921875 L 372.457031 477.921875 C 373.71875 477.921875 374.742188 478.945312 374.742188 480.207031 L 374.742188 489.820312 C 374.742188 490.414062 374.976562 491.007812 375.40625 491.4375 L 380.023438 496.054688 C 380.453125 496.480469 381.023438 496.71875 381.640625 496.71875 L 391.253906 496.71875 C 392.515625 496.71875 393.539062 497.742188 393.539062 499.003906 L 393.539062 508.617188 C 393.539062 509.214844 393.777344 509.808594 394.207031 510.234375 L 400.84375 516.875 C 401.25 517.28125 401.820312 517.519531 402.390625 517.542969 L 418.90625 518.019531 C 420.214844 518.066406 421.285156 516.96875 421.261719 515.660156 L 420.785156 499.148438 C 420.738281 498.550781 420.5 498.003906 420.097656 497.601562 Z M 332.761719 429.519531 C 328.8125 433.46875 322.386719 433.46875 318.4375 429.519531 C 314.488281 425.570312 314.488281 419.144531 318.4375 415.195312 C 322.386719 411.242188 328.8125 411.242188 332.761719 415.195312 C 336.714844 419.144531 336.714844 425.570312 332.761719 429.519531 Z M 332.761719 429.519531 " fill-opacity="1" fill-rule="nonzero"/></g></svg>