<svg xmlns="http://www.w3.org/2000/svg" xmlns:xlink="http://www.w3.org/1999/xlink" width="1080" zoomAndPan="magnify" viewBox="0 0 810 809.999993" height="1080" preserveAspectRatio="xMidYMid meet" version="1.0"><defs><clipPath id="60359b7ed3"><path d="M 280.207031 271 L 528 271 L 528 539.132812 L 280.207031 539.132812 Z M 280.207031 271 " clip-rule="nonzero"/></clipPath></defs><g clip-path="url(#60359b7ed3)"><path fill="#1685bb" d="M 375.46875 271.632812 C 343.988281 271.632812 318.308594 297.308594 318.308594 328.789062 C 318.308594 360.269531 343.988281 385.945312 375.46875 385.945312 C 406.949219 385.945312 432.625 360.269531 432.625 328.789062 C 432.625 297.308594 406.949219 271.632812 375.46875 271.632812 Z M 375.46875 385.945312 C 322.925781 385.945312 280.207031 428.664062 280.207031 481.207031 L 299.257812 481.207031 C 299.257812 439.160156 333.417969 405 375.46875 405 C 393.179688 405 409.253906 411.324219 422.207031 421.371094 L 435.527344 407.828125 C 419.078125 394.429688 398.316406 385.945312 375.46875 385.945312 Z M 375.46875 290.683594 C 396.605469 290.683594 413.574219 307.652344 413.574219 328.789062 C 413.574219 349.925781 396.605469 366.894531 375.46875 366.894531 C 354.332031 366.894531 337.363281 349.925781 337.363281 328.789062 C 337.363281 307.652344 354.332031 290.683594 375.46875 290.683594 Z M 493.652344 386.019531 C 487.476562 386.097656 481.296875 388.476562 476.683594 393.242188 L 387.820312 483.589844 L 374.574219 539.257812 L 430.242188 526.085938 L 432.105469 524.152344 L 520.667969 437.148438 C 530.121094 427.921875 530.269531 412.367188 520.816406 402.988281 L 510.84375 392.941406 C 506.15625 388.253906 499.902344 385.945312 493.652344 386.019531 Z M 493.800781 404.925781 C 495.066406 404.925781 496.332031 405.445312 497.371094 406.488281 L 507.34375 416.460938 C 509.429688 418.46875 509.429688 421.519531 507.34375 423.605469 L 420.71875 508.671875 L 400.175781 513.65625 L 405.089844 493.117188 L 490.304688 406.488281 C 491.269531 405.445312 492.535156 404.925781 493.800781 404.925781 Z M 493.800781 404.925781 " fill-opacity="1" fill-rule="nonzero"/></g></svg>