<svg xmlns="http://www.w3.org/2000/svg" xmlns:xlink="http://www.w3.org/1999/xlink" width="1080" zoomAndPan="magnify" viewBox="0 0 810 809.999993" height="1080" preserveAspectRatio="xMidYMid meet" version="1.0"><defs><clipPath id="7742c770b0"><path d="M 301.171875 324 L 474 324 L 474 493.644531 L 301.171875 493.644531 Z M 301.171875 324 " clip-rule="nonzero"/></clipPath><clipPath id="e599ea52c9"><path d="M 304 272.394531 L 508.921875 272.394531 L 508.921875 425 L 304 425 Z M 304 272.394531 " clip-rule="nonzero"/></clipPath></defs><g clip-path="url(#7742c770b0)"><path fill="#1685bb" d="M 322.386719 493.515625 L 456.390625 493.515625 C 457.769531 493.515625 458.976562 492.65625 459.492188 491.445312 C 460.011719 490.238281 459.839844 488.859375 458.976562 487.824219 C 456.734375 485.238281 450.871094 476.617188 450.871094 469.199219 C 450.871094 460.402344 456.042969 451.953125 458.113281 448.675781 L 470.1875 448.675781 C 471.566406 448.675781 472.773438 447.8125 473.289062 446.605469 C 473.808594 445.398438 473.636719 444.019531 472.773438 442.984375 C 470.53125 440.398438 464.667969 431.773438 464.667969 424.359375 C 464.667969 413.320312 472.773438 402.628906 472.945312 402.457031 C 473.808594 401.421875 473.808594 400.042969 473.289062 398.835938 C 472.773438 397.628906 471.566406 396.9375 470.1875 396.9375 L 466.5625 396.9375 C 464.324219 394.179688 458.632812 386.589844 458.632812 379.519531 C 458.632812 368.652344 467.597656 357.960938 467.597656 357.789062 C 468.460938 356.753906 468.632812 355.375 468.117188 354.167969 C 467.597656 352.960938 466.390625 352.097656 465.011719 352.097656 L 452.941406 352.097656 L 452.941406 324.675781 L 404.476562 341.058594 C 403.441406 341.578125 402.410156 341.75 401.203125 341.75 C 399.992188 341.75 398.960938 341.578125 397.925781 341.234375 L 349.460938 324.675781 L 349.460938 352.097656 C 337.046875 352.441406 327.042969 361.929688 327.042969 373.484375 L 327.042969 382.449219 C 327.042969 388.140625 329.457031 393.316406 333.421875 397.109375 C 323.074219 398.488281 314.96875 407.457031 314.96875 418.324219 L 314.96875 427.292969 C 314.96875 432.984375 317.210938 437.984375 320.660156 441.949219 C 309.796875 442.8125 301.171875 451.953125 301.171875 463.164062 L 301.171875 472.132812 C 301.171875 483.859375 310.660156 493.515625 322.386719 493.515625 Z M 333.941406 373.484375 C 333.941406 365.550781 341.183594 358.996094 350.152344 358.996094 L 458.285156 358.996094 C 455.183594 363.824219 451.558594 371.414062 451.558594 379.519531 C 451.558594 386.074219 454.835938 392.625 457.769531 396.9375 L 350.152344 396.9375 C 341.183594 396.9375 333.941406 390.382812 333.941406 382.449219 Z M 308.070312 463.164062 C 308.070312 455.230469 314.625 448.675781 322.386719 448.675781 L 450.007812 448.675781 C 447.25 453.503906 443.972656 461.09375 443.972656 469.199219 C 443.972656 475.753906 447.078125 482.308594 449.664062 486.617188 L 322.386719 486.617188 C 314.453125 486.617188 308.070312 480.066406 308.070312 472.132812 Z M 308.070312 463.164062 " fill-opacity="1" fill-rule="nonzero"/></g><g clip-path="url(#e599ea52c9)"><path fill="#1685bb" d="M 307.035156 303.117188 L 349.460938 317.433594 L 400.167969 334.679688 C 400.855469 334.851562 401.71875 334.851562 402.410156 334.679688 L 453.113281 317.433594 L 491.054688 304.5 L 491.054688 348.648438 C 485.191406 349.511719 480.707031 354.511719 480.707031 360.546875 L 480.707031 365.722656 C 480.707031 369.515625 483.8125 372.621094 487.605469 372.621094 L 490.191406 372.621094 L 480.878906 415.046875 C 480.363281 417.289062 480.878906 419.53125 482.429688 421.425781 C 483.984375 423.324219 486.226562 424.359375 488.8125 424.359375 L 500.367188 424.359375 C 502.78125 424.359375 505.195312 423.324219 506.75 421.425781 C 508.128906 419.53125 508.816406 417.289062 508.300781 415.046875 L 498.640625 372.792969 L 501.230469 372.792969 C 505.023438 372.792969 508.128906 369.6875 508.128906 365.894531 L 508.128906 360.722656 C 508.128906 354.683594 503.644531 349.683594 497.78125 348.820312 C 497.78125 348.820312 497.78125 323.988281 497.78125 309.5 L 497.78125 299.667969 C 497.78125 298.980469 497.433594 298.117188 496.917969 297.601562 C 496.746094 297.425781 496.746094 297.425781 496.574219 297.253906 C 496.226562 296.910156 496.054688 296.738281 495.710938 296.566406 C 495.539062 296.566406 495.367188 296.390625 495.191406 296.390625 L 402.0625 272.765625 C 401.71875 272.765625 401.546875 272.765625 401.203125 272.765625 C 400.855469 272.765625 400.683594 272.765625 400.339844 272.9375 L 307.210938 296.566406 C 307.035156 296.566406 306.863281 296.738281 306.691406 296.738281 C 306.347656 296.738281 306.003906 296.910156 305.828125 297.253906 C 305.65625 297.425781 305.65625 297.425781 305.484375 297.601562 C 304.96875 298.117188 304.621094 298.808594 304.621094 299.667969 C 304.621094 300.703125 304.96875 301.566406 305.65625 302.257812 C 306.003906 302.601562 306.347656 302.945312 307.035156 303.117188 Z M 401.203125 279.835938 L 482.257812 300.359375 L 401.203125 327.953125 L 320.144531 300.359375 Z M 401.203125 279.835938 " fill-opacity="1" fill-rule="nonzero"/></g></svg>