<svg xmlns="http://www.w3.org/2000/svg" xmlns:xlink="http://www.w3.org/1999/xlink" width="1080" zoomAndPan="magnify" viewBox="0 0 810 809.999993" height="1080" preserveAspectRatio="xMidYMid meet" version="1.0"><defs><clipPath id="45c95d3667"><path d="M 282.257812 283.347656 L 527.507812 283.347656 L 527.507812 496.347656 L 282.257812 496.347656 Z M 282.257812 283.347656 " clip-rule="nonzero"/></clipPath></defs><path fill="#ffffff" d="M 498.875 302.742188 C 489.253906 302.742188 298.960938 302.742188 287.09375 302.742188 C 287.09375 305.976562 287.09375 318.976562 287.09375 336.4375 L 393.007812 342.675781 L 498.917969 336.4375 C 498.917969 319.550781 498.917969 306.207031 498.917969 302.742188 Z M 498.875 302.742188 " fill-opacity="1" fill-rule="nonzero"/><path fill="#ffffff" d="M 287.09375 336.4375 C 287.09375 384.820312 287.09375 467.425781 287.09375 471.234375 L 462.335938 471.234375 L 498.917969 431.640625 C 498.917969 427.382812 498.917969 373.421875 498.917969 336.4375 Z M 287.09375 336.4375 " fill-opacity="1" fill-rule="nonzero"/><path fill="#ffffff" d="M 522.945312 461.285156 C 522.945312 478.101562 508.992188 491.734375 491.789062 491.734375 C 474.648438 491.734375 460.628906 478.160156 460.628906 461.285156 C 460.628906 441.71875 479.296875 427.144531 498.917969 431.640625 C 512.683594 434.789062 522.945312 446.867188 522.945312 461.285156 Z M 522.945312 461.285156 " fill-opacity="1" fill-rule="nonzero"/><path fill="#89ccff" d="M 460.402344 394.207031 L 479.660156 394.207031 L 479.660156 413.464844 L 460.402344 413.464844 Z M 460.402344 394.207031 " fill-opacity="1" fill-rule="nonzero"/><path fill="#89ccff" d="M 460.402344 355.695312 L 479.660156 355.695312 L 479.660156 374.953125 L 460.402344 374.953125 Z M 460.402344 355.695312 " fill-opacity="1" fill-rule="nonzero"/><path fill="#ffffff" d="M 467.382812 307.796875 C 467.382812 312.980469 463.183594 317.183594 457.996094 317.183594 L 457.515625 317.183594 C 452.332031 317.183594 448.128906 312.980469 448.128906 307.796875 L 448.128906 298.25 C 448.128906 293.0625 452.332031 288.859375 457.515625 288.859375 L 457.996094 288.859375 C 463.183594 288.859375 467.382812 293.0625 467.382812 298.25 C 467.382812 307.300781 467.382812 299.988281 467.382812 307.796875 Z M 467.382812 307.796875 " fill-opacity="1" fill-rule="nonzero"/><path fill="#89ccff" d="M 421.890625 432.722656 L 441.148438 432.722656 L 441.148438 451.976562 L 421.890625 451.976562 Z M 421.890625 432.722656 " fill-opacity="1" fill-rule="nonzero"/><path fill="#89ccff" d="M 421.890625 394.207031 L 441.148438 394.207031 L 441.148438 413.464844 L 421.890625 413.464844 Z M 421.890625 394.207031 " fill-opacity="1" fill-rule="nonzero"/><path fill="#89ccff" d="M 421.890625 355.695312 L 441.148438 355.695312 L 441.148438 374.953125 L 421.890625 374.953125 Z M 421.890625 355.695312 " fill-opacity="1" fill-rule="nonzero"/><path fill="#ffffff" d="M 424.101562 307.71875 C 424.101562 312.902344 419.898438 317.105469 414.714844 317.105469 L 414.230469 317.105469 C 409.046875 317.105469 404.84375 312.902344 404.84375 307.71875 C 404.84375 304.195312 404.84375 301.195312 404.84375 297.683594 C 404.84375 292.5 409.046875 288.296875 414.230469 288.296875 L 414.714844 288.296875 C 419.898438 288.296875 424.101562 292.5 424.101562 297.683594 C 424.101562 301.195312 424.101562 304.191406 424.101562 307.71875 Z M 424.101562 307.71875 " fill-opacity="1" fill-rule="nonzero"/><path fill="#89ccff" d="M 383.378906 432.722656 L 402.632812 432.722656 L 402.632812 451.976562 L 383.378906 451.976562 Z M 383.378906 432.722656 " fill-opacity="1" fill-rule="nonzero"/><path fill="#89ccff" d="M 383.378906 394.207031 L 402.632812 394.207031 L 402.632812 413.464844 L 383.378906 413.464844 Z M 383.378906 394.207031 " fill-opacity="1" fill-rule="nonzero"/><path fill="#89ccff" d="M 383.378906 355.695312 L 402.632812 355.695312 L 402.632812 374.953125 L 383.378906 374.953125 Z M 383.378906 355.695312 " fill-opacity="1" fill-rule="nonzero"/><path fill="#ffffff" d="M 380.730469 307.71875 C 380.730469 312.902344 376.527344 317.105469 371.34375 317.105469 L 370.859375 317.105469 C 365.675781 317.105469 361.472656 312.902344 361.472656 307.71875 C 361.472656 304.195312 361.472656 301.195312 361.472656 297.683594 C 361.472656 292.5 365.675781 288.296875 370.859375 288.296875 L 371.34375 288.296875 C 376.527344 288.296875 380.730469 292.5 380.730469 297.683594 C 380.730469 301.195312 380.730469 304.191406 380.730469 307.71875 Z M 380.730469 307.71875 " fill-opacity="1" fill-rule="nonzero"/><path fill="#89ccff" d="M 344.863281 432.722656 L 364.121094 432.722656 L 364.121094 451.976562 L 344.863281 451.976562 Z M 344.863281 432.722656 " fill-opacity="1" fill-rule="nonzero"/><path fill="#89ccff" d="M 344.863281 394.207031 L 364.121094 394.207031 L 364.121094 413.464844 L 344.863281 413.464844 Z M 344.863281 394.207031 " fill-opacity="1" fill-rule="nonzero"/><path fill="#89ccff" d="M 344.863281 355.695312 L 364.121094 355.695312 L 364.121094 374.953125 L 344.863281 374.953125 Z M 344.863281 355.695312 " fill-opacity="1" fill-rule="nonzero"/><path fill="#ffffff" d="M 337.402344 307.796875 C 337.402344 312.980469 333.199219 317.183594 328.015625 317.183594 C 322.832031 317.183594 318.628906 312.980469 318.628906 307.796875 C 318.628906 304.257812 318.628906 301.222656 318.628906 297.683594 C 318.628906 292.5 322.832031 288.296875 328.015625 288.296875 C 333.199219 288.296875 337.402344 292.496094 337.402344 297.683594 C 337.402344 297.683594 337.402344 304.257812 337.402344 307.796875 Z M 337.402344 307.796875 " fill-opacity="1" fill-rule="nonzero"/><path fill="#89ccff" d="M 306.351562 432.722656 L 325.609375 432.722656 L 325.609375 451.976562 L 306.351562 451.976562 Z M 306.351562 432.722656 " fill-opacity="1" fill-rule="nonzero"/><path fill="#89ccff" d="M 306.351562 394.207031 L 325.609375 394.207031 L 325.609375 413.464844 L 306.351562 413.464844 Z M 306.351562 394.207031 " fill-opacity="1" fill-rule="nonzero"/><path fill="#89ccff" d="M 306.351562 355.695312 L 325.609375 355.695312 L 325.609375 374.953125 L 306.351562 374.953125 Z M 306.351562 355.695312 " fill-opacity="1" fill-rule="nonzero"/><g clip-path="url(#45c95d3667)"><path fill="#1685bb" d="M 503.730469 428.027344 L 503.730469 302.742188 C 503.730469 300.082031 501.574219 297.925781 498.917969 297.925781 C 493.910156 297.925781 477.144531 297.925781 472.191406 297.925781 C 472.019531 290.246094 465.71875 284.046875 457.996094 284.046875 L 457.515625 284.046875 C 449.792969 284.046875 443.492188 290.246094 443.320312 297.925781 L 428.914062 297.925781 L 428.914062 297.6875 C 428.914062 289.855469 422.542969 283.484375 414.710938 283.484375 L 414.230469 283.484375 C 406.398438 283.484375 400.027344 289.855469 400.027344 297.6875 L 400.027344 297.925781 L 385.542969 297.925781 L 385.542969 297.6875 C 385.542969 289.855469 379.171875 283.484375 371.339844 283.484375 L 370.859375 283.484375 C 363.027344 283.484375 356.660156 289.855469 356.660156 297.6875 L 356.660156 297.925781 L 342.214844 297.925781 L 342.214844 297.6875 C 342.214844 289.855469 335.84375 283.484375 328.015625 283.484375 C 320.183594 283.484375 313.8125 289.855469 313.8125 297.6875 L 313.8125 297.925781 L 287.09375 297.925781 C 284.4375 297.925781 282.28125 300.082031 282.28125 302.742188 C 282.28125 307.976562 282.28125 462.238281 282.28125 471.238281 C 282.28125 473.894531 284.4375 476.050781 287.09375 476.050781 L 459.132812 476.050781 C 464.84375 488.136719 477.328125 496.546875 491.785156 496.546875 C 511.621094 496.546875 527.757812 480.726562 527.757812 461.285156 C 527.757812 445.945312 517.710938 432.867188 503.730469 428.027344 Z M 452.941406 298.25 C 452.941406 295.726562 454.992188 293.675781 457.515625 293.675781 L 457.996094 293.675781 C 460.519531 293.675781 462.570312 295.726562 462.570312 298.25 L 462.570312 307.796875 C 462.570312 310.316406 460.519531 312.371094 457.996094 312.371094 L 457.515625 312.371094 C 454.992188 312.371094 452.941406 310.316406 452.941406 307.796875 C 452.941406 301.671875 452.941406 303.933594 452.941406 298.25 Z M 409.65625 297.6875 C 409.65625 295.164062 411.707031 293.113281 414.230469 293.113281 L 414.710938 293.113281 C 417.234375 293.113281 419.285156 295.164062 419.285156 297.6875 L 419.285156 307.714844 C 419.285156 310.238281 417.234375 312.289062 414.710938 312.289062 L 414.230469 312.289062 C 411.707031 312.289062 409.65625 310.238281 409.65625 307.714844 C 409.660156 301.433594 409.660156 303.785156 409.65625 297.6875 Z M 366.285156 297.6875 C 366.285156 295.164062 368.339844 293.113281 370.859375 293.113281 L 371.339844 293.113281 C 373.863281 293.113281 375.914062 295.164062 375.914062 297.6875 L 375.914062 307.714844 C 375.914062 310.238281 373.863281 312.289062 371.339844 312.289062 L 370.859375 312.289062 C 368.339844 312.289062 366.285156 310.238281 366.285156 307.714844 C 366.289062 301.425781 366.289062 303.792969 366.285156 297.6875 Z M 323.441406 297.6875 C 323.441406 295.164062 325.492188 293.113281 328.015625 293.113281 C 330.535156 293.113281 332.585938 295.164062 332.585938 297.6875 L 332.585938 307.796875 C 332.585938 310.316406 330.535156 312.371094 328.015625 312.371094 C 325.492188 312.371094 323.441406 310.316406 323.441406 307.796875 C 323.441406 301.40625 323.441406 304.039062 323.441406 297.6875 Z M 291.910156 307.554688 L 313.8125 307.554688 L 313.8125 307.796875 C 313.8125 315.628906 320.183594 322 328.015625 322 C 335.84375 322 342.214844 315.628906 342.214844 307.796875 L 342.214844 307.554688 L 356.660156 307.554688 L 356.660156 307.714844 C 356.660156 315.546875 363.027344 321.917969 370.859375 321.917969 L 371.339844 321.917969 C 379.171875 321.917969 385.542969 315.546875 385.542969 307.714844 L 385.542969 307.554688 L 400.027344 307.554688 L 400.027344 307.714844 C 400.027344 315.546875 406.398438 321.917969 414.230469 321.917969 L 414.710938 321.917969 C 422.542969 321.917969 428.914062 315.546875 428.914062 307.714844 L 428.914062 307.554688 L 443.3125 307.554688 L 443.3125 307.796875 C 443.3125 315.628906 449.683594 322 457.515625 322 L 457.996094 322 C 465.828125 322 472.199219 315.628906 472.199219 307.796875 L 472.199219 307.554688 L 494.101562 307.554688 L 494.101562 331.625 L 291.910156 331.625 Z M 456.199219 466.421875 L 291.910156 466.421875 L 291.910156 341.253906 L 494.101562 341.253906 L 494.101562 426.101562 C 471.269531 424.671875 452.878906 444.234375 456.199219 466.421875 Z M 491.785156 486.917969 C 477.257812 486.917969 465.441406 475.417969 465.441406 461.285156 C 465.441406 447.148438 477.261719 435.652344 491.785156 435.652344 C 506.3125 435.652344 518.128906 447.148438 518.128906 461.285156 C 518.128906 475.417969 506.3125 486.917969 491.785156 486.917969 Z M 491.785156 486.917969 " fill-opacity="1" fill-rule="nonzero"/></g><path fill="#1685bb" d="M 325.605469 350.882812 L 306.351562 350.882812 C 303.691406 350.882812 301.535156 353.039062 301.535156 355.695312 L 301.535156 374.953125 C 301.535156 377.613281 303.691406 379.769531 306.351562 379.769531 L 325.605469 379.769531 C 328.265625 379.769531 330.421875 377.613281 330.421875 374.953125 L 330.421875 355.695312 C 330.421875 353.039062 328.265625 350.882812 325.605469 350.882812 Z M 320.792969 370.140625 L 311.164062 370.140625 L 311.164062 360.511719 L 320.792969 360.511719 Z M 320.792969 370.140625 " fill-opacity="1" fill-rule="nonzero"/><path fill="#1685bb" d="M 364.121094 350.882812 L 344.863281 350.882812 C 342.207031 350.882812 340.050781 353.039062 340.050781 355.695312 L 340.050781 374.953125 C 340.050781 377.613281 342.207031 379.769531 344.863281 379.769531 L 364.121094 379.769531 C 366.777344 379.769531 368.933594 377.613281 368.933594 374.953125 L 368.933594 355.695312 C 368.933594 353.039062 366.777344 350.882812 364.121094 350.882812 Z M 359.304688 370.140625 L 349.679688 370.140625 L 349.679688 360.511719 L 359.304688 360.511719 Z M 359.304688 370.140625 " fill-opacity="1" fill-rule="nonzero"/><path fill="#1685bb" d="M 402.632812 350.882812 L 383.375 350.882812 C 380.71875 350.882812 378.5625 353.039062 378.5625 355.695312 L 378.5625 374.953125 C 378.5625 377.613281 380.71875 379.769531 383.375 379.769531 L 402.632812 379.769531 C 405.292969 379.769531 407.449219 377.613281 407.449219 374.953125 L 407.449219 355.695312 C 407.449219 353.039062 405.292969 350.882812 402.632812 350.882812 Z M 397.820312 370.140625 L 388.191406 370.140625 L 388.191406 360.511719 L 397.820312 360.511719 Z M 397.820312 370.140625 " fill-opacity="1" fill-rule="nonzero"/><path fill="#1685bb" d="M 441.148438 350.882812 L 421.890625 350.882812 C 419.230469 350.882812 417.074219 353.039062 417.074219 355.695312 L 417.074219 374.953125 C 417.074219 377.613281 419.230469 379.769531 421.890625 379.769531 L 441.148438 379.769531 C 443.804688 379.769531 445.960938 377.613281 445.960938 374.953125 L 445.960938 355.695312 C 445.960938 353.039062 443.804688 350.882812 441.148438 350.882812 Z M 436.332031 370.140625 L 426.703125 370.140625 L 426.703125 360.511719 L 436.332031 360.511719 Z M 436.332031 370.140625 " fill-opacity="1" fill-rule="nonzero"/><path fill="#1685bb" d="M 460.402344 379.769531 L 479.660156 379.769531 C 482.316406 379.769531 484.472656 377.613281 484.472656 374.953125 L 484.472656 355.695312 C 484.472656 353.039062 482.316406 350.882812 479.660156 350.882812 L 460.402344 350.882812 C 457.746094 350.882812 455.589844 353.039062 455.589844 355.695312 L 455.589844 374.953125 C 455.589844 377.613281 457.746094 379.769531 460.402344 379.769531 Z M 465.21875 360.511719 L 474.84375 360.511719 L 474.84375 370.140625 L 465.21875 370.140625 Z M 465.21875 360.511719 " fill-opacity="1" fill-rule="nonzero"/><path fill="#1685bb" d="M 325.605469 389.394531 L 306.351562 389.394531 C 303.691406 389.394531 301.535156 391.550781 301.535156 394.210938 L 301.535156 413.464844 C 301.535156 416.125 303.691406 418.28125 306.351562 418.28125 L 325.605469 418.28125 C 328.265625 418.28125 330.421875 416.125 330.421875 413.464844 L 330.421875 394.210938 C 330.421875 391.550781 328.265625 389.394531 325.605469 389.394531 Z M 320.792969 408.652344 L 311.164062 408.652344 L 311.164062 399.023438 L 320.792969 399.023438 Z M 320.792969 408.652344 " fill-opacity="1" fill-rule="nonzero"/><path fill="#1685bb" d="M 364.121094 389.394531 L 344.863281 389.394531 C 342.207031 389.394531 340.050781 391.550781 340.050781 394.210938 L 340.050781 413.464844 C 340.050781 416.125 342.207031 418.28125 344.863281 418.28125 L 364.121094 418.28125 C 366.777344 418.28125 368.933594 416.125 368.933594 413.464844 L 368.933594 394.210938 C 368.933594 391.550781 366.777344 389.394531 364.121094 389.394531 Z M 359.304688 408.652344 L 349.679688 408.652344 L 349.679688 399.023438 L 359.304688 399.023438 Z M 359.304688 408.652344 " fill-opacity="1" fill-rule="nonzero"/><path fill="#1685bb" d="M 402.632812 389.394531 L 383.375 389.394531 C 380.71875 389.394531 378.5625 391.550781 378.5625 394.210938 L 378.5625 413.464844 C 378.5625 416.125 380.71875 418.28125 383.375 418.28125 L 402.632812 418.28125 C 405.292969 418.28125 407.449219 416.125 407.449219 413.464844 L 407.449219 394.210938 C 407.449219 391.550781 405.292969 389.394531 402.632812 389.394531 Z M 397.820312 408.652344 L 388.191406 408.652344 L 388.191406 399.023438 L 397.820312 399.023438 Z M 397.820312 408.652344 " fill-opacity="1" fill-rule="nonzero"/><path fill="#1685bb" d="M 441.148438 389.394531 L 421.890625 389.394531 C 419.230469 389.394531 417.074219 391.550781 417.074219 394.210938 L 417.074219 413.464844 C 417.074219 416.125 419.230469 418.28125 421.890625 418.28125 L 441.148438 418.28125 C 443.804688 418.28125 445.960938 416.125 445.960938 413.464844 L 445.960938 394.210938 C 445.960938 391.550781 443.804688 389.394531 441.148438 389.394531 Z M 436.332031 408.652344 L 426.703125 408.652344 L 426.703125 399.023438 L 436.332031 399.023438 Z M 436.332031 408.652344 " fill-opacity="1" fill-rule="nonzero"/><path fill="#1685bb" d="M 484.472656 413.464844 L 484.472656 394.210938 C 484.472656 391.550781 482.316406 389.394531 479.660156 389.394531 L 460.402344 389.394531 C 457.746094 389.394531 455.589844 391.550781 455.589844 394.210938 L 455.589844 413.464844 C 455.589844 416.125 457.746094 418.28125 460.402344 418.28125 L 479.660156 418.28125 C 482.316406 418.28125 484.472656 416.125 484.472656 413.464844 Z M 474.84375 408.652344 L 465.21875 408.652344 L 465.21875 399.023438 L 474.84375 399.023438 Z M 474.84375 408.652344 " fill-opacity="1" fill-rule="nonzero"/><path fill="#1685bb" d="M 325.605469 427.910156 L 306.351562 427.910156 C 303.691406 427.910156 301.535156 430.066406 301.535156 432.722656 L 301.535156 451.980469 C 301.535156 454.640625 303.691406 456.792969 306.351562 456.792969 L 325.605469 456.792969 C 328.265625 456.792969 330.421875 454.640625 330.421875 451.980469 L 330.421875 432.722656 C 330.421875 430.066406 328.265625 427.910156 325.605469 427.910156 Z M 320.792969 447.164062 L 311.164062 447.164062 L 311.164062 437.539062 L 320.792969 437.539062 Z M 320.792969 447.164062 " fill-opacity="1" fill-rule="nonzero"/><path fill="#1685bb" d="M 364.121094 427.910156 L 344.863281 427.910156 C 342.207031 427.910156 340.050781 430.066406 340.050781 432.722656 L 340.050781 451.980469 C 340.050781 454.640625 342.207031 456.792969 344.863281 456.792969 L 364.121094 456.792969 C 366.777344 456.792969 368.933594 454.640625 368.933594 451.980469 L 368.933594 432.722656 C 368.933594 430.066406 366.777344 427.910156 364.121094 427.910156 Z M 359.304688 447.164062 L 349.679688 447.164062 L 349.679688 437.539062 L 359.304688 437.539062 Z M 359.304688 447.164062 " fill-opacity="1" fill-rule="nonzero"/><path fill="#1685bb" d="M 402.632812 427.910156 L 383.375 427.910156 C 380.71875 427.910156 378.5625 430.066406 378.5625 432.722656 L 378.5625 451.980469 C 378.5625 454.640625 380.71875 456.792969 383.375 456.792969 L 402.632812 456.792969 C 405.292969 456.792969 407.449219 454.640625 407.449219 451.980469 L 407.449219 432.722656 C 407.449219 430.066406 405.292969 427.910156 402.632812 427.910156 Z M 397.820312 447.164062 L 388.191406 447.164062 L 388.191406 437.539062 L 397.820312 437.539062 Z M 397.820312 447.164062 " fill-opacity="1" fill-rule="nonzero"/><path fill="#1685bb" d="M 441.148438 427.910156 L 421.890625 427.910156 C 419.230469 427.910156 417.074219 430.066406 417.074219 432.722656 L 417.074219 451.980469 C 417.074219 454.640625 419.230469 456.792969 421.890625 456.792969 L 441.148438 456.792969 C 443.804688 456.792969 445.960938 454.640625 445.960938 451.980469 L 445.960938 432.722656 C 445.960938 430.066406 443.804688 427.910156 441.148438 427.910156 Z M 436.332031 447.164062 L 426.703125 447.164062 L 426.703125 437.539062 L 436.332031 437.539062 Z M 436.332031 447.164062 " fill-opacity="1" fill-rule="nonzero"/><path fill="#1685bb" d="M 498.875 461.363281 L 496.601562 461.363281 L 496.601562 451.980469 C 496.601562 449.320312 494.445312 447.164062 491.785156 447.164062 C 489.128906 447.164062 486.972656 449.320312 486.972656 451.980469 L 486.972656 466.175781 C 486.972656 468.835938 489.128906 470.992188 491.785156 470.992188 L 498.875 470.992188 C 501.53125 470.992188 503.6875 468.835938 503.6875 466.175781 C 503.6875 463.519531 501.53125 461.363281 498.875 461.363281 Z M 498.875 461.363281 " fill-opacity="1" fill-rule="nonzero"/></svg>