<svg xmlns="http://www.w3.org/2000/svg" xmlns:xlink="http://www.w3.org/1999/xlink" width="1080" zoomAndPan="magnify" viewBox="0 0 810 809.999993" height="1080" preserveAspectRatio="xMidYMid meet" version="1.0"><defs><clipPath id="732401b723"><path d="M 291.523438 291.523438 L 518.773438 291.523438 L 518.773438 518.773438 L 291.523438 518.773438 Z M 291.523438 291.523438 " clip-rule="nonzero"/></clipPath><clipPath id="7de26db0f3"><path d="M 291.523438 291.523438 L 518.773438 291.523438 L 518.773438 518.773438 L 291.523438 518.773438 Z M 291.523438 291.523438 " clip-rule="nonzero"/></clipPath></defs><g clip-path="url(#732401b723)"><path fill="#ffffff" d="M 518.46875 404.996094 C 518.46875 406.851562 518.421875 408.707031 518.332031 410.5625 C 518.238281 412.417969 518.101562 414.269531 517.921875 416.117188 C 517.738281 417.964844 517.511719 419.808594 517.238281 421.644531 C 516.96875 423.480469 516.648438 425.3125 516.289062 427.132812 C 515.925781 428.953125 515.519531 430.765625 515.066406 432.566406 C 514.617188 434.367188 514.121094 436.15625 513.582031 437.933594 C 513.042969 439.710938 512.460938 441.472656 511.835938 443.222656 C 511.207031 444.972656 510.539062 446.703125 509.828125 448.417969 C 509.121094 450.136719 508.367188 451.832031 507.574219 453.511719 C 506.777344 455.191406 505.945312 456.847656 505.070312 458.484375 C 504.195312 460.125 503.277344 461.738281 502.324219 463.332031 C 501.367188 464.925781 500.375 466.492188 499.34375 468.035156 C 498.3125 469.582031 497.242188 471.097656 496.136719 472.589844 C 495.03125 474.082031 493.886719 475.546875 492.710938 476.980469 C 491.53125 478.417969 490.320312 479.824219 489.074219 481.199219 C 487.824219 482.574219 486.546875 483.917969 485.230469 485.230469 C 483.917969 486.546875 482.574219 487.824219 481.199219 489.074219 C 479.824219 490.320312 478.417969 491.53125 476.980469 492.710938 C 475.546875 493.890625 474.082031 495.03125 472.589844 496.136719 C 471.097656 497.242188 469.582031 498.3125 468.035156 499.34375 C 466.492188 500.375 464.925781 501.367188 463.332031 502.324219 C 461.738281 503.277344 460.125 504.195312 458.484375 505.070312 C 456.847656 505.945312 455.191406 506.777344 453.511719 507.574219 C 451.832031 508.367188 450.132812 509.121094 448.417969 509.832031 C 446.703125 510.539062 444.972656 511.207031 443.222656 511.835938 C 441.472656 512.460938 439.710938 513.042969 437.933594 513.582031 C 436.15625 514.121094 434.367188 514.617188 432.566406 515.066406 C 430.765625 515.519531 428.953125 515.925781 427.132812 516.289062 C 425.3125 516.648438 423.480469 516.96875 421.644531 517.238281 C 419.808594 517.511719 417.964844 517.738281 416.117188 517.921875 C 414.269531 518.101562 412.417969 518.238281 410.5625 518.332031 C 408.707031 518.421875 406.851562 518.46875 404.996094 518.46875 C 403.136719 518.46875 401.28125 518.421875 399.425781 518.332031 C 397.574219 518.238281 395.722656 518.101562 393.871094 517.921875 C 392.023438 517.738281 390.183594 517.511719 388.34375 517.238281 C 386.507812 516.96875 384.679688 516.648438 382.859375 516.289062 C 381.035156 515.925781 379.226562 515.519531 377.421875 515.066406 C 375.621094 514.617188 373.832031 514.121094 372.054688 513.582031 C 370.277344 513.042969 368.515625 512.460938 366.765625 511.835938 C 365.019531 511.207031 363.285156 510.539062 361.570312 509.832031 C 359.855469 509.121094 358.15625 508.367188 356.480469 507.574219 C 354.800781 506.777344 353.140625 505.945312 351.503906 505.070312 C 349.867188 504.195312 348.25 503.277344 346.660156 502.324219 C 345.066406 501.367188 343.496094 500.375 341.953125 499.34375 C 340.410156 498.3125 338.890625 497.242188 337.398438 496.136719 C 335.90625 495.03125 334.445312 493.890625 333.007812 492.710938 C 331.574219 491.53125 330.167969 490.320312 328.792969 489.074219 C 327.414062 487.824219 326.070312 486.546875 324.757812 485.230469 C 323.445312 483.917969 322.164062 482.574219 320.917969 481.199219 C 319.671875 479.824219 318.457031 478.417969 317.28125 476.980469 C 316.101562 475.546875 314.960938 474.082031 313.851562 472.589844 C 312.746094 471.097656 311.675781 469.582031 310.644531 468.035156 C 309.613281 466.492188 308.621094 464.925781 307.667969 463.332031 C 306.710938 461.738281 305.796875 460.125 304.921875 458.484375 C 304.046875 456.847656 303.210938 455.191406 302.417969 453.511719 C 301.621094 451.832031 300.871094 450.136719 300.160156 448.417969 C 299.449219 446.703125 298.78125 444.972656 298.15625 443.222656 C 297.53125 441.472656 296.949219 439.710938 296.410156 437.933594 C 295.871094 436.15625 295.375 434.367188 294.921875 432.566406 C 294.472656 430.765625 294.066406 428.953125 293.703125 427.132812 C 293.339844 425.3125 293.023438 423.480469 292.75 421.644531 C 292.476562 419.808594 292.25 417.964844 292.070312 416.117188 C 291.886719 414.269531 291.75 412.417969 291.660156 410.5625 C 291.566406 408.707031 291.523438 406.851562 291.523438 404.996094 C 291.523438 403.136719 291.566406 401.28125 291.660156 399.425781 C 291.75 397.574219 291.886719 395.722656 292.070312 393.871094 C 292.25 392.023438 292.476562 390.183594 292.75 388.34375 C 293.023438 386.507812 293.339844 384.679688 293.703125 382.859375 C 294.066406 381.035156 294.472656 379.226562 294.921875 377.421875 C 295.375 375.621094 295.871094 373.832031 296.410156 372.054688 C 296.949219 370.277344 297.53125 368.515625 298.15625 366.765625 C 298.78125 365.019531 299.449219 363.285156 300.160156 361.570312 C 300.871094 359.855469 301.621094 358.15625 302.417969 356.480469 C 303.210938 354.800781 304.046875 353.140625 304.921875 351.503906 C 305.796875 349.867188 306.710938 348.25 307.667969 346.660156 C 308.621094 345.066406 309.613281 343.496094 310.644531 341.953125 C 311.675781 340.410156 312.746094 338.890625 313.851562 337.398438 C 314.960938 335.90625 316.101562 334.445312 317.28125 333.007812 C 318.457031 331.574219 319.671875 330.167969 320.917969 328.792969 C 322.164062 327.414062 323.445312 326.070312 324.757812 324.757812 C 326.070312 323.445312 327.414062 322.164062 328.792969 320.917969 C 330.167969 319.671875 331.574219 318.457031 333.007812 317.28125 C 334.445312 316.101562 335.90625 314.960938 337.398438 313.851562 C 338.890625 312.746094 340.410156 311.675781 341.953125 310.644531 C 343.496094 309.613281 345.066406 308.621094 346.660156 307.667969 C 348.25 306.710938 349.867188 305.796875 351.503906 304.921875 C 353.140625 304.046875 354.800781 303.210938 356.480469 302.417969 C 358.15625 301.621094 359.855469 300.871094 361.570312 300.160156 C 363.285156 299.449219 365.019531 298.78125 366.765625 298.15625 C 368.515625 297.53125 370.277344 296.949219 372.054688 296.410156 C 373.832031 295.871094 375.621094 295.375 377.421875 294.921875 C 379.226562 294.472656 381.035156 294.066406 382.859375 293.703125 C 384.679688 293.339844 386.507812 293.023438 388.34375 292.75 C 390.183594 292.476562 392.023438 292.25 393.871094 292.070312 C 395.722656 291.886719 397.574219 291.75 399.425781 291.660156 C 401.28125 291.566406 403.136719 291.523438 404.996094 291.523438 C 406.851562 291.523438 408.707031 291.566406 410.5625 291.660156 C 412.417969 291.75 414.269531 291.886719 416.117188 292.070312 C 417.964844 292.25 419.808594 292.476562 421.644531 292.75 C 423.480469 293.023438 425.3125 293.339844 427.132812 293.703125 C 428.953125 294.066406 430.765625 294.472656 432.566406 294.921875 C 434.367188 295.375 436.15625 295.871094 437.933594 296.410156 C 439.710938 296.949219 441.472656 297.53125 443.222656 298.15625 C 444.972656 298.78125 446.703125 299.449219 448.417969 300.160156 C 450.132812 300.871094 451.832031 301.621094 453.511719 302.417969 C 455.191406 303.210938 456.847656 304.046875 458.484375 304.921875 C 460.125 305.796875 461.738281 306.710938 463.332031 307.667969 C 464.925781 308.621094 466.492188 309.613281 468.035156 310.644531 C 469.582031 311.675781 471.097656 312.746094 472.589844 313.851562 C 474.082031 314.960938 475.546875 316.101562 476.980469 317.28125 C 478.417969 318.457031 479.824219 319.671875 481.199219 320.917969 C 482.574219 322.164062 483.917969 323.445312 485.230469 324.757812 C 486.546875 326.070312 487.824219 327.414062 489.074219 328.792969 C 490.320312 330.167969 491.53125 331.574219 492.710938 333.007812 C 493.886719 334.445312 495.03125 335.90625 496.136719 337.398438 C 497.242188 338.890625 498.3125 340.410156 499.34375 341.953125 C 500.375 343.496094 501.367188 345.066406 502.324219 346.660156 C 503.277344 348.25 504.195312 349.867188 505.070312 351.503906 C 505.945312 353.140625 506.777344 354.800781 507.574219 356.480469 C 508.367188 358.15625 509.121094 359.855469 509.828125 361.570312 C 510.539062 363.285156 511.207031 365.019531 511.835938 366.765625 C 512.460938 368.515625 513.042969 370.277344 513.582031 372.054688 C 514.121094 373.832031 514.617188 375.621094 515.066406 377.421875 C 515.519531 379.226562 515.925781 381.035156 516.289062 382.859375 C 516.648438 384.679688 516.96875 386.507812 517.238281 388.34375 C 517.511719 390.183594 517.738281 392.023438 517.921875 393.871094 C 518.101562 395.722656 518.238281 397.574219 518.332031 399.425781 C 518.421875 401.28125 518.46875 403.136719 518.46875 404.996094 Z M 518.46875 404.996094 " fill-opacity="1" fill-rule="nonzero"/></g><path fill="#1685bb" d="M 370.226562 424.753906 C 351.175781 429.0625 337.652344 445.984375 337.652344 465.515625 L 337.652344 493.960938 L 324.941406 482.507812 L 324.941406 468.960938 C 324.941406 448.265625 339.265625 430.324219 359.453125 425.746094 Z M 370.226562 424.753906 " fill-opacity="1" fill-rule="nonzero"/><path fill="#1685bb" d="M 385.960938 412.070312 L 385.960938 414.226562 C 385.960938 418.988281 387.683594 422.851562 392.5 422.851562 L 392.5 420.726562 C 392.5 419.121094 393.800781 417.820312 395.40625 417.820312 L 402.671875 417.820312 L 392.5 414.226562 Z M 385.960938 412.070312 " fill-opacity="1" fill-rule="nonzero"/><path fill="#1685bb" d="M 372.011719 363.730469 L 372.011719 381.152344 C 372.011719 400.203125 387.453125 415.648438 406.503906 415.648438 C 425.554688 415.648438 441 400.203125 441 381.152344 L 441 364.894531 L 443.90625 364.894531 L 443.90625 381.152344 C 443.90625 401.808594 427.160156 418.554688 406.503906 418.554688 C 385.847656 418.554688 369.105469 401.808594 369.105469 381.152344 L 369.105469 363.730469 Z M 372.011719 363.730469 " fill-opacity="1" fill-rule="evenodd"/><path fill="#1685bb" d="M 426.246094 379.039062 C 426.246094 381.285156 424.40625 383.101562 422.136719 383.101562 C 419.867188 383.101562 418.027344 381.285156 418.027344 379.039062 C 418.027344 376.792969 419.867188 374.972656 422.136719 374.972656 C 424.40625 374.972656 426.246094 376.792969 426.246094 379.039062 Z M 426.246094 379.039062 " fill-opacity="1" fill-rule="nonzero"/><path fill="#1685bb" d="M 395.621094 379.039062 C 395.621094 381.285156 393.78125 383.101562 391.511719 383.101562 C 389.242188 383.101562 387.40625 381.285156 387.40625 379.039062 C 387.40625 376.792969 389.242188 374.972656 391.511719 374.972656 C 393.78125 374.972656 395.621094 376.792969 395.621094 379.039062 Z M 395.621094 379.039062 " fill-opacity="1" fill-rule="nonzero"/><path fill="#1685bb" d="M 393.117188 398.320312 C 393.691406 397.761719 394.613281 397.777344 395.167969 398.351562 C 401.546875 404.929688 412.101562 404.929688 418.480469 398.351562 C 419.039062 397.777344 419.957031 397.761719 420.535156 398.320312 C 421.109375 398.878906 421.125 399.796875 420.566406 400.375 C 413.046875 408.132812 400.601562 408.132812 393.082031 400.375 C 392.523438 399.796875 392.539062 398.878906 393.117188 398.320312 Z M 393.117188 398.320312 " fill-opacity="1" fill-rule="evenodd"/><path fill="#1685bb" d="M 386.984375 420.261719 C 387.222656 421.027344 386.796875 421.839844 386.03125 422.082031 L 381.375 423.535156 L 359.867188 428.363281 C 340.300781 432.753906 326.390625 450.128906 326.390625 470.183594 L 326.390625 484.640625 L 323.488281 480.910156 L 323.488281 470.183594 C 323.488281 448.769531 338.335938 430.214844 359.234375 425.527344 L 380.621094 420.726562 L 385.164062 419.308594 C 385.929688 419.066406 386.746094 419.496094 386.984375 420.261719 Z M 386.984375 420.261719 " fill-opacity="1" fill-rule="nonzero"/><path fill="#1685bb" d="M 358.960938 464.367188 C 358.960938 463.5625 359.613281 462.914062 360.414062 462.914062 C 361.21875 462.914062 361.867188 463.5625 361.867188 464.367188 L 361.867188 508.078125 L 358.960938 507.015625 Z M 358.960938 464.367188 " fill-opacity="1" fill-rule="nonzero"/><path fill="#1685bb" d="M 452.625 464.367188 C 452.625 463.5625 453.273438 462.914062 454.074219 462.914062 C 454.878906 462.914062 455.527344 463.5625 455.527344 464.367188 L 455.527344 504.617188 L 452.625 506.480469 Z M 452.625 464.367188 " fill-opacity="1" fill-rule="nonzero"/><path fill="#1685bb" d="M 484.035156 470.777344 C 484.035156 451.746094 471.488281 434.996094 453.226562 429.644531 L 433.90625 423.984375 L 425.597656 422.113281 C 424.816406 421.933594 424.324219 421.15625 424.5 420.375 C 424.675781 419.59375 425.453125 419.101562 426.234375 419.277344 L 434.636719 421.167969 L 454.046875 426.855469 C 473.542969 432.570312 486.9375 450.457031 486.9375 470.777344 L 486.9375 483.308594 L 484.035156 485.171875 Z M 484.035156 470.777344 " fill-opacity="1" fill-rule="nonzero"/><path fill="#1685bb" d="M 385.960938 409.539062 C 386.765625 409.539062 387.414062 410.1875 387.414062 410.992188 L 387.414062 420.394531 C 387.414062 421.199219 386.765625 421.847656 385.960938 421.847656 C 385.160156 421.847656 384.507812 421.199219 384.507812 420.394531 L 384.507812 410.992188 C 384.507812 410.1875 385.160156 409.539062 385.960938 409.539062 Z M 425.191406 410.976562 C 425.992188 410.976562 426.644531 411.625 426.644531 412.429688 L 426.644531 420.03125 C 426.644531 420.835938 425.992188 421.484375 425.191406 421.484375 C 424.386719 421.484375 423.738281 420.835938 423.738281 420.03125 L 423.738281 412.429688 C 423.738281 411.625 424.386719 410.976562 425.191406 410.976562 Z M 425.191406 410.976562 " fill-opacity="1" fill-rule="evenodd"/><path fill="#1685bb" d="M 450.980469 384.445312 C 450.980469 380.566406 447.539062 377.589844 443.703125 378.152344 L 442.785156 378.285156 C 441.992188 378.398438 441.253906 377.851562 441.140625 377.054688 C 441.023438 376.261719 441.574219 375.523438 442.367188 375.410156 L 443.28125 375.273438 C 448.871094 374.460938 453.886719 378.792969 453.886719 384.445312 C 453.886719 388.261719 451.542969 391.691406 447.984375 393.078125 L 440.972656 395.8125 C 440.226562 396.101562 439.382812 395.734375 439.09375 394.984375 C 438.800781 394.238281 439.171875 393.394531 439.917969 393.105469 L 446.929688 390.371094 C 449.371094 389.417969 450.980469 387.066406 450.980469 384.445312 Z M 450.980469 384.445312 " fill-opacity="1" fill-rule="evenodd"/><path fill="#1685bb" d="M 361.261719 384.480469 C 361.261719 380.582031 364.71875 377.59375 368.574219 378.15625 L 369.457031 378.285156 C 370.25 378.398438 370.988281 377.851562 371.101562 377.054688 C 371.21875 376.261719 370.667969 375.523438 369.875 375.410156 L 368.996094 375.28125 C 363.386719 374.460938 358.355469 378.8125 358.355469 384.480469 C 358.355469 388.277344 360.667969 391.695312 364.191406 393.109375 L 372.707031 396.523438 C 373.453125 396.824219 374.296875 396.460938 374.597656 395.71875 C 374.894531 394.972656 374.535156 394.125 373.789062 393.828125 L 365.273438 390.410156 C 362.851562 389.441406 361.261719 387.089844 361.261719 384.480469 Z M 361.261719 384.480469 " fill-opacity="1" fill-rule="evenodd"/><path fill="#1685bb" d="M 360.898438 388.425781 C 360.199219 387.25 359.808594 385.886719 359.808594 384.464844 C 359.808594 380.050781 363.476562 376.585938 367.800781 376.644531 C 362.589844 380.78125 362.355469 392.21875 372.769531 394.078125 L 372.886719 394.097656 C 372.847656 394.089844 372.808594 394.085938 372.769531 394.078125 L 368.074219 393.257812 C 367.167969 393.101562 366.214844 393.074219 365.375 392.695312 C 363.519531 391.855469 361.601562 389.609375 360.898438 388.425781 Z M 360.898438 388.425781 " fill-opacity="1" fill-rule="nonzero"/><path fill="#1685bb" d="M 424.445312 421.667969 L 408.179688 436.066406 L 416.308594 447.222656 L 429.886719 428.15625 Z M 423.078125 418.996094 C 424 418.183594 425.40625 418.289062 426.195312 419.230469 L 432.472656 426.71875 C 433.109375 427.480469 433.152344 428.574219 432.578125 429.382812 L 418.089844 449.730469 C 417.226562 450.945312 415.429688 450.953125 414.554688 449.75 L 405.445312 437.242188 C 404.78125 436.335938 404.917969 435.070312 405.761719 434.328125 Z M 423.078125 418.996094 " fill-opacity="1" fill-rule="evenodd"/><path fill="#1685bb" d="M 406.722656 435.414062 L 424.042969 420.085938 C 424.347656 419.8125 424.816406 419.847656 425.082031 420.160156 L 431.359375 427.652344 C 431.570312 427.90625 431.585938 428.269531 431.394531 428.539062 L 416.90625 448.890625 C 416.621094 449.292969 416.019531 449.296875 415.730469 448.894531 L 406.617188 436.386719 C 406.398438 436.085938 406.445312 435.664062 406.722656 435.414062 Z M 406.722656 435.414062 " fill-opacity="1" fill-rule="nonzero"/><path fill="#1685bb" d="M 386.914062 421.667969 L 403.179688 436.066406 L 395.050781 447.222656 L 381.476562 428.15625 Z M 388.28125 418.996094 C 387.363281 418.183594 385.957031 418.289062 385.167969 419.230469 L 378.890625 426.71875 C 378.25 427.480469 378.207031 428.574219 378.785156 429.382812 L 393.269531 449.730469 C 394.132812 450.945312 395.929688 450.953125 396.808594 449.75 L 405.917969 437.242188 C 406.578125 436.335938 406.441406 435.070312 405.601562 434.328125 Z M 388.28125 418.996094 " fill-opacity="1" fill-rule="evenodd"/><path fill="#1685bb" d="M 404.636719 435.414062 L 387.320312 420.085938 C 387.011719 419.8125 386.542969 419.847656 386.28125 420.160156 L 380 427.652344 C 379.789062 427.90625 379.773438 428.269531 379.96875 428.539062 L 394.453125 448.890625 C 394.742188 449.292969 395.339844 449.296875 395.632812 448.894531 L 404.742188 436.386719 C 404.964844 436.085938 404.917969 435.664062 404.636719 435.414062 Z M 404.636719 435.414062 " fill-opacity="1" fill-rule="nonzero"/><path fill="#1685bb" d="M 406.304688 310.699219 C 381.472656 310.699219 360.5 326.765625 354.433594 345.707031 C 353.371094 349.023438 354.335938 352.132812 356.398438 354.3125 C 358.300781 356.324219 361.125 357.546875 364.167969 357.546875 C 364.753906 359.386719 365.875 361.132812 367.375 362.738281 C 369.640625 365.167969 372.855469 367.367188 376.734375 369.21875 C 384.492188 372.925781 395.121094 375.355469 406.804688 375.355469 C 418.492188 375.355469 429.121094 372.925781 436.878906 369.21875 C 440.753906 367.367188 443.972656 365.167969 446.238281 362.738281 C 447.75 361.121094 448.875 359.359375 449.457031 357.5 C 452.109375 357.261719 454.523438 356.097656 456.210938 354.3125 C 458.273438 352.132812 459.234375 349.023438 458.171875 345.707031 C 452.109375 326.765625 431.132812 310.699219 406.304688 310.699219 Z M 369.496094 360.757812 C 368.4375 359.621094 367.679688 358.492188 367.207031 357.386719 L 406.304688 355.113281 L 446.378906 357.445312 C 445.90625 358.53125 445.15625 359.640625 444.113281 360.757812 C 442.167969 362.84375 439.285156 364.847656 435.625 366.597656 C 428.3125 370.089844 418.121094 372.449219 406.804688 372.449219 C 395.492188 372.449219 385.300781 370.089844 377.988281 366.597656 C 374.328125 364.847656 371.445312 362.84375 369.496094 360.757812 Z M 398.726562 332.90625 C 398.726562 328.382812 402.355469 324.742188 406.804688 324.742188 C 411.257812 324.742188 414.886719 328.382812 414.886719 332.90625 C 414.886719 337.425781 411.257812 341.070312 406.804688 341.070312 C 402.355469 341.070312 398.726562 337.425781 398.726562 332.90625 Z M 398.726562 332.90625 " fill-opacity="1" fill-rule="evenodd"/><path fill="#1685bb" d="M 412.625 486.972656 L 412.625 503.308594 C 417.800781 505.699219 421.394531 510.9375 421.394531 517.015625 L 418.488281 517.015625 C 418.488281 512.03125 415.496094 507.746094 411.207031 505.855469 C 410.347656 505.480469 409.71875 504.621094 409.71875 503.601562 L 409.71875 486.511719 C 408.597656 486.386719 407.457031 486.320312 406.304688 486.320312 C 405.148438 486.320312 404.007812 486.386719 402.886719 486.511719 L 402.886719 503.601562 C 402.886719 504.621094 402.253906 505.480469 401.398438 505.855469 C 397.109375 507.746094 394.117188 512.03125 394.117188 517.015625 L 391.210938 517.015625 C 391.210938 510.9375 394.804688 505.699219 399.980469 503.308594 L 399.980469 486.972656 C 387.296875 489.628906 377.492188 500.113281 375.851562 513.140625 L 372.992188 512.609375 C 375.148438 496.132812 389.242188 483.417969 406.304688 483.417969 C 423.179688 483.417969 437.152344 495.859375 439.539062 512.074219 L 436.679688 512.609375 C 434.84375 499.828125 425.132812 489.59375 412.625 486.972656 Z M 412.625 486.972656 " fill-opacity="1" fill-rule="nonzero"/><path fill="#1685bb" d="M 362.785156 508.613281 C 366.710938 488.15625 384.703125 472.699219 406.304688 472.699219 C 427.621094 472.699219 445.425781 487.753906 449.660156 507.8125 L 447.0625 509.675781 C 443.597656 490.308594 426.667969 475.605469 406.304688 475.605469 C 385.75 475.605469 368.695312 490.578125 365.449219 510.210938 Z M 362.785156 508.613281 " fill-opacity="1" fill-rule="nonzero"/><path fill="#1685bb" d="M 406.304688 510.195312 C 402.535156 510.195312 399.484375 513.25 399.484375 517.015625 L 392.664062 517.015625 C 392.664062 511.4375 396.015625 506.640625 400.8125 504.527344 C 401.183594 504.363281 401.433594 504.007812 401.433594 503.601562 L 401.433594 485.84375 L 411.171875 485.84375 L 411.171875 503.601562 C 411.171875 504.007812 411.425781 504.363281 411.792969 504.527344 C 416.589844 506.640625 419.941406 511.4375 419.941406 517.015625 L 413.121094 517.015625 C 413.121094 513.25 410.070312 510.195312 406.304688 510.195312 Z M 406.304688 510.195312 " fill-opacity="1" fill-rule="nonzero"/><path fill="#1685bb" d="M 364.164062 509.144531 C 367.859375 489.230469 385.320312 474.152344 406.304688 474.152344 C 427.003906 474.152344 444.277344 488.828125 448.285156 508.347656 L 438.113281 512.339844 C 435.847656 496.800781 422.46875 484.871094 406.304688 484.871094 C 390.042969 484.871094 376.605469 496.9375 374.457031 512.609375 Z M 364.164062 509.144531 " fill-opacity="1" fill-rule="nonzero"/><path fill="#1685bb" d="M 449.273438 425.972656 C 449.804688 426.574219 449.746094 427.492188 449.148438 428.023438 L 394.171875 476.652344 L 393.246094 477.421875 C 392.628906 477.9375 391.714844 477.851562 391.199219 477.234375 C 390.6875 476.617188 390.773438 475.699219 391.390625 475.1875 L 392.28125 474.449219 L 447.222656 425.847656 C 447.824219 425.3125 448.742188 425.371094 449.273438 425.972656 Z M 464.160156 432.140625 C 464.695312 432.738281 464.644531 433.660156 464.042969 434.191406 L 417.078125 476.132812 C 416.480469 476.667969 415.5625 476.617188 415.027344 476.019531 C 414.492188 475.417969 414.542969 474.5 415.140625 473.964844 L 462.109375 432.027344 C 462.707031 431.492188 463.625 431.542969 464.160156 432.140625 Z M 464.160156 432.140625 " fill-opacity="1" fill-rule="evenodd"/><g clip-path="url(#7de26db0f3)"><path fill="#1685bb" d="M 404.996094 294.71875 C 344.089844 294.71875 294.71875 344.089844 294.71875 404.996094 C 294.71875 465.898438 344.089844 515.269531 404.996094 515.269531 C 465.898438 515.269531 515.269531 465.898438 515.269531 404.996094 C 515.269531 344.089844 465.898438 294.71875 404.996094 294.71875 Z M 291.523438 404.996094 C 291.523438 342.324219 342.324219 291.523438 404.996094 291.523438 C 467.664062 291.523438 518.46875 342.324219 518.46875 404.996094 C 518.46875 467.664062 467.664062 518.46875 404.996094 518.46875 C 342.324219 518.46875 291.523438 467.664062 291.523438 404.996094 Z M 291.523438 404.996094 " fill-opacity="1" fill-rule="evenodd"/></g></svg>