<svg xmlns="http://www.w3.org/2000/svg" xmlns:xlink="http://www.w3.org/1999/xlink" width="1080" zoomAndPan="magnify" viewBox="0 0 810 809.999993" height="1080" preserveAspectRatio="xMidYMid meet" version="1.0"><defs><clipPath id="cbf0093a60"><path d="M 351 329 L 459 329 L 459 498.742188 L 351 498.742188 Z M 351 329 " clip-rule="nonzero"/></clipPath></defs><g clip-path="url(#cbf0093a60)"><path fill="#1685bb" d="M 405 422.054688 C 384.53125 422.054688 367.933594 405.453125 367.933594 384.984375 C 367.933594 364.519531 384.53125 347.921875 405 347.921875 C 425.453125 347.921875 442.054688 364.519531 442.054688 384.984375 C 442.054688 405.453125 425.453125 422.054688 405 422.054688 Z M 406.519531 329.28125 C 406.003906 329.269531 405.519531 329.261719 405 329.261719 C 404.5 329.261719 403.996094 329.269531 403.496094 329.28125 C 363.722656 330.292969 339.15625 373.253906 357.636719 408.492188 L 371.855469 435.582031 L 405 498.753906 L 438.140625 435.582031 L 452.347656 408.492188 C 470.828125 373.253906 446.261719 330.292969 406.519531 329.28125 " fill-opacity="1" fill-rule="nonzero"/></g><path fill="#1685bb" d="M 524.710938 454.515625 C 524.710938 452.636719 525.457031 450.761719 526.976562 449.433594 L 527.429688 448.980469 C 527.625 448.785156 527.785156 448.65625 527.882812 448.527344 L 528.109375 448.300781 C 561.378906 414.320312 561.378906 359.003906 528.109375 325.011719 L 527.882812 324.773438 C 527.785156 324.660156 527.625 324.511719 527.429688 324.320312 C 527.234375 324.136719 527.074219 323.980469 526.976562 323.878906 C 524.160156 321.386719 523.902344 317.101562 526.394531 314.296875 C 528.886719 311.5 533.191406 311.246094 536.003906 313.738281 C 536.394531 314.101562 536.71875 314.433594 537.007812 314.726562 C 537.300781 314.988281 537.558594 315.273438 537.882812 315.621094 C 556.554688 334.722656 566.816406 359.945312 566.816406 386.65625 C 566.816406 413.378906 556.554688 438.589844 537.882812 457.683594 C 537.558594 458.042969 537.300781 458.332031 537.007812 458.589844 C 536.71875 458.882812 536.394531 459.207031 535.972656 459.5625 C 533.191406 462.054688 528.886719 461.828125 526.394531 459.011719 C 525.261719 457.71875 524.710938 456.101562 524.710938 454.515625 " fill-opacity="1" fill-rule="nonzero"/><path fill="#1685bb" d="M 529.371094 373.457031 C 526.878906 361.285156 520.988281 350.113281 512.347656 341.144531 C 512.023438 340.804688 511.734375 340.519531 511.472656 340.273438 L 511.34375 340.136719 C 511.117188 339.882812 510.761719 339.539062 510.308594 339.167969 C 507.460938 336.746094 503.191406 337.101562 500.761719 339.964844 C 499.695312 341.238281 499.144531 342.792969 499.144531 344.339844 C 499.144531 346.246094 499.953125 348.144531 501.507812 349.484375 C 501.570312 349.535156 501.605469 349.582031 501.636719 349.632812 C 501.734375 349.703125 501.796875 349.785156 501.894531 349.863281 C 502.121094 350.097656 502.285156 350.25 502.414062 350.414062 L 502.542969 350.523438 C 516.230469 364.703125 520.730469 385.847656 514 404.394531 C 511.507812 411.277344 507.65625 417.492188 502.542969 422.796875 L 502.414062 422.894531 C 502.285156 423.058594 502.121094 423.21875 501.894531 423.445312 C 499.242188 426.097656 499.242188 430.402344 501.894531 433.023438 C 504.550781 435.679688 508.820312 435.679688 511.476562 433.058594 C 511.734375 432.796875 512.023438 432.507812 512.347656 432.152344 C 518.789062 425.484375 523.644531 417.683594 526.78125 409.011719 C 530.890625 397.640625 531.796875 385.339844 529.371094 373.457031 " fill-opacity="1" fill-rule="nonzero"/><path fill="#1685bb" d="M 473.609375 403.417969 C 473.609375 401.492188 474.417969 399.582031 476.003906 398.238281 C 476.070312 398.191406 476.199219 398.042969 476.328125 397.914062 L 476.523438 397.734375 C 476.585938 397.671875 476.75 397.515625 476.847656 397.390625 C 479.597656 394.394531 481.085938 390.515625 481.019531 386.449219 L 481.019531 386.339844 C 480.957031 382.472656 479.46875 378.777344 476.847656 375.925781 C 476.714844 375.792969 476.554688 375.613281 476.359375 375.417969 L 476.328125 375.394531 C 476.199219 375.269531 476.070312 375.121094 476.003906 375.074219 C 473.15625 372.65625 472.800781 368.371094 475.195312 365.511719 C 477.621094 362.65625 481.925781 362.296875 484.773438 364.71875 C 485.261719 365.128906 485.617188 365.5 485.941406 365.800781 L 485.972656 365.832031 C 486.230469 366.105469 486.554688 366.414062 486.847656 366.761719 C 491.734375 372.070312 494.484375 378.96875 494.582031 386.183594 L 494.582031 386.300781 C 494.679688 393.824219 491.925781 401.007812 486.847656 406.550781 C 486.621094 406.8125 486.261719 407.199219 485.84375 407.585938 C 485.550781 407.878906 485.226562 408.234375 484.773438 408.589844 C 481.925781 411.019531 477.621094 410.660156 475.195312 407.78125 C 474.128906 406.519531 473.609375 404.96875 473.609375 403.417969 " fill-opacity="1" fill-rule="nonzero"/><path fill="#1685bb" d="M 285.304688 318.804688 C 285.304688 320.675781 284.535156 322.539062 283.027344 323.878906 C 282.914062 323.980469 282.761719 324.128906 282.574219 324.320312 C 282.382812 324.511719 282.230469 324.660156 282.128906 324.773438 L 281.90625 325.011719 C 248.617188 359.003906 248.617188 414.320312 281.90625 448.300781 L 282.128906 448.527344 C 282.230469 448.65625 282.382812 448.785156 282.570312 448.980469 C 282.753906 449.175781 282.914062 449.335938 283.027344 449.433594 C 285.828125 451.925781 286.082031 456.230469 283.589844 459.011719 C 281.101562 461.828125 276.8125 462.054688 274.011719 459.5625 C 273.597656 459.207031 273.269531 458.882812 272.976562 458.589844 C 272.714844 458.332031 272.429688 458.042969 272.109375 457.683594 C 253.457031 438.589844 243.183594 413.378906 243.183594 386.65625 C 243.183594 359.945312 253.457031 334.722656 272.109375 315.621094 C 272.429688 315.273438 272.714844 314.988281 272.976562 314.726562 C 273.269531 314.433594 273.597656 314.101562 274.011719 313.734375 C 276.816406 311.246094 281.105469 311.5 283.59375 314.300781 C 284.742188 315.59375 285.304688 317.203125 285.304688 318.804688 " fill-opacity="1" fill-rule="nonzero"/><path fill="#1685bb" d="M 308.488281 423.832031 C 308.472656 423.800781 308.460938 423.800781 308.449219 423.800781 L 308.441406 423.800781 C 308.414062 423.769531 308.378906 423.738281 308.34375 423.671875 C 308.269531 423.605469 308.191406 423.542969 308.113281 423.445312 C 307.878906 423.21875 307.726562 423.058594 307.574219 422.894531 L 307.46875 422.796875 C 293.769531 408.589844 289.257812 387.46875 295.992188 368.914062 C 298.476562 362.019531 302.339844 355.832031 307.46875 350.523438 L 307.574219 350.414062 C 307.726562 350.25 307.878906 350.097656 308.113281 349.863281 C 310.761719 347.21875 310.761719 342.921875 308.113281 340.273438 C 305.460938 337.621094 301.167969 337.621094 298.519531 340.273438 C 298.269531 340.519531 297.980469 340.804688 297.660156 341.144531 C 291.214844 347.832031 286.359375 355.625 283.234375 364.296875 C 279.101562 375.675781 278.207031 387.972656 280.636719 399.859375 C 283.128906 412.019531 289.015625 423.1875 297.660156 432.152344 C 297.980469 432.507812 298.269531 432.796875 298.511719 433.023438 L 298.648438 433.1875 C 298.894531 433.414062 299.230469 433.769531 299.675781 434.15625 C 302.535156 436.550781 306.8125 436.195312 309.238281 433.347656 C 310.316406 432.085938 310.84375 430.5 310.84375 428.980469 C 310.84375 427.070312 310.039062 425.160156 308.488281 423.832031 " fill-opacity="1" fill-rule="nonzero"/><path fill="#1685bb" d="M 336.394531 369.894531 C 336.394531 371.820312 335.578125 373.730469 333.992188 375.074219 C 333.941406 375.121094 333.792969 375.269531 333.660156 375.398438 L 333.472656 375.582031 C 333.40625 375.640625 333.265625 375.796875 333.148438 375.921875 C 330.402344 378.921875 328.929688 382.796875 328.980469 386.867188 L 328.984375 386.972656 C 329.058594 390.839844 330.53125 394.535156 333.144531 397.382812 C 333.265625 397.519531 333.449219 397.699219 333.640625 397.894531 L 333.667969 397.921875 C 333.792969 398.042969 333.941406 398.191406 333.992188 398.238281 C 336.851562 400.660156 337.210938 404.9375 334.789062 407.78125 C 332.367188 410.660156 328.085938 411.019531 325.226562 408.589844 C 324.742188 408.171875 324.371094 407.8125 324.070312 407.523438 L 324.039062 407.492188 C 323.765625 407.199219 323.457031 406.90625 323.136719 406.550781 C 318.269531 401.246094 315.527344 394.34375 315.414062 387.128906 L 315.414062 387.015625 C 315.320312 379.488281 318.058594 372.304688 323.140625 366.757812 C 323.386719 366.488281 323.71875 366.125 324.148438 365.71875 C 324.433594 365.433594 324.785156 365.089844 325.226562 364.71875 C 328.085938 362.296875 332.367188 362.65625 334.789062 365.511719 C 335.867188 366.789062 336.394531 368.34375 336.394531 369.894531 " fill-opacity="1" fill-rule="nonzero"/></svg>