<svg xmlns="http://www.w3.org/2000/svg" xmlns:xlink="http://www.w3.org/1999/xlink" width="1080" zoomAndPan="magnify" viewBox="0 0 810 809.999993" height="1080" preserveAspectRatio="xMidYMid meet" version="1.0"><defs><clipPath id="626bab3f50"><path d="M 292.175781 262.441406 L 547.925781 262.441406 L 547.925781 518 L 292.175781 518 Z M 292.175781 262.441406 " clip-rule="nonzero"/></clipPath></defs><g clip-path="url(#626bab3f50)"><path fill="#1685bb" d="M 547.535156 390.125 C 547.535156 460.640625 490.371094 517.804688 419.855469 517.804688 C 349.339844 517.804688 292.175781 460.640625 292.175781 390.125 C 292.175781 319.613281 349.339844 262.449219 419.855469 262.449219 C 490.371094 262.449219 547.535156 319.613281 547.535156 390.125 " fill-opacity="1" fill-rule="nonzero"/></g><path fill="#ffffff" d="M 435.164062 439.28125 L 404.296875 439.28125 C 403.191406 439.28125 402.328125 440.246094 402.460938 441.34375 C 404.636719 461.410156 434.828125 461.40625 437 441.34375 C 437.132812 440.246094 436.269531 439.28125 435.164062 439.28125 " fill-opacity="1" fill-rule="nonzero"/><path fill="#ffffff" d="M 473.695312 429.324219 C 470.980469 424.996094 468.609375 420.476562 466.5625 415.816406 C 453.320312 386.144531 472.644531 355.300781 431.441406 340.5625 C 433.082031 328.796875 426.449219 323.941406 419.855469 323.859375 C 413.261719 323.941406 406.628906 328.796875 408.269531 340.5625 C 367.066406 355.300781 386.390625 386.144531 373.148438 415.816406 C 371.101562 420.476562 368.730469 424.996094 366.015625 429.324219 C 364.738281 431.367188 366.207031 434.015625 368.617188 434.015625 L 471.09375 434.015625 C 473.503906 434.015625 474.972656 431.367188 473.695312 429.324219 " fill-opacity="1" fill-rule="nonzero"/></svg>