<svg xmlns="http://www.w3.org/2000/svg" xmlns:xlink="http://www.w3.org/1999/xlink" width="1080" zoomAndPan="magnify" viewBox="0 0 810 809.999993" height="1080" preserveAspectRatio="xMidYMid meet" version="1.0"><defs><clipPath id="3f3bf0b067"><path d="M 287.550781 243 L 522.300781 243 L 522.300781 567 L 287.550781 567 Z M 287.550781 243 " clip-rule="nonzero"/></clipPath></defs><g clip-path="url(#3f3bf0b067)"><path fill="#1685bb" d="M 386.214844 506.542969 C 381.617188 493.140625 373.207031 481.371094 362.015625 472.683594 L 334.5 451.324219 C 306.25 429.390625 289.09375 396.125 287.605469 360.390625 C 287.605469 295.558594 340.160156 243 404.996094 243 C 469.828125 243 522.386719 295.558594 522.386719 360.390625 C 520.898438 396.125 503.742188 429.390625 475.488281 451.324219 L 447.976562 472.683594 C 436.785156 481.371094 428.371094 493.140625 423.777344 506.542969 L 420.542969 515.984375 C 418.265625 522.625 412.019531 527.085938 404.996094 527.085938 C 397.972656 527.085938 391.726562 522.625 389.449219 515.984375 Z M 404.996094 567 C 379.0625 567 358.039062 563.847656 358.039062 559.957031 C 358.039062 556.066406 379.0625 552.914062 404.996094 552.914062 C 430.929688 552.914062 451.953125 556.066406 451.953125 559.957031 C 451.953125 563.847656 430.929688 567 404.996094 567 Z M 404.996094 451.957031 C 456.863281 451.957031 498.910156 409.910156 498.910156 358.042969 C 498.910156 306.179688 456.863281 264.132812 404.996094 264.132812 C 353.128906 264.132812 311.082031 306.179688 311.082031 358.042969 C 311.082031 409.910156 353.128906 451.957031 404.996094 451.957031 Z M 438.171875 300.53125 C 445.730469 303.609375 449.929688 307.671875 450.769531 312.710938 L 456.601562 348.960938 C 456.632812 349.152344 456.648438 349.339844 456.648438 349.53125 L 456.648438 390.707031 C 456.648438 393.664062 454.25 396.066406 451.289062 396.066406 L 358.703125 396.066406 C 355.742188 396.066406 353.34375 393.664062 353.34375 390.707031 L 353.34375 349.511719 C 353.34375 349.332031 353.355469 349.15625 353.382812 348.980469 L 358.800781 312.710938 C 359.640625 307.671875 363.84375 303.609375 371.402344 300.53125 C 380.917969 296.613281 392.046875 294.652344 404.785156 294.652344 C 417.523438 294.652344 428.652344 296.613281 438.171875 300.53125 Z M 437.300781 389.324219 C 441.246094 389.324219 444.445312 392.523438 444.445312 396.46875 L 444.445312 407.1875 C 444.445312 411.132812 441.246094 414.332031 437.300781 414.332031 C 433.351562 414.332031 430.152344 411.132812 430.152344 407.1875 L 430.152344 396.46875 C 430.152344 392.523438 433.351562 389.324219 437.300781 389.324219 Z M 371.207031 389.324219 C 375.152344 389.324219 378.351562 392.523438 378.351562 396.46875 L 378.351562 407.1875 C 378.351562 411.132812 375.152344 414.332031 371.207031 414.332031 C 367.261719 414.332031 364.058594 411.132812 364.058594 407.1875 L 364.058594 396.46875 C 364.058594 392.523438 367.261719 389.324219 371.207031 389.324219 Z M 379.617188 379.976562 C 381.425781 378.238281 382.332031 376.0625 382.332031 373.453125 C 382.332031 370.84375 381.425781 368.667969 379.617188 366.929688 C 377.804688 365.1875 375.667969 364.316406 373.195312 364.316406 C 370.726562 364.316406 368.589844 365.1875 366.777344 366.929688 C 364.964844 368.667969 364.058594 370.84375 364.058594 373.453125 C 364.058594 376.0625 364.964844 378.238281 366.777344 379.976562 C 368.589844 381.71875 370.726562 382.585938 373.195312 382.585938 C 375.667969 382.585938 377.804688 381.71875 379.617188 379.976562 Z M 442.058594 379.976562 C 443.921875 378.238281 444.851562 376.0625 444.851562 373.453125 C 444.851562 370.84375 443.921875 368.667969 442.058594 366.929688 C 440.199219 365.1875 438 364.316406 435.460938 364.316406 C 432.925781 364.316406 430.808594 365.1875 429.117188 366.929688 C 427.425781 368.667969 426.582031 370.84375 426.582031 373.453125 C 426.582031 376.0625 427.425781 378.238281 429.117188 379.976562 C 430.808594 381.71875 432.925781 382.585938 435.460938 382.585938 C 438 382.585938 440.199219 381.71875 442.058594 379.976562 Z M 388.851562 303.585938 C 386.011719 303.585938 383.710938 305.886719 383.710938 308.726562 C 383.710938 311.566406 386.011719 313.871094 388.851562 313.871094 L 419.714844 313.871094 C 422.554688 313.871094 424.859375 311.566406 424.859375 308.726562 C 424.859375 305.886719 422.554688 303.585938 419.714844 303.585938 Z M 369.433594 321.53125 C 368.503906 321.53125 367.621094 322.28125 367.460938 323.207031 L 362.605469 350.925781 C 362.441406 351.851562 363.171875 352.605469 364.234375 352.605469 L 446.023438 352.605469 C 447.085938 352.605469 447.8125 351.851562 447.652344 350.925781 L 442.796875 323.207031 C 442.632812 322.28125 441.75 321.53125 440.824219 321.53125 Z M 369.433594 321.53125 " fill-opacity="1" fill-rule="nonzero"/></g></svg>