<svg xmlns="http://www.w3.org/2000/svg" xmlns:xlink="http://www.w3.org/1999/xlink" width="1080" zoomAndPan="magnify" viewBox="0 0 810 809.999993" height="1080" preserveAspectRatio="xMidYMid meet" version="1.0"><defs><clipPath id="ceca722631"><path d="M 309.636719 309.636719 L 500.136719 309.636719 L 500.136719 500.136719 L 309.636719 500.136719 Z M 309.636719 309.636719 " clip-rule="nonzero"/></clipPath></defs><g clip-path="url(#ceca722631)"><path fill="#1685bb" d="M 405 309.636719 C 352.414062 309.636719 309.636719 352.414062 309.636719 405 C 309.636719 457.585938 352.414062 500.359375 405 500.359375 C 457.585938 500.359375 500.359375 457.585938 500.359375 405 C 500.359375 352.414062 457.585938 309.636719 405 309.636719 Z M 493.824219 405 C 493.824219 453.980469 453.980469 493.824219 405 493.824219 C 356.019531 493.824219 316.171875 453.980469 316.171875 405 C 316.171875 356.019531 356.019531 316.171875 405 316.171875 C 453.980469 316.171875 493.824219 356.019531 493.824219 405 Z M 493.824219 405 " fill-opacity="1" fill-rule="nonzero"/></g><path fill="#1685bb" d="M 349.28125 381.40625 C 350.179688 379.210938 351.808594 378.292969 354.152344 378.496094 C 354.976562 378.570312 355.816406 378.511719 356.75 378.511719 C 356.75 386.054688 356.75 393.558594 356.75 401.117188 C 355.269531 401.117188 353.785156 401.210938 352.320312 401.101562 C 350.730469 400.972656 349.976562 399.710938 349.28125 398.445312 C 349.28125 392.753906 349.28125 387.078125 349.28125 381.40625 Z M 349.28125 381.40625 " fill-opacity="1" fill-rule="nonzero"/><path fill="#1685bb" d="M 460.714844 398.429688 C 460.367188 398.957031 460.128906 399.636719 459.652344 399.984375 C 458.921875 400.496094 458.0625 400.972656 457.199219 401.101562 C 455.917969 401.28125 454.582031 401.15625 453.210938 401.15625 C 453.210938 393.578125 453.210938 386.089844 453.210938 378.550781 C 454.675781 378.550781 456.082031 378.441406 457.476562 378.585938 C 459.160156 378.75 460.074219 379.976562 460.714844 381.421875 C 460.714844 387.078125 460.714844 392.753906 460.714844 398.429688 Z M 460.714844 398.429688 " fill-opacity="1" fill-rule="nonzero"/><path fill="#1685bb" d="M 367.074219 446.640625 C 364.417969 446.511719 362.386719 445.503906 360.90625 443.472656 C 359.789062 441.953125 359.460938 440.214844 359.460938 438.367188 C 359.460938 423.558594 359.460938 408.769531 359.460938 393.960938 C 359.460938 386.511719 359.496094 379.0625 359.460938 371.613281 C 359.421875 365.957031 361.035156 360.832031 364.65625 356.496094 C 368.847656 351.496094 374.25 348.550781 380.800781 348.367188 C 387.628906 348.167969 394.472656 348.292969 401.300781 348.292969 C 409.902344 348.292969 418.523438 348.332031 427.128906 348.277344 C 431.082031 348.257812 434.816406 349.042969 438.292969 350.910156 C 442.226562 353.035156 445.320312 356.089844 447.480469 360.046875 C 449.441406 363.632812 450.28125 367.496094 450.261719 371.558594 C 450.261719 393.613281 450.191406 415.667969 450.316406 437.726562 C 450.335938 442.648438 447.683594 446.347656 442.648438 446.675781 C 442.648438 448.980469 442.6875 451.289062 442.628906 453.613281 C 442.613281 454.636719 442.484375 455.679688 442.226562 456.652344 C 441.476562 459.359375 438.804688 461.539062 435.988281 461.648438 C 432.894531 461.757812 429.800781 461.777344 426.707031 461.648438 C 423.320312 461.5 420.375 458.535156 420.136719 455.148438 C 419.972656 452.769531 420.042969 450.390625 420.027344 447.992188 C 420.027344 447.574219 420.027344 447.171875 420.027344 446.675781 C 409.921875 446.675781 399.875 446.675781 389.714844 446.675781 C 389.714844 449.019531 389.769531 451.324219 389.695312 453.632812 C 389.660156 454.675781 389.515625 455.753906 389.222656 456.761719 C 388.414062 459.433594 385.78125 461.554688 382.996094 461.648438 C 379.90625 461.757812 376.8125 461.777344 373.71875 461.648438 C 370.3125 461.5 367.332031 458.425781 367.164062 455.023438 C 367.054688 452.605469 367.109375 450.191406 367.09375 447.773438 C 367.074219 447.425781 367.074219 447.058594 367.074219 446.640625 Z M 442.742188 371.027344 C 417.445312 371.027344 392.222656 371.027344 367.039062 371.027344 C 367.039062 386.183594 367.039062 401.265625 367.039062 416.347656 C 392.3125 416.347656 417.5 416.347656 442.742188 416.347656 C 442.742188 401.210938 442.742188 386.164062 442.742188 371.027344 Z M 389.808594 355.816406 C 389.808594 358.363281 389.808594 360.851562 389.808594 363.359375 C 399.890625 363.359375 409.902344 363.359375 419.953125 363.359375 C 419.953125 360.8125 419.953125 358.34375 419.953125 355.816406 C 409.847656 355.816406 399.835938 355.816406 389.808594 355.816406 Z M 367.039062 431.683594 C 367.238281 435.949219 370.714844 439.226562 374.871094 439.042969 C 379.007812 438.859375 382.300781 435.347656 382.15625 431.320312 C 381.992188 427.054688 378.476562 423.761719 374.320312 423.960938 C 370.128906 424.179688 366.855469 427.640625 367.039062 431.683594 Z M 435.164062 439.0625 C 439.300781 439.042969 442.703125 435.65625 442.703125 431.503906 C 442.722656 427.367188 439.300781 423.960938 435.125 423.980469 C 430.953125 423.996094 427.546875 427.402344 427.566406 431.539062 C 427.605469 435.65625 431.027344 439.0625 435.164062 439.0625 Z M 435.164062 439.0625 " fill-opacity="1" fill-rule="nonzero"/></svg>