<svg xmlns="http://www.w3.org/2000/svg" xmlns:xlink="http://www.w3.org/1999/xlink" width="1080" zoomAndPan="magnify" viewBox="0 0 810 809.999993" height="1080" preserveAspectRatio="xMidYMid meet" version="1.0"><defs><clipPath id="32e527a2e3"><path d="M 313.707031 274.054688 L 495.957031 274.054688 L 495.957031 484 L 313.707031 484 Z M 313.707031 274.054688 " clip-rule="nonzero"/></clipPath></defs><g clip-path="url(#32e527a2e3)"><path fill="#1685bb" d="M 477.886719 483.46875 L 434.273438 483.46875 C 432.871094 483.46875 431.734375 482.332031 431.734375 480.929688 C 431.734375 479.523438 432.871094 478.386719 434.273438 478.386719 L 477.886719 478.386719 C 485.152344 478.386719 491.058594 472.476562 491.058594 465.210938 L 491.058594 292.332031 C 491.058594 285.066406 485.152344 279.160156 477.886719 279.160156 L 332.113281 279.160156 C 324.847656 279.160156 318.941406 285.066406 318.941406 292.332031 L 318.941406 465.210938 C 318.941406 472.476562 324.847656 478.386719 332.113281 478.386719 L 375.726562 478.386719 C 377.128906 478.386719 378.269531 479.523438 378.269531 480.929688 C 378.269531 482.332031 377.128906 483.46875 375.726562 483.46875 L 332.113281 483.46875 C 322.046875 483.46875 313.855469 475.28125 313.855469 465.210938 L 313.855469 292.332031 C 313.855469 282.265625 322.046875 274.074219 332.113281 274.074219 L 477.882812 274.074219 C 487.949219 274.074219 496.136719 282.265625 496.136719 292.332031 L 496.136719 465.210938 C 496.144531 475.28125 487.953125 483.46875 477.886719 483.46875 Z M 477.886719 483.46875 " fill-opacity="1" fill-rule="nonzero"/></g><path fill="#1685bb" d="M 474.054688 428.4375 L 335.949219 428.4375 C 331.726562 428.4375 328.296875 425.007812 328.296875 420.789062 L 328.296875 379.183594 C 328.296875 374.964844 331.726562 371.53125 335.949219 371.53125 L 474.054688 371.53125 C 478.273438 371.53125 481.703125 374.964844 481.703125 379.183594 L 481.703125 420.789062 C 481.703125 425.007812 478.273438 428.4375 474.054688 428.4375 Z M 335.949219 376.621094 C 334.535156 376.621094 333.378906 377.769531 333.378906 379.1875 L 333.378906 420.792969 C 333.378906 422.207031 334.527344 423.359375 335.949219 423.359375 L 474.054688 423.359375 C 475.464844 423.359375 476.621094 422.210938 476.621094 420.792969 L 476.621094 379.1875 C 476.621094 377.777344 475.472656 376.621094 474.054688 376.621094 Z M 335.949219 376.621094 " fill-opacity="1" fill-rule="nonzero"/><path fill="#1685bb" d="M 474.59375 360.488281 L 335.410156 360.488281 C 331.488281 360.488281 328.296875 357.300781 328.296875 353.378906 L 328.296875 297.691406 C 328.296875 293.769531 331.484375 290.578125 335.410156 290.578125 L 474.59375 290.578125 C 478.511719 290.578125 481.703125 293.765625 481.703125 297.691406 L 481.703125 353.382812 C 481.703125 357.300781 478.511719 360.488281 474.59375 360.488281 Z M 335.410156 295.660156 C 334.289062 295.660156 333.378906 296.570312 333.378906 297.691406 L 333.378906 353.382812 C 333.378906 354.5 334.289062 355.410156 335.410156 355.410156 L 474.59375 355.410156 C 475.710938 355.410156 476.621094 354.5 476.621094 353.382812 L 476.621094 297.691406 C 476.621094 296.570312 475.710938 295.660156 474.59375 295.660156 Z M 335.410156 295.660156 " fill-opacity="1" fill-rule="nonzero"/><path fill="#1685bb" d="M 346.847656 360.488281 C 345.445312 360.488281 344.304688 359.351562 344.304688 357.949219 L 344.304688 293.121094 C 344.304688 291.714844 345.445312 290.578125 346.847656 290.578125 C 348.25 290.578125 349.390625 291.714844 349.390625 293.121094 L 349.390625 357.949219 C 349.390625 359.351562 348.257812 360.488281 346.847656 360.488281 Z M 346.847656 360.488281 " fill-opacity="1" fill-rule="nonzero"/><path fill="#1685bb" d="M 463.152344 360.488281 C 461.75 360.488281 460.609375 359.351562 460.609375 357.949219 L 460.609375 293.121094 C 460.609375 291.714844 461.75 290.578125 463.152344 290.578125 C 464.554688 290.578125 465.695312 291.714844 465.695312 293.121094 L 465.695312 357.949219 C 465.695312 359.351562 464.554688 360.488281 463.152344 360.488281 Z M 463.152344 360.488281 " fill-opacity="1" fill-rule="nonzero"/><path fill="#1685bb" d="M 476.957031 466.964844 L 434.273438 466.964844 C 432.871094 466.964844 431.734375 465.828125 431.734375 464.425781 C 431.734375 463.019531 432.871094 461.882812 434.273438 461.882812 L 476.621094 461.882812 L 476.621094 444.570312 L 333.378906 444.570312 L 333.378906 461.882812 L 375.726562 461.882812 C 377.128906 461.882812 378.269531 463.019531 378.269531 464.425781 C 378.269531 465.828125 377.128906 466.964844 375.726562 466.964844 L 333.042969 466.964844 C 330.425781 466.964844 328.296875 464.835938 328.296875 462.21875 L 328.296875 444.234375 C 328.296875 441.617188 330.425781 439.488281 333.042969 439.488281 L 476.949219 439.488281 C 479.570312 439.488281 481.699219 441.617188 481.699219 444.234375 L 481.699219 462.21875 C 481.703125 464.835938 479.574219 466.964844 476.957031 466.964844 Z M 476.957031 466.964844 " fill-opacity="1" fill-rule="nonzero"/><path fill="#1685bb" d="M 453.132812 455.769531 L 356.867188 455.769531 C 355.464844 455.769531 354.328125 454.632812 354.328125 453.230469 C 354.328125 451.828125 355.464844 450.6875 356.867188 450.6875 L 453.132812 450.6875 C 454.535156 450.6875 455.671875 451.828125 455.671875 453.230469 C 455.671875 454.632812 454.535156 455.769531 453.132812 455.769531 Z M 453.132812 455.769531 " fill-opacity="1" fill-rule="nonzero"/><path fill="#1685bb" d="M 429.949219 498.792969 L 380.046875 498.792969 C 376.265625 498.792969 373.183594 495.710938 373.183594 491.929688 L 373.183594 453.230469 C 373.183594 451.828125 374.324219 450.6875 375.726562 450.6875 C 377.128906 450.6875 378.269531 451.828125 378.269531 453.230469 L 378.269531 491.929688 C 378.269531 492.910156 379.066406 493.710938 380.046875 493.710938 L 429.949219 493.710938 C 430.929688 493.710938 431.726562 492.910156 431.726562 491.929688 L 431.726562 453.230469 C 431.726562 451.828125 432.867188 450.6875 434.269531 450.6875 C 435.671875 450.6875 436.8125 451.828125 436.8125 453.230469 L 436.8125 491.929688 C 436.8125 495.710938 433.734375 498.792969 429.949219 498.792969 Z M 429.949219 498.792969 " fill-opacity="1" fill-rule="nonzero"/><path fill="#1685bb" d="M 360.792969 347.132812 C 359.390625 347.132812 358.25 345.996094 358.25 344.589844 L 358.25 306.476562 C 358.25 305.074219 359.390625 303.933594 360.792969 303.933594 L 379.664062 303.933594 C 381.070312 303.933594 382.207031 305.074219 382.207031 306.476562 C 382.207031 307.878906 381.070312 309.019531 379.664062 309.019531 L 363.335938 309.019531 L 363.335938 344.585938 C 363.335938 345.996094 362.195312 347.132812 360.792969 347.132812 Z M 360.792969 347.132812 " fill-opacity="1" fill-rule="nonzero"/><path fill="#1685bb" d="M 379.664062 324.621094 L 360.792969 324.621094 C 359.390625 324.621094 358.25 323.480469 358.25 322.078125 C 358.25 320.675781 359.390625 319.535156 360.792969 319.535156 L 379.664062 319.535156 C 381.070312 319.535156 382.207031 320.675781 382.207031 322.078125 C 382.207031 323.480469 381.070312 324.621094 379.664062 324.621094 Z M 379.664062 324.621094 " fill-opacity="1" fill-rule="nonzero"/><path fill="#1685bb" d="M 395.5625 347.132812 C 394.160156 347.132812 393.023438 345.996094 393.023438 344.589844 L 393.023438 306.476562 C 393.023438 305.074219 394.160156 303.933594 395.5625 303.933594 L 414.4375 303.933594 C 415.839844 303.933594 416.976562 305.074219 416.976562 306.476562 C 416.976562 307.878906 415.839844 309.019531 414.4375 309.019531 L 398.105469 309.019531 L 398.105469 344.585938 C 398.105469 345.996094 396.96875 347.132812 395.5625 347.132812 Z M 395.5625 347.132812 " fill-opacity="1" fill-rule="nonzero"/><path fill="#1685bb" d="M 414.4375 328.074219 L 395.5625 328.074219 C 394.160156 328.074219 393.023438 326.933594 393.023438 325.53125 C 393.023438 324.128906 394.160156 322.988281 395.5625 322.988281 L 414.4375 322.988281 C 415.839844 322.988281 416.976562 324.128906 416.976562 325.53125 C 416.976562 326.933594 415.839844 328.074219 414.4375 328.074219 Z M 414.4375 328.074219 " fill-opacity="1" fill-rule="nonzero"/><path fill="#1685bb" d="M 430.335938 347.132812 C 428.929688 347.132812 427.792969 345.996094 427.792969 344.589844 L 427.792969 306.476562 C 427.792969 305.074219 428.929688 303.933594 430.335938 303.933594 L 449.207031 303.933594 C 450.609375 303.933594 451.75 305.074219 451.75 306.476562 C 451.75 307.878906 450.609375 309.019531 449.207031 309.019531 L 432.875 309.019531 L 432.875 344.585938 C 432.875 345.996094 431.738281 347.132812 430.335938 347.132812 Z M 430.335938 347.132812 " fill-opacity="1" fill-rule="nonzero"/><path fill="#1685bb" d="M 449.207031 328.074219 L 430.335938 328.074219 C 428.929688 328.074219 427.792969 326.933594 427.792969 325.53125 C 427.792969 324.128906 428.929688 322.988281 430.335938 322.988281 L 449.207031 322.988281 C 450.609375 322.988281 451.75 324.128906 451.75 325.53125 C 451.75 326.933594 450.613281 328.074219 449.207031 328.074219 Z M 449.207031 328.074219 " fill-opacity="1" fill-rule="nonzero"/><path fill="#1685bb" d="M 449.207031 347.132812 L 430.335938 347.132812 C 428.929688 347.132812 427.792969 345.996094 427.792969 344.589844 C 427.792969 343.1875 428.929688 342.050781 430.335938 342.050781 L 449.207031 342.050781 C 450.609375 342.050781 451.75 343.1875 451.75 344.589844 C 451.75 345.996094 450.613281 347.132812 449.207031 347.132812 Z M 449.207031 347.132812 " fill-opacity="1" fill-rule="nonzero"/><path fill="#1685bb" d="M 414.4375 347.132812 L 395.5625 347.132812 C 394.160156 347.132812 393.023438 345.996094 393.023438 344.589844 C 393.023438 343.1875 394.160156 342.050781 395.5625 342.050781 L 414.4375 342.050781 C 415.839844 342.050781 416.976562 343.1875 416.976562 344.589844 C 416.976562 345.996094 415.839844 347.132812 414.4375 347.132812 Z M 414.4375 347.132812 " fill-opacity="1" fill-rule="nonzero"/><path fill="#1685bb" d="M 358.171875 397.242188 L 346.195312 397.242188 C 343.488281 397.242188 341.285156 395.042969 341.285156 392.332031 L 341.285156 386.109375 C 341.285156 383.398438 343.488281 381.199219 346.195312 381.199219 L 358.171875 381.199219 C 360.878906 381.199219 363.082031 383.398438 363.082031 386.109375 L 363.082031 392.332031 C 363.085938 395.035156 360.878906 397.242188 358.171875 397.242188 Z M 346.371094 392.160156 L 358.003906 392.160156 L 358.003906 386.28125 L 346.371094 386.28125 Z M 358.171875 386.277344 Z M 358.171875 386.277344 " fill-opacity="1" fill-rule="nonzero"/><path fill="#1685bb" d="M 384.578125 397.242188 L 372.605469 397.242188 C 369.894531 397.242188 367.691406 395.042969 367.691406 392.332031 L 367.691406 386.109375 C 367.691406 383.398438 369.894531 381.199219 372.605469 381.199219 L 384.578125 381.199219 C 387.285156 381.199219 389.488281 383.398438 389.488281 386.109375 L 389.488281 392.332031 C 389.492188 395.035156 387.285156 397.242188 384.578125 397.242188 Z M 372.777344 392.160156 L 384.410156 392.160156 L 384.410156 386.28125 L 372.777344 386.28125 Z M 384.578125 386.277344 Z M 384.578125 386.277344 " fill-opacity="1" fill-rule="nonzero"/><path fill="#1685bb" d="M 410.988281 397.242188 L 399.015625 397.242188 C 396.304688 397.242188 394.105469 395.042969 394.105469 392.332031 L 394.105469 386.109375 C 394.105469 383.398438 396.304688 381.199219 399.015625 381.199219 L 410.988281 381.199219 C 413.699219 381.199219 415.902344 383.398438 415.902344 386.109375 L 415.902344 392.332031 C 415.902344 395.035156 413.695312 397.242188 410.988281 397.242188 Z M 399.183594 392.160156 L 410.816406 392.160156 L 410.816406 386.28125 L 399.183594 386.28125 Z M 410.988281 386.277344 Z M 410.988281 386.277344 " fill-opacity="1" fill-rule="nonzero"/><path fill="#1685bb" d="M 437.394531 397.242188 L 425.421875 397.242188 C 422.714844 397.242188 420.511719 395.042969 420.511719 392.332031 L 420.511719 386.109375 C 420.511719 383.398438 422.714844 381.199219 425.421875 381.199219 L 437.394531 381.199219 C 440.105469 381.199219 442.308594 383.398438 442.308594 386.109375 L 442.308594 392.332031 C 442.308594 395.035156 440.101562 397.242188 437.394531 397.242188 Z M 425.589844 392.160156 L 437.222656 392.160156 L 437.222656 386.28125 L 425.589844 386.28125 Z M 437.394531 386.277344 Z M 437.394531 386.277344 " fill-opacity="1" fill-rule="nonzero"/><path fill="#1685bb" d="M 463.804688 397.242188 L 451.832031 397.242188 C 449.121094 397.242188 446.917969 395.042969 446.917969 392.332031 L 446.917969 386.109375 C 446.917969 383.398438 449.121094 381.199219 451.832031 381.199219 L 463.804688 381.199219 C 466.511719 381.199219 468.714844 383.398438 468.714844 386.109375 L 468.714844 392.332031 C 468.714844 395.035156 466.511719 397.242188 463.804688 397.242188 Z M 451.996094 392.160156 L 463.628906 392.160156 L 463.628906 386.28125 L 451.996094 386.28125 Z M 463.804688 386.277344 Z M 463.804688 386.277344 " fill-opacity="1" fill-rule="nonzero"/><path fill="#1685bb" d="M 358.171875 418.785156 L 346.195312 418.785156 C 343.488281 418.785156 341.285156 416.582031 341.285156 413.875 L 341.285156 407.648438 C 341.285156 404.941406 343.488281 402.738281 346.195312 402.738281 L 358.171875 402.738281 C 360.878906 402.738281 363.082031 404.941406 363.082031 407.648438 L 363.082031 413.875 C 363.085938 416.582031 360.878906 418.785156 358.171875 418.785156 Z M 346.371094 413.699219 L 358.003906 413.699219 L 358.003906 407.824219 L 346.371094 407.824219 Z M 358.171875 407.824219 Z M 358.171875 407.824219 " fill-opacity="1" fill-rule="nonzero"/><path fill="#1685bb" d="M 384.578125 418.785156 L 372.605469 418.785156 C 369.894531 418.785156 367.691406 416.582031 367.691406 413.875 L 367.691406 407.648438 C 367.691406 404.941406 369.894531 402.738281 372.605469 402.738281 L 384.578125 402.738281 C 387.285156 402.738281 389.488281 404.941406 389.488281 407.648438 L 389.488281 413.875 C 389.492188 416.582031 387.285156 418.785156 384.578125 418.785156 Z M 372.777344 413.699219 L 384.410156 413.699219 L 384.410156 407.824219 L 372.777344 407.824219 Z M 384.578125 407.824219 Z M 384.578125 407.824219 " fill-opacity="1" fill-rule="nonzero"/><path fill="#1685bb" d="M 410.988281 418.785156 L 399.015625 418.785156 C 396.304688 418.785156 394.105469 416.582031 394.105469 413.875 L 394.105469 407.648438 C 394.105469 404.941406 396.304688 402.738281 399.015625 402.738281 L 410.988281 402.738281 C 413.699219 402.738281 415.902344 404.941406 415.902344 407.648438 L 415.902344 413.875 C 415.902344 416.582031 413.695312 418.785156 410.988281 418.785156 Z M 399.183594 413.699219 L 410.816406 413.699219 L 410.816406 407.824219 L 399.183594 407.824219 Z M 410.988281 407.824219 Z M 410.988281 407.824219 " fill-opacity="1" fill-rule="nonzero"/><path fill="#1685bb" d="M 437.394531 418.785156 L 425.421875 418.785156 C 422.714844 418.785156 420.511719 416.582031 420.511719 413.875 L 420.511719 407.648438 C 420.511719 404.941406 422.714844 402.738281 425.421875 402.738281 L 437.394531 402.738281 C 440.105469 402.738281 442.308594 404.941406 442.308594 407.648438 L 442.308594 413.875 C 442.308594 416.582031 440.101562 418.785156 437.394531 418.785156 Z M 425.589844 413.699219 L 437.222656 413.699219 L 437.222656 407.824219 L 425.589844 407.824219 Z M 437.394531 407.824219 Z M 437.394531 407.824219 " fill-opacity="1" fill-rule="nonzero"/><path fill="#1685bb" d="M 463.804688 418.785156 L 451.832031 418.785156 C 449.121094 418.785156 446.917969 416.582031 446.917969 413.875 L 446.917969 407.648438 C 446.917969 404.941406 449.121094 402.738281 451.832031 402.738281 L 463.804688 402.738281 C 466.511719 402.738281 468.714844 404.941406 468.714844 407.648438 L 468.714844 413.875 C 468.714844 416.582031 466.511719 418.785156 463.804688 418.785156 Z M 451.996094 413.699219 L 463.628906 413.699219 L 463.628906 407.824219 L 451.996094 407.824219 Z M 463.804688 407.824219 Z M 463.804688 407.824219 " fill-opacity="1" fill-rule="nonzero"/></svg>