<svg xmlns="http://www.w3.org/2000/svg" xmlns:xlink="http://www.w3.org/1999/xlink" width="1080" zoomAndPan="magnify" viewBox="0 0 810 809.999993" height="1080" preserveAspectRatio="xMidYMid meet" version="1.0"><defs><clipPath id="a8fd58f3d5"><path d="M 287 243 L 523.191406 243 L 523.191406 567 L 287 567 Z M 287 243 " clip-rule="nonzero"/></clipPath></defs><g clip-path="url(#a8fd58f3d5)"><path fill="#1685bb" d="M 494.621094 243.449219 L 349.941406 243.449219 C 349.011719 243.449219 348.085938 243.496094 347.160156 243.585938 C 346.234375 243.675781 345.316406 243.8125 344.40625 243.992188 C 343.492188 244.175781 342.59375 244.402344 341.703125 244.671875 C 340.816406 244.941406 339.941406 245.253906 339.082031 245.609375 C 338.222656 245.964844 337.382812 246.359375 336.566406 246.800781 C 335.746094 247.238281 334.949219 247.714844 334.175781 248.230469 C 333.402344 248.746094 332.65625 249.300781 331.9375 249.890625 C 331.222656 250.480469 330.53125 251.101562 329.875 251.761719 C 329.21875 252.417969 328.59375 253.105469 328.003906 253.824219 C 327.417969 254.542969 326.863281 255.289062 326.347656 256.058594 C 325.832031 256.832031 325.351562 257.628906 324.914062 258.449219 C 324.476562 259.269531 324.082031 260.109375 323.726562 260.964844 C 323.367188 261.824219 323.054688 262.699219 322.785156 263.589844 C 322.515625 264.476562 322.292969 265.378906 322.109375 266.289062 C 321.929688 267.199219 321.792969 268.121094 321.703125 269.042969 C 321.609375 269.96875 321.566406 270.894531 321.566406 271.824219 L 321.566406 274.949219 L 315.429688 274.949219 C 314.5 274.949219 313.574219 274.992188 312.648438 275.085938 C 311.722656 275.175781 310.804688 275.3125 309.894531 275.492188 C 308.980469 275.675781 308.082031 275.898438 307.191406 276.171875 C 306.300781 276.441406 305.429688 276.753906 304.570312 277.109375 C 303.710938 277.464844 302.871094 277.859375 302.050781 278.300781 C 301.234375 278.738281 300.4375 279.214844 299.664062 279.730469 C 298.890625 280.246094 298.144531 280.800781 297.425781 281.390625 C 296.707031 281.980469 296.019531 282.601562 295.363281 283.257812 C 294.707031 283.917969 294.082031 284.605469 293.492188 285.324219 C 292.902344 286.042969 292.351562 286.785156 291.835938 287.558594 C 291.316406 288.332031 290.839844 289.128906 290.402344 289.949219 C 289.964844 290.769531 289.566406 291.605469 289.210938 292.464844 C 288.855469 293.324219 288.542969 294.199219 288.273438 295.085938 C 288.003906 295.976562 287.777344 296.878906 287.597656 297.789062 C 287.414062 298.699219 287.28125 299.617188 287.1875 300.542969 C 287.097656 301.46875 287.050781 302.394531 287.050781 303.324219 L 287.050781 538.011719 C 287.050781 538.941406 287.097656 539.867188 287.1875 540.792969 C 287.28125 541.71875 287.414062 542.636719 287.597656 543.550781 C 287.777344 544.460938 288.003906 545.363281 288.273438 546.253906 C 288.542969 547.144531 288.855469 548.019531 289.210938 548.878906 C 289.566406 549.738281 289.964844 550.578125 290.402344 551.398438 C 290.839844 552.21875 291.316406 553.015625 291.832031 553.789062 C 292.347656 554.5625 292.902344 555.308594 293.492188 556.027344 C 294.078125 556.746094 294.703125 557.4375 295.359375 558.09375 C 296.015625 558.753906 296.703125 559.378906 297.421875 559.96875 C 298.140625 560.558594 298.886719 561.113281 299.660156 561.632812 C 300.433594 562.148438 301.226562 562.628906 302.046875 563.066406 C 302.867188 563.507812 303.707031 563.90625 304.566406 564.261719 C 305.425781 564.617188 306.296875 564.933594 307.1875 565.203125 C 308.078125 565.476562 308.976562 565.703125 309.890625 565.886719 C 310.800781 566.070312 311.71875 566.207031 312.644531 566.300781 C 313.570312 566.394531 314.5 566.441406 315.429688 566.441406 L 459.886719 566.441406 C 460.816406 566.4375 461.746094 566.390625 462.667969 566.296875 C 463.59375 566.199219 464.511719 566.0625 465.421875 565.878906 C 466.335938 565.691406 467.234375 565.464844 468.125 565.191406 C 469.011719 564.921875 469.886719 564.605469 470.742188 564.246094 C 471.601562 563.890625 472.441406 563.492188 473.257812 563.050781 C 474.078125 562.609375 474.875 562.132812 475.644531 561.613281 C 476.417969 561.097656 477.160156 560.542969 477.878906 559.953125 C 478.597656 559.359375 479.285156 558.738281 479.941406 558.078125 C 480.597656 557.421875 481.222656 556.734375 481.808594 556.015625 C 482.398438 555.296875 482.953125 554.550781 483.46875 553.777344 C 483.984375 553.003906 484.460938 552.207031 484.898438 551.386719 C 485.339844 550.566406 485.734375 549.726562 486.09375 548.871094 C 486.449219 548.011719 486.761719 547.136719 487.03125 546.246094 C 487.300781 545.359375 487.527344 544.457031 487.710938 543.546875 C 487.894531 542.636719 488.03125 541.714844 488.125 540.792969 C 488.214844 539.867188 488.261719 538.941406 488.265625 538.011719 L 488.265625 534.941406 L 494.621094 534.941406 C 495.550781 534.941406 496.476562 534.894531 497.402344 534.800781 C 498.328125 534.707031 499.246094 534.570312 500.15625 534.386719 C 501.066406 534.207031 501.96875 533.980469 502.859375 533.707031 C 503.746094 533.4375 504.621094 533.125 505.480469 532.769531 C 506.339844 532.414062 507.175781 532.015625 507.996094 531.578125 C 508.816406 531.140625 509.613281 530.660156 510.386719 530.144531 C 511.160156 529.628906 511.90625 529.078125 512.625 528.488281 C 513.34375 527.898438 514.03125 527.273438 514.6875 526.617188 C 515.347656 525.960938 515.972656 525.273438 516.5625 524.558594 C 517.152344 523.839844 517.707031 523.09375 518.222656 522.320312 C 518.742188 521.550781 519.222656 520.753906 519.660156 519.9375 C 520.101562 519.117188 520.5 518.277344 520.855469 517.421875 C 521.214844 516.5625 521.53125 515.6875 521.800781 514.800781 C 522.074219 513.910156 522.304688 513.011719 522.488281 512.101562 C 522.671875 511.1875 522.8125 510.273438 522.90625 509.347656 C 523 508.421875 523.046875 507.496094 523.050781 506.566406 L 523.050781 271.824219 C 523.050781 270.894531 523.003906 269.96875 522.910156 269.042969 C 522.816406 268.117188 522.679688 267.199219 522.496094 266.285156 C 522.3125 265.375 522.085938 264.472656 521.816406 263.585938 C 521.542969 262.695312 521.230469 261.820312 520.871094 260.960938 C 520.515625 260.101562 520.117188 259.265625 519.675781 258.445312 C 519.238281 257.625 518.757812 256.828125 518.242188 256.054688 C 517.722656 255.285156 517.167969 254.539062 516.578125 253.820312 C 515.988281 253.101562 515.363281 252.414062 514.707031 251.757812 C 514.046875 251.101562 513.359375 250.476562 512.636719 249.886719 C 511.917969 249.296875 511.171875 248.746094 510.398438 248.230469 C 509.625 247.710938 508.828125 247.234375 508.007812 246.796875 C 507.1875 246.359375 506.347656 245.964844 505.488281 245.609375 C 504.628906 245.253906 503.753906 244.941406 502.863281 244.667969 C 501.972656 244.398438 501.074219 244.175781 500.160156 243.992188 C 499.246094 243.8125 498.328125 243.675781 497.402344 243.585938 C 496.476562 243.492188 495.550781 243.449219 494.621094 243.449219 Z M 477.308594 538.011719 C 477.308594 538.582031 477.28125 539.152344 477.226562 539.71875 C 477.167969 540.289062 477.085938 540.851562 476.976562 541.414062 C 476.863281 541.972656 476.726562 542.527344 476.558594 543.074219 C 476.394531 543.621094 476.203125 544.15625 475.984375 544.683594 C 475.765625 545.210938 475.523438 545.730469 475.253906 546.234375 C 474.984375 546.738281 474.691406 547.226562 474.375 547.703125 C 474.058594 548.175781 473.71875 548.636719 473.359375 549.078125 C 472.996094 549.519531 472.613281 549.941406 472.210938 550.347656 C 471.808594 550.753906 471.382812 551.136719 470.945312 551.5 C 470.503906 551.863281 470.046875 552.203125 469.570312 552.519531 C 469.097656 552.839844 468.609375 553.132812 468.105469 553.402344 C 467.601562 553.675781 467.085938 553.917969 466.558594 554.140625 C 466.03125 554.359375 465.496094 554.554688 464.949219 554.71875 C 464.402344 554.886719 463.851562 555.027344 463.289062 555.140625 C 462.730469 555.253906 462.164062 555.339844 461.597656 555.394531 C 461.03125 555.453125 460.460938 555.484375 459.886719 555.484375 L 315.429688 555.484375 C 314.855469 555.484375 314.285156 555.457031 313.71875 555.402344 C 313.148438 555.34375 312.585938 555.261719 312.023438 555.148438 C 311.464844 555.039062 310.910156 554.898438 310.363281 554.734375 C 309.816406 554.566406 309.277344 554.375 308.75 554.152344 C 308.222656 553.933594 307.707031 553.691406 307.203125 553.421875 C 306.699219 553.152344 306.207031 552.855469 305.734375 552.539062 C 305.257812 552.21875 304.800781 551.878906 304.359375 551.515625 C 303.917969 551.152344 303.496094 550.769531 303.089844 550.363281 C 302.6875 549.957031 302.304688 549.535156 301.941406 549.09375 C 301.582031 548.648438 301.242188 548.191406 300.925781 547.714844 C 300.609375 547.238281 300.316406 546.75 300.046875 546.242188 C 299.777344 545.738281 299.535156 545.222656 299.320312 544.695312 C 299.101562 544.164062 298.910156 543.625 298.746094 543.078125 C 298.582031 542.53125 298.445312 541.976562 298.332031 541.417969 C 298.222656 540.855469 298.140625 540.289062 298.085938 539.722656 C 298.03125 539.152344 298.007812 538.582031 298.007812 538.011719 L 298.007812 303.324219 C 298.007812 302.753906 298.035156 302.183594 298.09375 301.617188 C 298.148438 301.050781 298.230469 300.484375 298.34375 299.925781 C 298.453125 299.367188 298.59375 298.8125 298.757812 298.269531 C 298.925781 297.722656 299.117188 297.1875 299.335938 296.660156 C 299.554688 296.132812 299.796875 295.617188 300.066406 295.113281 C 300.335938 294.609375 300.628906 294.121094 300.945312 293.648438 C 301.261719 293.171875 301.601562 292.714844 301.960938 292.273438 C 302.324219 291.832031 302.707031 291.410156 303.109375 291.007812 C 303.515625 290.601562 303.9375 290.222656 304.378906 289.859375 C 304.820312 289.496094 305.277344 289.15625 305.75 288.839844 C 306.226562 288.523438 306.714844 288.230469 307.21875 287.960938 C 307.71875 287.691406 308.234375 287.449219 308.761719 287.230469 C 309.289062 287.011719 309.824219 286.820312 310.371094 286.65625 C 310.917969 286.488281 311.472656 286.351562 312.03125 286.238281 C 312.589844 286.128906 313.152344 286.042969 313.722656 285.988281 C 314.289062 285.933594 314.859375 285.90625 315.429688 285.90625 L 321.839844 285.90625 L 321.839844 506.566406 C 321.839844 507.496094 321.886719 508.421875 321.980469 509.34375 C 322.074219 510.269531 322.210938 511.1875 322.394531 512.097656 C 322.574219 513.007812 322.800781 513.90625 323.074219 514.796875 C 323.34375 515.683594 323.65625 516.558594 324.011719 517.417969 C 324.371094 518.273438 324.765625 519.113281 325.207031 519.929688 C 325.644531 520.75 326.121094 521.546875 326.636719 522.316406 C 327.152344 523.089844 327.707031 523.835938 328.296875 524.554688 C 328.886719 525.269531 329.507812 525.957031 330.164062 526.613281 C 330.824219 527.273438 331.511719 527.894531 332.226562 528.484375 C 332.945312 529.074219 333.691406 529.625 334.464844 530.144531 C 335.234375 530.660156 336.03125 531.136719 336.847656 531.574219 C 337.667969 532.015625 338.507812 532.410156 339.363281 532.769531 C 340.222656 533.125 341.09375 533.4375 341.984375 533.707031 C 342.871094 533.980469 343.773438 534.207031 344.683594 534.386719 C 345.59375 534.570312 346.511719 534.707031 347.4375 534.800781 C 348.359375 534.894531 349.285156 534.941406 350.214844 534.941406 L 477.308594 534.941406 Z M 512.09375 506.566406 C 512.09375 507.136719 512.0625 507.707031 512.007812 508.273438 C 511.949219 508.84375 511.863281 509.40625 511.75 509.96875 C 511.636719 510.527344 511.496094 511.078125 511.332031 511.625 C 511.164062 512.171875 510.96875 512.707031 510.75 513.234375 C 510.53125 513.761719 510.285156 514.277344 510.015625 514.78125 C 509.742188 515.285156 509.449219 515.773438 509.132812 516.246094 C 508.8125 516.722656 508.472656 517.179688 508.109375 517.621094 C 507.746094 518.0625 507.363281 518.484375 506.957031 518.886719 C 506.554688 519.289062 506.128906 519.671875 505.6875 520.035156 C 505.246094 520.394531 504.789062 520.734375 504.3125 521.050781 C 503.835938 521.367188 503.347656 521.660156 502.84375 521.929688 C 502.339844 522.199219 501.824219 522.441406 501.296875 522.660156 C 500.765625 522.878906 500.230469 523.070312 499.683594 523.238281 C 499.136719 523.402344 498.582031 523.539062 498.023438 523.652344 C 497.460938 523.761719 496.898438 523.847656 496.328125 523.902344 C 495.761719 523.957031 495.191406 523.984375 494.621094 523.984375 L 349.941406 523.984375 C 349.371094 523.984375 348.800781 523.957031 348.234375 523.902344 C 347.667969 523.847656 347.101562 523.761719 346.542969 523.652344 C 345.984375 523.539062 345.429688 523.402344 344.882812 523.234375 C 344.339844 523.070312 343.800781 522.878906 343.273438 522.660156 C 342.746094 522.441406 342.234375 522.199219 341.730469 521.929688 C 341.226562 521.660156 340.738281 521.367188 340.261719 521.050781 C 339.789062 520.734375 339.332031 520.394531 338.890625 520.03125 C 338.449219 519.667969 338.027344 519.285156 337.625 518.882812 C 337.21875 518.480469 336.835938 518.058594 336.476562 517.617188 C 336.113281 517.175781 335.773438 516.71875 335.457031 516.242188 C 335.140625 515.769531 334.847656 515.28125 334.578125 514.777344 C 334.308594 514.273438 334.066406 513.757812 333.847656 513.230469 C 333.628906 512.703125 333.4375 512.167969 333.269531 511.621094 C 333.105469 511.078125 332.96875 510.523438 332.855469 509.964844 C 332.746094 509.40625 332.660156 508.839844 332.605469 508.273438 C 332.550781 507.707031 332.519531 507.136719 332.519531 506.566406 L 332.519531 271.824219 C 332.519531 271.253906 332.550781 270.6875 332.605469 270.117188 C 332.660156 269.550781 332.746094 268.988281 332.855469 268.425781 C 332.96875 267.867188 333.105469 267.316406 333.269531 266.769531 C 333.4375 266.222656 333.628906 265.6875 333.847656 265.160156 C 334.066406 264.632812 334.308594 264.117188 334.578125 263.613281 C 334.847656 263.109375 335.140625 262.621094 335.457031 262.148438 C 335.773438 261.671875 336.113281 261.214844 336.476562 260.773438 C 336.835938 260.332031 337.21875 259.910156 337.625 259.507812 C 338.027344 259.105469 338.449219 258.722656 338.890625 258.359375 C 339.332031 257.996094 339.789062 257.65625 340.261719 257.339844 C 340.738281 257.023438 341.226562 256.730469 341.730469 256.460938 C 342.234375 256.191406 342.746094 255.949219 343.273438 255.730469 C 343.800781 255.511719 344.339844 255.320312 344.882812 255.15625 C 345.429688 254.988281 345.984375 254.851562 346.542969 254.738281 C 347.101562 254.628906 347.667969 254.542969 348.234375 254.488281 C 348.800781 254.433594 349.371094 254.40625 349.941406 254.40625 L 494.621094 254.40625 C 495.191406 254.402344 495.761719 254.429688 496.332031 254.484375 C 496.898438 254.539062 497.464844 254.621094 498.027344 254.730469 C 498.585938 254.839844 499.140625 254.976562 499.6875 255.140625 C 500.238281 255.308594 500.773438 255.496094 501.304688 255.714844 C 501.832031 255.933594 502.347656 256.175781 502.855469 256.445312 C 503.359375 256.710938 503.847656 257.003906 504.324219 257.320312 C 504.800781 257.636719 505.261719 257.976562 505.703125 258.339844 C 506.144531 258.703125 506.570312 259.085938 506.972656 259.488281 C 507.378906 259.890625 507.761719 260.3125 508.125 260.753906 C 508.488281 261.195312 508.828125 261.65625 509.148438 262.128906 C 509.464844 262.605469 509.761719 263.09375 510.03125 263.597656 C 510.300781 264.101562 510.546875 264.617188 510.765625 265.144531 C 510.984375 265.675781 511.175781 266.210938 511.34375 266.757812 C 511.507812 267.304688 511.648438 267.859375 511.757812 268.421875 C 511.871094 268.980469 511.957031 269.546875 512.011719 270.113281 C 512.066406 270.683594 512.09375 271.253906 512.09375 271.824219 Z M 512.09375 506.566406 " fill-opacity="1" fill-rule="nonzero"/></g><path fill="#1685bb" d="M 402.203125 322.171875 C 404.554688 323.785156 407.132812 324.882812 409.925781 325.457031 L 409.925781 327.265625 C 409.925781 327.625 409.960938 327.980469 410.03125 328.332031 C 410.101562 328.6875 410.207031 329.027344 410.34375 329.359375 C 410.480469 329.695312 410.652344 330.007812 410.851562 330.308594 C 411.050781 330.605469 411.277344 330.882812 411.53125 331.136719 C 411.785156 331.394531 412.0625 331.621094 412.363281 331.820312 C 412.660156 332.019531 412.976562 332.1875 413.308594 332.324219 C 413.640625 332.464844 413.984375 332.566406 414.335938 332.636719 C 414.691406 332.707031 415.046875 332.742188 415.40625 332.742188 L 419.515625 332.742188 C 419.875 332.742188 420.230469 332.707031 420.582031 332.636719 C 420.9375 332.566406 421.277344 332.464844 421.609375 332.324219 C 421.941406 332.1875 422.257812 332.019531 422.558594 331.820312 C 422.855469 331.621094 423.132812 331.394531 423.386719 331.136719 C 423.640625 330.882812 423.871094 330.605469 424.070312 330.308594 C 424.269531 330.007812 424.4375 329.695312 424.574219 329.359375 C 424.714844 329.027344 424.816406 328.6875 424.886719 328.332031 C 424.957031 327.980469 424.992188 327.625 424.992188 327.265625 L 424.992188 324.527344 C 425.753906 324.222656 426.484375 323.867188 427.191406 323.453125 C 427.898438 323.039062 428.570312 322.578125 429.210938 322.066406 C 429.847656 321.550781 430.445312 320.996094 431 320.394531 C 431.550781 319.792969 432.058594 319.152344 432.519531 318.476562 C 432.976562 317.796875 433.382812 317.089844 433.738281 316.351562 C 434.089844 315.613281 434.386719 314.851562 434.625 314.070312 C 434.867188 313.289062 435.046875 312.492188 435.167969 311.683594 C 435.285156 310.875 435.347656 310.058594 435.347656 309.242188 C 435.3125 308.265625 435.203125 307.300781 435.015625 306.34375 C 434.832031 305.390625 434.570312 304.453125 434.234375 303.539062 C 433.898438 302.625 433.492188 301.742188 433.015625 300.890625 C 432.539062 300.039062 432 299.234375 431.394531 298.46875 C 430.789062 297.703125 430.125 296.992188 429.410156 296.335938 C 428.691406 295.675781 427.925781 295.078125 427.109375 294.542969 C 426.296875 294.003906 425.445312 293.535156 424.558594 293.132812 C 423.671875 292.734375 422.753906 292.40625 421.816406 292.148438 C 420.136719 291.5 418.507812 290.734375 416.941406 289.847656 C 417.449219 289.636719 417.976562 289.546875 418.527344 289.574219 C 420.503906 289.550781 422.332031 290.058594 424.007812 291.109375 C 424.707031 291.507812 425.460938 291.742188 426.265625 291.808594 C 427.070312 291.875 427.851562 291.769531 428.609375 291.492188 C 429.355469 291.214844 430.011719 290.792969 430.578125 290.230469 C 431.140625 289.664062 431.5625 289.007812 431.839844 288.261719 L 433.484375 283.933594 C 433.71875 283.328125 433.839844 282.703125 433.851562 282.058594 C 433.863281 281.410156 433.765625 280.78125 433.554688 280.167969 C 433.34375 279.558594 433.035156 279 432.628906 278.5 C 432.21875 277.996094 431.738281 277.582031 431.183594 277.25 C 429.328125 276.210938 427.375 275.425781 425.320312 274.894531 L 425.320312 273.304688 C 425.320312 272.945312 425.285156 272.589844 425.214844 272.234375 C 425.144531 271.882812 425.042969 271.539062 424.902344 271.207031 C 424.765625 270.875 424.597656 270.558594 424.398438 270.261719 C 424.199219 269.960938 423.972656 269.683594 423.714844 269.429688 C 423.460938 269.175781 423.1875 268.949219 422.886719 268.75 C 422.585938 268.550781 422.273438 268.382812 421.9375 268.242188 C 421.605469 268.105469 421.265625 268 420.910156 267.933594 C 420.558594 267.863281 420.203125 267.828125 419.84375 267.828125 L 415.789062 267.828125 C 415.429688 267.828125 415.074219 267.863281 414.71875 267.933594 C 414.367188 268 414.023438 268.105469 413.691406 268.242188 C 413.359375 268.382812 413.042969 268.550781 412.746094 268.75 C 412.445312 268.949219 412.167969 269.175781 411.914062 269.429688 C 411.660156 269.683594 411.433594 269.960938 411.234375 270.261719 C 411.035156 270.558594 410.867188 270.875 410.726562 271.207031 C 410.589844 271.539062 410.488281 271.882812 410.417969 272.234375 C 410.347656 272.589844 410.3125 272.945312 410.3125 273.304688 L 410.3125 275.878906 C 409.585938 276.171875 408.890625 276.515625 408.214844 276.910156 C 407.542969 277.308594 406.90625 277.753906 406.296875 278.246094 C 405.691406 278.738281 405.125 279.269531 404.601562 279.847656 C 404.074219 280.425781 403.59375 281.035156 403.160156 281.683594 C 402.722656 282.332031 402.339844 283.011719 402.007812 283.714844 C 401.671875 284.421875 401.394531 285.148438 401.167969 285.894531 C 400.945312 286.644531 400.777344 287.402344 400.664062 288.175781 C 400.554688 288.949219 400.5 289.726562 400.503906 290.507812 C 400.503906 301.460938 410.53125 305.242188 414.75 306.941406 C 416.226562 307.542969 418.746094 308.695312 418.746094 309.679688 C 418.746094 310.664062 417.324219 310.609375 416.390625 310.609375 C 414.082031 310.589844 411.945312 309.96875 409.980469 308.75 C 409.28125 308.277344 408.511719 307.984375 407.675781 307.867188 C 406.839844 307.753906 406.019531 307.828125 405.214844 308.089844 C 404.414062 308.351562 403.710938 308.777344 403.105469 309.363281 C 402.5 309.949219 402.050781 310.640625 401.765625 311.433594 L 400.230469 315.816406 C 400.023438 316.378906 399.914062 316.960938 399.898438 317.5625 C 399.882812 318.164062 399.964844 318.753906 400.140625 319.328125 C 400.320312 319.902344 400.585938 320.429688 400.9375 320.917969 C 401.292969 321.40625 401.714844 321.820312 402.203125 322.171875 Z M 402.203125 322.171875 " fill-opacity="1" fill-rule="nonzero"/><path fill="#1685bb" d="M 486.785156 348.902344 L 357.609375 348.902344 C 357.25 348.902344 356.894531 348.9375 356.542969 349.007812 C 356.1875 349.078125 355.847656 349.183594 355.515625 349.320312 C 355.183594 349.457031 354.867188 349.625 354.566406 349.828125 C 354.269531 350.027344 353.992188 350.253906 353.738281 350.507812 C 353.484375 350.761719 353.253906 351.039062 353.054688 351.339844 C 352.855469 351.636719 352.6875 351.953125 352.550781 352.285156 C 352.414062 352.617188 352.308594 352.960938 352.238281 353.3125 C 352.167969 353.664062 352.132812 354.023438 352.132812 354.382812 C 352.132812 354.742188 352.167969 355.097656 352.238281 355.449219 C 352.308594 355.804688 352.414062 356.144531 352.550781 356.476562 C 352.6875 356.808594 352.855469 357.125 353.054688 357.425781 C 353.253906 357.722656 353.484375 358 353.738281 358.253906 C 353.992188 358.507812 354.269531 358.738281 354.566406 358.9375 C 354.867188 359.136719 355.183594 359.304688 355.515625 359.441406 C 355.847656 359.582031 356.1875 359.683594 356.542969 359.753906 C 356.894531 359.824219 357.25 359.859375 357.609375 359.859375 L 486.785156 359.859375 C 487.144531 359.859375 487.503906 359.824219 487.855469 359.753906 C 488.207031 359.683594 488.550781 359.582031 488.882812 359.441406 C 489.214844 359.304688 489.53125 359.136719 489.828125 358.9375 C 490.128906 358.738281 490.40625 358.507812 490.660156 358.253906 C 490.914062 358 491.140625 357.722656 491.339844 357.425781 C 491.542969 357.125 491.710938 356.808594 491.847656 356.476562 C 491.984375 356.144531 492.089844 355.804688 492.160156 355.449219 C 492.230469 355.097656 492.265625 354.742188 492.265625 354.382812 C 492.265625 354.023438 492.230469 353.664062 492.160156 353.3125 C 492.089844 352.960938 491.984375 352.617188 491.847656 352.285156 C 491.710938 351.953125 491.542969 351.636719 491.339844 351.339844 C 491.140625 351.039062 490.914062 350.761719 490.660156 350.507812 C 490.40625 350.253906 490.128906 350.027344 489.828125 349.828125 C 489.53125 349.625 489.214844 349.457031 488.882812 349.320312 C 488.550781 349.183594 488.207031 349.078125 487.855469 349.007812 C 487.503906 348.9375 487.144531 348.902344 486.785156 348.902344 Z M 486.785156 348.902344 " fill-opacity="1" fill-rule="nonzero"/><path fill="#1685bb" d="M 486.785156 379.472656 L 357.609375 379.472656 C 357.25 379.472656 356.894531 379.507812 356.542969 379.578125 C 356.1875 379.648438 355.847656 379.75 355.515625 379.890625 C 355.183594 380.027344 354.867188 380.195312 354.566406 380.394531 C 354.269531 380.59375 353.992188 380.820312 353.738281 381.078125 C 353.484375 381.332031 353.253906 381.605469 353.054688 381.90625 C 352.855469 382.207031 352.6875 382.519531 352.550781 382.851562 C 352.414062 383.1875 352.308594 383.527344 352.238281 383.882812 C 352.167969 384.234375 352.132812 384.589844 352.132812 384.949219 C 352.132812 385.308594 352.167969 385.664062 352.238281 386.019531 C 352.308594 386.371094 352.414062 386.714844 352.550781 387.046875 C 352.6875 387.378906 352.855469 387.695312 353.054688 387.992188 C 353.253906 388.292969 353.484375 388.570312 353.738281 388.824219 C 353.992188 389.078125 354.269531 389.304688 354.566406 389.503906 C 354.867188 389.703125 355.183594 389.875 355.515625 390.011719 C 355.847656 390.148438 356.1875 390.253906 356.542969 390.324219 C 356.894531 390.394531 357.25 390.429688 357.609375 390.429688 L 486.785156 390.429688 C 487.144531 390.429688 487.503906 390.394531 487.855469 390.324219 C 488.207031 390.253906 488.550781 390.148438 488.882812 390.011719 C 489.214844 389.875 489.53125 389.703125 489.828125 389.503906 C 490.128906 389.304688 490.40625 389.078125 490.660156 388.824219 C 490.914062 388.570312 491.140625 388.292969 491.339844 387.992188 C 491.542969 387.695312 491.710938 387.378906 491.847656 387.046875 C 491.984375 386.714844 492.089844 386.371094 492.160156 386.019531 C 492.230469 385.664062 492.265625 385.308594 492.265625 384.949219 C 492.265625 384.589844 492.230469 384.234375 492.160156 383.882812 C 492.089844 383.527344 491.984375 383.1875 491.847656 382.851562 C 491.710938 382.519531 491.542969 382.207031 491.339844 381.90625 C 491.140625 381.605469 490.914062 381.332031 490.660156 381.078125 C 490.40625 380.820312 490.128906 380.59375 489.828125 380.394531 C 489.53125 380.195312 489.214844 380.027344 488.882812 379.890625 C 488.550781 379.75 488.207031 379.648438 487.855469 379.578125 C 487.503906 379.507812 487.144531 379.472656 486.785156 379.472656 Z M 486.785156 379.472656 " fill-opacity="1" fill-rule="nonzero"/><path fill="#1685bb" d="M 486.785156 409.984375 L 357.609375 409.984375 C 357.25 409.984375 356.894531 410.019531 356.542969 410.089844 C 356.191406 410.164062 355.847656 410.265625 355.515625 410.40625 C 355.183594 410.542969 354.871094 410.710938 354.570312 410.910156 C 354.273438 411.109375 353.996094 411.339844 353.742188 411.59375 C 353.488281 411.847656 353.261719 412.125 353.0625 412.421875 C 352.863281 412.722656 352.695312 413.035156 352.554688 413.367188 C 352.417969 413.699219 352.316406 414.042969 352.246094 414.394531 C 352.175781 414.746094 352.140625 415.105469 352.140625 415.464844 C 352.140625 415.824219 352.175781 416.179688 352.246094 416.53125 C 352.316406 416.882812 352.417969 417.226562 352.554688 417.558594 C 352.695312 417.890625 352.863281 418.207031 353.0625 418.503906 C 353.261719 418.804688 353.488281 419.078125 353.742188 419.335938 C 353.996094 419.589844 354.273438 419.816406 354.570312 420.015625 C 354.871094 420.214844 355.183594 420.382812 355.515625 420.523438 C 355.847656 420.660156 356.191406 420.765625 356.542969 420.835938 C 356.894531 420.90625 357.25 420.941406 357.609375 420.941406 L 486.785156 420.941406 C 487.144531 420.941406 487.503906 420.90625 487.855469 420.835938 C 488.207031 420.765625 488.550781 420.664062 488.882812 420.523438 C 489.214844 420.386719 489.53125 420.21875 489.828125 420.019531 C 490.128906 419.820312 490.40625 419.589844 490.660156 419.335938 C 490.914062 419.082031 491.140625 418.804688 491.339844 418.507812 C 491.542969 418.207031 491.710938 417.890625 491.847656 417.558594 C 491.984375 417.226562 492.089844 416.886719 492.160156 416.53125 C 492.230469 416.179688 492.265625 415.824219 492.265625 415.464844 C 492.265625 415.105469 492.230469 414.746094 492.160156 414.394531 C 492.089844 414.042969 491.984375 413.699219 491.847656 413.367188 C 491.710938 413.035156 491.542969 412.71875 491.339844 412.417969 C 491.140625 412.121094 490.914062 411.84375 490.660156 411.589844 C 490.40625 411.335938 490.128906 411.109375 489.828125 410.910156 C 489.53125 410.707031 489.214844 410.539062 488.882812 410.402344 C 488.550781 410.265625 488.207031 410.160156 487.855469 410.089844 C 487.503906 410.019531 487.144531 409.984375 486.785156 409.984375 Z M 486.785156 409.984375 " fill-opacity="1" fill-rule="nonzero"/><path fill="#1685bb" d="M 486.785156 440.554688 L 357.609375 440.554688 C 357.25 440.554688 356.894531 440.589844 356.542969 440.660156 C 356.1875 440.730469 355.847656 440.832031 355.515625 440.96875 C 355.183594 441.109375 354.867188 441.277344 354.566406 441.476562 C 354.269531 441.675781 353.992188 441.902344 353.738281 442.15625 C 353.484375 442.414062 353.253906 442.6875 353.054688 442.988281 C 352.855469 443.285156 352.6875 443.601562 352.550781 443.933594 C 352.414062 444.265625 352.308594 444.609375 352.238281 444.960938 C 352.167969 445.316406 352.132812 445.671875 352.132812 446.03125 C 352.132812 446.390625 352.167969 446.746094 352.238281 447.101562 C 352.308594 447.453125 352.414062 447.796875 352.550781 448.128906 C 352.6875 448.460938 352.855469 448.777344 353.054688 449.074219 C 353.253906 449.375 353.484375 449.652344 353.738281 449.90625 C 353.992188 450.160156 354.269531 450.386719 354.566406 450.585938 C 354.867188 450.785156 355.183594 450.953125 355.515625 451.09375 C 355.847656 451.230469 356.1875 451.335938 356.542969 451.40625 C 356.894531 451.476562 357.25 451.507812 357.609375 451.507812 L 486.785156 451.507812 C 487.144531 451.507812 487.503906 451.476562 487.855469 451.40625 C 488.207031 451.335938 488.550781 451.230469 488.882812 451.09375 C 489.214844 450.953125 489.53125 450.785156 489.828125 450.585938 C 490.128906 450.386719 490.40625 450.160156 490.660156 449.90625 C 490.914062 449.652344 491.140625 449.375 491.339844 449.074219 C 491.542969 448.777344 491.710938 448.460938 491.847656 448.128906 C 491.984375 447.796875 492.089844 447.453125 492.160156 447.101562 C 492.230469 446.746094 492.265625 446.390625 492.265625 446.03125 C 492.265625 445.671875 492.230469 445.316406 492.160156 444.960938 C 492.089844 444.609375 491.984375 444.265625 491.847656 443.933594 C 491.710938 443.601562 491.542969 443.285156 491.339844 442.988281 C 491.140625 442.6875 490.914062 442.414062 490.660156 442.15625 C 490.40625 441.902344 490.128906 441.675781 489.828125 441.476562 C 489.53125 441.277344 489.214844 441.109375 488.882812 440.96875 C 488.550781 440.832031 488.207031 440.730469 487.855469 440.660156 C 487.503906 440.589844 487.144531 440.554688 486.785156 440.554688 Z M 486.785156 440.554688 " fill-opacity="1" fill-rule="nonzero"/><path fill="#1685bb" d="M 390.152344 466.136719 C 388.609375 464.890625 386.894531 463.976562 384.996094 463.402344 C 383.101562 462.824219 381.167969 462.621094 379.195312 462.792969 C 376.417969 462.78125 373.660156 463 370.921875 463.453125 C 370.601562 463.503906 370.300781 463.609375 370.019531 463.765625 C 369.738281 463.925781 369.492188 464.128906 369.28125 464.375 C 369.070312 464.617188 368.910156 464.894531 368.796875 465.195312 C 368.683594 465.5 368.625 465.8125 368.621094 466.136719 L 368.621094 497.527344 C 368.621094 497.890625 368.691406 498.238281 368.832031 498.574219 C 368.96875 498.910156 369.167969 499.207031 369.425781 499.464844 C 369.679688 499.71875 369.976562 499.917969 370.3125 500.058594 C 370.648438 500.195312 370.996094 500.265625 371.359375 500.265625 L 375.6875 500.265625 C 376.050781 500.257812 376.398438 500.183594 376.730469 500.042969 C 377.0625 499.902344 377.355469 499.703125 377.609375 499.449219 C 377.867188 499.191406 378.0625 498.898438 378.207031 498.566406 C 378.347656 498.234375 378.421875 497.886719 378.429688 497.527344 L 378.429688 487.71875 C 380.675781 487.867188 382.859375 487.5625 384.980469 486.8125 C 387.101562 486.058594 388.992188 484.921875 390.644531 483.394531 C 391.742188 482.214844 392.574219 480.871094 393.132812 479.363281 C 393.695312 477.851562 393.941406 476.292969 393.875 474.683594 C 393.902344 473.054688 393.585938 471.496094 392.9375 470.007812 C 392.289062 468.515625 391.359375 467.226562 390.152344 466.136719 Z M 379.195312 479.011719 L 378.429688 479.011719 L 378.429688 471.558594 L 379.523438 471.558594 C 384.289062 471.558594 384.289062 474.023438 384.289062 475.066406 C 384.289062 476.105469 384.289062 479.011719 379.085938 479.011719 Z M 379.195312 479.011719 " fill-opacity="1" fill-rule="nonzero"/><path fill="#1685bb" d="M 413.324219 464.875 C 413.128906 464.328125 412.796875 463.882812 412.328125 463.542969 C 411.855469 463.203125 411.332031 463.027344 410.75 463.015625 L 405.765625 463.015625 C 405.183594 463.027344 404.65625 463.203125 404.1875 463.542969 C 403.714844 463.882812 403.382812 464.328125 403.1875 464.875 L 392.234375 496.648438 C 392.164062 496.855469 392.121094 497.066406 392.101562 497.28125 C 392.082031 497.496094 392.085938 497.710938 392.117188 497.925781 C 392.148438 498.140625 392.207031 498.347656 392.285156 498.550781 C 392.367188 498.75 392.472656 498.9375 392.597656 499.117188 C 392.722656 499.292969 392.867188 499.449219 393.03125 499.59375 C 393.195312 499.734375 393.371094 499.855469 393.5625 499.957031 C 393.757812 500.054688 393.957031 500.132812 394.167969 500.183594 C 394.378906 500.238281 394.589844 500.265625 394.808594 500.265625 L 399.082031 500.265625 C 399.371094 500.265625 399.652344 500.21875 399.925781 500.128906 C 400.199219 500.039062 400.453125 499.90625 400.6875 499.734375 C 400.917969 499.5625 401.117188 499.355469 401.28125 499.121094 C 401.449219 498.882812 401.574219 498.625 401.65625 498.347656 L 404.339844 490.242188 L 411.84375 490.242188 L 414.582031 498.675781 C 414.777344 499.226562 415.109375 499.667969 415.582031 500.011719 C 416.050781 500.351562 416.578125 500.527344 417.160156 500.539062 L 421.542969 500.539062 C 421.984375 500.539062 422.40625 500.433594 422.800781 500.230469 C 423.195312 500.03125 423.527344 499.75 423.789062 499.390625 C 424.042969 499.019531 424.203125 498.617188 424.269531 498.171875 C 424.335938 497.730469 424.304688 497.296875 424.171875 496.867188 Z M 407.1875 481.585938 L 408.175781 478.734375 L 409.105469 481.585938 Z M 407.1875 481.585938 " fill-opacity="1" fill-rule="nonzero"/><path fill="#1685bb" d="M 430.964844 463.015625 L 435.074219 463.015625 C 435.4375 463.015625 435.785156 463.082031 436.121094 463.222656 C 436.457031 463.363281 436.753906 463.558594 437.007812 463.816406 C 437.265625 464.074219 437.464844 464.371094 437.601562 464.703125 C 437.742188 465.039062 437.8125 465.390625 437.8125 465.753906 L 437.8125 497.472656 C 437.8125 497.835938 437.742188 498.183594 437.601562 498.519531 C 437.464844 498.855469 437.265625 499.152344 437.007812 499.410156 C 436.753906 499.664062 436.457031 499.863281 436.121094 500.003906 C 435.785156 500.140625 435.4375 500.210938 435.074219 500.210938 L 430.964844 500.210938 C 430.601562 500.210938 430.25 500.140625 429.914062 500.003906 C 429.578125 499.863281 429.285156 499.664062 429.027344 499.410156 C 428.769531 499.152344 428.570312 498.855469 428.433594 498.519531 C 428.292969 498.183594 428.226562 497.835938 428.226562 497.472656 L 428.226562 465.753906 C 428.226562 465.390625 428.292969 465.039062 428.433594 464.703125 C 428.570312 464.371094 428.769531 464.074219 429.027344 463.816406 C 429.285156 463.558594 429.578125 463.363281 429.914062 463.222656 C 430.25 463.082031 430.601562 463.015625 430.964844 463.015625 Z M 430.964844 463.015625 " fill-opacity="1" fill-rule="nonzero"/><path fill="#1685bb" d="M 455.617188 462.792969 C 452.570312 462.796875 449.539062 463.015625 446.523438 463.453125 C 446.195312 463.503906 445.886719 463.609375 445.597656 463.773438 C 445.308594 463.933594 445.058594 464.140625 444.839844 464.390625 C 444.625 464.640625 444.460938 464.921875 444.34375 465.230469 C 444.226562 465.539062 444.167969 465.859375 444.167969 466.191406 L 444.167969 497.417969 C 444.171875 497.753906 444.234375 498.082031 444.359375 498.398438 C 444.480469 498.714844 444.65625 499 444.882812 499.25 C 445.109375 499.503906 445.375 499.707031 445.675781 499.863281 C 445.976562 500.019531 446.292969 500.117188 446.632812 500.15625 C 448.933594 500.15625 451.507812 500.539062 454.355469 500.539062 C 455.800781 500.632812 457.238281 500.582031 458.671875 500.390625 C 460.105469 500.195312 461.507812 499.863281 462.875 499.394531 C 464.242188 498.925781 465.550781 498.324219 466.800781 497.59375 C 468.050781 496.867188 469.214844 496.019531 470.296875 495.0625 C 471.21875 494.121094 472.03125 493.09375 472.742188 491.984375 C 473.453125 490.878906 474.046875 489.707031 474.515625 488.480469 C 474.988281 487.25 475.328125 485.984375 475.539062 484.6875 C 475.753906 483.386719 475.832031 482.078125 475.773438 480.761719 C 475.828125 479.511719 475.746094 478.273438 475.53125 477.039062 C 475.316406 475.808594 474.972656 474.613281 474.5 473.457031 C 474.027344 472.296875 473.433594 471.203125 472.726562 470.171875 C 472.019531 469.140625 471.207031 468.199219 470.296875 467.339844 C 468.226562 465.675781 465.925781 464.453125 463.390625 463.667969 C 460.855469 462.882812 458.261719 462.589844 455.617188 462.792969 Z M 455.175781 491.773438 L 453.753906 491.773438 L 453.753906 471.558594 L 455.835938 471.558594 C 457.25 471.449219 458.632812 471.617188 459.984375 472.0625 C 461.332031 472.507812 462.542969 473.199219 463.613281 474.132812 C 464.464844 475.082031 465.097656 476.164062 465.507812 477.371094 C 465.914062 478.578125 466.070312 479.820312 465.96875 481.09375 C 466.015625 481.457031 466.042969 481.820312 466.050781 482.1875 C 466.054688 482.550781 466.039062 482.917969 466.003906 483.28125 C 465.96875 483.648438 465.910156 484.007812 465.832031 484.367188 C 465.753906 484.726562 465.65625 485.078125 465.539062 485.421875 C 465.417969 485.769531 465.28125 486.109375 465.121094 486.441406 C 464.964844 486.769531 464.789062 487.089844 464.59375 487.402344 C 464.398438 487.710938 464.1875 488.011719 463.957031 488.296875 C 463.730469 488.582031 463.484375 488.855469 463.226562 489.113281 C 462.964844 489.371094 462.691406 489.613281 462.402344 489.835938 C 462.113281 490.0625 461.8125 490.273438 461.5 490.464844 C 461.1875 490.65625 460.867188 490.828125 460.535156 490.984375 C 460.199219 491.136719 459.859375 491.273438 459.511719 491.386719 C 459.164062 491.5 458.8125 491.597656 458.453125 491.671875 C 458.09375 491.746094 457.734375 491.796875 457.367188 491.832031 C 457.003906 491.863281 456.636719 491.875 456.269531 491.867188 C 455.90625 491.855469 455.539062 491.824219 455.175781 491.773438 Z M 455.175781 491.773438 " fill-opacity="1" fill-rule="nonzero"/></svg>