<svg xmlns="http://www.w3.org/2000/svg" xmlns:xlink="http://www.w3.org/1999/xlink" width="1080" zoomAndPan="magnify" viewBox="0 0 810 809.999993" height="1080" preserveAspectRatio="xMidYMid meet" version="1.0"><defs><clipPath id="2be7774ef0"><path d="M 327 298.304688 L 476 298.304688 L 476 492 L 327 492 Z M 327 298.304688 " clip-rule="nonzero"/></clipPath><clipPath id="e054927cc3"><path d="M 359 388 L 545.625 388 L 545.625 512 L 359 512 Z M 359 388 " clip-rule="nonzero"/></clipPath></defs><g clip-path="url(#2be7774ef0)"><path fill="#1685bb" d="M 327.121094 298.359375 L 327.121094 491.421875 L 373.6875 491.421875 L 373.6875 485.191406 L 333.335938 485.191406 L 333.335938 304.582031 L 468.871094 304.582031 L 468.871094 384.171875 L 475.097656 384.171875 L 475.097656 298.359375 Z M 327.121094 298.359375 " fill-opacity="1" fill-rule="evenodd"/></g><g clip-path="url(#e054927cc3)"><path fill="#1685bb" d="M 529.597656 477.28125 L 537.398438 498.878906 C 530.640625 501.820312 523.167969 501.820312 516.410156 498.878906 L 524.210938 477.292969 C 525.082031 477.496094 525.96875 477.625 526.898438 477.625 C 527.824219 477.625 528.722656 477.496094 529.597656 477.28125 Z M 526.894531 460.140625 C 530.210938 460.140625 532.765625 462.683594 532.765625 465.78125 C 532.765625 468.882812 530.210938 471.410156 526.894531 471.410156 C 523.582031 471.410156 521.039062 468.882812 521.039062 465.78125 C 521.039062 462.683594 523.582031 460.140625 526.894531 460.140625 Z M 400.101562 456.578125 L 444.671875 473.179688 L 489.230469 456.578125 L 496.867188 486.347656 L 444.671875 505.09375 L 392.472656 486.347656 Z M 444.671875 394.769531 L 523.796875 424.226562 L 523.796875 437.066406 L 444.671875 466.539062 L 365.542969 437.066406 L 365.542969 424.226562 Z M 444.671875 388.125 L 359.332031 419.914062 L 359.332031 441.394531 L 394.242188 454.394531 L 385.042969 490.265625 L 444.667969 511.71875 L 504.296875 490.265625 L 495.097656 454.394531 L 523.796875 443.710938 L 523.796875 454.382812 C 518.683594 455.738281 514.824219 460.292969 514.824219 465.777344 C 514.824219 469.164062 516.308594 472.207031 518.640625 474.367188 L 508.554688 502.332031 L 510.835938 503.636719 C 520.78125 509.222656 533.019531 509.222656 542.964844 503.636719 L 545.25 502.332031 L 535.148438 474.347656 C 537.492188 472.195312 538.980469 469.164062 538.980469 465.777344 C 538.980469 460.292969 535.121094 455.75 530.007812 454.378906 L 530.007812 419.914062 Z M 444.671875 388.125 " fill-opacity="1" fill-rule="nonzero"/></g><path fill="#1685bb" d="M 361.703125 326.667969 L 361.703125 335.65625 C 361.160156 335.769531 360.601562 335.890625 360.074219 336.066406 C 354.347656 337.96875 349.820312 342.941406 349.820312 349.125 C 349.820312 352.949219 351.457031 356.054688 353.617188 358.011719 C 355.785156 359.980469 358.300781 360.9375 360.398438 361.4375 C 364.527344 362.4375 368.199219 363.195312 370.359375 364.4375 C 372.527344 365.679688 373.585938 366.839844 373.585938 370.910156 C 373.585938 373.121094 371.984375 375.238281 368.546875 376.378906 C 365.101562 377.523438 360.019531 377.378906 354.359375 374.433594 L 351.476562 379.96875 C 354.988281 381.796875 358.445312 382.808594 361.703125 383.140625 L 361.703125 391.695312 L 367.914062 391.695312 L 367.914062 382.910156 C 368.816406 382.753906 369.6875 382.550781 370.519531 382.265625 C 375.800781 380.507812 379.800781 376.207031 379.800781 370.910156 C 379.800781 365.238281 377.078125 361.113281 373.457031 359.023438 C 369.847656 356.953125 365.757812 356.335938 361.886719 355.414062 C 360.460938 355.070312 358.859375 354.382812 357.789062 353.425781 C 356.734375 352.453125 356.03125 351.351562 356.03125 349.125 C 356.03125 345.96875 358.359375 343.167969 362.03125 341.96875 C 365.683594 340.753906 370.414062 341.222656 374.746094 345.136719 L 378.917969 340.523438 C 375.972656 337.882812 372.683594 336.296875 369.429688 335.597656 C 368.925781 335.496094 368.410156 335.449219 367.914062 335.382812 L 367.914062 326.664062 L 361.703125 326.664062 Z M 361.703125 326.667969 " fill-opacity="1" fill-rule="nonzero"/><path fill="#1685bb" d="M 421.203125 333.054688 L 452.414062 333.054688 L 452.414062 339.269531 L 421.203125 339.269531 Z M 421.203125 333.054688 " fill-opacity="1" fill-rule="nonzero"/><path fill="#1685bb" d="M 396.15625 352.269531 L 452.414062 352.269531 L 452.414062 358.484375 L 396.15625 358.484375 Z M 396.15625 352.269531 " fill-opacity="1" fill-rule="nonzero"/><path fill="#1685bb" d="M 396.15625 371.46875 L 452.414062 371.46875 L 452.414062 377.683594 L 396.15625 377.683594 Z M 396.15625 371.46875 " fill-opacity="1" fill-rule="nonzero"/></svg>