<?xml version="1.0" encoding="UTF-8"?>
<svg version="1.1" xmlns="http://www.w3.org/2000/svg" width="3375" height="3375">
<path d="M0 0 C2.11402833 0.49427365 4.22949533 0.98180379 6.34545898 1.4677124 C41.46084376 9.6339762 76.16565267 21.25368219 109.26147461 35.52874756 C110.44338379 36.03583252 111.62529297 36.54291748 112.84301758 37.06536865 C140.22189917 48.88748215 166.76681979 62.0373239 192.26147461 77.52874756 C192.97835449 77.95929443 193.69523437 78.38984131 194.43383789 78.83343506 C225.29801027 97.39287843 255.02848447 118.95461944 281.23413086 143.71234131 C283.40727635 145.76184418 285.64055805 147.71934627 287.90991211 149.66156006 C292.92921735 154.03117492 297.61404447 158.73119876 302.30712891 163.44403076 C303.82140041 164.96366424 305.34094891 166.47787273 306.86108398 167.99163818 C312.2051576 173.3317302 317.36967623 178.76729613 322.26147461 184.52874756 C323.21047708 185.61211074 324.16094564 186.69419182 325.11303711 187.77484131 C332.91499048 196.71918878 340.1668683 206.01706475 347.26147461 215.52874756 C347.79385742 216.23483154 348.32624023 216.94091553 348.87475586 217.668396 C358.22715864 230.09844471 366.38879673 243.12020254 374.26147461 256.52874756 C374.68912109 257.25271729 375.11676758 257.97668701 375.55737305 258.72259521 C378.23049462 263.27003883 380.78370104 267.87213579 383.26147461 272.52874756 C383.71200195 273.37388916 384.1625293 274.21903076 384.62670898 275.08978271 C393.08339365 291.10836933 400.01135513 307.53575136 406.26147461 324.52874756 C406.60017578 325.44156494 406.93887695 326.35438232 407.2878418 327.29486084 C417.01590204 353.84118198 422.67754812 381.55112252 426.26147461 409.52874756 C426.39279785 410.52052002 426.52412109 411.51229248 426.65942383 412.53411865 C438.60182074 507.08507318 408.55385881 601.65781314 343.89453125 692.4274292 C338.24169635 699.6596177 332.36616492 706.67508618 326.26147461 713.52874756 C325.49706055 714.39241943 324.73264648 715.25609131 323.94506836 716.14593506 C321.73366048 718.6223954 319.50190035 721.07851606 317.26147461 723.52874756 C316.58133301 724.27656494 316.58133301 724.27656494 315.88745117 725.03948975 C307.13832246 734.65359578 298.3133807 744.21329501 288.40991211 752.66156006 C286.22957898 754.55646776 284.10790983 756.50784618 281.99121094 758.47332764 C275.9441416 764.08196769 269.72680438 769.40416317 263.26147461 774.52874756 C262.3067627 775.29227539 262.3067627 775.29227539 261.33276367 776.07122803 C250.71995822 784.54415546 239.81927507 792.4258796 228.53833008 799.98284912 C226.11431947 801.62866031 223.72296573 803.31610683 221.33178711 805.00921631 C216.37457731 808.48988166 211.29509694 811.73118997 206.13647461 814.90374756 C205.21979004 815.46827637 204.30310547 816.03280518 203.35864258 816.61444092 C188.88939229 825.47638366 173.98325396 833.40559319 158.90014648 841.16986084 C157.30097247 841.9934177 155.70297155 842.81926536 154.10717773 843.64935303 C78.95715234 882.73118096 -6.14105172 904.09852813 -369.52758789 887.49749756 C-371.16026611 887.00346436 -371.16026611 887.00346436 -372.82592773 886.49945068 C-374.86509966 885.87356311 -376.8997696 885.23271805 -378.9284668 884.57366943 C-379.84031738 884.29072021 -380.75216797 884.007771 -381.69165039 883.71624756 C-382.47701172 883.46230225 -383.26237305 883.20835693 -384.0715332 882.94671631 C-391.14899072 881.83754318 -396.95547875 884.149904 -403.25805664 887.03656006 C-404.06039734 887.39338867 -404.86273804 887.75021729 -405.68939209 888.11785889 C-407.41349379 888.88596366 -409.13547733 889.65883753 -410.85549927 890.43603516 C-414.54744385 892.10388273 -418.24992335 893.74773272 -421.95176697 895.39346313 C-423.84526197 896.23561238 -425.73821474 897.07898181 -427.63063049 897.92355347 C-435.821599 901.57779543 -444.05067581 905.13607079 -452.30102539 908.65374756 C-453.69227252 909.24818858 -455.08346603 909.84275511 -456.47460938 910.43743896 C-459.49764202 911.72937615 -462.52105306 913.02042315 -465.54467773 914.31097412 C-476.23759877 918.87583557 -486.92590404 923.45149457 -497.61352539 928.02874756 C-498.80755981 928.54010254 -500.00159424 929.05145752 -501.23181152 929.57830811 C-518.6914695 937.05775341 -536.1304291 944.58375391 -553.55102539 952.15374756 C-554.6414212 952.62756866 -555.73181702 953.10138977 -556.85525513 953.58956909 C-557.9453891 954.06328949 -559.03552307 954.53700989 -560.15869141 955.02508545 C-575.11477129 961.5241481 -590.07779816 968.00678076 -605.05102539 974.46624756 C-606.0761322 974.90853699 -607.10123901 975.35082642 -608.15740967 975.80651855 C-620.84616431 981.27977121 -633.54299355 986.73399392 -646.24633789 992.17327881 C-646.89373365 992.45051725 -647.54112942 992.7277557 -648.20814323 993.01339531 C-659.69351691 997.93181896 -659.69351691 997.93181896 -665.42373657 1000.38052368 C-668.91317628 1001.87171701 -672.40204889 1003.36423066 -675.89086914 1004.85687256 C-676.93312653 1005.3016243 -677.97538391 1005.74637604 -679.04922485 1006.2046051 C-680.48665543 1006.81993355 -680.48665543 1006.81993355 -681.953125 1007.44769287 C-682.78525009 1007.80325256 -683.61737518 1008.15881226 -684.47471619 1008.52514648 C-686.73955163 1009.49578003 -686.73955163 1009.49578003 -688.85011292 1010.65881348 C-690.73852539 1011.52874756 -690.73852539 1011.52874756 -693.73852539 1011.52874756 C-691.74075254 1005.14904026 -689.31801011 999.07522209 -686.61352539 992.96624756 C-662.25179844 936.69514206 -646.19384744 874.8282524 -646.42602539 813.27874756 C-646.42818054 812.24626892 -646.43033569 811.21379028 -646.43255615 810.15002441 C-646.48294546 795.09410657 -646.74211597 780.33580219 -649.73852539 765.52874756 C-650.03654053 764.02924561 -650.03654053 764.02924561 -650.34057617 762.49945068 C-656.73558332 731.36271175 -668.61111215 703.75092677 -688.13696289 678.60247803 C-747.6833497 601.50079974 -777.82531415 499.98278435 -767.21923828 399.58441162 C-756.67662316 320.67506465 -723.13084008 247.59034636 -671.28466797 187.37835693 C-670.16258554 186.03603947 -669.06961535 184.66921548 -667.99511719 183.28851318 C-661.28015507 174.7540911 -653.67396983 167.19487057 -645.97265625 159.55706787 C-643.67199349 157.2747478 -641.37952035 154.98444037 -639.08813477 152.69281006 C-637.60618466 151.21577407 -636.12377836 149.73919562 -634.64086914 148.26312256 C-633.96668442 147.59005066 -633.29249969 146.91697876 -632.59788513 146.22351074 C-628.13245829 141.80184194 -623.50550953 137.62201333 -618.73852539 133.52874756 C-617.60893585 132.5438536 -616.47991597 131.55830537 -615.35180664 130.57171631 C-602.08115294 119.0581734 -588.05617756 108.69767758 -573.73852539 98.52874756 C-573.06950195 98.05292236 -572.40047852 97.57709717 -571.71118164 97.08685303 C-521.32846924 61.41599402 -465.10929192 35.1182036 -406.73852539 15.52874756 C-405.52261719 15.12027588 -404.30670898 14.7118042 -403.05395508 14.29095459 C-369.67818349 3.21985372 -335.37931402 -4.58863514 -300.73852539 -10.47125244 C-299.54582031 -10.67444092 -298.35311523 -10.87762939 -297.12426758 -11.0869751 C-282.80703639 -13.47179418 -268.41750628 -15.12928291 -253.98852539 -16.65875244 C-253.18818878 -16.74369965 -252.38785217 -16.82864685 -251.56326294 -16.91616821 C-167.60851384 -25.74514422 -82.08257205 -19.21814779 0 0 Z M-235.73852539 399.52874756 C-244.25754037 409.64608283 -250.97301976 422.29862943 -252.73852539 435.52874756 C-252.87129883 436.47749756 -253.00407227 437.42624756 -253.14086914 438.40374756 C-255.41714773 459.27389733 -249.43929716 478.65367968 -236.64477539 495.24359131 C-223.06562452 511.20893354 -204.50611516 520.04385652 -183.81274414 521.87640381 C-162.13132513 522.39423625 -142.93541782 514.47178136 -127.36352539 499.65374756 C-114.08438167 485.70849792 -106.88260974 467.71323982 -106.36352539 448.52874756 C-106.91166127 427.41360002 -115.08188747 409.46335619 -129.73852539 394.52874756 C-130.34180664 393.90097412 -130.94508789 393.27320068 -131.56665039 392.62640381 C-144.48632309 380.24036977 -162.76388181 374.76319904 -180.30102539 374.27874756 C-201.72952672 374.91366612 -221.41899979 383.59058292 -235.73852539 399.52874756 Z M34.26147461 381.52874756 C32.85768555 382.15909912 32.85768555 382.15909912 31.42553711 382.80218506 C14.79565755 391.04564971 1.5002847 407.09449275 -4.42749023 424.55853271 C-10.28432339 443.76768496 -9.21333828 464.57149619 0.26147461 482.52874756 C12.05986299 502.15378961 27.9649882 514.40817156 50.05834961 520.27093506 C69.76443779 524.52698369 89.34299873 520.05713498 106.26147461 509.52874756 C123.24445648 497.64688112 134.3284397 480.78598985 138.07788086 460.36077881 C141.03114174 441.68038503 137.39038542 422.06866174 126.26147461 406.52874756 C114.11762368 389.86957046 97.38096617 378.53363836 76.90600586 375.13812256 C74.68802853 374.84799127 72.49429165 374.65795216 70.26147461 374.52874756 C69.57956055 374.48749756 68.89764648 374.44624756 68.19506836 374.40374756 C56.21421881 374.05072068 45.13000376 376.60351536 34.26147461 381.52874756 Z M-478.73852539 396.52874756 C-493.20609387 412.45576374 -499.72558313 431.02445484 -499.07836914 452.53265381 C-498.08448217 471.04158797 -489.82306094 488.48224845 -476.73852539 501.52874756 C-461.25077782 515.25261277 -442.42942719 522.55444525 -421.76977539 521.90374756 C-401.75814124 520.34033864 -383.35741067 511.63483391 -370.02368164 496.52874756 C-356.03356285 479.80960875 -350.94853648 460.09056584 -352.73852539 438.52874756 C-355.14934994 419.34844852 -365.38562482 401.64593232 -380.48852539 389.71624756 C-411.50596911 367.80520719 -450.93831883 370.11855133 -478.73852539 396.52874756 Z " fill="#1685BB" transform="translate(1855.738525390625,1195.4712524414063)"/>
</svg>
