<?xml version="1.0" encoding="UTF-8"?>
<svg version="1.1" xmlns="http://www.w3.org/2000/svg" width="512" height="512">
<path d="M0 0 C1.01520637 -0.00644889 2.03041274 -0.01289778 3.07638294 -0.0195421 C4.7389137 -0.01489629 4.7389137 -0.01489629 6.43503094 -0.01015663 C7.61788872 -0.01468774 8.8007465 -0.01921886 10.01944846 -0.02388728 C13.29920534 -0.03435806 16.57882434 -0.03585701 19.85859263 -0.03349853 C23.39722077 -0.03309032 26.93581623 -0.04412989 30.47442913 -0.05361366 C37.40604395 -0.07022388 44.33762476 -0.07572322 51.26925782 -0.07683842 C56.90408677 -0.0777889 62.5389045 -0.08189921 68.1737299 -0.08823967 C84.15155278 -0.10585229 100.1293488 -0.11507853 116.10718147 -0.11357872 C116.96848138 -0.11349881 117.82978129 -0.1134189 118.71718121 -0.11333656 C119.5795335 -0.1132548 120.44188579 -0.11317304 121.33036997 -0.1130888 C135.30532409 -0.11227594 149.28017043 -0.13141361 163.25509337 -0.1596133 C177.60645547 -0.18834394 191.95776501 -0.20215349 206.3091566 -0.20042574 C214.3655634 -0.19976189 222.42185721 -0.20525191 230.47823811 -0.22678185 C237.33783034 -0.24499605 244.19725835 -0.24933909 251.0568643 -0.235763 C254.55564049 -0.22923441 258.05410167 -0.2291117 261.55284786 -0.2464695 C265.34890004 -0.26187543 269.1441239 -0.25264305 272.94015789 -0.23720741 C274.04181957 -0.24749454 275.14348124 -0.25778167 276.2785266 -0.26838052 C283.88652499 -0.19998049 289.16313816 1.06834522 295.08510113 6.15180016 C295.61490582 6.78472984 296.1447105 7.41765953 296.69056988 8.06976891 C297.23326519 8.69496422 297.7759605 9.32015953 298.33510113 9.96430016 C303.30811836 17.35458146 303.28269729 23.67906761 303.17103863 32.40961266 C303.16679379 33.66488258 303.16254894 34.92015251 303.15817547 36.21346092 C303.14427616 39.52956228 303.11738489 42.84502943 303.08406353 46.16095543 C303.05321908 49.55303061 303.03963963 52.94517164 303.02455425 56.33734703 C302.99154626 62.97749444 302.94139203 69.6173451 302.87806988 76.25726891 C303.47699236 76.25358173 304.07591484 76.24989456 304.69298649 76.24609566 C319.30053336 76.15756136 333.90806432 76.09147045 348.51581669 76.05002022 C355.58018823 76.02943971 362.6443801 76.00140622 369.70863628 75.95551109 C376.52971498 75.91121717 383.35060714 75.88811147 390.17182064 75.87775993 C392.77046039 75.87038562 395.36909028 75.85598539 397.96765041 75.83434868 C401.61558373 75.80519035 405.26275308 75.80131827 408.91078472 75.80316734 C409.97821911 75.78878624 411.0456535 75.77440514 412.14543438 75.75958824 C420.81262242 75.80693287 428.22114916 77.55901536 434.75306988 83.50726891 C441.08288712 90.46409635 442.9981692 97.64891411 443.01229095 106.91693878 C443.01464318 107.57618981 443.01699542 108.23544083 443.01941893 108.91466916 C443.0260844 111.12728454 443.02565145 113.33984087 443.0252409 115.55246544 C443.02854104 117.15348934 443.03226693 118.75451242 443.03638238 120.35553443 C443.04639322 124.75821441 443.05011769 129.16088075 443.05277169 133.5635705 C443.05667741 138.31084617 443.06625551 143.05811108 443.07498455 147.80537987 C443.09474051 159.27100246 443.10481369 170.73662592 443.11371234 182.20226127 C443.11809632 187.60221878 443.12346281 193.0021753 443.12870121 198.40213203 C443.14571198 216.35338513 443.16020637 234.30463761 443.16744995 252.25589752 C443.16935983 256.91358122 443.17128016 261.57126491 443.17323589 266.22894859 C443.17371963 267.38658482 443.17420337 268.54422104 443.17470177 269.73693715 C443.18300293 288.4918451 443.20834199 307.2466893 443.24081657 326.00156941 C443.27388827 345.25832342 443.29189878 364.51504502 443.29509419 383.77182758 C443.29725909 394.58320882 443.30600495 405.39449705 443.33155537 416.2058506 C443.35326377 425.41272088 443.36131203 434.61947556 443.35158858 443.82636853 C443.34704443 448.52242433 443.34893692 453.2182416 443.36835003 457.91426468 C443.38598601 462.21762689 443.3849805 466.52057663 443.36945274 470.82394324 C443.36707734 472.37647416 443.3713967 473.92903366 443.38328139 475.48152091 C443.46239541 486.50335985 442.69158291 497.39886396 434.68612719 505.77097952 C427.89747426 511.35150107 420.95844806 512.99578476 412.36574078 512.89218712 C410.85055174 512.90388705 410.85055174 512.90388705 409.30475283 512.91582334 C405.94534896 512.93564736 402.58709001 512.92001572 399.22767925 512.90424156 C396.80895613 512.9110219 394.39023818 512.91992736 391.97152996 512.93079185 C386.099295 512.95118255 380.2273536 512.94825601 374.35512698 512.93372865 C369.57996702 512.92240738 364.80489653 512.92091793 360.02972698 512.92634773 C359.34845488 512.9271139 358.66718279 512.92788006 357.96526608 512.92866945 C356.58099971 512.93026817 355.19673336 512.93188924 353.81246704 512.9335324 C340.85152992 512.94776846 327.89077001 512.93143098 314.92986196 512.90453057 C303.82413033 512.88219366 292.71866007 512.8860744 281.61293316 512.90912437 C268.69637552 512.93592043 255.77997295 512.94639536 242.8633914 512.93106306 C241.48439855 512.92947042 240.10540567 512.92789856 238.72641277 512.92634773 C238.04803454 512.92557635 237.3696563 512.92480498 236.67072114 512.92401022 C231.90481295 512.9197046 227.13900364 512.92695511 222.37311077 512.9387455 C215.95105699 512.95428482 209.52937959 512.94312097 203.10736942 512.91427422 C200.75401088 512.90767711 198.40061072 512.90953739 196.04726887 512.92058754 C192.82775762 512.93430815 189.60981127 512.91704666 186.39039898 512.89218712 C185.46528436 512.90334073 184.54016974 512.91449434 183.58702135 512.92598593 C175.93573828 512.81185912 169.46063956 510.49398529 163.72601843 505.31297171 C158.21386617 499.54533516 155.70001163 493.97272224 155.81166363 485.99945641 C155.82125103 485.10855309 155.83083843 484.21764977 155.84071636 483.29974937 C155.85304302 482.62573082 155.86536968 481.95171227 155.87806988 481.25726891 C155.07723004 481.26003428 154.27639021 481.26279966 153.4512825 481.26564884 C133.94541213 481.33196497 114.43956433 481.38157688 94.93360519 481.41270542 C85.50058278 481.42815991 76.06763572 481.4492223 66.63466167 481.48358727 C58.41078735 481.51353306 50.18696762 481.53285421 41.96304029 481.53953439 C37.61042486 481.54343788 33.25796556 481.55258198 28.90540028 481.57445908 C24.80389756 481.59490615 20.70261448 481.60108618 16.60106564 481.59659195 C15.10031787 481.59741349 13.59956234 481.60333007 12.09885883 481.61488533 C1.08547922 481.69548764 -8.67946757 481.04016407 -17.12193012 473.25726891 C-21.96047085 467.11101447 -23.42470746 461.35551795 -23.38199234 453.64403725 C-23.38579801 452.89384898 -23.38960368 452.14366071 -23.39352468 451.37073946 C-23.40383827 448.85475742 -23.39993473 446.33900108 -23.39608479 443.82300377 C-23.40053731 442.00178836 -23.4058514 440.1805749 -23.41195351 438.35936427 C-23.4261421 433.35271597 -23.42779664 428.34612972 -23.4273566 423.33946419 C-23.42900403 417.94054186 -23.44206913 412.54164515 -23.45354939 407.14273643 C-23.47640359 395.33701204 -23.48432034 383.53130561 -23.48937583 371.7255621 C-23.49263214 364.35468655 -23.49915419 356.98381624 -23.50637722 349.61294365 C-23.52594312 329.20652115 -23.54234758 308.80010352 -23.54525375 288.39367104 C-23.54544132 287.08771321 -23.54562889 285.78175538 -23.54582215 284.43622307 C-23.5461884 281.78871457 -23.5465521 279.14120606 -23.54691326 276.49369755 C-23.54709607 275.17946516 -23.54727888 273.86523277 -23.54746723 272.51117516 C-23.54764778 271.19533954 -23.54782833 269.87950392 -23.54801435 268.5237945 C-23.55155675 247.19780937 -23.57858329 225.87194688 -23.61596512 204.54599348 C-23.65403416 182.65288957 -23.67341112 160.75983577 -23.67371327 138.86669803 C-23.67429812 126.57367349 -23.68280868 114.28076937 -23.71171093 101.9877758 C-23.7362059 91.52118798 -23.74352031 81.0547645 -23.7284634 70.58815578 C-23.72128706 65.24815229 -23.7221835 59.90847347 -23.744874 54.56850624 C-23.76545567 49.67797785 -23.76287099 44.7880239 -23.74199916 39.8975018 C-23.73850276 38.13035046 -23.74342063 36.36315774 -23.75770359 34.59606066 C-23.83862624 23.89260568 -23.26078147 15.33045686 -16.05943012 6.81976891 C-15.10036762 6.04633141 -15.10036762 6.04633141 -14.12193012 5.25726891 C-13.48255512 4.72101891 -12.84318012 4.18476891 -12.18443012 3.63226891 C-8.23365709 0.99842022 -4.7249853 0.00761024 0 0 Z " fill="#E2F3FE" transform="translate(46.12193012237549,-0.25726890563964844)"/>
<path d="M0 0 C1.01520637 -0.00644889 2.03041274 -0.01289778 3.07638294 -0.0195421 C4.7389137 -0.01489629 4.7389137 -0.01489629 6.43503094 -0.01015663 C7.61788872 -0.01468774 8.8007465 -0.01921886 10.01944846 -0.02388728 C13.29920534 -0.03435806 16.57882434 -0.03585701 19.85859263 -0.03349853 C23.39722077 -0.03309032 26.93581623 -0.04412989 30.47442913 -0.05361366 C37.40604395 -0.07022388 44.33762476 -0.07572322 51.26925782 -0.07683842 C56.90408677 -0.0777889 62.5389045 -0.08189921 68.1737299 -0.08823967 C84.15155278 -0.10585229 100.1293488 -0.11507853 116.10718147 -0.11357872 C116.96848138 -0.11349881 117.82978129 -0.1134189 118.71718121 -0.11333656 C119.5795335 -0.1132548 120.44188579 -0.11317304 121.33036997 -0.1130888 C135.30532409 -0.11227594 149.28017043 -0.13141361 163.25509337 -0.1596133 C177.60645547 -0.18834394 191.95776501 -0.20215349 206.3091566 -0.20042574 C214.3655634 -0.19976189 222.42185721 -0.20525191 230.47823811 -0.22678185 C237.33783034 -0.24499605 244.19725835 -0.24933909 251.0568643 -0.235763 C254.55564049 -0.22923441 258.05410167 -0.2291117 261.55284786 -0.2464695 C265.34890004 -0.26187543 269.1441239 -0.25264305 272.94015789 -0.23720741 C274.04181957 -0.24749454 275.14348124 -0.25778167 276.2785266 -0.26838052 C283.88652499 -0.19998049 289.16313816 1.06834522 295.08510113 6.15180016 C295.61490582 6.78472984 296.1447105 7.41765953 296.69056988 8.06976891 C297.23326519 8.69496422 297.7759605 9.32015953 298.33510113 9.96430016 C303.30811836 17.35458146 303.28269729 23.67906761 303.17103863 32.40961266 C303.16679379 33.66488258 303.16254894 34.92015251 303.15817547 36.21346092 C303.14427616 39.52956228 303.11738489 42.84502943 303.08406353 46.16095543 C303.05321908 49.55303061 303.03963963 52.94517164 303.02455425 56.33734703 C302.99154626 62.97749444 302.94139203 69.6173451 302.87806988 76.25726891 C303.47699236 76.25358173 304.07591484 76.24989456 304.69298649 76.24609566 C319.30053336 76.15756136 333.90806432 76.09147045 348.51581669 76.05002022 C355.58018823 76.02943971 362.6443801 76.00140622 369.70863628 75.95551109 C376.52971498 75.91121717 383.35060714 75.88811147 390.17182064 75.87775993 C392.77046039 75.87038562 395.36909028 75.85598539 397.96765041 75.83434868 C401.61558373 75.80519035 405.26275308 75.80131827 408.91078472 75.80316734 C409.97821911 75.78878624 411.0456535 75.77440514 412.14543438 75.75958824 C420.81262242 75.80693287 428.22114916 77.55901536 434.75306988 83.50726891 C441.08288712 90.46409635 442.9981692 97.64891411 443.01229095 106.91693878 C443.01464318 107.57618981 443.01699542 108.23544083 443.01941893 108.91466916 C443.0260844 111.12728454 443.02565145 113.33984087 443.0252409 115.55246544 C443.02854104 117.15348934 443.03226693 118.75451242 443.03638238 120.35553443 C443.04639322 124.75821441 443.05011769 129.16088075 443.05277169 133.5635705 C443.05667741 138.31084617 443.06625551 143.05811108 443.07498455 147.80537987 C443.09474051 159.27100246 443.10481369 170.73662592 443.11371234 182.20226127 C443.11809632 187.60221878 443.12346281 193.0021753 443.12870121 198.40213203 C443.14571198 216.35338513 443.16020637 234.30463761 443.16744995 252.25589752 C443.16935983 256.91358122 443.17128016 261.57126491 443.17323589 266.22894859 C443.17371963 267.38658482 443.17420337 268.54422104 443.17470177 269.73693715 C443.18300293 288.4918451 443.20834199 307.2466893 443.24081657 326.00156941 C443.27388827 345.25832342 443.29189878 364.51504502 443.29509419 383.77182758 C443.29725909 394.58320882 443.30600495 405.39449705 443.33155537 416.2058506 C443.35326377 425.41272088 443.36131203 434.61947556 443.35158858 443.82636853 C443.34704443 448.52242433 443.34893692 453.2182416 443.36835003 457.91426468 C443.38598601 462.21762689 443.3849805 466.52057663 443.36945274 470.82394324 C443.36707734 472.37647416 443.3713967 473.92903366 443.38328139 475.48152091 C443.46239541 486.50335985 442.69158291 497.39886396 434.68612719 505.77097952 C427.89747426 511.35150107 420.95844806 512.99578476 412.36574078 512.89218712 C410.85055174 512.90388705 410.85055174 512.90388705 409.30475283 512.91582334 C405.94534896 512.93564736 402.58709001 512.92001572 399.22767925 512.90424156 C396.80895613 512.9110219 394.39023818 512.91992736 391.97152996 512.93079185 C386.099295 512.95118255 380.2273536 512.94825601 374.35512698 512.93372865 C369.57996702 512.92240738 364.80489653 512.92091793 360.02972698 512.92634773 C359.34845488 512.9271139 358.66718279 512.92788006 357.96526608 512.92866945 C356.58099971 512.93026817 355.19673336 512.93188924 353.81246704 512.9335324 C340.85152992 512.94776846 327.89077001 512.93143098 314.92986196 512.90453057 C303.82413033 512.88219366 292.71866007 512.8860744 281.61293316 512.90912437 C268.69637552 512.93592043 255.77997295 512.94639536 242.8633914 512.93106306 C241.48439855 512.92947042 240.10540567 512.92789856 238.72641277 512.92634773 C238.04803454 512.92557635 237.3696563 512.92480498 236.67072114 512.92401022 C231.90481295 512.9197046 227.13900364 512.92695511 222.37311077 512.9387455 C215.95105699 512.95428482 209.52937959 512.94312097 203.10736942 512.91427422 C200.75401088 512.90767711 198.40061072 512.90953739 196.04726887 512.92058754 C192.82775762 512.93430815 189.60981127 512.91704666 186.39039898 512.89218712 C185.46528436 512.90334073 184.54016974 512.91449434 183.58702135 512.92598593 C175.93573828 512.81185912 169.46063956 510.49398529 163.72601843 505.31297171 C158.21386617 499.54533516 155.70001163 493.97272224 155.81166363 485.99945641 C155.82125103 485.10855309 155.83083843 484.21764977 155.84071636 483.29974937 C155.85304302 482.62573082 155.86536968 481.95171227 155.87806988 481.25726891 C155.07723004 481.26003428 154.27639021 481.26279966 153.4512825 481.26564884 C133.94541213 481.33196497 114.43956433 481.38157688 94.93360519 481.41270542 C85.50058278 481.42815991 76.06763572 481.4492223 66.63466167 481.48358727 C58.41078735 481.51353306 50.18696762 481.53285421 41.96304029 481.53953439 C37.61042486 481.54343788 33.25796556 481.55258198 28.90540028 481.57445908 C24.80389756 481.59490615 20.70261448 481.60108618 16.60106564 481.59659195 C15.10031787 481.59741349 13.59956234 481.60333007 12.09885883 481.61488533 C1.08547922 481.69548764 -8.67946757 481.04016407 -17.12193012 473.25726891 C-21.96047085 467.11101447 -23.42470746 461.35551795 -23.38199234 453.64403725 C-23.38579801 452.89384898 -23.38960368 452.14366071 -23.39352468 451.37073946 C-23.40383827 448.85475742 -23.39993473 446.33900108 -23.39608479 443.82300377 C-23.40053731 442.00178836 -23.4058514 440.1805749 -23.41195351 438.35936427 C-23.4261421 433.35271597 -23.42779664 428.34612972 -23.4273566 423.33946419 C-23.42900403 417.94054186 -23.44206913 412.54164515 -23.45354939 407.14273643 C-23.47640359 395.33701204 -23.48432034 383.53130561 -23.48937583 371.7255621 C-23.49263214 364.35468655 -23.49915419 356.98381624 -23.50637722 349.61294365 C-23.52594312 329.20652115 -23.54234758 308.80010352 -23.54525375 288.39367104 C-23.54544132 287.08771321 -23.54562889 285.78175538 -23.54582215 284.43622307 C-23.5461884 281.78871457 -23.5465521 279.14120606 -23.54691326 276.49369755 C-23.54709607 275.17946516 -23.54727888 273.86523277 -23.54746723 272.51117516 C-23.54764778 271.19533954 -23.54782833 269.87950392 -23.54801435 268.5237945 C-23.55155675 247.19780937 -23.57858329 225.87194688 -23.61596512 204.54599348 C-23.65403416 182.65288957 -23.67341112 160.75983577 -23.67371327 138.86669803 C-23.67429812 126.57367349 -23.68280868 114.28076937 -23.71171093 101.9877758 C-23.7362059 91.52118798 -23.74352031 81.0547645 -23.7284634 70.58815578 C-23.72128706 65.24815229 -23.7221835 59.90847347 -23.744874 54.56850624 C-23.76545567 49.67797785 -23.76287099 44.7880239 -23.74199916 39.8975018 C-23.73850276 38.13035046 -23.74342063 36.36315774 -23.75770359 34.59606066 C-23.83862624 23.89260568 -23.26078147 15.33045686 -16.05943012 6.81976891 C-15.10036762 6.04633141 -15.10036762 6.04633141 -14.12193012 5.25726891 C-13.48255512 4.72101891 -12.84318012 4.18476891 -12.18443012 3.63226891 C-8.23365709 0.99842022 -4.7249853 0.00761024 0 0 Z M-8.12193012 16.25726891 C-10.95210943 20.90126218 -11.4980302 24.38332096 -11.50224686 29.78517628 C-11.50690678 30.52613309 -11.51156669 31.26708991 -11.51636782 32.03049996 C-11.52832565 34.51515984 -11.51891954 36.9992737 -11.50961018 39.48393822 C-11.51378275 41.28254405 -11.51925984 43.08114724 -11.52592999 44.87974554 C-11.5404133 49.82381366 -11.53613085 54.76771549 -11.52876318 59.71179283 C-11.52404096 65.04317543 -11.53653294 70.37452157 -11.54678059 75.70589256 C-11.56399235 86.15098077 -11.56480369 96.59600888 -11.55956768 107.04110759 C-11.55552928 115.52918383 -11.55696562 124.01724229 -11.56231594 132.50531769 C-11.56306436 133.71254119 -11.56381278 134.91976469 -11.56458389 136.16357072 C-11.56611533 138.6158934 -11.56765368 141.06821608 -11.56919885 143.52053875 C-11.58293243 166.52706125 -11.57748012 189.53354977 -11.56601364 212.54007149 C-11.55607972 233.59647156 -11.5690232 254.65278377 -11.59294783 275.70917027 C-11.61731879 297.32089034 -11.62695168 318.93256946 -11.62029511 340.544303 C-11.61679851 352.68127056 -11.619064 364.81817053 -11.63654613 376.95512772 C-11.65124303 387.28674678 -11.65193644 397.61825067 -11.63447522 407.94986742 C-11.62594227 413.22261728 -11.62387164 418.49516116 -11.63912678 423.76790047 C-11.65291545 428.59344885 -11.64828593 433.41861364 -11.62888754 438.2441395 C-11.6251093 439.99104373 -11.62810172 441.73797827 -11.63849919 443.48485564 C-11.65162243 445.85820747 -11.64012874 448.23022624 -11.62250137 450.60352039 C-11.62239404 451.92207443 -11.6222867 453.24062846 -11.62217611 454.59913868 C-10.91325681 459.78322647 -8.95736167 463.53677432 -5.08084488 467.1705389 C-0.37293455 468.89962806 4.24530368 468.67247395 9.22070599 468.64494896 C10.38047359 468.6503345 11.54024119 468.65572003 12.73515326 468.66126877 C15.95042942 468.67310061 19.16537357 468.67147665 22.38065279 468.66410196 C25.84972092 468.65937429 29.31873331 468.67187656 32.78778362 468.68211937 C39.58238782 468.69932058 46.3768996 468.70014466 53.17151993 468.69490647 C58.69386113 468.69086602 64.216175 468.69230683 69.7385149 468.69765472 C70.52430771 468.69840315 71.31010051 468.69915157 72.11970522 468.69992267 C73.71601117 468.70145414 75.31231711 468.70299248 76.90862305 468.70453764 C91.88042372 468.71826744 106.85217215 468.7128216 121.82397164 468.70135242 C135.52222189 468.69141934 149.22033709 468.70436114 162.91856652 468.72828662 C176.98290219 468.75266653 191.04717493 468.76228823 205.11153132 468.75563389 C213.00801875 468.75213922 220.90440229 468.75439002 228.80087376 468.77188492 C235.52292546 468.78659307 242.24480013 468.78726062 248.96684831 468.76981401 C252.39651356 468.76129008 255.82586237 468.75918794 259.25551128 468.77446556 C262.97345856 468.78760129 266.69054059 468.77619234 270.40845013 468.75847435 C271.4925918 468.76807936 272.57673346 468.77768436 273.69372791 468.78758043 C279.53611719 468.73013509 283.43671631 468.47036789 287.87806988 464.25726891 C290.70804074 459.61312051 291.2541699 456.13128741 291.25838661 450.72936153 C291.26537649 449.61792631 291.26537649 449.61792631 291.27250758 448.48403785 C291.2844654 445.99937797 291.2750593 443.51526411 291.26574993 441.03059959 C291.2699225 439.23199377 291.2753996 437.43339057 291.28206974 435.63479227 C291.29655305 430.69072415 291.29227061 425.74682232 291.28490293 420.80274498 C291.28018072 415.47136238 291.2926727 410.14001624 291.30292034 404.80864525 C291.3201321 394.36355704 291.32094344 383.91852893 291.31570744 373.47343022 C291.31166903 364.98535398 291.31310538 356.49729552 291.3184557 348.00922012 C291.31920412 346.80199662 291.31995254 345.59477312 291.32072364 344.35096709 C291.32225509 341.89864441 291.32379344 339.44632173 291.32533861 336.99399906 C291.33907218 313.98747656 291.33361987 290.98098804 291.3221534 267.97446632 C291.31221947 246.91806626 291.32516295 225.86175405 291.34908759 204.80536754 C291.37345854 183.19364747 291.38309143 161.58196835 291.37643486 139.97023481 C291.37293827 127.83326725 291.37520375 115.69636728 291.39268589 103.5594101 C291.40738278 93.22779103 291.40807619 82.89628714 291.39061498 72.56467039 C291.38208202 67.29192053 291.3800114 62.01937665 291.39526653 56.74663734 C291.4090552 51.92108897 291.40442568 47.09592417 291.3850273 42.27039831 C291.38124905 40.52349408 291.38424147 38.77655954 291.39463895 37.02968217 C291.40776218 34.65633034 291.3962685 32.28431157 291.37864113 29.91101742 C291.37853379 28.59246338 291.37842646 27.27390935 291.37831587 25.91539913 C290.75612592 21.3655339 289.44285615 19.04465032 286.87806988 15.25726891 C281.62187111 11.29167068 275.76032373 11.83447627 269.45314312 11.86958885 C268.29660465 11.86420331 267.14006618 11.85881778 265.94848108 11.85326904 C262.74686506 11.8414508 259.5455833 11.84305469 256.34396434 11.85043585 C252.8878655 11.85516857 249.43182234 11.84265685 245.97574139 11.83241844 C239.20867975 11.81522775 232.44171095 11.81439089 225.67463315 11.81963135 C220.17472239 11.82367338 214.67483906 11.8222291 209.17492962 11.81688309 C208.39204766 11.81613467 207.60916571 11.81538624 206.80256006 11.81461514 C205.21213265 11.81308366 203.62170524 11.81154532 202.03127784 11.81000017 C187.11908429 11.79627444 172.20694322 11.80171359 157.29475087 11.81318539 C143.65152947 11.82312035 130.00844363 11.81017271 116.36524314 11.78625119 C102.35511635 11.76187141 88.34505273 11.7522494 74.33490515 11.75890392 C66.46973159 11.76239832 58.60466234 11.76014943 50.73950481 11.74265289 C44.04492545 11.72794501 37.35052386 11.72727696 30.65594804 11.7447238 C27.24045224 11.75324752 23.8252742 11.75535034 20.40979481 11.74007225 C16.70722653 11.7269362 13.00552703 11.7383457 9.30299664 11.75606346 C7.68364373 11.74165595 7.68364373 11.74165595 6.03157663 11.72695738 C0.1985119 11.7845476 -3.68602475 12.05409022 -8.12193012 16.25726891 Z " fill="#D1EDF8" transform="translate(46.12193012237549,-0.25726890563964844)"/>
<path d="M0 0 C1.01520637 -0.00644889 2.03041274 -0.01289778 3.07638294 -0.0195421 C4.7389137 -0.01489629 4.7389137 -0.01489629 6.43503094 -0.01015663 C7.61788872 -0.01468774 8.8007465 -0.01921886 10.01944846 -0.02388728 C13.29920534 -0.03435806 16.57882434 -0.03585701 19.85859263 -0.03349853 C23.39722077 -0.03309032 26.93581623 -0.04412989 30.47442913 -0.05361366 C37.40604395 -0.07022388 44.33762476 -0.07572322 51.26925782 -0.07683842 C56.90408677 -0.0777889 62.5389045 -0.08189921 68.1737299 -0.08823967 C84.15155278 -0.10585229 100.1293488 -0.11507853 116.10718147 -0.11357872 C116.96848138 -0.11349881 117.82978129 -0.1134189 118.71718121 -0.11333656 C119.5795335 -0.1132548 120.44188579 -0.11317304 121.33036997 -0.1130888 C135.30532409 -0.11227594 149.28017043 -0.13141361 163.25509337 -0.1596133 C177.60645547 -0.18834394 191.95776501 -0.20215349 206.3091566 -0.20042574 C214.3655634 -0.19976189 222.42185721 -0.20525191 230.47823811 -0.22678185 C237.33783034 -0.24499605 244.19725835 -0.24933909 251.0568643 -0.235763 C254.55564049 -0.22923441 258.05410167 -0.2291117 261.55284786 -0.2464695 C265.34890004 -0.26187543 269.1441239 -0.25264305 272.94015789 -0.23720741 C274.04181957 -0.24749454 275.14348124 -0.25778167 276.2785266 -0.26838052 C283.88652499 -0.19998049 289.16313816 1.06834522 295.08510113 6.15180016 C295.61490582 6.78472984 296.1447105 7.41765953 296.69056988 8.06976891 C297.23326519 8.69496422 297.7759605 9.32015953 298.33510113 9.96430016 C303.30811836 17.35458146 303.28269729 23.67906761 303.17103863 32.40961266 C303.16679379 33.66488258 303.16254894 34.92015251 303.15817547 36.21346092 C303.14427616 39.52956228 303.11738489 42.84502943 303.08406353 46.16095543 C303.05321908 49.55303061 303.03963963 52.94517164 303.02455425 56.33734703 C302.99154626 62.97749444 302.94139203 69.6173451 302.87806988 76.25726891 C303.47699236 76.25358173 304.07591484 76.24989456 304.69298649 76.24609566 C319.30053336 76.15756136 333.90806432 76.09147045 348.51581669 76.05002022 C355.58018823 76.02943971 362.6443801 76.00140622 369.70863628 75.95551109 C376.52971498 75.91121717 383.35060714 75.88811147 390.17182064 75.87775993 C392.77046039 75.87038562 395.36909028 75.85598539 397.96765041 75.83434868 C401.61558373 75.80519035 405.26275308 75.80131827 408.91078472 75.80316734 C409.97821911 75.78878624 411.0456535 75.77440514 412.14543438 75.75958824 C420.81262242 75.80693287 428.22114916 77.55901536 434.75306988 83.50726891 C441.08288712 90.46409635 442.9981692 97.64891411 443.01229095 106.91693878 C443.01464318 107.57618981 443.01699542 108.23544083 443.01941893 108.91466916 C443.0260844 111.12728454 443.02565145 113.33984087 443.0252409 115.55246544 C443.02854104 117.15348934 443.03226693 118.75451242 443.03638238 120.35553443 C443.04639322 124.75821441 443.05011769 129.16088075 443.05277169 133.5635705 C443.05667741 138.31084617 443.06625551 143.05811108 443.07498455 147.80537987 C443.09474051 159.27100246 443.10481369 170.73662592 443.11371234 182.20226127 C443.11809632 187.60221878 443.12346281 193.0021753 443.12870121 198.40213203 C443.14571198 216.35338513 443.16020637 234.30463761 443.16744995 252.25589752 C443.16935983 256.91358122 443.17128016 261.57126491 443.17323589 266.22894859 C443.17371963 267.38658482 443.17420337 268.54422104 443.17470177 269.73693715 C443.18300293 288.4918451 443.20834199 307.2466893 443.24081657 326.00156941 C443.27388827 345.25832342 443.29189878 364.51504502 443.29509419 383.77182758 C443.29725909 394.58320882 443.30600495 405.39449705 443.33155537 416.2058506 C443.35326377 425.41272088 443.36131203 434.61947556 443.35158858 443.82636853 C443.34704443 448.52242433 443.34893692 453.2182416 443.36835003 457.91426468 C443.38598601 462.21762689 443.3849805 466.52057663 443.36945274 470.82394324 C443.36707734 472.37647416 443.3713967 473.92903366 443.38328139 475.48152091 C443.46239541 486.50335985 442.69158291 497.39886396 434.68612719 505.77097952 C427.89747426 511.35150107 420.95844806 512.99578476 412.36574078 512.89218712 C410.85055174 512.90388705 410.85055174 512.90388705 409.30475283 512.91582334 C405.94534896 512.93564736 402.58709001 512.92001572 399.22767925 512.90424156 C396.80895613 512.9110219 394.39023818 512.91992736 391.97152996 512.93079185 C386.099295 512.95118255 380.2273536 512.94825601 374.35512698 512.93372865 C369.57996702 512.92240738 364.80489653 512.92091793 360.02972698 512.92634773 C359.34845488 512.9271139 358.66718279 512.92788006 357.96526608 512.92866945 C356.58099971 512.93026817 355.19673336 512.93188924 353.81246704 512.9335324 C340.85152992 512.94776846 327.89077001 512.93143098 314.92986196 512.90453057 C303.82413033 512.88219366 292.71866007 512.8860744 281.61293316 512.90912437 C268.69637552 512.93592043 255.77997295 512.94639536 242.8633914 512.93106306 C241.48439855 512.92947042 240.10540567 512.92789856 238.72641277 512.92634773 C238.04803454 512.92557635 237.3696563 512.92480498 236.67072114 512.92401022 C231.90481295 512.9197046 227.13900364 512.92695511 222.37311077 512.9387455 C215.95105699 512.95428482 209.52937959 512.94312097 203.10736942 512.91427422 C200.75401088 512.90767711 198.40061072 512.90953739 196.04726887 512.92058754 C192.82775762 512.93430815 189.60981127 512.91704666 186.39039898 512.89218712 C185.46528436 512.90334073 184.54016974 512.91449434 183.58702135 512.92598593 C175.93573828 512.81185912 169.46063956 510.49398529 163.72601843 505.31297171 C158.21386617 499.54533516 155.70001163 493.97272224 155.81166363 485.99945641 C155.82125103 485.10855309 155.83083843 484.21764977 155.84071636 483.29974937 C155.85304302 482.62573082 155.86536968 481.95171227 155.87806988 481.25726891 C155.07723004 481.26003428 154.27639021 481.26279966 153.4512825 481.26564884 C133.94541213 481.33196497 114.43956433 481.38157688 94.93360519 481.41270542 C85.50058278 481.42815991 76.06763572 481.4492223 66.63466167 481.48358727 C58.41078735 481.51353306 50.18696762 481.53285421 41.96304029 481.53953439 C37.61042486 481.54343788 33.25796556 481.55258198 28.90540028 481.57445908 C24.80389756 481.59490615 20.70261448 481.60108618 16.60106564 481.59659195 C15.10031787 481.59741349 13.59956234 481.60333007 12.09885883 481.61488533 C1.08547922 481.69548764 -8.67946757 481.04016407 -17.12193012 473.25726891 C-21.96047085 467.11101447 -23.42470746 461.35551795 -23.38199234 453.64403725 C-23.38579801 452.89384898 -23.38960368 452.14366071 -23.39352468 451.37073946 C-23.40383827 448.85475742 -23.39993473 446.33900108 -23.39608479 443.82300377 C-23.40053731 442.00178836 -23.4058514 440.1805749 -23.41195351 438.35936427 C-23.4261421 433.35271597 -23.42779664 428.34612972 -23.4273566 423.33946419 C-23.42900403 417.94054186 -23.44206913 412.54164515 -23.45354939 407.14273643 C-23.47640359 395.33701204 -23.48432034 383.53130561 -23.48937583 371.7255621 C-23.49263214 364.35468655 -23.49915419 356.98381624 -23.50637722 349.61294365 C-23.52594312 329.20652115 -23.54234758 308.80010352 -23.54525375 288.39367104 C-23.54544132 287.08771321 -23.54562889 285.78175538 -23.54582215 284.43622307 C-23.5461884 281.78871457 -23.5465521 279.14120606 -23.54691326 276.49369755 C-23.54709607 275.17946516 -23.54727888 273.86523277 -23.54746723 272.51117516 C-23.54764778 271.19533954 -23.54782833 269.87950392 -23.54801435 268.5237945 C-23.55155675 247.19780937 -23.57858329 225.87194688 -23.61596512 204.54599348 C-23.65403416 182.65288957 -23.67341112 160.75983577 -23.67371327 138.86669803 C-23.67429812 126.57367349 -23.68280868 114.28076937 -23.71171093 101.9877758 C-23.7362059 91.52118798 -23.74352031 81.0547645 -23.7284634 70.58815578 C-23.72128706 65.24815229 -23.7221835 59.90847347 -23.744874 54.56850624 C-23.76545567 49.67797785 -23.76287099 44.7880239 -23.74199916 39.8975018 C-23.73850276 38.13035046 -23.74342063 36.36315774 -23.75770359 34.59606066 C-23.83862624 23.89260568 -23.26078147 15.33045686 -16.05943012 6.81976891 C-15.10036762 6.04633141 -15.10036762 6.04633141 -14.12193012 5.25726891 C-13.48255512 4.72101891 -12.84318012 4.18476891 -12.18443012 3.63226891 C-8.23365709 0.99842022 -4.7249853 0.00761024 0 0 Z M-8.12193012 16.25726891 C-10.95210943 20.90126218 -11.4980302 24.38332096 -11.50224686 29.78517628 C-11.50690678 30.52613309 -11.51156669 31.26708991 -11.51636782 32.03049996 C-11.52832565 34.51515984 -11.51891954 36.9992737 -11.50961018 39.48393822 C-11.51378275 41.28254405 -11.51925984 43.08114724 -11.52592999 44.87974554 C-11.5404133 49.82381366 -11.53613085 54.76771549 -11.52876318 59.71179283 C-11.52404096 65.04317543 -11.53653294 70.37452157 -11.54678059 75.70589256 C-11.56399235 86.15098077 -11.56480369 96.59600888 -11.55956768 107.04110759 C-11.55552928 115.52918383 -11.55696562 124.01724229 -11.56231594 132.50531769 C-11.56306436 133.71254119 -11.56381278 134.91976469 -11.56458389 136.16357072 C-11.56611533 138.6158934 -11.56765368 141.06821608 -11.56919885 143.52053875 C-11.58293243 166.52706125 -11.57748012 189.53354977 -11.56601364 212.54007149 C-11.55607972 233.59647156 -11.5690232 254.65278377 -11.59294783 275.70917027 C-11.61731879 297.32089034 -11.62695168 318.93256946 -11.62029511 340.544303 C-11.61679851 352.68127056 -11.619064 364.81817053 -11.63654613 376.95512772 C-11.65124303 387.28674678 -11.65193644 397.61825067 -11.63447522 407.94986742 C-11.62594227 413.22261728 -11.62387164 418.49516116 -11.63912678 423.76790047 C-11.65291545 428.59344885 -11.64828593 433.41861364 -11.62888754 438.2441395 C-11.6251093 439.99104373 -11.62810172 441.73797827 -11.63849919 443.48485564 C-11.65162243 445.85820747 -11.64012874 448.23022624 -11.62250137 450.60352039 C-11.62239404 451.92207443 -11.6222867 453.24062846 -11.62217611 454.59913868 C-10.91325681 459.78322647 -8.95736167 463.53677432 -5.08084488 467.1705389 C-0.37293455 468.89962806 4.24530368 468.67247395 9.22070599 468.64494896 C10.38047359 468.6503345 11.54024119 468.65572003 12.73515326 468.66126877 C15.95042942 468.67310061 19.16537357 468.67147665 22.38065279 468.66410196 C25.84972092 468.65937429 29.31873331 468.67187656 32.78778362 468.68211937 C39.58238782 468.69932058 46.3768996 468.70014466 53.17151993 468.69490647 C58.69386113 468.69086602 64.216175 468.69230683 69.7385149 468.69765472 C70.52430771 468.69840315 71.31010051 468.69915157 72.11970522 468.69992267 C73.71601117 468.70145414 75.31231711 468.70299248 76.90862305 468.70453764 C91.88042372 468.71826744 106.85217215 468.7128216 121.82397164 468.70135242 C135.52222189 468.69141934 149.22033709 468.70436114 162.91856652 468.72828662 C176.98290219 468.75266653 191.04717493 468.76228823 205.11153132 468.75563389 C213.00801875 468.75213922 220.90440229 468.75439002 228.80087376 468.77188492 C235.52292546 468.78659307 242.24480013 468.78726062 248.96684831 468.76981401 C252.39651356 468.76129008 255.82586237 468.75918794 259.25551128 468.77446556 C262.97345856 468.78760129 266.69054059 468.77619234 270.40845013 468.75847435 C271.4925918 468.76807936 272.57673346 468.77768436 273.69372791 468.78758043 C279.53611719 468.73013509 283.43671631 468.47036789 287.87806988 464.25726891 C290.70804074 459.61312051 291.2541699 456.13128741 291.25838661 450.72936153 C291.26537649 449.61792631 291.26537649 449.61792631 291.27250758 448.48403785 C291.2844654 445.99937797 291.2750593 443.51526411 291.26574993 441.03059959 C291.2699225 439.23199377 291.2753996 437.43339057 291.28206974 435.63479227 C291.29655305 430.69072415 291.29227061 425.74682232 291.28490293 420.80274498 C291.28018072 415.47136238 291.2926727 410.14001624 291.30292034 404.80864525 C291.3201321 394.36355704 291.32094344 383.91852893 291.31570744 373.47343022 C291.31166903 364.98535398 291.31310538 356.49729552 291.3184557 348.00922012 C291.31920412 346.80199662 291.31995254 345.59477312 291.32072364 344.35096709 C291.32225509 341.89864441 291.32379344 339.44632173 291.32533861 336.99399906 C291.33907218 313.98747656 291.33361987 290.98098804 291.3221534 267.97446632 C291.31221947 246.91806626 291.32516295 225.86175405 291.34908759 204.80536754 C291.37345854 183.19364747 291.38309143 161.58196835 291.37643486 139.97023481 C291.37293827 127.83326725 291.37520375 115.69636728 291.39268589 103.5594101 C291.40738278 93.22779103 291.40807619 82.89628714 291.39061498 72.56467039 C291.38208202 67.29192053 291.3800114 62.01937665 291.39526653 56.74663734 C291.4090552 51.92108897 291.40442568 47.09592417 291.3850273 42.27039831 C291.38124905 40.52349408 291.38424147 38.77655954 291.39463895 37.02968217 C291.40776218 34.65633034 291.3962685 32.28431157 291.37864113 29.91101742 C291.37853379 28.59246338 291.37842646 27.27390935 291.37831587 25.91539913 C290.75612592 21.3655339 289.44285615 19.04465032 286.87806988 15.25726891 C281.62187111 11.29167068 275.76032373 11.83447627 269.45314312 11.86958885 C268.29660465 11.86420331 267.14006618 11.85881778 265.94848108 11.85326904 C262.74686506 11.8414508 259.5455833 11.84305469 256.34396434 11.85043585 C252.8878655 11.85516857 249.43182234 11.84265685 245.97574139 11.83241844 C239.20867975 11.81522775 232.44171095 11.81439089 225.67463315 11.81963135 C220.17472239 11.82367338 214.67483906 11.8222291 209.17492962 11.81688309 C208.39204766 11.81613467 207.60916571 11.81538624 206.80256006 11.81461514 C205.21213265 11.81308366 203.62170524 11.81154532 202.03127784 11.81000017 C187.11908429 11.79627444 172.20694322 11.80171359 157.29475087 11.81318539 C143.65152947 11.82312035 130.00844363 11.81017271 116.36524314 11.78625119 C102.35511635 11.76187141 88.34505273 11.7522494 74.33490515 11.75890392 C66.46973159 11.76239832 58.60466234 11.76014943 50.73950481 11.74265289 C44.04492545 11.72794501 37.35052386 11.72727696 30.65594804 11.7447238 C27.24045224 11.75324752 23.8252742 11.75535034 20.40979481 11.74007225 C16.70722653 11.7269362 13.00552703 11.7383457 9.30299664 11.75606346 C7.68364373 11.74165595 7.68364373 11.74165595 6.03157663 11.72695738 C0.1985119 11.7845476 -3.68602475 12.05409022 -8.12193012 16.25726891 Z M301.87806988 88.25726891 C301.87717425 89.43977124 301.87717425 89.43977124 301.87626052 90.64616251 C301.84037424 137.35912161 301.78374707 184.07201603 301.70014893 230.78491536 C301.69013135 236.39256159 301.68028724 242.00020812 301.67055035 247.60785484 C301.66763829 249.282442 301.66763829 249.282442 301.6646674 250.99085921 C301.633638 269.07232621 301.61666412 287.15378052 301.60487565 305.23526913 C301.59246897 323.78562758 301.56497846 342.33591935 301.52345681 360.88623571 C301.49830763 372.33472868 301.48495364 383.78311107 301.4866403 395.23163205 C301.48667004 403.08006018 301.47206123 410.92837559 301.4459056 418.7767598 C301.43124373 423.30631735 301.42307034 427.83564375 301.43226719 432.36522102 C301.44054685 436.51323207 301.43041944 440.66077844 301.40573326 444.80872053 C301.4000439 446.30816974 301.401074 447.80766292 301.40955743 449.30709893 C301.45744829 458.56608845 301.2218254 465.30037891 294.91322613 472.49945641 C293.93676128 473.30769859 293.93676128 473.30769859 292.94056988 474.13226891 C292.29217144 474.68656578 291.643773 475.24086266 290.97572613 475.81195641 C287.08703958 478.49131212 283.56888693 479.50521592 278.8729887 479.53574181 C277.39861591 479.55248703 277.39861591 479.55248703 275.89445782 479.56957054 C274.82774853 479.57173073 273.76103924 479.57389091 272.66200542 479.57611656 C271.52986111 479.58616219 270.39771679 479.59620781 269.23126507 479.60655785 C265.49244471 479.63742672 261.75369609 479.65443556 258.01478863 479.67133141 C255.42117983 479.69004004 252.82757715 479.70961322 250.23398113 479.73001671 C244.10721138 479.77612766 237.98044532 479.81352436 231.85359365 479.84668958 C224.87652799 479.88494411 217.89955511 479.9343455 210.92256773 479.98467374 C196.57447178 480.08792394 182.22631301 480.17720676 167.87806988 480.25726891 C167.75921379 485.79067987 168.15205368 489.35043975 170.87806988 494.25726891 C174.55391741 498.06054582 177.50217607 500.21180557 182.85557461 500.38869667 C184.63354428 500.39686296 186.41154463 500.39937827 188.18953228 500.3977108 C189.65582431 500.40216748 189.65582431 500.40216748 191.15173841 500.4067142 C194.4482194 500.41543002 197.74466419 500.41691188 201.04115582 500.41840172 C203.39621846 500.42302788 205.75128035 500.42805226 208.10634136 500.43344688 C215.18902451 500.44796504 222.27169989 500.45395804 229.35439527 500.4588424 C232.6888893 500.46141878 236.023382 500.46520916 239.35787487 500.46896172 C250.4411825 500.48115648 261.52448819 500.49145487 272.60780239 500.49483681 C273.31744948 500.49505637 274.02709656 500.49527594 274.75824811 500.49550216 C275.46960667 500.49572044 276.18096523 500.49593871 276.91388011 500.49616361 C278.35539389 500.49660707 279.79690766 500.49705364 281.23842144 500.49750328 C281.95346412 500.49772471 282.6685068 500.49794614 283.40521744 500.49817428 C294.98908139 500.50212149 306.5728824 500.51957223 318.15672204 500.5428628 C330.04680732 500.56657629 341.93686103 500.57903868 353.82697034 500.58020473 C360.50394374 500.58112157 367.18084635 500.5871943 373.85779858 500.60502434 C380.13846773 500.62146913 386.41898115 500.62367793 392.69966412 500.61488533 C395.00633186 500.61411301 397.31300786 500.61848317 399.61965466 500.62834358 C402.76618089 500.64100649 405.91215089 500.63521677 409.0586729 500.62476158 C409.97365921 500.63281799 410.88864551 500.64087439 411.83135867 500.64917493 C416.93242947 500.60947473 420.46835768 500.10991379 424.87806988 497.25726891 C429.08883405 492.59128699 430.0029147 490.12746227 430.01229095 483.90592384 C430.01464318 483.24357125 430.01699542 482.58121866 430.01941893 481.89879477 C430.02612766 479.65761324 430.02565014 477.41648944 430.0252409 475.17529869 C430.02853836 473.56092609 430.03226367 471.94655431 430.03638238 470.3321836 C430.0464239 465.8788678 430.05012262 461.42556549 430.05277169 456.97223997 C430.05666837 452.17592703 430.06624712 447.37962482 430.07498455 442.58331871 C430.09476684 430.99188577 430.10481733 419.40045194 430.11371234 407.80900633 C430.11809229 402.35460326 430.12345985 396.90020117 430.12870121 391.44579887 C430.14571513 373.3213744 430.16021029 355.19695054 430.16744995 337.0725193 C430.16935994 332.36684989 430.17128026 327.66118049 430.17323589 322.95551109 C430.17371963 321.78589497 430.17420337 320.61627884 430.17470177 319.41121981 C430.1830057 300.45551459 430.20834801 281.49987241 430.24081657 262.54419473 C430.27385701 243.09658775 430.29189597 223.64901283 430.29509419 204.20137763 C430.29726207 193.27665217 430.30605127 182.35201864 430.33155537 171.42732048 C430.3532212 162.12508057 430.36133312 152.8229549 430.35158858 143.52069262 C430.34703193 138.77262133 430.34900912 134.02478595 430.36835003 129.27674675 C430.38589734 124.9315844 430.385053 120.58683152 430.36945274 116.24166533 C430.36706378 114.66827255 430.37146653 113.09485204 430.38328139 111.52150181 C430.39833718 109.38449425 430.38877388 107.24894946 430.3730545 105.11197853 C430.37451972 103.3308178 430.37451972 103.3308178 430.37601453 101.51367402 C429.76916286 97.54505048 428.35237979 95.38301037 425.87806988 92.25726891 C421.37546955 88.99288367 417.51198846 88.131031 412.03120708 88.13701439 C411.05808071 88.13563972 410.08495434 88.13426506 409.08233929 88.13284874 C407.49090855 88.13824165 407.49090855 88.13824165 405.86732769 88.14374352 C404.18396061 88.14352448 404.18396061 88.14352448 402.46658611 88.14330101 C398.75476942 88.14399804 395.04300281 88.15178069 391.33119488 88.15961266 C388.75858367 88.16147758 386.1859721 88.16290113 383.6133604 88.16390038 C377.53256253 88.16732925 371.45178536 88.17521191 365.37099528 88.18524987 C358.44721572 88.19643106 351.5234353 88.20192651 344.59964895 88.2069453 C330.35911293 88.21739505 316.11859204 88.23498199 301.87806988 88.25726891 Z " fill="#010101" transform="translate(46.12193012237549,-0.25726890563964844)"/>
<path d="M0 0 C4.23339533 1.02230399 6.59157413 3.49304644 9.5402832 6.52011108 C10.47553078 7.44440666 10.47553078 7.44440666 11.42967224 8.38737488 C13.48512083 10.42662164 15.51807533 12.48677713 17.55078125 14.54867554 C18.9736838 15.97261542 20.3976237 17.39551941 21.82255554 18.81742859 C24.80507793 21.80013039 27.77699466 24.79289702 30.74145508 27.79354858 C34.54224238 31.63971052 38.36477806 35.46333383 42.19505024 39.28010845 C45.13748869 42.21586443 48.06986158 45.16150576 50.99910545 48.11042213 C52.40506141 49.52407736 53.81372546 50.93504453 55.22512245 52.34326744 C57.19570914 54.31311252 59.15279442 56.29544537 61.10668945 58.28182983 C61.69211517 58.86230072 62.27754089 59.44277161 62.88070679 60.04083252 C65.85125072 63.09061349 67.94115216 65.3422466 68 69.72445679 C66.375 72.03695679 66.375 72.03695679 64 73.72445679 C61.67765808 74.12153625 61.67765808 74.12153625 59 73.72445679 C56.47602844 71.79502869 56.47602844 71.79502869 53.7824707 69.0586853 C53.28752106 68.5628595 52.79257141 68.06703369 52.28262329 67.55618286 C50.65167537 65.91666308 49.03904245 64.26027348 47.42578125 62.60336304 C46.2954548 61.4611683 45.16394217 60.3201463 44.03129578 59.18025208 C41.05370885 56.17791687 38.09100535 53.16131984 35.1315918 50.14108276 C30.95412163 45.88315803 26.75669638 41.64488842 22.56156921 37.40437317 C20.32724807 35.14577019 18.09854776 32.88183572 15.87409973 30.61351013 C14.85919822 29.58219812 13.84428107 28.5509015 12.8293457 27.5196228 C11.94285843 26.61583389 11.05637115 25.71204498 10.14302063 24.78086853 C8.17385233 22.68779999 8.17385233 22.68779999 6 21.72445679 C6.00276538 22.83489758 6.00553076 23.94533838 6.00837994 25.0894289 C6.07490733 52.07884419 6.12424336 79.06824887 6.15543652 106.05772877 C6.1709213 119.1095095 6.19204157 132.16123615 6.22631836 145.21298218 C6.25617142 156.58567947 6.27556327 167.9583376 6.28226548 179.33107299 C6.28618469 185.35574704 6.29542875 191.38030905 6.31719017 197.40494728 C6.33749066 203.07081408 6.34384686 208.73652224 6.33932304 214.40242195 C6.34015114 216.48620718 6.34615492 218.5699975 6.35761642 220.65375137 C6.37245981 223.49053105 6.36898353 226.32670533 6.36076355 229.16349792 C6.36950207 229.99520423 6.3782406 230.82691054 6.38724393 231.68382007 C6.34328846 237.26467145 6.34328846 237.26467145 4.69958478 239.46617526 C3 240.72445679 3 240.72445679 -0.5625 240.59945679 C-4 239.72445679 -4 239.72445679 -6 236.72445679 C-6.20169225 233.86432966 -6.28519132 231.10052658 -6.2784729 228.23942566 C-6.2842653 227.36298218 -6.2900577 226.4865387 -6.29602563 225.58353633 C-6.31308296 222.63543715 -6.31590706 219.68749397 -6.31884766 216.73934937 C-6.32814188 214.63055535 -6.33830978 212.52176504 -6.34928894 210.41297913 C-6.37666006 204.67781035 -6.3917594 198.94266622 -6.40471697 193.2074492 C-6.42031645 187.21762138 -6.44711676 181.22784415 -6.4727478 175.23805237 C-6.51959207 163.89089533 -6.55630882 152.54372883 -6.58942068 141.19652432 C-6.6276022 128.28010336 -6.67702272 115.36373315 -6.72740483 102.44735491 C-6.83080868 75.87309311 -6.92004155 49.29879874 -7 22.72445679 C-7.62782883 23.36116806 -8.25565765 23.99787933 -8.9025116 24.65388489 C-14.82152042 30.65304804 -20.75011199 36.64253788 -26.68966198 42.62136745 C-29.74289885 45.69547726 -32.79230436 48.77319567 -35.83325195 51.85946655 C-38.76818113 54.83786302 -41.71277972 57.80637583 -44.66433144 60.7682972 C-45.78856435 61.89991982 -46.90927112 63.03505689 -48.02635765 64.17373466 C-49.59195246 65.76837441 -51.16963219 67.35004441 -52.75073242 68.92929077 C-53.64563889 69.83307968 -54.54054535 70.73686859 -55.46257019 71.66804504 C-58.13301794 73.83225865 -59.58049869 74.62631933 -63 74.72445679 C-65.875 72.59945679 -65.875 72.59945679 -68 69.72445679 C-68.00220121 65.34473117 -65.84240979 63.08153673 -62.88070679 60.04083252 C-62.29528107 59.46036163 -61.70985535 58.87989075 -61.10668945 58.28182983 C-60.49195267 57.65687119 -59.87721588 57.03191254 -59.24385071 56.38801575 C-57.21057457 54.32695846 -55.16279402 52.28107918 -53.11328125 50.23617554 C-51.69374557 48.80886622 -50.27465887 47.38111024 -48.85600281 45.95292664 C-45.88092201 42.9629244 -42.8982099 39.98079023 -39.91040039 37.00350952 C-36.0810542 33.18576156 -32.27493712 29.3457519 -28.47466755 25.49908733 C-25.55030172 22.54527249 -22.61221469 19.60541266 -19.66997337 16.66941261 C-18.26066694 15.25907876 -16.85608749 13.84400501 -15.45635414 12.42416954 C-13.49833664 10.44150193 -11.52221484 8.47883378 -9.5402832 6.52011108 C-8.96497864 5.92951904 -8.38967407 5.338927 -7.79693604 4.73043823 C-5.29396364 2.29185737 -3.4238764 0.82681683 0 0 Z " fill="#040505" transform="translate(186,119.27554321289063)"/>
</svg>
