<?xml version="1.0" encoding="UTF-8"?>
<svg version="1.1" xmlns="http://www.w3.org/2000/svg" width="512" height="512">
<path d="M0 0 C0.76441406 0.40089844 1.52882813 0.80179687 2.31640625 1.21484375 C11.64226811 6.65887479 17.3960033 15.65595356 20.37890625 25.890625 C22.91048437 38.56443748 20.20567029 48.95391585 13.59765625 59.7734375 C11.9233298 62.10685089 10.0833878 64.02910614 8 66 C9.47533203 66.36738281 9.47533203 66.36738281 10.98046875 66.7421875 C33.7581673 72.74364738 53.02123922 83.75332509 70 100 C70.80824219 100.73347656 71.61648438 101.46695313 72.44921875 102.22265625 C90.13712506 118.85539704 100.95895994 141.94209958 106.21484375 165.35693359 C106.42742828 166.29918982 106.64001282 167.24144604 106.85903931 168.21225548 C109.73243998 181.10222561 112.31787106 194.05338974 114.93170166 206.99788284 C115.89512323 211.76735795 116.86467472 216.53557512 117.83544922 221.30355835 C118.00081491 222.1159071 118.16618061 222.92825586 118.33655739 223.76522124 C118.67401287 225.42294612 119.01147694 227.08066926 119.34894943 228.73839068 C121.60029097 239.7991534 123.8471701 250.8607931 126.08007812 261.92529297 C127.59821129 269.44769643 129.12511612 276.96826208 130.66192055 284.48687398 C131.47058981 288.44498614 132.27488477 292.40386944 133.06829834 296.36507034 C133.81292032 300.08244108 134.56913211 303.7972717 135.33388519 307.51055145 C135.74068871 309.5007003 136.13541358 311.49330656 136.52960205 313.48599243 C138.66318559 323.75447053 141.66090346 333.6591745 148.125 342.0625 C148.78757812 342.94035156 149.45015625 343.81820313 150.1328125 344.72265625 C151.90306733 346.97117577 151.90306733 346.97117577 153.7421875 348.68359375 C155 350 155 350 155 352 C155.59039062 352.27714844 156.18078125 352.55429687 156.7890625 352.83984375 C158.87195286 353.93280919 160.53796376 355.1036771 162.375 356.5625 C165.48973838 358.96247566 168.70058297 361.07615933 172.0546875 363.12768555 C187.58475755 372.7027569 198.62433815 385.97820627 203 404 C204.35985147 410.12377558 204.39452145 414.53696085 201.59375 420.2109375 C198.36850916 423.83142844 194.99054313 425.74083899 190.21975899 426.36197662 C186.77519124 426.49220385 183.35138886 426.49447311 179.90454102 426.45410156 C177.94254005 426.45497772 177.94254005 426.45497772 175.94090271 426.45587158 C172.37096054 426.45701491 168.80156067 426.43356835 165.23174405 426.40557575 C161.49485127 426.38049791 157.75794478 426.37821509 154.02098083 426.37347412 C146.95206754 426.361063 139.88340296 426.3282669 132.81459898 426.28807616 C124.76383905 426.24330018 116.71306698 426.22135681 108.66221344 426.20129442 C92.10799692 426.15953239 75.55403025 426.08921694 59 426 C59.00435059 426.68448715 59.00870117 427.3689743 59.01318359 428.07420349 C59.01656738 428.97324905 59.01995117 429.87229462 59.0234375 430.79858398 C59.02778809 431.68932114 59.03213867 432.58005829 59.03662109 433.49778748 C58.81246203 448.81392255 50.25637411 465.02188104 40 476 C39.26265625 476.82757813 38.5253125 477.65515625 37.765625 478.5078125 C24.6839517 492.48724769 6.74690273 501.56208514 -12.56640625 502.3359375 C-35.01167009 502.67635547 -53.93614492 498.51770676 -71 483 C-71.85464844 482.2265625 -72.70929688 481.453125 -73.58984375 480.65625 C-85.93767614 468.92116719 -94.74693384 453.01657861 -97 436 C-97.03001502 434.26349958 -97.03792364 432.52652541 -97.02783203 430.78979492 C-97.02381378 429.89201828 -97.01979553 428.99424164 -97.01565552 428.06925964 C-97.00790604 427.04497612 -97.00790604 427.04497612 -97 426 C-97.68322578 426.00460896 -98.36645157 426.00921793 -99.07038116 426.01396656 C-115.71346375 426.12450539 -132.35642968 426.20718534 -148.99979401 426.25906086 C-157.04849959 426.28481589 -165.09695977 426.31991433 -173.14550781 426.37719727 C-180.16263227 426.42711547 -187.17957896 426.45931066 -194.19687605 426.47044247 C-197.9107766 426.47694714 -201.62416869 426.49217735 -205.33790588 426.52865028 C-209.48916952 426.56908752 -213.63955555 426.56994406 -217.79101562 426.56762695 C-219.01525238 426.58560333 -220.23948914 426.60357971 -221.50082397 426.62210083 C-228.49871824 426.57985311 -233.73124084 425.90748805 -239 421 C-242.08190754 416.23705198 -242.41247335 412.32481347 -241.6328125 406.8671875 C-237.89410957 389.92763223 -228.87778485 374.8632466 -214.0859375 365.40234375 C-212.01933413 364.12717946 -209.93987648 362.87641658 -207.85400391 361.63305664 C-201.90494875 358.05807432 -196.88361552 353.94715699 -192 349 C-191.36835938 348.39027344 -190.73671875 347.78054688 -190.0859375 347.15234375 C-180.76282037 337.48012312 -176.96379018 324.9465556 -174.46337891 312.08984375 C-174.17633405 310.69087924 -173.88750084 309.29228066 -173.59700966 307.89402771 C-173.00224516 305.01407268 -172.41903784 302.13216139 -171.84632111 299.2477417 C-171.04675665 295.22094618 -170.22044486 291.20028435 -169.38787842 287.18017578 C-168.04472672 280.67697375 -166.72441305 274.16935717 -165.41242599 267.65982056 C-164.55739838 263.41786067 -163.69703917 259.17699116 -162.83584595 254.9362793 C-160.39361435 242.90737608 -157.95451998 230.87785133 -155.52832031 218.84570312 C-154.17503293 212.13462652 -152.81565467 205.42481317 -151.44963992 198.71631527 C-150.73354461 195.19825908 -150.02041599 191.67966546 -149.31498337 188.15945435 C-141.21743994 147.77418204 -127.86805878 111.12067373 -92.60083008 86.55786133 C-80.27410005 78.35984737 -67.2330212 72.04730461 -53 68 C-51.6927056 67.62500952 -50.3854139 67.25000965 -49.078125 66.875 C-48.06234375 66.58625 -47.0465625 66.2975 -46 66 C-46.44730469 65.55011719 -46.89460937 65.10023437 -47.35546875 64.63671875 C-56.17363954 55.25448586 -59.42712815 45.18069694 -59.26953125 32.47265625 C-58.41149956 21.41772615 -53.22442982 11.39450584 -44.83203125 4.12109375 C-42.61956025 2.55865848 -40.39761397 1.2574333 -38 0 C-37.28714844 -0.41121094 -36.57429687 -0.82242187 -35.83984375 -1.24609375 C-25.18387023 -6.52838594 -10.22024379 -5.89558367 0 0 Z M-40.75 18.9921875 C-45.07098233 25.93276537 -47.22196887 32.82808319 -46 41 C-43.91056436 49.59280409 -39.2468741 55.54116679 -31.90234375 60.3828125 C-25.8580573 63.52013723 -19.68674272 64.00997677 -13 63 C-3.5765935 59.80651224 2.48385642 53.73700086 7 45 C9.35430295 37.58172467 8.40882693 30.3179916 5.25 23.3203125 C1.32111617 16.02732188 -3.9976479 11.44157786 -12 9 C-23.31553212 7.4038871 -33.58559716 9.58890877 -40.75 18.9921875 Z " fill="#B7D9FE" transform="translate(275,7)"/>
<path d="M0 0 C0.76441406 0.40089844 1.52882813 0.80179687 2.31640625 1.21484375 C11.64226811 6.65887479 17.3960033 15.65595356 20.37890625 25.890625 C22.91048437 38.56443748 20.20567029 48.95391585 13.59765625 59.7734375 C11.9233298 62.10685089 10.0833878 64.02910614 8 66 C9.47533203 66.36738281 9.47533203 66.36738281 10.98046875 66.7421875 C33.7581673 72.74364738 53.02123922 83.75332509 70 100 C70.80824219 100.73347656 71.61648438 101.46695313 72.44921875 102.22265625 C90.13712506 118.85539704 100.95895994 141.94209958 106.21484375 165.35693359 C106.42742828 166.29918982 106.64001282 167.24144604 106.85903931 168.21225548 C109.73243998 181.10222561 112.31787106 194.05338974 114.93170166 206.99788284 C115.89512323 211.76735795 116.86467472 216.53557512 117.83544922 221.30355835 C118.00081491 222.1159071 118.16618061 222.92825586 118.33655739 223.76522124 C118.67401287 225.42294612 119.01147694 227.08066926 119.34894943 228.73839068 C121.60029097 239.7991534 123.8471701 250.8607931 126.08007812 261.92529297 C127.59821129 269.44769643 129.12511612 276.96826208 130.66192055 284.48687398 C131.47058981 288.44498614 132.27488477 292.40386944 133.06829834 296.36507034 C133.81292032 300.08244108 134.56913211 303.7972717 135.33388519 307.51055145 C135.74068871 309.5007003 136.13541358 311.49330656 136.52960205 313.48599243 C138.66318559 323.75447053 141.66090346 333.6591745 148.125 342.0625 C148.78757812 342.94035156 149.45015625 343.81820313 150.1328125 344.72265625 C151.90306733 346.97117577 151.90306733 346.97117577 153.7421875 348.68359375 C155 350 155 350 155 352 C155.59039062 352.27714844 156.18078125 352.55429687 156.7890625 352.83984375 C158.87195286 353.93280919 160.53796376 355.1036771 162.375 356.5625 C165.48973838 358.96247566 168.70058297 361.07615933 172.0546875 363.12768555 C187.58475755 372.7027569 198.62433815 385.97820627 203 404 C204.35985147 410.12377558 204.39452145 414.53696085 201.59375 420.2109375 C198.36850916 423.83142844 194.99054313 425.74083899 190.21975899 426.36197662 C186.77519124 426.49220385 183.35138886 426.49447311 179.90454102 426.45410156 C177.94254005 426.45497772 177.94254005 426.45497772 175.94090271 426.45587158 C172.37096054 426.45701491 168.80156067 426.43356835 165.23174405 426.40557575 C161.49485127 426.38049791 157.75794478 426.37821509 154.02098083 426.37347412 C146.95206754 426.361063 139.88340296 426.3282669 132.81459898 426.28807616 C124.76383905 426.24330018 116.71306698 426.22135681 108.66221344 426.20129442 C92.10799692 426.15953239 75.55403025 426.08921694 59 426 C59.00435059 426.68448715 59.00870117 427.3689743 59.01318359 428.07420349 C59.01656738 428.97324905 59.01995117 429.87229462 59.0234375 430.79858398 C59.02778809 431.68932114 59.03213867 432.58005829 59.03662109 433.49778748 C58.81246203 448.81392255 50.25637411 465.02188104 40 476 C39.26265625 476.82757813 38.5253125 477.65515625 37.765625 478.5078125 C24.6839517 492.48724769 6.74690273 501.56208514 -12.56640625 502.3359375 C-35.01167009 502.67635547 -53.93614492 498.51770676 -71 483 C-71.85464844 482.2265625 -72.70929688 481.453125 -73.58984375 480.65625 C-85.93767614 468.92116719 -94.74693384 453.01657861 -97 436 C-97.03001502 434.26349958 -97.03792364 432.52652541 -97.02783203 430.78979492 C-97.02381378 429.89201828 -97.01979553 428.99424164 -97.01565552 428.06925964 C-97.00790604 427.04497612 -97.00790604 427.04497612 -97 426 C-97.68322578 426.00460896 -98.36645157 426.00921793 -99.07038116 426.01396656 C-115.71346375 426.12450539 -132.35642968 426.20718534 -148.99979401 426.25906086 C-157.04849959 426.28481589 -165.09695977 426.31991433 -173.14550781 426.37719727 C-180.16263227 426.42711547 -187.17957896 426.45931066 -194.19687605 426.47044247 C-197.9107766 426.47694714 -201.62416869 426.49217735 -205.33790588 426.52865028 C-209.48916952 426.56908752 -213.63955555 426.56994406 -217.79101562 426.56762695 C-219.01525238 426.58560333 -220.23948914 426.60357971 -221.50082397 426.62210083 C-228.49871824 426.57985311 -233.73124084 425.90748805 -239 421 C-242.08190754 416.23705198 -242.41247335 412.32481347 -241.6328125 406.8671875 C-237.89410957 389.92763223 -228.87778485 374.8632466 -214.0859375 365.40234375 C-212.01933413 364.12717946 -209.93987648 362.87641658 -207.85400391 361.63305664 C-201.90494875 358.05807432 -196.88361552 353.94715699 -192 349 C-191.36835938 348.39027344 -190.73671875 347.78054688 -190.0859375 347.15234375 C-180.76282037 337.48012312 -176.96379018 324.9465556 -174.46337891 312.08984375 C-174.17633405 310.69087924 -173.88750084 309.29228066 -173.59700966 307.89402771 C-173.00224516 305.01407268 -172.41903784 302.13216139 -171.84632111 299.2477417 C-171.04675665 295.22094618 -170.22044486 291.20028435 -169.38787842 287.18017578 C-168.04472672 280.67697375 -166.72441305 274.16935717 -165.41242599 267.65982056 C-164.55739838 263.41786067 -163.69703917 259.17699116 -162.83584595 254.9362793 C-160.39361435 242.90737608 -157.95451998 230.87785133 -155.52832031 218.84570312 C-154.17503293 212.13462652 -152.81565467 205.42481317 -151.44963992 198.71631527 C-150.73354461 195.19825908 -150.02041599 191.67966546 -149.31498337 188.15945435 C-141.21743994 147.77418204 -127.86805878 111.12067373 -92.60083008 86.55786133 C-80.27410005 78.35984737 -67.2330212 72.04730461 -53 68 C-51.6927056 67.62500952 -50.3854139 67.25000965 -49.078125 66.875 C-48.06234375 66.58625 -47.0465625 66.2975 -46 66 C-46.44730469 65.55011719 -46.89460937 65.10023437 -47.35546875 64.63671875 C-56.17363954 55.25448586 -59.42712815 45.18069694 -59.26953125 32.47265625 C-58.41149956 21.41772615 -53.22442982 11.39450584 -44.83203125 4.12109375 C-42.61956025 2.55865848 -40.39761397 1.2574333 -38 0 C-37.28714844 -0.41121094 -36.57429687 -0.82242187 -35.83984375 -1.24609375 C-25.18387023 -6.52838594 -10.22024379 -5.89558367 0 0 Z M-40.75 18.9921875 C-45.07098233 25.93276537 -47.22196887 32.82808319 -46 41 C-43.91056436 49.59280409 -39.2468741 55.54116679 -31.90234375 60.3828125 C-25.8580573 63.52013723 -19.68674272 64.00997677 -13 63 C-3.5765935 59.80651224 2.48385642 53.73700086 7 45 C9.35430295 37.58172467 8.40882693 30.3179916 5.25 23.3203125 C1.32111617 16.02732188 -3.9976479 11.44157786 -12 9 C-23.31553212 7.4038871 -33.58559716 9.58890877 -40.75 18.9921875 Z M-92 102 C-92.78213867 102.63760254 -92.78213867 102.63760254 -93.58007812 103.28808594 C-127.40579775 131.41973887 -133.83379541 172.79912856 -141.59765625 213.68359375 C-143.94117956 225.99633978 -146.50767865 238.26523917 -149.2109375 250.50390625 C-151.62897631 261.45415393 -153.88996326 272.42379345 -156 283.4375 C-157.847844 293.07239127 -159.71191599 302.70280346 -161.6875 312.3125 C-161.97270508 313.72390259 -161.97270508 313.72390259 -162.26367188 315.16381836 C-165.55462445 331.01227767 -171.03762311 344.84559766 -182 357 C-182.59167969 357.68449219 -183.18335938 358.36898438 -183.79296875 359.07421875 C-188.74442266 364.44797151 -194.51191642 368.08289125 -200.6640625 371.91015625 C-213.97158602 380.24683667 -224.11907874 390.25311859 -228.5546875 405.67578125 C-229.15681159 408.42403069 -229.15681159 408.42403069 -229 413 C-108.88 413 11.24 413 135 413 C134.14800673 402.76844482 134.14800673 402.76844482 130.5 393.9375 C130.14615234 393.25703613 129.79230469 392.57657227 129.42773438 391.87548828 C123.33253445 380.6217851 114.55298378 373.48008456 103.90576172 366.78833008 C86.77166013 355.97455603 74.12890503 341.30232635 69.46250916 321.06326294 C68.66896863 317.32318805 67.95544536 313.57001288 67.25 309.8125 C66.9210902 308.13077867 66.59047331 306.44939047 66.25830078 304.76831055 C65.5426378 301.13483287 64.83601681 297.49975536 64.13574219 293.86328125 C62.31372851 284.423424 60.41524082 274.99866805 58.52722168 265.57183838 C57.87367011 262.30585416 57.22227604 259.03944549 56.57128906 255.77294922 C54.24689352 244.12310985 51.87752864 232.48863408 49.32983398 220.88525391 C47.66588858 213.25695388 46.11398686 205.61046232 44.58984375 197.953125 C44.14922998 195.75135515 43.70847324 193.54961392 43.26757812 191.34790039 C42.60832261 188.05525798 41.9521234 184.76218589 41.30688477 181.46676636 C37.3440815 155.11048398 37.3440815 155.11048398 23.4609375 133.578125 C15.07739157 128.20200984 4.75077074 122.34066528 -5.23046875 121.25390625 C-6.19791016 121.13853516 -7.16535156 121.02316406 -8.16210938 120.90429688 C-10.19017834 120.67517352 -12.21884342 120.45127024 -14.24804688 120.23242188 C-15.21162109 120.11576172 -16.17519531 119.99910156 -17.16796875 119.87890625 C-18.04735107 119.7816626 -18.9267334 119.68441895 -19.83276367 119.58422852 C-22 119 -22 119 -24 116 C-23.75 112.875 -23.75 112.875 -23 110 C-17.25939658 107.12969829 -9.45044099 109.30560678 -3.375 110.375 C-2.65884521 110.50100586 -1.94269043 110.62701172 -1.20483398 110.75683594 C3.28983181 111.58751274 7.6242443 112.67923384 12 114 C-0.42270183 99.02905164 -17.74527578 83.54302667 -37 78 C-55.61216344 76.57228872 -78.10950754 90.66378629 -92 102 Z " fill="#3F8CF4" transform="translate(275,7)"/>
<path d="M0 0 C8.29195133 4.14806064 15.71532022 9.19017686 22.88671875 15.08203125 C24.23830078 16.16871094 24.23830078 16.16871094 25.6171875 17.27734375 C38.22986834 28.01541257 48.128224 42.00477676 54.88671875 57.08203125 C55.40492188 58.231875 55.923125 59.38171875 56.45703125 60.56640625 C61.9545911 73.93312701 63.98533065 88.57682321 66.66773987 102.7089386 C67.83793071 108.86918316 69.08960163 115.00972142 70.38671875 121.14453125 C70.78551157 123.04419628 71.18394016 124.9439378 71.58203125 126.84375 C71.78860352 127.82907715 71.99517578 128.8144043 72.20800781 129.82958984 C73.57269463 136.36928689 74.91594615 142.91342113 76.26171875 149.45703125 C76.55972755 150.90551871 76.8577419 152.35400504 77.15576172 153.80249023 C78.2192048 158.97184705 79.2820835 164.14131988 80.3449707 169.31079102 C82.52263858 179.90180613 84.70238649 190.49238845 86.88671875 201.08203125 C87.24660889 202.82758301 87.24660889 202.82758301 87.61376953 204.60839844 C88.65953462 209.67501442 89.71225079 214.73983995 90.78515625 219.80078125 C91.50203996 223.18968608 92.17277214 226.58184944 92.80078125 229.98828125 C95.66506846 244.99243781 101.49288741 257.72276498 111.88671875 269.08203125 C112.47710937 269.76394531 113.0675 270.44585937 113.67578125 271.1484375 C118.62453482 276.52889085 124.39643534 280.16355398 130.55078125 283.9921875 C143.85830477 292.32886792 154.00579749 302.33514984 158.44140625 317.7578125 C158.92227667 320.26761866 159.03591518 322.53252748 158.88671875 325.08203125 C157.88671875 326.08203125 157.88671875 326.08203125 155.08229202 326.20622975 C153.81288696 326.20585003 152.54348189 326.20547031 151.23561001 326.20507908 C150.52871596 326.20623292 149.82182192 326.20738677 149.09350684 326.20857558 C146.69483756 326.21124902 144.29623371 326.20671415 141.89756775 326.20228577 C140.17253798 326.20272132 138.44750828 326.20359593 136.72247893 326.20487493 C131.95887206 326.20712301 127.19528745 326.20309436 122.43168342 326.19809687 C117.30350039 326.19379702 112.17531872 326.19523846 107.0471344 326.19599915 C98.15445086 326.19652468 89.26177464 326.19337484 80.36909294 326.18776131 C67.51160895 326.17965024 54.65412852 326.17703149 41.79664225 326.17577332 C20.93856353 326.17358217 0.08048871 326.16692041 -20.77758789 326.1574707 C-41.0448403 326.14829819 -61.31209164 326.14121657 -81.5793457 326.13696289 C-82.82764713 326.13670017 -84.07594856 326.13643744 -85.3620773 326.13616676 C-91.62414845 326.13486177 -97.8862196 326.13359805 -104.14829075 326.13235486 C-156.13662362 326.12198031 -208.12495224 326.10436031 -260.11328125 326.08203125 C-260.11328125 325.75203125 -260.11328125 325.42203125 -260.11328125 325.08203125 C-140.32328125 325.08203125 -20.53328125 325.08203125 102.88671875 325.08203125 C98.90226261 306.48790258 92.52983016 293.37172907 76.48828125 282.71875 C74.71932357 281.60584719 72.9429414 280.50467749 71.16015625 279.4140625 C54.61574048 269.2310911 41.70179037 254.38680862 36.81933594 235.18505859 C35.8035175 230.77848711 34.97100506 226.3383078 34.13671875 221.89453125 C33.80780895 220.21280992 33.47719206 218.53142172 33.14501953 216.8503418 C32.42935655 213.21686412 31.72273556 209.58178661 31.02246094 205.9453125 C29.20044726 196.50545525 27.30195957 187.0806993 25.41394043 177.65386963 C24.76038886 174.38788541 24.10899479 171.12147674 23.45800781 167.85498047 C21.13361227 156.2051411 18.76424739 144.57066533 16.21655273 132.96728516 C14.55260733 125.33898513 13.00070561 117.69249357 11.4765625 110.03515625 C11.03594873 107.8333864 10.59519199 105.63164517 10.15429688 103.42993164 C9.49504136 100.13728923 8.83884215 96.84421714 8.19360352 93.54879761 C3.98806507 66.21093211 3.98806507 66.21093211 -11.40625 44.75 C-16.39925396 41.67350261 -21.71150092 39.34210256 -27.11328125 37.08203125 C-27.8933252 36.74067139 -28.67336914 36.39931152 -29.47705078 36.04760742 C-32.1604552 35.06475278 -34.47233389 34.66155096 -37.30859375 34.37109375 C-38.27152344 34.26023438 -39.23445312 34.149375 -40.2265625 34.03515625 C-42.24127286 33.81565473 -44.25694015 33.60477206 -46.2734375 33.40234375 C-47.23378906 33.28890625 -48.19414062 33.17546875 -49.18359375 33.05859375 C-50.05773926 32.96658691 -50.93188477 32.87458008 -51.83251953 32.77978516 C-54.78080908 31.87781432 -55.63454173 30.74742111 -57.11328125 28.08203125 C-56.98828125 24.95703125 -56.98828125 24.95703125 -56.11328125 22.08203125 C-50.02218417 18.02129987 -42.27484433 20.26649731 -35.42578125 21.45703125 C-34.33885986 21.64591919 -34.33885986 21.64591919 -33.22998047 21.83862305 C-29.05146337 22.60789581 -25.12042226 23.63062585 -21.11328125 25.08203125 C-35.27839335 10.35858626 -50.1231766 -1.05999441 -69.11328125 -8.91796875 C-51.2974406 -20.79519585 -17.32702868 -8.27402463 0 0 Z " fill="#9BB9D9" transform="translate(307.11328125,94.91796875)"/>
<path d="M0 0 C43.56 0 87.12 0 132 0 C130.5644889 18.66164433 124.89029229 34.89363955 111 48 C103.71336091 54.19193275 95.86636194 58.48195033 87 62 C86.15308594 62.34160156 85.30617188 62.68320312 84.43359375 63.03515625 C68.38546108 68.4347627 50.8558246 65.18798483 35.875 58.375 C18.95161956 49.36121548 8.21599018 34.9169416 1.96875 17.05078125 C0.10605036 10.86765328 0 6.87196563 0 0 Z " fill="#FDFCFD" transform="translate(190,432)"/>
<path d="M0 0 C43.56 0 87.12 0 132 0 C130.5644889 18.66164433 124.89029229 34.89363955 111 48 C103.71336091 54.19193275 95.86636194 58.48195033 87 62 C86.15308594 62.34160156 85.30617188 62.68320312 84.43359375 63.03515625 C74.55958998 66.35739539 61.12578322 66.58353317 51 64 C51 63.67 51 63.34 51 63 C52.8871875 62.505 52.8871875 62.505 54.8125 62 C70.33564102 56.76063529 80.48817846 42.87504005 87.59375 28.85546875 C92.06866174 19.25853794 93.05471103 12.02330415 95 1 C63.65 1 32.3 1 0 1 C0 0.67 0 0.34 0 0 Z " fill="#D3D5D9" transform="translate(190,432)"/>
<path d="M0 0 C20.21157582 4.07040203 39.47401483 16.89439897 51.22143555 33.88647461 C57.30655916 43.51078832 65.3115233 56.29988855 64.6784668 68.11694336 C63.8659668 70.61694336 63.8659668 70.61694336 61.8659668 72.61694336 C56.57153715 73.18018056 56.57153715 73.18018056 54.25512695 71.33105469 C51.91601582 68.44478065 51.26266817 64.81963457 50.2409668 61.30444336 C47.44366705 52.32254516 43.41837173 45.16174132 37.8659668 37.61694336 C37.37483398 36.92342773 36.88370117 36.22991211 36.37768555 35.51538086 C28.94761011 25.91546038 17.86793502 20.12110485 6.8659668 15.61694336 C6.08809814 15.27703369 5.31022949 14.93712402 4.50878906 14.58691406 C1.82202687 13.60081649 -0.48902033 13.19687941 -3.3293457 12.90600586 C-4.77374023 12.7397168 -4.77374023 12.7397168 -6.24731445 12.57006836 C-8.26202482 12.35056684 -10.27769211 12.13968416 -12.29418945 11.93725586 C-13.25454102 11.82381836 -14.21489258 11.71038086 -15.2043457 11.59350586 C-16.07849121 11.50149902 -16.95263672 11.40949219 -17.85327148 11.31469727 C-20.80156104 10.41272643 -21.65529369 9.28233322 -23.1340332 6.61694336 C-23.0090332 3.49194336 -23.0090332 3.49194336 -22.1340332 0.61694336 C-15.86060785 -3.56534021 -7.11412253 -1.24064224 0 0 Z " fill="#418DF3" transform="translate(273.134033203125,116.383056640625)"/>
</svg>
