<?xml version="1.0" encoding="UTF-8"?>
<svg version="1.1" xmlns="http://www.w3.org/2000/svg" width="512" height="512">
<path d="M0 0 C0.68730964 -0.00350607 1.37461928 -0.00701215 2.08275649 -0.01062447 C4.38492172 -0.01992533 6.68683324 -0.01501857 8.9890089 -0.01015663 C10.6567425 -0.0138936 12.32447435 -0.01849531 13.99220341 -0.02388728 C18.57488593 -0.03612783 23.15749549 -0.03585554 27.74019063 -0.03349853 C32.68320824 -0.0330906 37.6262024 -0.04412748 42.5692091 -0.05361366 C52.25563043 -0.07023266 61.94202742 -0.0757237 71.62846182 -0.07683842 C79.50622814 -0.07778889 87.38398644 -0.08189914 95.26175022 -0.08823967 C117.60722567 -0.10585796 139.9526819 -0.11507814 162.29816435 -0.11357872 C163.50302583 -0.11349881 164.70788732 -0.1134189 165.94925976 -0.11333656 C167.15559707 -0.1132548 168.36193438 -0.11317304 169.60482737 -0.1130888 C189.13483746 -0.11227672 208.66477028 -0.13139324 228.19475804 -0.1596133 C248.25840575 -0.18837497 268.32201583 -0.20215164 288.38568467 -0.20042574 C299.64548388 -0.19976276 310.90520219 -0.20521416 322.1649828 -0.22678185 C331.75703704 -0.24503729 341.34897374 -0.24930556 350.94103787 -0.235763 C355.83023624 -0.2292541 360.7192094 -0.22904041 365.60838604 -0.2464695 C370.09521524 -0.26229876 374.58164253 -0.25923705 379.06846251 -0.24190123 C380.68095904 -0.23885275 382.2934863 -0.24238128 383.90594653 -0.25362138 C409.8543483 -0.42234028 433.36752534 8.42408948 452.18339062 26.50726891 C470.17259369 44.26939929 481.19164152 67.37586757 481.49788877 92.82010183 C481.50368562 95.09614947 481.49034121 97.37162841 481.47648144 99.64763451 C481.48110351 101.32985393 481.4874651 103.01206929 481.49539042 104.69427639 C481.51192649 109.2657129 481.50391003 113.83681089 481.49144554 118.40824783 C481.48233272 123.3577656 481.49639511 128.3072283 481.50736523 133.25673485 C481.52508622 142.930646 481.52134001 152.60443254 481.50971466 162.27834844 C481.50065889 170.14113984 481.49946558 178.00389646 481.50380993 185.86669159 C481.50442286 186.9882977 481.50503579 188.1099038 481.5056673 189.26549797 C481.50694626 191.54435659 481.50824312 193.8232152 481.50955766 196.1020738 C481.52094369 217.43294894 481.50787893 238.76375514 481.4863562 260.09461898 C481.46846988 278.38804649 481.4716058 296.6813725 481.49003124 314.9747982 C481.51144338 336.24334907 481.51986324 357.51183972 481.50758219 378.78039986 C481.50630804 381.04845209 481.50505055 383.31650433 481.50380993 385.58455658 C481.50319283 386.70036344 481.50257572 387.81617029 481.50193992 388.96578948 C481.49848934 396.8205521 481.50430873 404.67527642 481.51372814 412.53003311 C481.52495253 422.09970906 481.52189801 431.66925378 481.50060517 441.23891472 C481.49010341 446.11921234 481.48595834 450.99929125 481.49920177 455.87958717 C481.51114843 460.34959003 481.50452579 464.81917205 481.48329157 469.28913689 C481.47883535 470.90319286 481.48106968 472.51728461 481.49079472 474.13131743 C481.5535285 485.41093014 480.67843444 495.15312161 472.67167187 503.72601891 C465.9989623 509.72533576 458.92783406 512.50417097 449.93709373 512.51453781 C448.90612927 512.51979692 448.90612927 512.51979692 447.85433725 512.52516228 C445.55217202 512.53446314 443.25026049 512.52955638 440.94808483 512.52469444 C439.28035123 512.52843141 437.61261939 512.53303312 435.94489032 512.53842509 C431.36220781 512.55066564 426.77959824 512.55039335 422.19690311 512.54803634 C417.25388549 512.54762841 412.31089134 512.55866529 407.36788464 512.56815147 C397.6814633 512.58477047 387.99506631 512.59026151 378.30863192 512.59137623 C370.4308656 512.5923267 362.5531073 512.59643695 354.67534351 512.60277748 C332.32986807 512.62039577 309.98441183 512.62961595 287.63892939 512.62811653 C286.4340679 512.62803662 285.22920642 512.62795671 283.98783398 512.62787437 C282.78149667 512.62779261 281.57515935 512.62771085 280.33226637 512.62762661 C260.80225627 512.62681453 241.27232346 512.64593106 221.7423357 512.67415111 C201.67868799 512.70291278 181.61507791 512.71668945 161.55140907 512.71496356 C150.29160985 512.71430057 139.03189155 512.71975198 127.77211094 512.74131966 C118.1800567 512.7595751 108.58812 512.76384337 98.99605586 512.75030081 C94.1068575 512.74379191 89.21788433 512.74357822 84.3287077 512.76100731 C79.8418785 512.77683657 75.3554512 512.77377486 70.86863122 512.75643905 C69.2561347 512.75339057 67.64360743 512.75691909 66.0311472 512.7681592 C39.02670422 512.94374457 15.29547005 503.29763144 -4.03145313 484.25726891 C-21.95090331 466.36773434 -31.50231574 442.65550319 -31.56642675 417.48322302 C-31.55778444 415.94444766 -31.54875807 414.40567441 -31.5393877 412.86690331 C-31.54400978 411.18468388 -31.55037137 409.50246852 -31.55829668 407.82026142 C-31.57483275 403.24882492 -31.5668163 398.67772692 -31.55435181 394.10628998 C-31.54523899 389.15677221 -31.55930137 384.20730951 -31.57027149 379.25780296 C-31.58799248 369.58389181 -31.58424627 359.91010527 -31.57262093 350.23618937 C-31.56356516 342.37339797 -31.56237184 334.51064135 -31.56671619 326.64784622 C-31.56732913 325.52624012 -31.56794206 324.40463401 -31.56857356 323.24903984 C-31.56985253 320.97018122 -31.57114938 318.69132261 -31.57246393 316.41246402 C-31.58384996 295.08158887 -31.5707852 273.75078267 -31.54926246 252.41991883 C-31.53137615 234.12649132 -31.53451207 215.83316531 -31.55293751 197.53973961 C-31.57434964 176.27118874 -31.58276951 155.00269809 -31.57048845 133.73413795 C-31.5692143 131.46608572 -31.56795682 129.19803348 -31.56671619 126.92998123 C-31.56609909 125.81417438 -31.56548199 124.69836752 -31.56484619 123.54874833 C-31.5613956 115.69398571 -31.56721499 107.83926139 -31.57663441 99.9845047 C-31.5878588 90.41482875 -31.58480428 80.84528403 -31.56351143 71.27562309 C-31.55300968 66.39532547 -31.5488646 61.51524657 -31.56210804 56.63495064 C-31.57405469 52.16494778 -31.56743206 47.69536576 -31.54619783 43.22540092 C-31.54174162 41.61134495 -31.54397595 39.9972532 -31.55370098 38.38322038 C-31.61643477 27.10360768 -30.7413407 17.3614162 -22.73457813 8.78851891 C-16.06186857 2.78920205 -8.99074033 0.01036684 0 0 Z " fill="#D1E0E3" transform="translate(31.031453132629395,-0.25726890563964844)"/>
<path d="M0 0 C1.42876604 -0.00256327 1.42876604 -0.00256327 2.88639605 -0.00517833 C6.07396856 -0.0084692 9.26132998 0.00252394 12.44888306 0.01345825 C14.73545324 0.01402245 17.02202378 0.01370563 19.30859375 0.01257324 C25.51468381 0.01199908 31.72069667 0.02376384 37.92676878 0.03772116 C44.41302824 0.05021779 50.89928944 0.05139818 57.38555908 0.05377197 C68.27191546 0.05928328 79.15824331 0.07177845 90.04458618 0.08963013 C101.25617329 0.10799599 112.46775269 0.12214904 123.67935181 0.13064575 C124.71646176 0.13143392 124.71646176 0.13143392 125.77452342 0.13223802 C129.2432041 0.13484814 132.71188483 0.13737555 136.1805656 0.13986182 C164.94401781 0.16058582 193.70742744 0.197451 222.47085571 0.24050903 C222.47085571 31.59050903 222.47085571 62.94050903 222.47085571 95.24050903 C212.57085571 95.73550903 212.57085571 95.73550903 202.47085571 96.24050903 C189.68750513 98.37106746 178.93008804 101.39428352 167.47085571 107.24050903 C166.41382446 107.77546997 165.35679321 108.31043091 164.26773071 108.86160278 C141.16451698 121.47160295 125.73445289 142.77017032 117.40835571 167.38113403 C109.83874729 193.43805534 114.65877901 221.38131629 126.84585571 245.11550903 C136.96329209 263.05297266 152.47835307 276.66016667 170.90835571 285.55300903 C171.8724939 286.02323486 171.8724939 286.02323486 172.85610962 286.50296021 C184.37621592 291.80130268 196.29885008 293.90276165 208.84585571 294.99050903 C213.34210571 295.40300903 217.83835571 295.81550903 222.47085571 296.24050903 C222.47085571 306.80050903 222.47085571 317.36050903 222.47085571 328.24050903 C219.72773071 328.32300903 216.98460571 328.40550903 214.15835571 328.49050903 C151.44140967 331.28532535 93.82041605 359.13830375 51.47085571 405.24050903 C47.55340555 409.72023722 43.96235696 414.42451156 40.47085571 419.24050903 C40.01227173 419.87069946 39.55368774 420.50088989 39.08120728 421.150177 C23.28544053 443.04513732 12.24090211 466.77009364 3.47085571 492.24050903 C-14.78213061 482.25737752 -25.22121794 460.73417205 -31.07064819 441.64431763 C-32.88085674 435.43673692 -33.65393808 429.64962603 -33.66336536 423.18950272 C-33.66571759 422.5000959 -33.66806982 421.81068908 -33.67049333 421.10039115 C-33.67714814 418.79122581 -33.67672618 416.48211721 -33.67631531 414.17294312 C-33.6796161 412.5002219 -33.68334212 410.82750147 -33.68745679 409.15478206 C-33.69745994 404.55860411 -33.70119085 399.96243923 -33.7038461 395.36625195 C-33.70775401 390.40905899 -33.71733184 385.45187632 -33.72605896 380.49468994 C-33.74580694 368.52522176 -33.75588629 356.55575275 -33.76478675 344.58627236 C-33.76917134 338.94909302 -33.77453761 333.31191462 -33.77977562 327.67473602 C-33.79678427 308.93594686 -33.81127934 290.19715828 -33.81852436 271.45836258 C-33.82043423 266.59733326 -33.82235457 261.73630395 -33.8243103 256.87527466 C-33.82479404 255.66710117 -33.82527778 254.45892769 -33.82577618 253.21414289 C-33.83407994 233.63414213 -33.85942434 214.05420239 -33.89189098 194.47422829 C-33.92495346 174.37106822 -33.94297229 154.26793918 -33.9461686 134.16475177 C-33.94833416 122.87778356 -33.95708998 111.59090442 -33.98262978 100.30396271 C-34.00432543 90.6937816 -34.01239265 81.0837112 -34.00266299 71.47350839 C-33.99811539 66.57099619 -34.00003154 61.66871247 -34.01942444 56.76623154 C-34.03703531 52.27545758 -34.03607525 47.78507916 -34.02052715 43.29430112 C-34.01814796 41.67250497 -34.02249075 40.05068158 -34.0343558 38.42892709 C-34.11193286 27.12223327 -33.25980429 17.36689752 -25.23226929 8.77175903 C-17.665834 1.96890896 -9.9703842 -0.06561544 0 0 Z " fill="#E7EFF0" transform="translate(33.529144287109375,-0.240509033203125)"/>
<path d="M0 0 C0.70672852 0.00115814 1.41345703 0.00231628 2.14160156 0.00350952 C15.60707067 0.04670193 28.75295796 1.23571243 42.0625 3.3125 C43.27510498 3.48869873 43.27510498 3.48869873 44.51220703 3.66845703 C55.05470158 5.20325121 65.0126351 7.81931839 75.0625 11.3125 C75.80226074 11.56515625 76.54202148 11.8178125 77.30419922 12.078125 C117.95324593 26.05899839 154.24813121 50.51369636 181.0625 84.3125 C181.71863281 85.10140625 182.37476563 85.8903125 183.05078125 86.703125 C201.74932582 109.33623305 216.1936053 136.89497366 223.54345703 165.31298828 C224.09082019 167.42159799 224.66584647 169.52130911 225.24609375 171.62109375 C228.0625 181.89465694 228.0625 181.89465694 228.0625 184.3125 C177.64904184 184.40412618 127.23559212 184.47457459 76.82206703 184.51676132 C70.86550874 184.52176393 64.90895062 184.52694124 58.95239258 184.53222656 C57.76658718 184.5332758 56.58078177 184.53432505 55.35904288 184.53540608 C36.17785142 184.55279452 16.99670809 184.58432361 -2.18445485 184.62111118 C-21.87726004 184.65856405 -41.57004009 184.68074504 -61.26287943 184.68885398 C-73.40694745 184.69433273 -85.55087941 184.71161484 -97.69490553 184.74416587 C-106.03113651 184.76536741 -114.36729752 184.7716873 -122.70355349 184.76650551 C-127.50765988 184.7639525 -132.31152911 184.767768 -137.11559296 184.7893219 C-141.5249317 184.80895904 -145.9338765 184.80966024 -150.34323437 184.79609558 C-151.92765279 184.79442209 -153.51209703 184.79934999 -155.09646558 184.81203273 C-177.32377248 184.97942897 -196.96917943 178.41440041 -214.9375 165.3125 C-213.76466884 158.19092476 -211.84275328 151.77728992 -209.0625 145.125 C-208.67392822 144.18736816 -208.28535645 143.24973633 -207.88500977 142.28369141 C-201.3842328 126.95289371 -193.80829373 111.76901064 -183.9375 98.3125 C-183.24398437 97.34828125 -182.55046875 96.3840625 -181.8359375 95.390625 C-169.02338311 77.9148441 -154.30654008 61.37870395 -136.9375 48.3125 C-136.30150879 47.82716797 -135.66551758 47.34183594 -135.01025391 46.84179688 C-124.1663261 38.60311459 -113.04991684 31.52849593 -100.9375 25.3125 C-100.21046875 24.9314209 -99.4834375 24.5503418 -98.734375 24.15771484 C-68.48893412 8.42499105 -34.08871322 -0.17564718 0 0 Z " fill="#55B0E9" transform="translate(251.9375,327.6875)"/>
<path d="M0 0 C1.06855225 0.44956055 1.06855225 0.44956055 2.15869141 0.90820312 C27.49907306 11.79064649 46.54771942 32.62586676 57 58 C65.36796817 78.9888331 65.40899163 106.92509421 56.875 127.875 C56.56715576 128.64038086 56.25931152 129.40576172 55.94213867 130.19433594 C45.61485109 155.17123595 27.22117237 174.28574187 2.578125 185.56640625 C-3.74186102 188.09893653 -10.06211934 189.88163139 -16.734375 191.2265625 C-17.48203125 191.48179687 -18.2296875 191.73703125 -19 192 C-19.33 192.99 -19.66 193.98 -20 195 C-37.63114459 195.41873968 -56.61019633 193.78930378 -73 187 C-74.03423096 186.58041016 -74.03423096 186.58041016 -75.08935547 186.15234375 C-85.55669068 181.83553155 -94.5459768 176.53590373 -103 169 C-103.55171875 168.50870605 -104.1034375 168.01741211 -104.671875 167.51123047 C-122.45980303 151.36032219 -135.21303075 128.27368526 -137 104 C-138.34214173 72.64324966 -130.72069843 47.32691331 -110.0078125 23.73046875 C-82.88378931 -4.80040212 -36.46921595 -15.92424569 0 0 Z " fill="#7DBFE9" transform="translate(284,102)"/>
<path d="M0 0 C0 60.72 0 121.44 0 184 C-42.5390625 184.12375 -42.5390625 184.12375 -85.9375 184.25 C-94.86675537 184.28641602 -103.79601074 184.32283203 -112.99584961 184.36035156 C-123.96398926 184.37841797 -123.96398926 184.37841797 -129.11109924 184.3817749 C-132.67878832 184.38547678 -136.24623534 184.40036677 -139.81385803 184.42230225 C-144.38452426 184.45002651 -148.95484565 184.4579123 -153.52558815 184.4522891 C-155.19057026 184.45346248 -156.85556619 184.46122263 -158.52047527 184.47686052 C-181.03093513 184.67822949 -200.77666126 178.28785116 -219 165 C-217.82716884 157.87842476 -215.90525328 151.46478992 -213.125 144.8125 C-212.73642822 143.87486816 -212.34785645 142.93723633 -211.94750977 141.97119141 C-205.4467328 126.64039371 -197.87079373 111.45651064 -188 98 C-187.30648437 97.03578125 -186.61296875 96.0715625 -185.8984375 95.078125 C-173.08588311 77.6023441 -158.36904008 61.06620395 -141 48 C-140.36400879 47.51466797 -139.72801758 47.02933594 -139.07275391 46.52929688 C-128.2288261 38.29061459 -117.11241684 31.21599593 -105 25 C-104.27296875 24.6189209 -103.5459375 24.2378418 -102.796875 23.84521484 C-81.88364878 12.96681459 -59.16593105 6.09397919 -36 2 C-35.2678125 1.87012695 -34.535625 1.74025391 -33.78125 1.60644531 C-22.41220301 -0.31531121 -11.67434477 0 0 0 Z " fill="#7EC0EA" transform="translate(256,328)"/>
<path d="M0 0 C25.01744651 3.57392093 46.67655487 17.16804765 62.34375 36.9609375 C80.08516472 61.56803668 85.72286753 88.15181079 81.16796875 118.35546875 C80.22483436 123.42138748 78.81671352 128.10833076 76.875 132.875 C76.56715576 133.64038086 76.25931152 134.40576172 75.94213867 135.19433594 C65.6265362 160.14297511 47.16258845 179.48611704 22.4375 190.6015625 C15.00792134 193.54243739 8.04833971 196 0 196 C0 131.32 0 66.64 0 0 Z " fill="#55B0E9" transform="translate(264,97)"/>
<path d="M0 0 C1.29228516 0.00322266 2.58457031 0.00644531 3.91601562 0.00976562 C5.27083401 0.0181196 6.62565172 0.02658453 7.98046875 0.03515625 C9.3548161 0.04017625 10.7291652 0.04473828 12.10351562 0.04882812 C15.45837799 0.06059957 18.81315096 0.07704342 22.16796875 0.09765625 C22.16796875 0.42765625 22.16796875 0.75765625 22.16796875 1.09765625 C21.22179687 1.17242187 20.275625 1.2471875 19.30078125 1.32421875 C-2.65152209 3.37407518 -23.57715199 12.0526871 -39.83203125 27.09765625 C-40.99605469 28.14179687 -40.99605469 28.14179687 -42.18359375 29.20703125 C-56.24901951 42.45076547 -65.4995488 60.42237662 -69.83203125 79.09765625 C-70.05632812 79.93683594 -70.280625 80.77601563 -70.51171875 81.640625 C-73.83217431 95.94587533 -72.81306866 112.07101041 -68.83203125 126.09765625 C-68.54199219 127.33902344 -68.54199219 127.33902344 -68.24609375 128.60546875 C-64.1184331 144.84808144 -54.13431836 159.09274028 -42.83203125 171.09765625 C-42.03732422 172.00644531 -42.03732422 172.00644531 -41.2265625 172.93359375 C-32.04499952 182.98846735 -19.36946095 189.34316163 -6.83203125 194.09765625 C-5.51912109 194.60619141 -5.51912109 194.60619141 -4.1796875 195.125 C-2.40444083 195.80202729 -0.61968432 196.45410114 1.16796875 197.09765625 C1.16796875 197.42765625 1.16796875 197.75765625 1.16796875 198.09765625 C-16.7473534 199.80568485 -37.36296008 190.19719335 -51.15209961 179.15258789 C-52.73683032 177.82662935 -54.28960685 176.47257107 -55.83203125 175.09765625 C-56.38375 174.6063623 -56.93546875 174.11506836 -57.50390625 173.60888672 C-75.29183428 157.45797844 -88.045062 134.37134151 -89.83203125 110.09765625 C-91.17417298 78.74090591 -83.55272968 53.42456956 -62.83984375 29.828125 C-47.27804986 13.45918413 -23.03032731 -0.10145519 0 0 Z " fill="#56B0EA" transform="translate(236.83203125,95.90234375)"/>
</svg>
