<?xml version="1.0" encoding="UTF-8"?>
<svg version="1.1" xmlns="http://www.w3.org/2000/svg" width="512" height="512">
<path d="M0 0 C1.1927837 -0.00445784 2.38556739 -0.00891569 3.61449605 -0.01350862 C4.91612729 -0.01332426 6.21775852 -0.01313989 7.55883312 -0.01294994 C8.96257843 -0.01625176 10.3663228 -0.01997799 11.77006596 -0.02409142 C15.62302913 -0.03408379 19.47597672 -0.03782377 23.328951 -0.04048073 C27.48668044 -0.04439211 31.64439765 -0.05396998 35.80211926 -0.0626936 C45.84205572 -0.0824364 55.88199315 -0.09252228 65.92194417 -0.10142139 C70.65516794 -0.10580861 75.38839061 -0.11117436 80.1216135 -0.11641026 C95.86568278 -0.13342175 111.60975137 -0.14791395 127.35382843 -0.155159 C131.43755945 -0.15706876 135.52129047 -0.15898911 139.60502148 -0.16094494 C141.12742842 -0.16167055 141.12742842 -0.16167055 142.68059107 -0.16241082 C159.10667021 -0.17070375 175.53267635 -0.19602858 191.95872364 -0.22852562 C208.84025239 -0.26165017 225.72174411 -0.2796127 242.60330552 -0.28280324 C252.07459426 -0.28496354 261.54577661 -0.29364151 271.01703358 -0.31926441 C279.08661876 -0.34104539 287.15607171 -0.3489857 295.22568295 -0.33929763 C299.33720012 -0.33477401 303.44844488 -0.33652498 307.55992413 -0.35605907 C339.16895862 -0.49801477 339.16895862 -0.49801477 352.96805859 4.13422108 C354.3422192 4.57991208 354.3422192 4.57991208 355.74414062 5.03460693 C357.80509519 5.73411852 359.78465246 6.51807802 361.78055859 7.38422108 C362.48011669 7.68231678 363.1796748 7.98041248 363.90043163 8.28754139 C375.62589513 13.46421593 384.93207168 21.22373399 393.96805859 30.13422108 C395.17462109 31.32144764 395.17462109 31.32144764 396.40555859 32.53265858 C413.73922629 50.64874879 421.47200857 74.95657463 421.35573864 99.68703175 C421.3599231 101.09768475 421.36540666 102.50833439 421.37205845 103.91897792 C421.38638621 107.75393342 421.38230852 111.58867171 421.37489164 115.42363846 C421.3701305 119.57578722 421.38269571 123.72789094 421.39290905 127.88002491 C421.41004539 135.99856817 421.41094778 144.11703386 421.40569615 152.2355905 C421.40164334 158.83933294 421.40311115 165.44305257 421.4084444 172.04679394 C421.40919283 172.98916233 421.40994125 173.93153073 421.41071235 174.90245574 C421.41224394 176.81731084 421.41378229 178.73216593 421.41532732 180.64702102 C421.42903383 198.57688227 421.42362783 216.50669981 421.41214211 234.43656006 C421.40221301 250.81040694 421.41514811 267.18414076 421.4390763 283.5579702 C421.46350693 300.40360211 421.47306535 317.24918144 421.46642357 334.09483069 C421.46293998 343.53915997 421.46510632 352.98340236 421.4826746 362.42771816 C421.49744631 370.46784605 421.49796749 378.50782588 421.48060369 386.54795102 C421.47213178 390.64331095 421.46984985 394.73840695 421.48525524 398.83375263 C421.59531675 430.31453892 421.59531675 430.31453892 416.96805859 444.13422108 C416.67097217 445.0504918 416.37388575 445.96676252 416.06779671 446.91079903 C415.3681011 448.97148188 414.58412436 450.95099304 413.71805859 452.94672108 C413.41996288 453.64627918 413.12186718 454.34583729 412.81473827 455.06659412 C407.63806373 466.79205762 399.87854567 476.09823417 390.96805859 485.13422108 C390.17657421 485.93859608 389.38508984 486.74297108 388.56962109 487.57172108 C370.45353088 504.90538879 346.14570503 512.63817106 321.41524792 512.52190113 C320.00459491 512.52608559 318.59394528 512.53156915 317.18330175 512.53822094 C313.34834624 512.5525487 309.51360795 512.54847102 305.6786412 512.54105413 C301.52649244 512.53629299 297.37438872 512.5488582 293.22225475 512.55907154 C285.10371149 512.57620788 276.98524581 512.57711027 268.86668917 512.57185864 C262.26294673 512.56780583 255.65922709 512.56927364 249.05548573 512.5746069 C247.64193313 512.57572953 247.64193313 512.57572953 246.19982392 512.57687484 C244.28496882 512.57840643 242.37011373 512.57994478 240.45525865 512.58148981 C222.52539739 512.59519632 204.59557985 512.58979032 186.66571961 512.5783046 C170.29187273 512.5683755 153.9181389 512.5813106 137.54430946 512.60523879 C120.69867756 512.62966942 103.85309822 512.63922785 87.00744897 512.63258606 C77.5631197 512.62910247 68.1188773 512.63126881 58.6745615 512.64883709 C50.63443361 512.66360881 42.59445378 512.66412998 34.55432864 512.64676618 C30.45896871 512.63829427 26.36387272 512.63601234 22.26852703 512.65141773 C-9.81034329 512.76334926 -37.55647758 507.93897901 -61.28975391 484.87250233 C-62.64713673 483.51705311 -62.64713673 483.51705311 -64.03194141 482.13422108 C-64.83373829 481.34402576 -65.63553516 480.55383045 -66.46162891 479.73968983 C-83.80917011 461.64182245 -91.53584168 437.30129155 -91.41962147 412.58141041 C-91.42380593 411.1707574 -91.42928949 409.76010777 -91.43594128 408.34946424 C-91.45026904 404.51450873 -91.44619135 400.67977045 -91.43877447 396.84480369 C-91.43401333 392.69265493 -91.44657853 388.54055121 -91.45679188 384.38841724 C-91.47392822 376.26987398 -91.47483061 368.1514083 -91.46957897 360.03285166 C-91.46552617 353.42910922 -91.46699398 346.82538958 -91.47232723 340.22164822 C-91.47307565 339.27927982 -91.47382408 338.33691142 -91.47459518 337.36598641 C-91.47612677 335.45113131 -91.47766511 333.53627622 -91.47921015 331.62142114 C-91.49291665 313.69155988 -91.48751065 295.76174234 -91.47602493 277.8318821 C-91.46609584 261.45803522 -91.47903094 245.0843014 -91.50295912 228.71047195 C-91.52738976 211.86484005 -91.53694818 195.01926071 -91.5303064 178.17361146 C-91.52682281 168.72928219 -91.52898915 159.28503979 -91.54655743 149.84072399 C-91.56132914 141.8005961 -91.56185032 133.76061627 -91.54448652 125.72049113 C-91.53601461 121.6251312 -91.53373268 117.53003521 -91.54913807 113.43468952 C-91.65919958 81.95390323 -91.65919958 81.95390323 -87.03194141 68.13422108 C-86.73486506 67.21796042 -86.43778872 66.30169977 -86.13171005 65.35767365 C-85.43200786 63.29702748 -84.64774611 61.31752251 -83.78194141 59.32172108 C-83.48529591 58.62361317 -83.1886504 57.92550526 -82.88301563 57.20624256 C-78.11842244 46.3921802 -71.15385671 37.62733908 -63.03194141 29.13422108 C-62.48151173 28.52062733 -61.93108204 27.90703358 -61.36397266 27.27484608 C-46.51545374 11.28977386 -21.87413792 0.03807925 0 0 Z " fill="#DCECFE" transform="translate(91.0319414138794,-0.13422107696533203)"/>
<path d="M0 0 C1.055121 -0.00128164 1.055121 -0.00128164 2.13155758 -0.00258917 C4.47608793 -0.00422933 6.82054588 0.00125332 9.16506958 0.00672913 C10.85066221 0.00701134 12.53625497 0.0068526 14.22184753 0.00628662 C18.78953918 0.00599998 23.35720451 0.0118752 27.92489004 0.01886058 C32.7014919 0.02511628 37.47809438 0.02569967 42.25469971 0.02688599 C51.29620215 0.02999276 60.33769249 0.03819735 69.37918961 0.04823548 C79.67417355 0.0594169 89.96915807 0.06491218 100.26414657 0.06993091 C121.43832167 0.0803805 142.61248588 0.0979673 163.78665161 0.12025452 C164.25479392 22.6946071 164.60698396 45.26815478 164.82289505 67.84638405 C164.92583465 78.33125613 165.06603616 88.81310511 165.29544067 99.29603577 C165.49540662 108.4381277 165.62395384 117.57803033 165.66842151 126.72224844 C165.6944042 131.5611738 165.75497423 136.39383943 165.90125275 141.23074722 C166.75363045 170.54633017 166.75363045 170.54633017 161.88929749 178.04523468 C157.38418959 182.65064731 152.31979113 185.39258607 146.43601227 187.88253403 C141.82612795 190.03616617 137.86897676 193.11368558 133.78665161 196.12025452 C132.1370945 197.28047659 130.48507137 198.4372077 128.82962036 199.58900452 C125.35111934 202.02375098 121.87489216 204.4617061 118.39993286 206.90150452 C117.06865356 207.8354303 117.06865356 207.8354303 115.71047974 208.78822327 C114.03019586 209.96706117 112.35046326 211.14668543 110.67141724 212.32728577 C109.13989987 213.40127033 107.60500228 214.47045404 106.06643677 215.53431702 C104.48121284 216.63708148 102.90875909 217.75833849 101.34671021 218.89369202 C100.55732056 219.45314514 99.76793091 220.01259827 98.95462036 220.58900452 C98.24974487 221.09882874 97.54486938 221.60865295 96.81863403 222.13392639 C94.78665161 223.12025452 94.78665161 223.12025452 92.64944458 222.85780334 C90.38969959 221.96308649 88.67914746 220.75116267 86.72415161 219.30775452 C76.03512989 212.12985158 65.40772143 210.73345458 52.78665161 212.12025452 C45.17358694 213.73158093 38.94562215 217.47197487 32.78665161 222.12025452 C31.95005005 222.73900452 31.11344849 223.35775452 30.25149536 223.99525452 C22.24604534 230.89694202 17.53554681 242.01426026 16.44290161 252.38197327 C16.05713437 265.96419496 20.36072203 279.19871274 29.70852661 289.23744202 C38.79876598 297.47333558 48.95822136 301.71628926 61.16165161 301.55775452 C61.99309692 301.54945618 62.82454224 301.54115784 63.68118286 301.53260803 C74.38354194 301.23937842 81.7225562 297.62422934 90.27883911 291.31556702 C92.78665161 290.12025452 92.78665161 290.12025452 95.13430786 290.59681702 C98.70374874 292.64701134 102.01833138 294.95524499 105.34915161 297.37025452 C106.87483282 298.46190429 108.40088991 299.5530289 109.92727661 300.64369202 C110.72327271 301.21442444 111.5192688 301.78515686 112.33938599 302.3731842 C116.40574877 305.2761064 120.50291267 308.13472102 124.59915161 310.99525452 C126.2789189 312.16961957 127.95860563 313.34409985 129.63821411 314.51869202 C130.48029419 315.10747131 131.32237427 315.69625061 132.18997192 316.3028717 C134.8567043 318.1692835 137.52116374 320.03890133 140.18508911 321.90931702 C141.07091675 322.53080627 141.95674438 323.15229553 142.86941528 323.7926178 C144.54722816 324.96987033 146.22451577 326.14787201 147.90115356 327.32679749 C148.67161011 327.86707581 149.44206665 328.40735413 150.23587036 328.96400452 C150.89933472 329.43000061 151.56279907 329.8959967 152.24636841 330.37611389 C154.63574116 332.14731433 154.63574116 332.14731433 156.967556 333.01759529 C159.8675102 334.42408799 161.66913032 335.66998123 163.78665161 338.12025452 C165.15021199 343.6500608 164.92536934 349.10947524 164.80838013 354.77406311 C164.80584027 356.48921067 164.80726879 358.20436801 164.81236267 359.91950989 C164.81494316 364.56862655 164.76206646 369.21564982 164.69919705 373.86428022 C164.64290136 378.72485685 164.63764592 383.58548251 164.62696838 388.44633484 C164.59900474 397.64766581 164.52516346 406.8480334 164.43482298 416.0489403 C164.33419546 426.52516456 164.2847346 437.00143504 164.23956406 447.47802234 C164.14551256 469.0259706 163.98722926 490.57305185 163.78665161 512.12025452 C141.78466463 512.21397384 119.78271087 512.28436837 97.78056431 512.3275032 C87.56304283 512.34806977 77.34564587 512.37607657 67.12820435 512.42201233 C58.21573244 512.46206185 49.30335076 512.48773017 40.39079136 512.4966085 C35.67793562 512.50179277 30.96533788 512.51385244 26.25256538 512.54317474 C21.80299197 512.57063119 17.35377912 512.57863951 12.90412903 512.57268524 C11.28417936 512.57377214 9.6642157 512.58154403 8.04434013 512.59707642 C-18.78397432 512.84137492 -43.16567921 503.62161915 -62.47116089 484.85853577 C-63.8285437 483.50308655 -63.8285437 483.50308655 -65.21334839 482.12025452 C-66.01514526 481.3300592 -66.81694214 480.53986389 -67.64303589 479.72572327 C-84.99057709 461.62785589 -92.71724865 437.28732499 -92.60102844 412.56744385 C-92.60521291 411.15679084 -92.61069646 409.74614121 -92.61734825 408.33549768 C-92.63167601 404.50054217 -92.62759833 400.66580389 -92.62018144 396.83083713 C-92.61542031 392.67868837 -92.62798551 388.52658465 -92.63819885 384.37445068 C-92.65533519 376.25590742 -92.65623758 368.13744174 -92.65098595 360.0188851 C-92.64693314 353.41514266 -92.64840095 346.81142302 -92.65373421 340.20768166 C-92.65448263 339.26531326 -92.65523105 338.32294486 -92.65600215 337.35201985 C-92.65753374 335.43716475 -92.65907209 333.52230966 -92.66061712 331.60745458 C-92.67432363 313.67759332 -92.66891763 295.74777578 -92.65743191 277.81791554 C-92.64750281 261.44406866 -92.66043791 245.07033484 -92.6843661 228.69650539 C-92.70879674 211.85087349 -92.71835516 195.00529415 -92.71171337 178.1596449 C-92.70822978 168.71531563 -92.71039612 159.27107323 -92.7279644 149.82675743 C-92.74273612 141.78662954 -92.74325729 133.74664971 -92.72589349 125.70652457 C-92.71742158 121.61116464 -92.71513965 117.51606865 -92.73054504 113.42072296 C-92.84060655 81.93993667 -92.84060655 81.93993667 -88.21334839 68.12025452 C-87.91627204 67.20399386 -87.61919569 66.28773321 -87.31311703 65.34370708 C-86.61341483 63.28306092 -85.82915308 61.30355595 -84.96334839 59.30775452 C-84.66670288 58.60964661 -84.37005737 57.9115387 -84.06442261 57.192276 C-79.29982941 46.37821364 -72.33526368 37.61337252 -64.21334839 29.12025452 C-63.6629187 28.50666077 -63.11248901 27.89306702 -62.54537964 27.26087952 C-47.25983278 10.80532784 -22.39921159 -0.01644582 0 0 Z " fill="#E5F2FE" transform="translate(92.21334838867188,-0.1202545166015625)"/>
<path d="M0 0 C9.66164596 7.60805724 15.18581388 19.00348997 17 31 C18.33700839 43.31554211 14.48926366 54.85852233 7.02734375 64.56640625 C-1.49171977 74.64804932 -12.41516806 81.00179221 -25.67578125 82.3828125 C-38.71585608 82.78240621 -49.74882617 79.19286728 -60 71 C-60 70.34 -60 69.68 -60 69 C-68.83406682 75.03998108 -77.630899 81.12734358 -86.36572266 87.31005859 C-94.37119795 92.97555534 -102.40970851 98.59353616 -110.44726562 104.21337891 C-112.98215849 105.98751299 -115.51484442 107.76475255 -118.046875 109.54296875 C-126.16639341 115.2423448 -134.30405163 120.91096592 -142.5 126.5 C-149.07018177 130.98063066 -155.61098731 135.50056113 -162.125 140.0625 C-162.9485498 140.63887207 -163.77209961 141.21524414 -164.62060547 141.80908203 C-168.75022738 144.70430165 -172.86765054 147.61528304 -176.96875 150.55078125 C-177.75362793 151.11079834 -178.53850586 151.67081543 -179.34716797 152.24780273 C-180.8335208 153.30959712 -182.31706227 154.37534126 -183.79736328 155.44555664 C-188.77712439 159 -188.77712439 159 -191 159 C-190.78778809 159.52787109 -190.57557617 160.05574219 -190.35693359 160.59960938 C-188.09669689 166.6851676 -187.54038128 172.04077094 -187.625 178.5 C-187.61339844 179.38558594 -187.60179687 180.27117187 -187.58984375 181.18359375 C-187.61674341 187.28981661 -188.72453296 192.33984053 -191 198 C-190.12891602 198.41620605 -190.12891602 198.41620605 -189.24023438 198.84082031 C-187.0881528 199.9543865 -185.15202974 201.17564524 -183.15625 202.546875 C-182.41511963 203.05468506 -181.67398926 203.56249512 -180.91040039 204.08569336 C-180.11496826 204.63491455 -179.31953613 205.18413574 -178.5 205.75 C-177.66267334 206.32564697 -176.82534668 206.90129395 -175.96264648 207.49438477 C-166.60293059 213.9406789 -157.30047665 220.46869591 -148 227 C-134.03610774 236.80197026 -134.03610774 236.80197026 -120 246.5 C-109.71220882 253.55010159 -99.51208018 260.72561865 -89.30517578 267.89208984 C-87.50874626 269.1533162 -85.71203664 270.4141437 -83.91503906 271.67456055 C-82.23795562 272.85087883 -80.56147615 274.02805892 -78.88574219 275.20629883 C-77.35364028 276.28072454 -75.81713752 277.34890757 -74.27587891 278.41015625 C-72.69525429 279.51432139 -71.13615104 280.64968458 -69.59521484 281.80859375 C-68.81484863 282.37707031 -68.03448242 282.94554687 -67.23046875 283.53125 C-66.53719482 284.05267578 -65.8439209 284.57410156 -65.12963867 285.11132812 C-62.9473999 286.28269429 -62.9473999 286.28269429 -60.36279297 285.23974609 C-58.04481065 284.02351193 -56.03604157 282.68576502 -53.9375 281.125 C-43.50581729 274.10168887 -32.37989099 272.49473898 -20.0546875 274.47265625 C-7.00796552 277.57636361 3.21218643 284.65342047 10.3125 296 C17.18973025 308.18465794 18.81099679 320.39280747 15.10546875 333.91015625 C10.44977645 346.92306301 2.24678613 355.902963 -10 362 C-21.99375152 367.3730676 -33.62195198 367.53180212 -46.01953125 363.2734375 C-50.45354222 361.37895837 -54.18886941 358.926691 -58 356 C-58.86625 355.4225 -59.7325 354.845 -60.625 354.25 C-67.12997471 348.08739238 -71.24191511 340.45219564 -74 332 C-74.19464844 331.41347656 -74.38929688 330.82695312 -74.58984375 330.22265625 C-75.22741532 326.76762556 -75.18443723 323.31324987 -75.1875 319.8125 C-75.19974609 319.09513672 -75.21199219 318.37777344 -75.22460938 317.63867188 C-75.23920978 312.20245346 -74.36482871 307.2543972 -73 302 C-73.59200195 301.58862793 -74.18400391 301.17725586 -74.79394531 300.75341797 C-111.72700331 275.08529847 -111.72700331 275.08529847 -124.64819336 265.81787109 C-132.18789635 260.41912528 -139.80126794 255.1248147 -147.40332031 249.81445312 C-151.60415833 246.87908004 -155.80195906 243.93937123 -160 241 C-161.65363052 239.84242604 -163.3072764 238.68487402 -164.9609375 237.52734375 C-171.7578125 232.76953125 -178.5546875 228.01171875 -185.3515625 223.25390625 C-186.10727539 222.73199707 -186.86298828 222.21008789 -187.64160156 221.67236328 C-189.33207171 220.47363445 -190.99260415 219.23225107 -192.63183594 217.96435547 C-193.50356445 217.3045166 -194.37529297 216.64467773 -195.2734375 215.96484375 C-196.05895996 215.35116943 -196.84448242 214.73749512 -197.65380859 214.10522461 C-199.99720043 212.69051976 -199.99720043 212.69051976 -202.64794922 213.72705078 C-205.90656918 215.4906427 -209.00031513 217.45219076 -212.109375 219.46484375 C-218.97227864 223.10960203 -225.51019691 224.56397192 -233.25 224.5 C-234.07556396 224.49355469 -234.90112793 224.48710937 -235.75170898 224.48046875 C-249.04867945 224.08728919 -258.87260249 218.35056455 -267.99609375 208.94140625 C-277.09020771 198.28271354 -280.07800101 184.69061283 -279 171 C-276.15084291 157.25195885 -268.60452118 146.73634745 -257 139 C-245.45543487 132.74107883 -233.08876908 130.82843005 -220.20703125 133.90625 C-214.29929224 136.06711116 -209.41609804 138.68423681 -204.78125 142.9609375 C-203.02536256 144.18203847 -203.02536256 144.18203847 -200.7890625 144.0234375 C-196.61627461 142.49224642 -193.40285163 139.91481661 -189.875 137.25 C-188.25673912 136.0539157 -186.63689745 134.85996773 -185.015625 133.66796875 C-183.76942383 132.75023682 -183.76942383 132.75023682 -182.49804688 131.81396484 C-178.59632529 128.98071705 -174.61554002 126.2685511 -170.625 123.5625 C-157.95364199 114.94655384 -145.35399857 106.22524076 -132.99609375 97.1640625 C-126.27665863 92.31065043 -119.45536937 87.59906538 -112.65820312 82.85546875 C-108.37411438 79.86510556 -104.09301005 76.87048287 -99.8125 73.875 C-98.58623901 73.01696777 -98.58623901 73.01696777 -97.33520508 72.14160156 C-89.20711266 66.45088662 -81.10087231 60.72937342 -73 55 C-73.14002441 54.38181396 -73.28004883 53.76362793 -73.42431641 53.12670898 C-76.09026357 40.72922969 -77.02918735 27.53799842 -71 16 C-70.525625 15.07832031 -70.05125 14.15664062 -69.5625 13.20703125 C-63.03761288 1.83553327 -53.37948351 -5.02721446 -41 -9 C-26.18782399 -12.67341965 -12.15685392 -8.74700465 0 0 Z " fill="#063E65" transform="translate(387,78)"/>
<path d="M0 0 C22.00199267 -0.0928614 44.00393763 -0.16411384 66.0060873 -0.20724869 C76.22360878 -0.22781525 86.44100574 -0.25582205 96.65844727 -0.30175781 C105.57091918 -0.34180734 114.48330085 -0.36747565 123.39586025 -0.37635398 C128.108716 -0.38153825 132.82131373 -0.39359792 137.53408623 -0.42292023 C141.98365964 -0.45037667 146.43287249 -0.458385 150.88252258 -0.45243073 C152.50247225 -0.45351762 154.12243591 -0.46128952 155.74231148 -0.4768219 C169.97852741 -0.60645682 183.64799847 1.5371353 196.8125 7.25 C197.51205811 7.5480957 198.21161621 7.84619141 198.93237305 8.15332031 C210.65783654 13.32999485 219.9640131 21.08951292 229 30 C230.2065625 31.18722656 230.2065625 31.18722656 231.4375 32.3984375 C248.77116771 50.51452771 256.50394999 74.82235356 256.38768005 99.55281067 C256.39186452 100.96346368 256.39734807 102.37411331 256.40399987 103.78475684 C256.41832762 107.61971234 256.41424994 111.45445063 256.40683305 115.28941739 C256.40207192 119.44156614 256.41463712 123.59366987 256.42485046 127.74580383 C256.44198681 135.86434709 256.44288919 143.98281278 256.43763756 152.10136942 C256.43358475 158.70511186 256.43505257 165.3088315 256.44038582 171.91257286 C256.44113424 172.85494126 256.44188266 173.79730965 256.44265376 174.76823467 C256.44418535 176.68308976 256.4457237 178.59794485 256.44726873 180.51279994 C256.46097524 198.4426612 256.45556924 216.37247874 256.44408352 234.30233898 C256.43415442 250.67618586 256.44708953 267.04991968 256.47101771 283.42374913 C256.49544835 300.26938103 256.50500677 317.11496036 256.49836498 333.96060961 C256.49488139 343.40493889 256.49704773 352.84918128 256.51461601 362.29349709 C256.52938773 370.33362498 256.5299089 378.3736048 256.5125451 386.41372994 C256.50407319 390.50908987 256.50179127 394.60418587 256.51719666 398.69953156 C256.62725816 430.18031785 256.62725816 430.18031785 252 444 C251.70291358 444.91627072 251.40582716 445.83254145 251.09973812 446.77657795 C250.40004252 448.8372608 249.61606578 450.81677196 248.75 452.8125 C248.4519043 453.51205811 248.15380859 454.21161621 247.84667969 454.93237305 C242.67000515 466.65783654 234.91048708 475.9640131 226 485 C225.20851563 485.804375 224.41703125 486.60875 223.6015625 487.4375 C204.49981871 505.71425154 179.55786873 512.525109 153.71337891 512.34057617 C152.0266064 512.3397278 150.33983278 512.34020913 148.65306091 512.34190369 C144.118811 512.34275688 139.58480402 512.32524195 135.05061007 512.30418181 C130.29542079 512.28530103 125.54022464 512.28365566 120.78500366 512.28010559 C111.80038587 512.27081838 102.81587889 512.24625006 93.83130968 512.21605712 C83.59419425 512.18240905 73.35707325 512.16600105 63.1199162 512.15097082 C42.07988084 512.11969718 21.03995135 512.06639061 0 512 C0 506.06 0 500.12 0 494 C3.06952721 493.99120064 3.06952721 493.99120064 6.20106506 493.98222351 C25.51877067 493.92543899 44.83636558 493.85229954 64.15395451 493.76428509 C74.08447771 493.71942905 84.01496587 493.67999118 93.94555664 493.65356445 C102.60683868 493.63050151 111.26800885 493.59701172 119.92920202 493.55129844 C124.50999321 493.52747752 129.09067437 493.50867615 133.67152596 493.50238609 C137.9947276 493.49628442 142.31764814 493.47610424 146.64074516 493.44572449 C148.21634332 493.43702486 149.79197833 493.43320464 151.36759949 493.43499184 C175.1555793 493.45343323 196.79207636 486.97615875 214.1796875 469.94140625 C230.97531516 452.77570544 237.15660846 432.17974788 237.14044189 408.66188049 C237.14302827 407.29780762 237.14604218 405.9337355 237.1494453 404.56966442 C237.15748689 400.83104335 237.15930328 397.09244151 237.16004276 393.35381281 C237.16189833 389.31745876 237.16944829 385.28111456 237.17617798 381.24476624 C237.18974264 372.42207514 237.19578339 363.5993886 237.20018864 354.77668881 C237.20295478 349.26260803 237.20719287 343.74852899 237.21169281 338.23444939 C237.2238841 322.95356767 237.234183 307.67268735 237.2375679 292.39180088 C237.23778747 291.41432479 237.23800703 290.43684869 237.23823325 289.42975211 C237.23845153 288.44999342 237.23866981 287.47023474 237.2388947 286.4607864 C237.23933816 284.47556659 237.23978472 282.49034677 237.24023438 280.50512695 C237.2404558 279.52039833 237.24067723 278.5356697 237.24090537 277.52110081 C237.24484998 261.57941295 237.26229431 245.6377709 237.2855939 229.69610072 C237.30934782 213.31062022 237.32177163 196.92516267 237.32293582 180.53966469 C237.32385042 171.34734123 237.32954831 162.15507742 237.34775543 152.96277046 C237.36321119 145.13217806 237.36824483 137.30166374 237.36001733 129.47105897 C237.35612983 125.4812193 237.3569465 121.49153662 237.37107468 117.50171661 C238.03010898 90.64354239 238.03010898 90.64354239 230.375 65.25 C230.03017578 64.54883057 229.68535156 63.84766113 229.33007812 63.12524414 C225.95085688 56.48737978 221.84853502 50.66667147 217 45 C216.38769531 44.27554688 215.77539062 43.55109375 215.14453125 42.8046875 C202.66394426 29.23304706 184.01039754 21.25875261 166 19 C163.62007217 18.90444976 161.23802814 18.85440287 158.85621643 18.84178162 C158.17236576 18.83684364 157.4885151 18.83190566 156.78394169 18.82681805 C154.51164372 18.81156237 152.23937373 18.80311512 149.96704102 18.79467773 C148.33055886 18.78508981 146.69407913 18.7750792 145.05760193 18.76467896 C140.62842123 18.73772292 136.19922999 18.7166632 131.77001309 18.69667697 C127.13620169 18.67475982 122.50242248 18.64739924 117.86863708 18.62062073 C109.09989434 18.57077114 100.33113366 18.52580371 91.56235594 18.48259836 C81.57687261 18.43315977 71.5914216 18.37826626 61.60596955 18.32291877 C41.07067631 18.20921749 20.53535171 18.10254626 0 18 C0 12.06 0 6.12 0 0 Z " fill="#7DBBFF" transform="translate(256,0)"/>
<path d="M0 0 C1.055121 -0.00128164 1.055121 -0.00128164 2.13155758 -0.00258917 C4.47608793 -0.00422933 6.82054588 0.00125332 9.16506958 0.00672913 C10.85066221 0.00701134 12.53625497 0.0068526 14.22184753 0.00628662 C18.78953918 0.00599998 23.35720451 0.0118752 27.92489004 0.01886058 C32.7014919 0.02511628 37.47809438 0.02569967 42.25469971 0.02688599 C51.29620215 0.02999276 60.33769249 0.03819735 69.37918961 0.04823548 C79.67417355 0.0594169 89.96915807 0.06491218 100.26414657 0.06993091 C121.43832185 0.0803805 142.61248554 0.09816898 163.78665161 0.12025452 C163.78665161 6.06025452 163.78665161 12.00025452 163.78665161 18.12025452 C161.70493652 18.12390015 159.62322144 18.12754578 157.47842407 18.13130188 C137.82254331 18.16761452 118.16681416 18.22590383 98.51105499 18.30415726 C88.40679174 18.34386179 78.30260541 18.37629773 68.19827271 18.39125061 C59.38497227 18.40431181 50.57184169 18.43138969 41.75863695 18.47486758 C37.09785596 18.49738242 32.43728367 18.51317124 27.77644348 18.51213837 C23.37684224 18.5113858 18.9777006 18.52957251 14.57821846 18.56142235 C12.9756283 18.56984305 11.3729861 18.57172551 9.77038383 18.56605721 C-3.92300093 18.52412873 -17.32409822 20.27493244 -29.58834839 26.87025452 C-30.57846924 27.3856781 -30.57846924 27.3856781 -31.58859253 27.91151428 C-37.3574338 31.01010535 -42.38520892 34.69022479 -47.21334839 39.12025452 C-47.96873901 39.7841217 -48.72412964 40.44798889 -49.50241089 41.13197327 C-62.82951805 53.52022923 -72.30149784 71.97627399 -73.40141571 90.24366963 C-73.47896908 93.8564752 -73.49433024 97.46451554 -73.48750305 101.07815552 C-73.49196305 102.47298052 -73.49727958 103.86780299 -73.50337178 105.26262182 C-73.51747096 109.07236121 -73.51921661 112.88201871 -73.51877487 116.69178045 C-73.52043026 120.80991301 -73.53351018 124.92801253 -73.54496765 129.04612732 C-73.56776116 138.04019098 -73.57573217 147.03423096 -73.5807941 156.0283196 C-73.58405771 161.65114074 -73.59058419 167.27395509 -73.59779549 172.89677238 C-73.61735408 188.48487788 -73.63376261 204.07297707 -73.63667202 219.66109562 C-73.63685959 220.65748807 -73.63704716 221.65388052 -73.63724041 222.68046668 C-73.63760665 224.70012629 -73.63797035 226.7197859 -73.63833153 228.73944551 C-73.63851434 229.74191668 -73.63869715 230.74438785 -73.6388855 231.77723694 C-73.63906605 232.78094105 -73.6392466 233.78464517 -73.63943262 234.81876456 C-73.6429724 251.07325103 -73.66998585 267.32760488 -73.70738339 283.58204538 C-73.74552943 300.29646455 -73.76482996 317.01081802 -73.76513153 333.72528166 C-73.76571468 343.09928027 -73.77411477 352.47312063 -73.8031292 361.84707832 C-73.82772747 369.83058907 -73.83486926 377.81388383 -73.81988167 385.7974223 C-73.81274713 389.86446609 -73.81341921 393.93108413 -73.83629227 397.9980793 C-73.97409094 424.07039171 -71.54935262 446.85414457 -53.21334839 467.12025452 C-52.54819214 467.87822327 -51.88303589 468.63619202 -51.19772339 469.41712952 C-38.65279169 482.89131541 -20.07784817 492.31348391 -1.60570908 493.31605911 C2.74091471 493.4302357 7.08771936 493.43351071 11.43557739 493.43910217 C13.10206074 493.44841472 14.76853948 493.45858533 16.43501282 493.46954346 C20.93220138 493.49670811 25.42935885 493.51195247 29.92660761 493.52497149 C34.63649188 493.5406616 39.34631322 493.56743292 44.05615234 493.59300232 C52.96291131 493.63968637 61.86968224 493.67648053 70.77650058 493.70967519 C80.92168127 493.7479701 91.06679858 493.79736085 101.21192575 493.84765935 C122.07012154 493.95082482 142.92835713 494.03974147 163.78665161 494.12025452 C163.78665161 500.06025452 163.78665161 506.00025452 163.78665161 512.12025452 C141.78465894 512.21311592 119.78271398 512.28436836 97.78056431 512.3275032 C87.56304283 512.34806977 77.34564587 512.37607657 67.12820435 512.42201233 C58.21573244 512.46206185 49.30335076 512.48773017 40.39079136 512.4966085 C35.67793562 512.50179277 30.96533788 512.51385244 26.25256538 512.54317474 C21.80299197 512.57063119 17.35377912 512.57863951 12.90412903 512.57268524 C11.28417936 512.57377214 9.6642157 512.58154403 8.04434013 512.59707642 C-18.78397432 512.84137492 -43.16567921 503.62161915 -62.47116089 484.85853577 C-63.8285437 483.50308655 -63.8285437 483.50308655 -65.21334839 482.12025452 C-66.01514526 481.3300592 -66.81694214 480.53986389 -67.64303589 479.72572327 C-84.99057709 461.62785589 -92.71724865 437.28732499 -92.60102844 412.56744385 C-92.60521291 411.15679084 -92.61069646 409.74614121 -92.61734825 408.33549768 C-92.63167601 404.50054217 -92.62759833 400.66580389 -92.62018144 396.83083713 C-92.61542031 392.67868837 -92.62798551 388.52658465 -92.63819885 384.37445068 C-92.65533519 376.25590742 -92.65623758 368.13744174 -92.65098595 360.0188851 C-92.64693314 353.41514266 -92.64840095 346.81142302 -92.65373421 340.20768166 C-92.65448263 339.26531326 -92.65523105 338.32294486 -92.65600215 337.35201985 C-92.65753374 335.43716475 -92.65907209 333.52230966 -92.66061712 331.60745458 C-92.67432363 313.67759332 -92.66891763 295.74777578 -92.65743191 277.81791554 C-92.64750281 261.44406866 -92.66043791 245.07033484 -92.6843661 228.69650539 C-92.70879674 211.85087349 -92.71835516 195.00529415 -92.71171337 178.1596449 C-92.70822978 168.71531563 -92.71039612 159.27107323 -92.7279644 149.82675743 C-92.74273612 141.78662954 -92.74325729 133.74664971 -92.72589349 125.70652457 C-92.71742158 121.61116464 -92.71513965 117.51606865 -92.73054504 113.42072296 C-92.84060655 81.93993667 -92.84060655 81.93993667 -88.21334839 68.12025452 C-87.91627204 67.20399386 -87.61919569 66.28773321 -87.31311703 65.34370708 C-86.61341483 63.28306092 -85.82915308 61.30355595 -84.96334839 59.30775452 C-84.66670288 58.60964661 -84.37005737 57.9115387 -84.06442261 57.192276 C-79.29982941 46.37821364 -72.33526368 37.61337252 -64.21334839 29.12025452 C-63.6629187 28.50666077 -63.11248901 27.89306702 -62.54537964 27.26087952 C-47.25983278 10.80532784 -22.39921159 -0.01644582 0 0 Z " fill="#B4D6FF" transform="translate(92.21334838867188,-0.1202545166015625)"/>
<path d="M0 0 C9.66164596 7.60805724 15.18581388 19.00348997 17 31 C18.33700839 43.31554211 14.48926366 54.85852233 7.02734375 64.56640625 C-1.49171977 74.64804932 -12.41516806 81.00179221 -25.67578125 82.3828125 C-38.71585608 82.78240621 -49.74882617 79.19286728 -60 71 C-60 70.34 -60 69.68 -60 69 C-68.83187898 75.03848522 -77.62699454 81.12372799 -86.35913086 87.30566406 C-92.72803465 91.81357604 -99.11932308 96.28898659 -105.51586914 100.75756836 C-109.69098509 103.67628179 -113.85877464 106.6044908 -118.01171875 109.5546875 C-118.79998047 110.11414063 -119.58824219 110.67359375 -120.40039062 111.25 C-121.89662323 112.31307902 -123.39147377 113.37810659 -124.88476562 114.4453125 C-129.88964844 118 -129.88964844 118 -131 118 C-133.35246437 99.76659153 -133.35246437 99.76659153 -129.78564453 94.05566406 C-126.42473434 90.66010532 -122.32787529 88.42310851 -118.14208984 86.18457031 C-114.68754765 84.27421714 -111.53010444 81.96665349 -108.3125 79.6875 C-106.98860193 78.78017971 -105.66303021 77.87529746 -104.3359375 76.97265625 C-99.34397207 73.56035293 -94.39003589 70.09418522 -89.4375 66.625 C-88.60452393 66.04194092 -87.77154785 65.45888184 -86.91333008 64.8581543 C-82.25833833 61.5957578 -77.6201179 58.31160129 -73 55 C-73.15388184 54.41726318 -73.30776367 53.83452637 -73.46630859 53.23413086 C-76.51881286 41.17073455 -76.8436373 27.18291304 -71 16 C-70.525625 15.07832031 -70.05125 14.15664062 -69.5625 13.20703125 C-63.03761288 1.83553327 -53.37948351 -5.02721446 -41 -9 C-26.18782399 -12.67341965 -12.15685392 -8.74700465 0 0 Z " fill="#054476" transform="translate(387,78)"/>
<path d="M0 0 C5.13679226 1.63121017 9.04156103 4.76460713 13.3125 7.9375 C14.93512166 9.12647019 16.55883958 10.31394559 18.18359375 11.5 C18.99554199 12.09296875 19.80749023 12.6859375 20.64404297 13.296875 C24.01581923 15.7343373 27.43749278 18.09402445 30.875 20.4375 C37.92924582 25.25054383 44.92892697 30.13816918 51.91162109 35.05444336 C53.48991636 36.16317247 55.07251377 37.2658065 56.65966797 38.36181641 C58.26723944 39.4870829 59.85410249 40.64234154 61.42236328 41.82177734 C62.20208496 42.38977051 62.98180664 42.95776367 63.78515625 43.54296875 C64.47617432 44.06270264 65.16719238 44.58243652 65.87915039 45.11791992 C68.05443655 46.28179014 68.05443655 46.28179014 70.63623047 45.23901367 C72.9552151 44.02347484 74.96352377 42.6860883 77.0625 41.125 C87.49418271 34.10168887 98.62010901 32.49473898 110.9453125 34.47265625 C123.99203448 37.57636361 134.21218643 44.65342047 141.3125 56 C148.18973025 68.18465794 149.81099679 80.39280747 146.10546875 93.91015625 C141.44977645 106.92306301 133.24678613 115.902963 121 122 C109.00624848 127.3730676 97.37804802 127.53180212 84.98046875 123.2734375 C80.54645778 121.37895837 76.81113059 118.926691 73 116 C72.13375 115.4225 71.2675 114.845 70.375 114.25 C63.87002529 108.08739238 59.75808489 100.45219564 57 92 C56.80535156 91.41347656 56.61070312 90.82695312 56.41015625 90.22265625 C55.77258468 86.76762556 55.81556277 83.31324987 55.8125 79.8125 C55.80025391 79.09513672 55.78800781 78.37777344 55.77539062 77.63867188 C55.76079022 72.20245346 56.63517129 67.2543972 58 62 C57.40799805 61.58862793 56.81599609 61.17725586 56.20605469 60.75341797 C20.10226466 35.66163172 20.10226466 35.66163172 6.8125 26.1875 C6.22976318 25.77258301 5.64702637 25.35766602 5.04663086 24.93017578 C1.12367403 22.12367403 1.12367403 22.12367403 0 21 C-0.08685603 19.43827255 -0.10702219 17.87270656 -0.09765625 16.30859375 C-0.09443359 15.36435547 -0.09121094 14.42011719 -0.08789062 13.44726562 C-0.07951172 12.45404297 -0.07113281 11.46082031 -0.0625 10.4375 C-0.05798828 9.44041016 -0.05347656 8.44332031 -0.04882812 7.41601562 C-0.03700007 4.94395151 -0.02051849 2.47200482 0 0 Z " fill="#054476" transform="translate(256,318)"/>
<path d="M0 0 C5.9925279 5.50573992 9.15878449 13.50258797 9.5625 21.5 C9.12842839 29.90887562 5.71399075 37.66996483 -0.4375 43.5 C-7.86796452 49.00766888 -16.0081386 51.305569 -25.1875 50 C-33.72855122 47.66434036 -40.69884749 42.09036182 -45.1875 34.5 C-48.49066472 27.12967329 -48.57076961 18.77164562 -46.3359375 11.0625 C-43.11724602 3.88065779 -37.72778644 -1.62336323 -30.5625 -4.9375 C-19.35321313 -8.47494753 -9.54886917 -5.99144732 0 0 Z " fill="#E3F1FD" transform="translate(173.1875,235)"/>
<path d="M0 0 C6.9427243 4.64565083 10.39862487 10.77165792 12.6328125 18.76171875 C13.93193238 26.48345375 11.38089129 34.61301256 7.0703125 41.01171875 C2.43530293 46.72436805 -4.074082 50.70839739 -11.3671875 51.76171875 C-19.65785233 52.59902099 -25.79116863 51.04539837 -32.56640625 46.18359375 C-38.02704243 41.70203652 -41.97917802 36.85457455 -43.3671875 29.76171875 C-44.31848047 19.73237291 -42.91998198 12.77048303 -36.828125 4.73046875 C-26.92095815 -6.35053304 -12.46709009 -6.98222147 0 0 Z " fill="#DAEAFE" transform="translate(373.3671875,374.23828125)"/>
<path d="M0 0 C6.64818986 4.5690743 11.02307631 10.83542675 12.8359375 18.74609375 C13.57988465 27.67345953 11.40667433 35.90187936 5.7109375 42.921875 C-0.27534036 48.74602451 -7.10190425 51.81137912 -15.4140625 51.99609375 C-23.53325517 51.84798244 -29.47216905 49.27231373 -35.37109375 43.71484375 C-42.04278865 36.38906112 -43.60250551 29.9090006 -43.50390625 20.13671875 C-42.74310033 12.54614939 -38.73836654 6.3153429 -33.171875 1.21875 C-23.01400829 -6.23166975 -10.72447297 -6.21399968 0 0 Z " fill="#DAEBFE" transform="translate(373.1640625,90.25390625)"/>
</svg>
