<svg xmlns="http://www.w3.org/2000/svg" xmlns:xlink="http://www.w3.org/1999/xlink" width="1080" zoomAndPan="magnify" viewBox="0 0 810 809.999993" height="1080" preserveAspectRatio="xMidYMid meet" version="1.0"><defs><clipPath id="17a0492fa2"><path d="M 306.089844 306.953125 L 503 306.953125 L 503 502.703125 L 306.089844 502.703125 Z M 306.089844 306.953125 " clip-rule="nonzero"/></clipPath></defs><g clip-path="url(#17a0492fa2)"><path fill="#1685bb" d="M 452.246094 444.441406 L 456.820312 441.421875 L 451.296875 432.960938 C 441.890625 437.796875 431.449219 439.003906 421.695312 437.019531 C 410.476562 434.6875 400.117188 428.042969 393.300781 417.6875 C 386.480469 407.328125 384.582031 395.160156 386.914062 383.941406 C 389.242188 372.71875 395.804688 362.363281 406.160156 355.542969 C 416.515625 348.726562 428.6875 346.828125 439.90625 349.15625 C 451.125 351.488281 461.484375 358.046875 468.300781 368.40625 C 475.117188 378.761719 477.105469 390.929688 474.773438 402.152344 C 472.703125 411.902344 467.4375 421.050781 459.324219 427.699219 L 464.847656 436.15625 L 469.421875 433.136719 L 500.753906 480.863281 C 503.859375 485.609375 502.476562 491.996094 497.816406 495.015625 C 493.070312 498.125 486.683594 496.828125 483.578125 492.082031 Z M 306.128906 306.953125 L 449.832031 306.953125 L 449.832031 344.582031 C 447.328125 343.632812 444.824219 342.859375 442.234375 342.253906 L 442.234375 314.460938 L 313.636719 314.460938 L 313.636719 495.535156 L 442.234375 495.535156 L 442.234375 443.835938 C 443.273438 443.578125 444.222656 443.320312 445.171875 443.058594 C 444.910156 444.871094 445.171875 446.769531 446.292969 448.324219 L 449.832031 453.761719 L 449.832031 503.042969 L 306.128906 503.042969 Z M 348.246094 342.597656 L 417.898438 342.597656 C 412.375 343.980469 407.195312 346.308594 402.363281 349.503906 C 401.929688 349.761719 401.5 350.105469 401.066406 350.367188 L 348.246094 350.367188 Z M 336.335938 446.597656 L 326.929688 446.597656 L 326.929688 454.367188 L 336.335938 454.367188 Z M 336.335938 425.796875 L 326.929688 425.796875 L 326.929688 433.566406 L 336.335938 433.566406 Z M 336.335938 405 L 326.929688 405 L 326.929688 412.765625 L 336.335938 412.765625 Z M 336.335938 384.199219 L 326.929688 384.199219 L 326.929688 391.964844 L 336.335938 391.964844 Z M 336.335938 363.398438 L 326.929688 363.398438 L 326.929688 371.167969 L 336.335938 371.167969 Z M 336.335938 342.597656 L 326.929688 342.597656 L 326.929688 350.367188 L 336.335938 350.367188 Z M 348.246094 446.597656 L 427.738281 446.597656 L 427.738281 454.367188 L 348.246094 454.367188 Z M 348.246094 425.796875 L 390.453125 425.796875 C 392.78125 428.648438 395.371094 431.324219 398.21875 433.566406 L 348.246094 433.566406 Z M 348.246094 405 L 380.179688 405 C 380.871094 407.675781 381.648438 410.261719 382.683594 412.765625 L 348.246094 412.765625 Z M 348.246094 384.199219 L 379.578125 384.199219 C 379.144531 386.789062 378.886719 389.378906 378.800781 391.964844 L 348.246094 391.964844 Z M 348.246094 363.398438 L 388.035156 363.398438 C 386.394531 365.816406 384.929688 368.492188 383.632812 371.167969 L 348.246094 371.167969 Z M 438.265625 357.011719 C 429.03125 355.113281 419.105469 356.753906 410.648438 362.277344 C 402.101562 367.886719 396.664062 376.34375 394.765625 385.578125 C 392.867188 394.816406 394.507812 404.738281 400.03125 413.285156 C 405.640625 421.742188 414.101562 427.179688 423.335938 429.078125 C 432.570312 430.976562 442.496094 429.421875 451.039062 423.8125 C 459.496094 418.203125 464.933594 409.746094 466.832031 400.511719 C 468.730469 391.277344 467.179688 381.351562 461.570312 372.890625 C 455.957031 364.347656 447.5 358.910156 438.265625 357.011719 Z M 438.265625 357.011719 " fill-opacity="1" fill-rule="evenodd"/></g></svg>