<svg xmlns="http://www.w3.org/2000/svg" xmlns:xlink="http://www.w3.org/1999/xlink" width="1080" zoomAndPan="magnify" viewBox="0 0 810 809.999993" height="1080" preserveAspectRatio="xMidYMid meet" version="1.0"><defs><clipPath id="44266bf6b7"><path d="M 337.5625 277.847656 L 474.0625 277.847656 L 474.0625 425.597656 L 337.5625 425.597656 Z M 337.5625 277.847656 " clip-rule="nonzero"/></clipPath></defs><path fill="#1685bb" d="M 363.707031 348.53125 L 375.320312 348.53125 C 376.921875 348.53125 378.222656 347.234375 378.222656 345.628906 L 378.222656 334.019531 C 378.222656 332.414062 376.921875 331.117188 375.320312 331.117188 L 363.707031 331.117188 C 362.105469 331.117188 360.804688 332.414062 360.804688 334.019531 L 360.804688 345.628906 C 360.804688 347.234375 362.105469 348.53125 363.707031 348.53125 Z M 366.609375 336.921875 L 372.417969 336.921875 L 372.417969 342.726562 L 366.609375 342.726562 Z M 366.609375 336.921875 " fill-opacity="1" fill-rule="nonzero"/><path fill="#1685bb" d="M 363.707031 371.753906 L 375.320312 371.753906 C 376.921875 371.753906 378.222656 370.453125 378.222656 368.851562 L 378.222656 357.242188 C 378.222656 355.636719 376.921875 354.335938 375.320312 354.335938 L 363.707031 354.335938 C 362.105469 354.335938 360.804688 355.636719 360.804688 357.242188 L 360.804688 368.851562 C 360.804688 370.453125 362.105469 371.753906 363.707031 371.753906 Z M 366.609375 360.144531 L 372.417969 360.144531 L 372.417969 365.949219 L 366.609375 365.949219 Z M 366.609375 360.144531 " fill-opacity="1" fill-rule="nonzero"/><path fill="#1685bb" d="M 363.707031 394.976562 L 375.320312 394.976562 C 376.921875 394.976562 378.222656 393.675781 378.222656 392.074219 L 378.222656 380.464844 C 378.222656 378.859375 376.921875 377.558594 375.320312 377.558594 L 363.707031 377.558594 C 362.105469 377.558594 360.804688 378.859375 360.804688 380.464844 L 360.804688 392.074219 C 360.804688 393.675781 362.105469 394.976562 363.707031 394.976562 Z M 366.609375 383.367188 L 372.417969 383.367188 L 372.417969 389.171875 L 366.609375 389.171875 Z M 366.609375 383.367188 " fill-opacity="1" fill-rule="nonzero"/><path fill="#1685bb" d="M 386.929688 335.90625 L 421.765625 335.90625 C 423.367188 335.90625 424.667969 334.605469 424.667969 333.003906 C 424.667969 331.398438 423.367188 330.097656 421.765625 330.097656 L 386.929688 330.097656 C 385.328125 330.097656 384.027344 331.398438 384.027344 333.003906 C 384.027344 334.605469 385.328125 335.90625 386.929688 335.90625 Z M 386.929688 335.90625 " fill-opacity="1" fill-rule="nonzero"/><path fill="#1685bb" d="M 386.929688 347.515625 L 395.640625 347.515625 C 397.242188 347.515625 398.542969 346.214844 398.542969 344.613281 C 398.542969 343.011719 397.242188 341.710938 395.640625 341.710938 L 386.929688 341.710938 C 385.328125 341.710938 384.027344 343.011719 384.027344 344.613281 C 384.027344 346.214844 385.328125 347.515625 386.929688 347.515625 Z M 386.929688 347.515625 " fill-opacity="1" fill-rule="nonzero"/><path fill="#1685bb" d="M 386.929688 359.128906 L 421.765625 359.128906 C 423.367188 359.128906 424.667969 357.828125 424.667969 356.226562 C 424.667969 354.621094 423.367188 353.320312 421.765625 353.320312 L 386.929688 353.320312 C 385.328125 353.320312 384.027344 354.621094 384.027344 356.226562 C 384.027344 357.828125 385.328125 359.128906 386.929688 359.128906 Z M 386.929688 359.128906 " fill-opacity="1" fill-rule="nonzero"/><path fill="#1685bb" d="M 386.929688 370.738281 L 395.640625 370.738281 C 397.242188 370.738281 398.542969 369.4375 398.542969 367.835938 C 398.542969 366.234375 397.242188 364.933594 395.640625 364.933594 L 386.929688 364.933594 C 385.328125 364.933594 384.027344 366.234375 384.027344 367.835938 C 384.027344 369.4375 385.328125 370.738281 386.929688 370.738281 Z M 386.929688 370.738281 " fill-opacity="1" fill-rule="nonzero"/><path fill="#1685bb" d="M 386.929688 382.351562 L 410.152344 382.351562 C 411.757812 382.351562 413.054688 381.050781 413.054688 379.445312 C 413.054688 377.84375 411.757812 376.542969 410.152344 376.542969 L 386.929688 376.542969 C 385.328125 376.542969 384.027344 377.84375 384.027344 379.445312 C 384.027344 381.050781 385.328125 382.351562 386.929688 382.351562 Z M 386.929688 382.351562 " fill-opacity="1" fill-rule="nonzero"/><path fill="#1685bb" d="M 386.929688 393.960938 L 395.640625 393.960938 C 397.242188 393.960938 398.542969 392.660156 398.542969 391.058594 C 398.542969 389.457031 397.242188 388.15625 395.640625 388.15625 L 386.929688 388.15625 C 385.328125 388.15625 384.027344 389.457031 384.027344 391.058594 C 384.027344 392.660156 385.328125 393.960938 386.929688 393.960938 Z M 386.929688 393.960938 " fill-opacity="1" fill-rule="nonzero"/><g clip-path="url(#44266bf6b7)"><path fill="#1685bb" d="M 447.890625 367.980469 L 447.890625 306.878906 C 447.890625 302.074219 443.984375 298.167969 439.179688 298.167969 L 421.765625 298.167969 L 421.765625 295.265625 C 421.765625 293.664062 420.464844 292.363281 418.863281 292.363281 L 415.957031 292.363281 L 415.957031 289.460938 C 415.957031 283.058594 410.75 277.847656 404.347656 277.847656 L 381.125 277.847656 C 374.722656 277.847656 369.515625 283.058594 369.515625 289.460938 L 369.515625 292.363281 L 366.609375 292.363281 C 365.007812 292.363281 363.707031 293.664062 363.707031 295.265625 L 363.707031 298.167969 L 346.292969 298.167969 C 341.488281 298.167969 337.582031 302.074219 337.582031 306.878906 L 337.582031 417.183594 C 337.582031 421.984375 341.488281 425.890625 346.292969 425.890625 L 444.988281 425.890625 C 460.992188 425.890625 474.015625 412.871094 474.015625 396.863281 C 474.015625 381.835938 462.539062 369.441406 447.890625 367.980469 Z M 439.179688 303.972656 C 440.78125 303.972656 442.085938 305.277344 442.085938 306.878906 L 442.085938 367.980469 C 440.082031 368.179688 438.140625 368.585938 436.277344 369.171875 L 436.277344 312.683594 C 436.277344 311.078125 434.980469 309.78125 433.375 309.78125 L 421.765625 309.78125 L 421.765625 303.972656 Z M 430.472656 315.585938 L 430.472656 371.734375 C 417.847656 379.054688 412.738281 394.390625 418.019531 407.605469 L 355 407.605469 L 355 315.585938 C 371.085938 315.585938 413.203125 315.585938 430.472656 315.585938 Z M 369.515625 298.167969 L 372.417969 298.167969 C 374.019531 298.167969 375.320312 296.867188 375.320312 295.265625 L 375.320312 289.460938 C 375.320312 286.257812 377.925781 283.65625 381.125 283.65625 L 404.347656 283.65625 C 407.546875 283.65625 410.152344 286.257812 410.152344 289.460938 L 410.152344 295.265625 C 410.152344 296.867188 411.453125 298.167969 413.054688 298.167969 L 415.957031 298.167969 L 415.957031 309.78125 L 369.515625 309.78125 Z M 346.292969 420.085938 C 344.691406 420.085938 343.390625 418.785156 343.390625 417.183594 L 343.390625 306.878906 C 343.390625 305.277344 344.691406 303.972656 346.292969 303.972656 L 363.707031 303.972656 L 363.707031 309.78125 L 352.097656 309.78125 C 350.496094 309.78125 349.195312 311.078125 349.195312 312.683594 L 349.195312 410.507812 C 349.195312 412.109375 350.496094 413.410156 352.097656 413.410156 L 421.148438 413.410156 C 422.929688 415.964844 425.105469 418.21875 427.589844 420.085938 Z M 444.988281 420.085938 C 432.183594 420.085938 421.765625 409.667969 421.765625 396.863281 C 421.765625 384.058594 432.183594 373.640625 444.988281 373.640625 C 457.792969 373.640625 468.210938 384.058594 468.210938 396.863281 C 468.210938 409.667969 457.792969 420.085938 444.988281 420.085938 Z M 444.988281 420.085938 " fill-opacity="1" fill-rule="nonzero"/></g><path fill="#1685bb" d="M 453.820312 387.191406 L 440.632812 400.378906 L 436.152344 395.898438 C 435.019531 394.765625 433.183594 394.765625 432.046875 395.898438 C 430.914062 397.03125 430.914062 398.871094 432.046875 400.003906 L 438.578125 406.535156 C 439.714844 407.671875 441.550781 407.667969 442.683594 406.535156 L 457.925781 391.296875 C 459.058594 390.164062 459.058594 388.324219 457.925781 387.191406 C 456.792969 386.058594 454.953125 386.058594 453.820312 387.191406 Z M 453.820312 387.191406 " fill-opacity="1" fill-rule="nonzero"/></svg>