<svg xmlns="http://www.w3.org/2000/svg" xmlns:xlink="http://www.w3.org/1999/xlink" width="1080" zoomAndPan="magnify" viewBox="0 0 810 809.999993" height="1080" preserveAspectRatio="xMidYMid meet" version="1.0"><defs><clipPath id="9b547913f1"><path d="M 294.046875 314.878906 L 436.546875 314.878906 L 436.546875 458 L 294.046875 458 Z M 294.046875 314.878906 " clip-rule="nonzero"/></clipPath><clipPath id="68491907b5"><path d="M 301 329 L 430 329 L 430 494.878906 L 301 494.878906 Z M 301 329 " clip-rule="nonzero"/></clipPath></defs><g clip-path="url(#9b547913f1)"><path fill="#1685bb" d="M 436.429688 386.109375 C 436.429688 390.71875 431.941406 394.839844 431.085938 399.203125 C 430.1875 403.691406 432.757812 409.199219 431.046875 413.359375 C 429.289062 417.5625 423.578125 419.644531 421.050781 423.398438 C 418.519531 427.148438 418.765625 433.269531 415.582031 436.453125 C 412.402344 439.632812 406.28125 439.390625 402.527344 441.917969 C 398.773438 444.40625 396.695312 450.160156 392.492188 451.914062 C 388.371094 453.628906 382.824219 451.058594 378.335938 451.953125 C 373.96875 452.8125 369.847656 457.300781 365.238281 457.300781 C 360.628906 457.300781 356.507812 452.8125 352.144531 451.953125 C 347.65625 451.058594 342.148438 453.628906 337.988281 451.914062 C 333.785156 450.160156 331.703125 444.449219 327.949219 441.917969 C 324.195312 439.390625 318.078125 439.632812 314.894531 436.453125 C 311.714844 433.269531 311.957031 427.148438 309.429688 423.398438 C 306.941406 419.644531 301.1875 417.5625 299.433594 413.359375 C 297.71875 409.238281 300.289062 403.691406 299.390625 399.203125 C 298.535156 394.839844 294.046875 390.71875 294.046875 386.109375 C 294.046875 381.496094 298.535156 377.378906 299.390625 373.011719 C 300.289062 368.523438 297.71875 363.015625 299.433594 358.855469 C 301.1875 354.652344 306.898438 352.574219 309.429688 348.820312 C 311.957031 345.066406 311.714844 338.945312 314.894531 335.765625 C 318.078125 332.582031 324.195312 332.828125 327.949219 330.296875 C 331.703125 327.808594 333.785156 322.054688 337.988281 320.300781 C 342.105469 318.589844 347.65625 321.160156 352.144531 320.261719 C 356.507812 319.402344 360.628906 314.917969 365.238281 314.917969 C 369.847656 314.917969 373.96875 319.402344 378.335938 320.261719 C 382.824219 321.160156 388.332031 318.589844 392.492188 320.300781 C 396.695312 322.054688 398.773438 327.769531 402.527344 330.296875 C 406.28125 332.828125 412.402344 332.582031 415.582031 335.765625 C 418.765625 338.945312 418.519531 345.066406 421.050781 348.820312 C 423.539062 352.574219 429.289062 354.652344 431.046875 358.855469 C 432.757812 362.976562 430.1875 368.523438 431.085938 373.011719 C 431.941406 377.378906 436.429688 381.496094 436.429688 386.109375 Z M 436.429688 386.109375 " fill-opacity="1" fill-rule="nonzero"/></g><path fill="#ffffff" d="M 367.726562 347.921875 L 376.824219 366.320312 C 377.234375 367.136719 378.007812 367.707031 378.90625 367.832031 L 399.222656 370.769531 C 401.507812 371.09375 402.40625 373.910156 400.773438 375.542969 L 386.085938 389.859375 C 385.433594 390.515625 385.148438 391.410156 385.269531 392.308594 L 388.738281 412.542969 C 389.144531 414.828125 386.738281 416.542969 384.699219 415.480469 L 366.542969 405.933594 C 365.730469 405.527344 364.75 405.527344 363.933594 405.933594 L 345.777344 415.480469 C 343.738281 416.542969 341.332031 414.828125 341.738281 412.542969 L 345.207031 392.308594 C 345.371094 391.410156 345.042969 390.472656 344.390625 389.859375 L 329.703125 375.542969 C 328.03125 373.910156 328.96875 371.136719 331.253906 370.769531 L 351.570312 367.832031 C 352.46875 367.707031 353.246094 367.136719 353.652344 366.320312 L 362.75 347.921875 C 363.769531 345.839844 366.707031 345.839844 367.726562 347.921875 Z M 367.726562 347.921875 " fill-opacity="1" fill-rule="nonzero"/><g clip-path="url(#68491907b5)"><path fill="#1685bb" d="M 365.238281 442.328125 C 334.234375 442.328125 309.019531 417.113281 309.019531 386.109375 C 309.019531 355.101562 334.234375 329.890625 365.238281 329.890625 C 396.246094 329.890625 421.457031 355.101562 421.457031 386.109375 C 421.457031 417.113281 396.246094 442.328125 365.238281 442.328125 Z M 365.238281 331.113281 C 334.925781 331.113281 310.246094 355.796875 310.246094 386.109375 C 310.246094 416.421875 334.925781 441.101562 365.238281 441.101562 C 395.550781 441.101562 420.234375 416.421875 420.234375 386.109375 C 420.234375 355.796875 395.59375 331.113281 365.238281 331.113281 Z M 402.527344 441.917969 C 398.773438 444.40625 396.695312 450.160156 392.492188 451.914062 C 389.472656 453.179688 385.71875 452.160156 382.171875 451.832031 L 402.40625 495.078125 C 405.953125 490.996094 408.15625 484.101562 411.707031 480.023438 C 417.011719 479.941406 423.660156 482.675781 429.003906 482.632812 L 408.851562 439.59375 C 406.566406 440.164062 404.28125 440.734375 402.527344 441.917969 Z M 337.988281 451.914062 C 333.785156 450.160156 331.703125 444.449219 327.949219 441.917969 C 326.195312 440.734375 323.910156 440.164062 321.667969 439.550781 L 301.511719 482.632812 C 306.816406 482.714844 313.46875 479.984375 318.8125 480.023438 C 322.359375 484.101562 324.5625 490.996094 328.113281 495.078125 L 348.347656 451.832031 C 344.757812 452.117188 341.003906 453.179688 337.988281 451.914062 Z M 337.988281 451.914062 " fill-opacity="1" fill-rule="nonzero"/></g></svg>