<svg xmlns="http://www.w3.org/2000/svg" xmlns:xlink="http://www.w3.org/1999/xlink" width="1080" zoomAndPan="magnify" viewBox="0 0 810 809.999993" height="1080" preserveAspectRatio="xMidYMid meet" version="1.0"><defs><clipPath id="33170ecc64"><path d="M 329.609375 280.074219 L 480.359375 280.074219 L 480.359375 462 L 329.609375 462 Z M 329.609375 280.074219 " clip-rule="nonzero"/></clipPath></defs><g clip-path="url(#33170ecc64)"><path fill="#1685bb" d="M 469.074219 461.734375 L 340.917969 461.734375 C 340.171875 461.734375 339.4375 461.660156 338.707031 461.515625 C 337.976562 461.371094 337.265625 461.15625 336.578125 460.871094 C 335.890625 460.585938 335.238281 460.234375 334.621094 459.820312 C 334 459.410156 333.425781 458.9375 332.902344 458.414062 C 332.375 457.886719 331.90625 457.3125 331.492188 456.695312 C 331.078125 456.074219 330.730469 455.421875 330.445312 454.734375 C 330.160156 454.046875 329.945312 453.339844 329.800781 452.609375 C 329.652344 451.878906 329.582031 451.140625 329.582031 450.394531 L 329.582031 291.6875 C 329.582031 290.941406 329.652344 290.207031 329.800781 289.476562 C 329.945312 288.746094 330.160156 288.035156 330.445312 287.347656 C 330.730469 286.660156 331.078125 286.007812 331.492188 285.390625 C 331.90625 284.769531 332.375 284.199219 332.902344 283.671875 C 333.425781 283.144531 334 282.675781 334.621094 282.261719 C 335.238281 281.847656 335.890625 281.5 336.578125 281.214844 C 337.265625 280.929688 337.976562 280.714844 338.707031 280.570312 C 339.4375 280.421875 340.171875 280.351562 340.917969 280.351562 L 469.074219 280.351562 C 469.820312 280.351562 470.554688 280.421875 471.285156 280.570312 C 472.015625 280.714844 472.726562 280.929688 473.414062 281.214844 C 474.101562 281.5 474.753906 281.847656 475.371094 282.261719 C 475.992188 282.675781 476.5625 283.144531 477.089844 283.671875 C 477.617188 284.199219 478.085938 284.769531 478.5 285.390625 C 478.914062 286.007812 479.261719 286.660156 479.546875 287.347656 C 479.832031 288.035156 480.046875 288.746094 480.191406 289.476562 C 480.339844 290.207031 480.410156 290.941406 480.410156 291.6875 L 480.410156 450.394531 C 480.410156 451.140625 480.339844 451.878906 480.191406 452.609375 C 480.046875 453.339844 479.832031 454.046875 479.546875 454.734375 C 479.261719 455.421875 478.914062 456.074219 478.5 456.695312 C 478.085938 457.3125 477.617188 457.886719 477.089844 458.414062 C 476.5625 458.9375 475.992188 459.410156 475.371094 459.820312 C 474.753906 460.234375 474.101562 460.585938 473.414062 460.871094 C 472.726562 461.15625 472.015625 461.371094 471.285156 461.515625 C 470.554688 461.660156 469.820312 461.734375 469.074219 461.734375 Z M 340.917969 286.019531 C 340.546875 286.019531 340.175781 286.054688 339.8125 286.128906 C 339.445312 286.199219 339.09375 286.308594 338.75 286.449219 C 338.40625 286.59375 338.078125 286.769531 337.769531 286.972656 C 337.457031 287.179688 337.171875 287.417969 336.910156 287.679688 C 336.644531 287.941406 336.410156 288.230469 336.203125 288.539062 C 335.996094 288.847656 335.824219 289.175781 335.679688 289.519531 C 335.539062 289.863281 335.429688 290.214844 335.359375 290.582031 C 335.285156 290.945312 335.25 291.316406 335.25 291.6875 L 335.25 450.394531 C 335.25 450.769531 335.285156 451.136719 335.359375 451.503906 C 335.429688 451.867188 335.539062 452.222656 335.679688 452.566406 C 335.824219 452.910156 335.996094 453.234375 336.203125 453.546875 C 336.410156 453.855469 336.644531 454.140625 336.910156 454.40625 C 337.171875 454.667969 337.457031 454.902344 337.769531 455.109375 C 338.078125 455.316406 338.40625 455.492188 338.75 455.632812 C 339.09375 455.777344 339.445312 455.882812 339.8125 455.957031 C 340.175781 456.027344 340.546875 456.066406 340.917969 456.066406 L 469.074219 456.066406 C 469.445312 456.066406 469.816406 456.027344 470.179688 455.957031 C 470.546875 455.882812 470.898438 455.777344 471.242188 455.632812 C 471.585938 455.492188 471.914062 455.316406 472.222656 455.109375 C 472.535156 454.902344 472.820312 454.667969 473.082031 454.40625 C 473.347656 454.140625 473.582031 453.855469 473.789062 453.546875 C 473.996094 453.234375 474.167969 452.910156 474.3125 452.566406 C 474.453125 452.222656 474.5625 451.867188 474.632812 451.503906 C 474.707031 451.136719 474.742188 450.769531 474.742188 450.394531 L 474.742188 291.6875 C 474.742188 291.316406 474.707031 290.945312 474.632812 290.582031 C 474.5625 290.214844 474.453125 289.863281 474.3125 289.519531 C 474.167969 289.175781 473.996094 288.847656 473.789062 288.539062 C 473.582031 288.230469 473.347656 287.941406 473.082031 287.679688 C 472.820312 287.417969 472.535156 287.179688 472.222656 286.972656 C 471.914062 286.769531 471.585938 286.59375 471.242188 286.449219 C 470.898438 286.308594 470.546875 286.199219 470.179688 286.128906 C 469.816406 286.054688 469.445312 286.019531 469.074219 286.019531 Z M 340.917969 286.019531 " fill-opacity="1" fill-rule="nonzero"/></g><path fill="#1685bb" d="M 372.914062 339.867188 C 369.390625 339.832031 365.917969 339.394531 362.496094 338.554688 C 359.074219 337.71875 355.792969 336.503906 352.652344 334.90625 C 352.164062 334.667969 351.777344 334.320312 351.492188 333.859375 C 351.203125 333.398438 351.0625 332.898438 351.0625 332.355469 C 351.085938 331.441406 351.175781 330.53125 351.332031 329.632812 C 351.484375 328.730469 351.707031 327.84375 351.988281 326.972656 C 352.273438 326.101562 352.621094 325.257812 353.027344 324.4375 C 353.4375 323.621094 353.902344 322.835938 354.421875 322.082031 C 354.945312 321.332031 355.519531 320.621094 356.144531 319.953125 C 356.769531 319.285156 357.441406 318.667969 358.160156 318.097656 C 358.875 317.527344 359.628906 317.011719 360.421875 316.550781 C 361.210938 316.09375 362.03125 315.691406 362.882812 315.351562 C 362.460938 314.738281 362.101562 314.085938 361.804688 313.40625 C 361.503906 312.722656 361.273438 312.015625 361.105469 311.292969 C 360.9375 310.566406 360.839844 309.828125 360.8125 309.085938 C 360.78125 308.339844 360.820312 307.597656 360.929688 306.863281 C 361.039062 306.125 361.214844 305.40625 361.460938 304.699219 C 361.703125 303.996094 362.011719 303.320312 362.378906 302.675781 C 362.75 302.027344 363.175781 301.421875 363.660156 300.851562 C 364.144531 300.285156 364.675781 299.769531 365.253906 299.300781 C 365.835938 298.832031 366.453125 298.421875 367.109375 298.070312 C 367.769531 297.71875 368.453125 297.429688 369.160156 297.207031 C 369.871094 296.984375 370.597656 296.828125 371.335938 296.738281 C 372.078125 296.648438 372.820312 296.628906 373.5625 296.679688 C 374.304688 296.730469 375.039062 296.847656 375.761719 297.035156 C 376.480469 297.222656 377.179688 297.472656 377.851562 297.789062 C 378.527344 298.109375 379.167969 298.484375 379.769531 298.921875 C 380.375 299.359375 380.933594 299.847656 381.445312 300.386719 C 381.921875 300.871094 382.359375 301.390625 382.75 301.945312 C 383.136719 302.503906 383.476562 303.089844 383.765625 303.703125 C 384.058594 304.320312 384.292969 304.953125 384.472656 305.609375 C 384.652344 306.265625 384.777344 306.929688 384.84375 307.609375 C 384.910156 308.285156 384.917969 308.960938 384.871094 309.640625 C 384.820312 310.316406 384.714844 310.988281 384.550781 311.644531 C 384.386719 312.304688 384.167969 312.945312 383.894531 313.570312 C 383.617188 314.191406 383.292969 314.785156 382.917969 315.351562 C 384.835938 316.191406 386.59375 317.285156 388.191406 318.640625 C 389.199219 319.46875 390.109375 320.394531 390.917969 321.421875 C 391.722656 322.449219 392.410156 323.550781 392.976562 324.730469 C 393.539062 325.90625 393.972656 327.132812 394.269531 328.402344 C 394.566406 329.675781 394.722656 330.964844 394.738281 332.273438 C 394.738281 332.8125 394.59375 333.316406 394.308594 333.773438 C 394.023438 334.234375 393.636719 334.582031 393.148438 334.824219 C 390.015625 336.429688 386.742188 337.660156 383.324219 338.511719 C 379.90625 339.363281 376.4375 339.816406 372.914062 339.867188 Z M 356.816406 330.683594 C 359.324219 331.867188 361.925781 332.761719 364.632812 333.367188 C 367.335938 333.972656 370.074219 334.277344 372.84375 334.277344 C 375.613281 334.277344 378.351562 333.972656 381.054688 333.367188 C 383.757812 332.761719 386.363281 331.867188 388.871094 330.683594 C 388.621094 329.191406 388.113281 327.792969 387.351562 326.484375 C 386.589844 325.175781 385.625 324.042969 384.449219 323.089844 C 382.261719 321.277344 379.777344 320.085938 376.996094 319.519531 C 376.441406 319.382812 375.972656 319.105469 375.585938 318.683594 C 375.199219 318.265625 374.960938 317.773438 374.871094 317.210938 C 374.78125 316.648438 374.855469 316.109375 375.09375 315.589844 C 375.328125 315.070312 375.691406 314.660156 376.171875 314.359375 C 376.582031 314.113281 376.960938 313.824219 377.304688 313.496094 C 377.648438 313.164062 377.949219 312.796875 378.207031 312.398438 C 378.46875 311.996094 378.679688 311.570312 378.84375 311.125 C 379.007812 310.675781 379.121094 310.214844 379.179688 309.738281 C 379.238281 309.265625 379.242188 308.792969 379.191406 308.316406 C 379.144531 307.84375 379.042969 307.378906 378.886719 306.925781 C 378.730469 306.476562 378.527344 306.046875 378.277344 305.640625 C 378.023438 305.234375 377.730469 304.863281 377.390625 304.527344 C 376.957031 304.066406 376.464844 303.683594 375.914062 303.375 C 375.363281 303.0625 374.777344 302.84375 374.160156 302.707031 C 373.542969 302.574219 372.921875 302.535156 372.292969 302.589844 C 371.660156 302.644531 371.054688 302.789062 370.46875 303.023438 C 369.882812 303.261719 369.34375 303.582031 368.855469 303.980469 C 368.367188 304.378906 367.945312 304.839844 367.59375 305.367188 C 367.246094 305.890625 366.980469 306.457031 366.796875 307.0625 C 366.617188 307.667969 366.53125 308.285156 366.539062 308.917969 C 366.535156 309.46875 366.605469 310.007812 366.742188 310.539062 C 366.882812 311.070312 367.085938 311.574219 367.359375 312.050781 C 367.628906 312.527344 367.957031 312.960938 368.339844 313.355469 C 368.726562 313.746094 369.152344 314.082031 369.625 314.359375 C 370.117188 314.652344 370.488281 315.054688 370.734375 315.570312 C 370.984375 316.085938 371.066406 316.628906 370.988281 317.195312 C 370.894531 317.773438 370.644531 318.273438 370.242188 318.699219 C 369.839844 319.125 369.351562 319.398438 368.777344 319.519531 C 368.058594 319.628906 367.351562 319.789062 366.660156 320.003906 C 365.96875 320.21875 365.292969 320.484375 364.640625 320.800781 C 363.988281 321.117188 363.359375 321.480469 362.761719 321.890625 C 362.164062 322.300781 361.597656 322.753906 361.070312 323.25 C 360.539062 323.746094 360.046875 324.277344 359.597656 324.847656 C 359.144531 325.417969 358.742188 326.015625 358.378906 326.644531 C 358.019531 327.277344 357.707031 327.929688 357.445312 328.605469 C 357.183594 329.285156 356.972656 329.976562 356.816406 330.683594 Z M 391.847656 332.414062 Z M 391.847656 332.414062 " fill-opacity="1" fill-rule="nonzero"/><path fill="#1685bb" d="M 456.007812 314.191406 L 402.585938 314.191406 C 402.210938 314.191406 401.851562 314.117188 401.503906 313.972656 C 401.15625 313.832031 400.847656 313.625 400.582031 313.359375 C 400.316406 313.09375 400.113281 312.789062 399.96875 312.441406 C 399.824219 312.09375 399.753906 311.730469 399.753906 311.355469 C 399.753906 310.980469 399.824219 310.617188 399.96875 310.273438 C 400.113281 309.925781 400.316406 309.617188 400.582031 309.351562 C 400.847656 309.085938 401.15625 308.882812 401.503906 308.738281 C 401.851562 308.59375 402.210938 308.523438 402.585938 308.523438 L 456.007812 308.523438 C 456.386719 308.523438 456.746094 308.59375 457.09375 308.738281 C 457.441406 308.882812 457.746094 309.085938 458.011719 309.351562 C 458.28125 309.617188 458.484375 309.925781 458.628906 310.273438 C 458.773438 310.617188 458.84375 310.980469 458.84375 311.355469 C 458.84375 311.730469 458.773438 312.09375 458.628906 312.441406 C 458.484375 312.789062 458.28125 313.09375 458.011719 313.359375 C 457.746094 313.625 457.441406 313.832031 457.09375 313.972656 C 456.746094 314.117188 456.386719 314.191406 456.007812 314.191406 Z M 456.007812 314.191406 " fill-opacity="1" fill-rule="nonzero"/><path fill="#1685bb" d="M 429.339844 328.246094 L 402.585938 328.246094 C 402.210938 328.246094 401.851562 328.175781 401.503906 328.03125 C 401.15625 327.886719 400.847656 327.683594 400.582031 327.417969 C 400.316406 327.152344 400.113281 326.84375 399.96875 326.496094 C 399.824219 326.152344 399.753906 325.789062 399.753906 325.414062 C 399.753906 325.039062 399.824219 324.675781 399.96875 324.328125 C 400.113281 323.980469 400.316406 323.675781 400.582031 323.410156 C 400.847656 323.144531 401.15625 322.9375 401.503906 322.792969 C 401.851562 322.652344 402.210938 322.578125 402.585938 322.578125 L 429.339844 322.578125 C 429.714844 322.578125 430.078125 322.652344 430.425781 322.792969 C 430.773438 322.9375 431.078125 323.144531 431.34375 323.410156 C 431.609375 323.675781 431.816406 323.980469 431.960938 324.328125 C 432.101562 324.675781 432.175781 325.039062 432.175781 325.414062 C 432.175781 325.789062 432.101562 326.152344 431.960938 326.496094 C 431.816406 326.84375 431.609375 327.152344 431.34375 327.417969 C 431.078125 327.683594 430.773438 327.886719 430.425781 328.03125 C 430.078125 328.175781 429.714844 328.246094 429.339844 328.246094 Z M 429.339844 328.246094 " fill-opacity="1" fill-rule="nonzero"/><path fill="#1685bb" d="M 372.914062 392.582031 C 369.390625 392.542969 365.917969 392.109375 362.496094 391.269531 C 359.074219 390.433594 355.792969 389.214844 352.652344 387.621094 C 352.203125 387.382812 351.84375 387.050781 351.574219 386.617188 C 351.308594 386.1875 351.164062 385.71875 351.148438 385.210938 C 351.171875 384.296875 351.261719 383.390625 351.414062 382.488281 C 351.570312 381.585938 351.789062 380.699219 352.074219 379.828125 C 352.359375 378.960938 352.707031 378.113281 353.113281 377.292969 C 353.519531 376.476562 353.984375 375.691406 354.507812 374.9375 C 355.03125 374.1875 355.605469 373.476562 356.230469 372.808594 C 356.855469 372.140625 357.527344 371.523438 358.242188 370.953125 C 358.960938 370.382812 359.714844 369.867188 360.503906 369.40625 C 361.296875 368.949219 362.117188 368.546875 362.964844 368.207031 C 362.363281 367.304688 361.890625 366.332031 361.546875 365.300781 C 361.207031 364.265625 361.011719 363.207031 360.960938 362.121094 C 360.90625 361.03125 361.003906 359.957031 361.242188 358.898438 C 361.484375 357.835938 361.863281 356.824219 362.378906 355.867188 C 362.894531 354.910156 363.527344 354.039062 364.28125 353.25 C 365.03125 352.464844 365.878906 351.796875 366.8125 351.238281 C 367.75 350.683594 368.742188 350.265625 369.792969 349.980469 C 370.84375 349.691406 371.910156 349.554688 373 349.558594 C 374.601562 349.585938 376.136719 349.917969 377.609375 350.550781 C 379.082031 351.183594 380.378906 352.070312 381.5 353.214844 C 382.617188 354.347656 383.472656 355.652344 384.070312 357.125 C 384.671875 358.597656 384.964844 360.128906 384.960938 361.71875 C 384.933594 364.058594 384.273438 366.203125 382.976562 368.152344 C 384.894531 368.988281 386.648438 370.085938 388.246094 371.4375 C 389.261719 372.277344 390.171875 373.214844 390.980469 374.253906 C 391.785156 375.292969 392.46875 376.410156 393.03125 377.601562 C 393.589844 378.789062 394.015625 380.027344 394.304688 381.3125 C 394.589844 382.597656 394.734375 383.894531 394.738281 385.210938 C 394.738281 385.753906 394.59375 386.253906 394.308594 386.714844 C 394.023438 387.175781 393.636719 387.523438 393.148438 387.761719 C 390.007812 389.332031 386.726562 390.523438 383.308594 391.335938 C 379.890625 392.148438 376.425781 392.566406 372.914062 392.582031 Z M 356.816406 383.34375 C 359.324219 384.523438 361.925781 385.417969 364.632812 386.023438 C 367.335938 386.628906 370.074219 386.933594 372.84375 386.933594 C 375.613281 386.933594 378.351562 386.628906 381.054688 386.023438 C 383.757812 385.417969 386.363281 384.523438 388.871094 383.34375 C 388.621094 381.847656 388.113281 380.449219 387.351562 379.140625 C 386.589844 377.832031 385.625 376.703125 384.449219 375.746094 C 382.261719 373.933594 379.777344 372.742188 376.996094 372.175781 C 376.425781 372.054688 375.941406 371.785156 375.535156 371.367188 C 375.132812 370.949219 374.882812 370.453125 374.785156 369.878906 C 374.703125 369.316406 374.78125 368.777344 375.023438 368.261719 C 375.265625 367.746094 375.628906 367.339844 376.117188 367.046875 C 377.058594 366.480469 377.800781 365.71875 378.34375 364.765625 C 378.890625 363.8125 379.167969 362.789062 379.175781 361.6875 C 379.175781 361.273438 379.136719 360.859375 379.054688 360.449219 C 378.972656 360.042969 378.855469 359.644531 378.695312 359.261719 C 378.535156 358.875 378.339844 358.507812 378.109375 358.164062 C 377.875 357.816406 377.613281 357.496094 377.316406 357.199219 C 377.023438 356.90625 376.703125 356.640625 376.355469 356.410156 C 376.007812 356.179688 375.644531 355.984375 375.257812 355.824219 C 374.875 355.664062 374.476562 355.542969 374.066406 355.464844 C 373.660156 355.382812 373.246094 355.339844 372.828125 355.339844 C 372.414062 355.339844 372 355.382812 371.589844 355.464844 C 371.183594 355.542969 370.785156 355.664062 370.398438 355.824219 C 370.015625 355.984375 369.648438 356.179688 369.300781 356.410156 C 368.957031 356.640625 368.636719 356.90625 368.339844 357.199219 C 368.046875 357.496094 367.78125 357.816406 367.550781 358.164062 C 367.320312 358.507812 367.125 358.875 366.964844 359.261719 C 366.804688 359.644531 366.683594 360.042969 366.601562 360.449219 C 366.523438 360.859375 366.480469 361.273438 366.480469 361.6875 C 366.480469 362.238281 366.546875 362.777344 366.6875 363.308594 C 366.824219 363.839844 367.03125 364.34375 367.300781 364.820312 C 367.570312 365.296875 367.898438 365.734375 368.285156 366.125 C 368.667969 366.515625 369.097656 366.851562 369.570312 367.132812 C 370.0625 367.421875 370.433594 367.828125 370.679688 368.34375 C 370.925781 368.859375 371.011719 369.398438 370.929688 369.964844 C 370.835938 370.542969 370.589844 371.046875 370.183594 371.46875 C 369.78125 371.894531 369.292969 372.167969 368.71875 372.289062 C 368.007812 372.398438 367.308594 372.558594 366.621094 372.773438 C 365.933594 372.988281 365.265625 373.253906 364.617188 373.566406 C 363.972656 373.878906 363.351562 374.238281 362.753906 374.644531 C 362.160156 375.050781 361.601562 375.5 361.074219 375.988281 C 360.546875 376.480469 360.058594 377.003906 359.609375 377.566406 C 359.160156 378.128906 358.753906 378.722656 358.394531 379.347656 C 358.03125 379.96875 357.71875 380.617188 357.457031 381.285156 C 357.191406 381.953125 356.980469 382.640625 356.816406 383.34375 Z M 391.902344 385.210938 Z M 391.902344 385.210938 " fill-opacity="1" fill-rule="nonzero"/><path fill="#1685bb" d="M 456.007812 366.847656 L 402.585938 366.847656 C 402.210938 366.847656 401.851562 366.777344 401.503906 366.632812 C 401.15625 366.488281 400.847656 366.28125 400.582031 366.015625 C 400.316406 365.75 400.113281 365.445312 399.96875 365.097656 C 399.824219 364.75 399.753906 364.390625 399.753906 364.011719 C 399.753906 363.636719 399.824219 363.277344 399.96875 362.929688 C 400.113281 362.582031 400.316406 362.273438 400.582031 362.007812 C 400.847656 361.742188 401.15625 361.539062 401.503906 361.394531 C 401.851562 361.25 402.210938 361.179688 402.585938 361.179688 L 456.007812 361.179688 C 456.386719 361.179688 456.746094 361.25 457.09375 361.394531 C 457.441406 361.539062 457.746094 361.742188 458.011719 362.007812 C 458.28125 362.273438 458.484375 362.582031 458.628906 362.929688 C 458.773438 363.277344 458.84375 363.636719 458.84375 364.011719 C 458.84375 364.390625 458.773438 364.75 458.628906 365.097656 C 458.484375 365.445312 458.28125 365.75 458.011719 366.015625 C 457.746094 366.28125 457.441406 366.488281 457.09375 366.632812 C 456.746094 366.777344 456.386719 366.847656 456.007812 366.847656 Z M 456.007812 366.847656 " fill-opacity="1" fill-rule="nonzero"/><path fill="#1685bb" d="M 429.339844 380.90625 L 402.585938 380.90625 C 402.210938 380.90625 401.851562 380.832031 401.503906 380.6875 C 401.15625 380.546875 400.847656 380.339844 400.582031 380.074219 C 400.316406 379.808594 400.113281 379.503906 399.96875 379.15625 C 399.824219 378.808594 399.753906 378.445312 399.753906 378.070312 C 399.753906 377.695312 399.824219 377.332031 399.96875 376.984375 C 400.113281 376.636719 400.316406 376.332031 400.582031 376.066406 C 400.847656 375.800781 401.15625 375.597656 401.503906 375.453125 C 401.851562 375.308594 402.210938 375.238281 402.585938 375.238281 L 429.339844 375.238281 C 429.714844 375.238281 430.078125 375.308594 430.425781 375.453125 C 430.773438 375.597656 431.078125 375.800781 431.34375 376.066406 C 431.609375 376.332031 431.816406 376.636719 431.960938 376.984375 C 432.101562 377.332031 432.175781 377.695312 432.175781 378.070312 C 432.175781 378.445312 432.101562 378.808594 431.960938 379.15625 C 431.816406 379.503906 431.609375 379.808594 431.34375 380.074219 C 431.078125 380.339844 430.773438 380.546875 430.425781 380.6875 C 430.078125 380.832031 429.714844 380.90625 429.339844 380.90625 Z M 429.339844 380.90625 " fill-opacity="1" fill-rule="nonzero"/><path fill="#1685bb" d="M 372.914062 445.238281 C 369.390625 445.203125 365.917969 444.765625 362.496094 443.925781 C 359.074219 443.089844 355.792969 441.875 352.652344 440.277344 C 352.164062 440.039062 351.777344 439.691406 351.492188 439.230469 C 351.203125 438.769531 351.0625 438.269531 351.0625 437.726562 C 351.085938 436.8125 351.175781 435.90625 351.332031 435.003906 C 351.484375 434.101562 351.707031 433.214844 351.988281 432.34375 C 352.273438 431.476562 352.621094 430.628906 353.027344 429.808594 C 353.4375 428.992188 353.902344 428.207031 354.421875 427.453125 C 354.945312 426.703125 355.519531 425.992188 356.144531 425.324219 C 356.769531 424.65625 357.441406 424.039062 358.160156 423.46875 C 358.875 422.898438 359.628906 422.382812 360.421875 421.921875 C 361.210938 421.464844 362.03125 421.0625 362.882812 420.722656 C 362.296875 419.820312 361.839844 418.855469 361.515625 417.828125 C 361.191406 416.800781 361.003906 415.75 360.964844 414.671875 C 360.921875 413.597656 361.023438 412.535156 361.265625 411.484375 C 361.511719 410.4375 361.890625 409.4375 362.402344 408.492188 C 362.917969 407.542969 363.546875 406.683594 364.292969 405.90625 C 365.039062 405.128906 365.871094 404.464844 366.796875 403.910156 C 367.722656 403.359375 368.703125 402.941406 369.742188 402.652344 C 370.78125 402.363281 371.835938 402.21875 372.914062 402.21875 C 374.515625 402.246094 376.054688 402.574219 377.523438 403.207031 C 378.996094 403.839844 380.292969 404.730469 381.417969 405.871094 C 382.53125 407.007812 383.386719 408.308594 383.988281 409.78125 C 384.585938 411.253906 384.882812 412.785156 384.875 414.375 C 384.851562 416.714844 384.1875 418.859375 382.890625 420.808594 C 384.808594 421.648438 386.566406 422.742188 388.160156 424.097656 C 389.171875 424.925781 390.082031 425.851562 390.886719 426.878906 C 391.695312 427.90625 392.382812 429.007812 392.945312 430.1875 C 393.511719 431.363281 393.945312 432.589844 394.242188 433.859375 C 394.539062 435.132812 394.695312 436.421875 394.707031 437.726562 C 394.710938 438.269531 394.566406 438.769531 394.28125 439.230469 C 393.996094 439.691406 393.609375 440.039062 393.121094 440.277344 C 389.988281 441.871094 386.714844 443.082031 383.304688 443.921875 C 379.890625 444.757812 376.425781 445.199219 372.914062 445.238281 Z M 356.816406 436 C 359.324219 437.183594 361.925781 438.074219 364.632812 438.683594 C 367.335938 439.289062 370.074219 439.589844 372.84375 439.589844 C 375.613281 439.589844 378.351562 439.289062 381.054688 438.683594 C 383.757812 438.074219 386.363281 437.183594 388.871094 436 C 388.621094 434.507812 388.113281 433.105469 387.351562 431.796875 C 386.589844 430.488281 385.625 429.359375 384.449219 428.402344 C 382.273438 426.621094 379.808594 425.449219 377.050781 424.890625 C 376.484375 424.769531 375.996094 424.5 375.59375 424.082031 C 375.191406 423.664062 374.9375 423.167969 374.839844 422.59375 C 374.757812 422.03125 374.839844 421.492188 375.082031 420.976562 C 375.324219 420.460938 375.6875 420.054688 376.171875 419.761719 C 377.113281 419.195312 377.855469 418.433594 378.402344 417.480469 C 378.945312 416.527344 379.222656 415.5 379.234375 414.402344 C 379.234375 413.988281 379.195312 413.574219 379.113281 413.164062 C 379.03125 412.757812 378.910156 412.359375 378.75 411.972656 C 378.589844 411.589844 378.394531 411.222656 378.164062 410.875 C 377.933594 410.53125 377.667969 410.210938 377.375 409.914062 C 377.078125 409.621094 376.757812 409.355469 376.414062 409.125 C 376.066406 408.894531 375.699219 408.699219 375.316406 408.539062 C 374.929688 408.378906 374.53125 408.257812 374.125 408.175781 C 373.714844 408.097656 373.300781 408.054688 372.886719 408.054688 C 372.46875 408.054688 372.054688 408.097656 371.648438 408.175781 C 371.238281 408.257812 370.839844 408.378906 370.457031 408.539062 C 370.070312 408.699219 369.707031 408.894531 369.359375 409.125 C 369.011719 409.355469 368.691406 409.621094 368.398438 409.914062 C 368.101562 410.210938 367.839844 410.53125 367.605469 410.875 C 367.375 411.222656 367.179688 411.589844 367.019531 411.972656 C 366.859375 412.359375 366.742188 412.757812 366.660156 413.164062 C 366.578125 413.574219 366.539062 413.988281 366.539062 414.402344 C 366.535156 414.953125 366.605469 415.492188 366.742188 416.023438 C 366.882812 416.554688 367.085938 417.058594 367.359375 417.535156 C 367.628906 418.011719 367.957031 418.445312 368.339844 418.839844 C 368.726562 419.230469 369.152344 419.566406 369.625 419.84375 C 370.117188 420.136719 370.488281 420.539062 370.734375 421.054688 C 370.984375 421.570312 371.066406 422.113281 370.988281 422.679688 C 370.894531 423.257812 370.644531 423.757812 370.242188 424.183594 C 369.839844 424.609375 369.351562 424.882812 368.777344 425.003906 C 368.0625 425.109375 367.363281 425.265625 366.675781 425.476562 C 365.988281 425.6875 365.316406 425.949219 364.667969 426.257812 C 364.019531 426.570312 363.394531 426.925781 362.800781 427.328125 C 362.203125 427.734375 361.640625 428.179688 361.109375 428.664062 C 360.578125 429.152344 360.089844 429.675781 359.636719 430.238281 C 359.183594 430.796875 358.777344 431.390625 358.414062 432.011719 C 358.050781 432.632812 357.734375 433.277344 357.464844 433.945312 C 357.199219 434.613281 356.980469 435.296875 356.816406 436 Z M 391.847656 437.726562 Z M 391.847656 437.726562 " fill-opacity="1" fill-rule="nonzero"/><path fill="#1685bb" d="M 456.007812 419.503906 L 402.585938 419.503906 C 402.210938 419.503906 401.851562 419.433594 401.503906 419.289062 C 401.15625 419.144531 400.847656 418.941406 400.582031 418.675781 C 400.316406 418.410156 400.113281 418.101562 399.96875 417.753906 C 399.824219 417.40625 399.753906 417.046875 399.753906 416.671875 C 399.753906 416.292969 399.824219 415.933594 399.96875 415.585938 C 400.113281 415.238281 400.316406 414.933594 400.582031 414.667969 C 400.847656 414.402344 401.15625 414.195312 401.503906 414.050781 C 401.851562 413.910156 402.210938 413.835938 402.585938 413.835938 L 456.007812 413.835938 C 456.386719 413.835938 456.746094 413.910156 457.09375 414.050781 C 457.441406 414.195312 457.746094 414.402344 458.011719 414.667969 C 458.28125 414.933594 458.484375 415.238281 458.628906 415.585938 C 458.773438 415.933594 458.84375 416.292969 458.84375 416.671875 C 458.84375 417.046875 458.773438 417.40625 458.628906 417.753906 C 458.484375 418.101562 458.28125 418.410156 458.011719 418.675781 C 457.746094 418.941406 457.441406 419.144531 457.09375 419.289062 C 456.746094 419.433594 456.386719 419.503906 456.007812 419.503906 Z M 456.007812 419.503906 " fill-opacity="1" fill-rule="nonzero"/><path fill="#1685bb" d="M 429.339844 433.5625 L 402.585938 433.5625 C 402.210938 433.5625 401.851562 433.488281 401.503906 433.347656 C 401.15625 433.203125 400.847656 432.996094 400.582031 432.730469 C 400.316406 432.464844 400.113281 432.160156 399.96875 431.8125 C 399.824219 431.464844 399.753906 431.105469 399.753906 430.726562 C 399.753906 430.351562 399.824219 429.992188 399.96875 429.644531 C 400.113281 429.296875 400.316406 428.988281 400.582031 428.722656 C 400.847656 428.457031 401.15625 428.253906 401.503906 428.109375 C 401.851562 427.964844 402.210938 427.894531 402.585938 427.894531 L 429.339844 427.894531 C 429.714844 427.894531 430.078125 427.964844 430.425781 428.109375 C 430.773438 428.253906 431.078125 428.457031 431.34375 428.722656 C 431.609375 428.988281 431.816406 429.296875 431.960938 429.644531 C 432.101562 429.992188 432.175781 430.351562 432.175781 430.726562 C 432.175781 431.105469 432.101562 431.464844 431.960938 431.8125 C 431.816406 432.160156 431.609375 432.464844 431.34375 432.730469 C 431.078125 432.996094 430.773438 433.203125 430.425781 433.347656 C 430.078125 433.488281 429.714844 433.5625 429.339844 433.5625 Z M 429.339844 433.5625 " fill-opacity="1" fill-rule="nonzero"/></svg>