<svg xmlns="http://www.w3.org/2000/svg" xmlns:xlink="http://www.w3.org/1999/xlink" width="1080" zoomAndPan="magnify" viewBox="0 0 810 809.999993" height="1080" preserveAspectRatio="xMidYMid meet" version="1.0"><defs><clipPath id="71b424aa0f"><path d="M 306 290 L 464.78125 290 L 464.78125 520.390625 L 306 520.390625 Z M 306 290 " clip-rule="nonzero"/></clipPath></defs><g clip-path="url(#71b424aa0f)"><path fill="#1685bb" d="M 438.542969 315.386719 L 415.660156 315.386719 C 415.257812 314.5 414.738281 313.683594 414.105469 312.941406 C 413.46875 312.203125 412.742188 311.566406 411.921875 311.035156 C 411.105469 310.503906 410.226562 310.097656 409.292969 309.820312 C 408.355469 309.542969 407.402344 309.402344 406.425781 309.398438 L 399.878906 309.398438 L 399.808594 305.039062 C 399.820312 304.554688 399.8125 304.070312 399.777344 303.582031 C 399.742188 303.097656 399.683594 302.617188 399.597656 302.136719 C 399.515625 301.65625 399.410156 301.183594 399.28125 300.714844 C 399.148438 300.246094 398.996094 299.785156 398.820312 299.332031 C 398.644531 298.878906 398.445312 298.4375 398.222656 298.003906 C 398.003906 297.570312 397.761719 297.148438 397.496094 296.738281 C 397.234375 296.332031 396.953125 295.933594 396.648438 295.554688 C 396.347656 295.171875 396.027344 294.808594 395.6875 294.460938 C 395.347656 294.109375 394.992188 293.78125 394.621094 293.46875 C 394.25 293.152344 393.863281 292.859375 393.460938 292.585938 C 393.058594 292.3125 392.644531 292.058594 392.21875 291.824219 C 391.789062 291.589844 391.351562 291.378906 390.90625 291.191406 C 390.457031 291 390 290.835938 389.535156 290.691406 C 389.070312 290.546875 388.601562 290.425781 388.125 290.332031 C 387.648438 290.234375 387.167969 290.160156 386.683594 290.113281 C 386.199219 290.0625 385.714844 290.039062 385.226562 290.039062 C 384.742188 290.039062 384.257812 290.0625 383.773438 290.113281 C 383.289062 290.160156 382.808594 290.234375 382.332031 290.332031 C 381.855469 290.425781 381.382812 290.546875 380.917969 290.691406 C 380.453125 290.835938 380 291 379.550781 291.191406 C 379.101562 291.378906 378.664062 291.589844 378.238281 291.824219 C 377.8125 292.058594 377.398438 292.3125 376.996094 292.585938 C 376.59375 292.859375 376.207031 293.152344 375.835938 293.46875 C 375.464844 293.78125 375.109375 294.109375 374.769531 294.460938 C 374.429688 294.808594 374.109375 295.171875 373.804688 295.554688 C 373.503906 295.933594 373.222656 296.332031 372.957031 296.738281 C 372.695312 297.148438 372.453125 297.570312 372.234375 298.003906 C 372.011719 298.4375 371.8125 298.878906 371.636719 299.332031 C 371.460938 299.785156 371.308594 300.246094 371.175781 300.714844 C 371.046875 301.183594 370.9375 301.65625 370.855469 302.136719 C 370.773438 302.617188 370.714844 303.097656 370.679688 303.582031 C 370.644531 304.070312 370.632812 304.554688 370.648438 305.039062 L 370.648438 309.328125 L 364.066406 309.398438 C 363.089844 309.402344 362.132812 309.542969 361.199219 309.824219 C 360.261719 310.101562 359.382812 310.507812 358.566406 311.039062 C 357.746094 311.570312 357.015625 312.203125 356.378906 312.945312 C 355.742188 313.683594 355.222656 314.5 354.820312 315.386719 L 331.925781 315.386719 C 331.078125 315.390625 330.230469 315.429688 329.390625 315.515625 C 328.546875 315.597656 327.710938 315.722656 326.878906 315.890625 C 326.046875 316.054688 325.226562 316.261719 324.417969 316.507812 C 323.605469 316.753906 322.8125 317.039062 322.027344 317.363281 C 321.246094 317.6875 320.480469 318.050781 319.734375 318.449219 C 318.988281 318.847656 318.261719 319.285156 317.558594 319.753906 C 316.855469 320.226562 316.175781 320.730469 315.519531 321.265625 C 314.867188 321.804688 314.238281 322.371094 313.640625 322.972656 C 313.039062 323.570312 312.472656 324.195312 311.933594 324.851562 C 311.398438 325.507812 310.894531 326.1875 310.421875 326.890625 C 309.953125 327.59375 309.515625 328.320312 309.117188 329.066406 C 308.71875 329.8125 308.355469 330.578125 308.03125 331.359375 C 307.707031 332.144531 307.421875 332.9375 307.175781 333.75 C 306.929688 334.558594 306.722656 335.378906 306.558594 336.210938 C 306.390625 337.042969 306.265625 337.878906 306.183594 338.722656 C 306.097656 339.5625 306.058594 340.410156 306.054688 341.253906 L 306.054688 494.699219 C 306.058594 495.542969 306.097656 496.390625 306.183594 497.234375 C 306.265625 498.074219 306.390625 498.914062 306.558594 499.742188 C 306.722656 500.574219 306.929688 501.394531 307.175781 502.203125 C 307.421875 503.015625 307.707031 503.8125 308.03125 504.59375 C 308.355469 505.375 308.71875 506.140625 309.117188 506.886719 C 309.515625 507.632812 309.953125 508.359375 310.421875 509.0625 C 310.894531 509.769531 311.398438 510.445312 311.933594 511.101562 C 312.472656 511.757812 313.039062 512.382812 313.640625 512.980469 C 314.238281 513.582031 314.867188 514.148438 315.519531 514.6875 C 316.175781 515.222656 316.855469 515.726562 317.558594 516.199219 C 318.261719 516.667969 318.988281 517.105469 319.734375 517.503906 C 320.480469 517.902344 321.246094 518.265625 322.027344 518.589844 C 322.8125 518.914062 323.605469 519.199219 324.417969 519.445312 C 325.226562 519.691406 326.046875 519.898438 326.878906 520.066406 C 327.710938 520.230469 328.546875 520.355469 329.390625 520.4375 C 330.230469 520.523438 331.078125 520.566406 331.925781 520.566406 L 438.542969 520.566406 C 439.390625 520.566406 440.234375 520.523438 441.078125 520.4375 C 441.921875 520.355469 442.757812 520.230469 443.589844 520.066406 C 444.417969 519.898438 445.238281 519.691406 446.050781 519.445312 C 446.859375 519.199219 447.65625 518.914062 448.4375 518.589844 C 449.222656 518.265625 449.984375 517.902344 450.734375 517.503906 C 451.480469 517.105469 452.207031 516.667969 452.910156 516.199219 C 453.613281 515.726562 454.292969 515.222656 454.949219 514.6875 C 455.601562 514.148438 456.230469 513.582031 456.828125 512.980469 C 457.425781 512.382812 457.996094 511.757812 458.53125 511.101562 C 459.070312 510.445312 459.574219 509.769531 460.042969 509.0625 C 460.515625 508.359375 460.949219 507.632812 461.351562 506.886719 C 461.75 506.140625 462.113281 505.375 462.4375 504.59375 C 462.761719 503.8125 463.046875 503.015625 463.292969 502.203125 C 463.539062 501.394531 463.746094 500.574219 463.910156 499.742188 C 464.078125 498.914062 464.199219 498.074219 464.285156 497.234375 C 464.367188 496.390625 464.410156 495.542969 464.410156 494.699219 L 464.410156 341.253906 C 464.410156 340.410156 464.367188 339.5625 464.285156 338.722656 C 464.199219 337.878906 464.078125 337.042969 463.910156 336.210938 C 463.746094 335.378906 463.539062 334.558594 463.292969 333.75 C 463.046875 332.9375 462.761719 332.144531 462.4375 331.359375 C 462.113281 330.578125 461.75 329.8125 461.351562 329.066406 C 460.949219 328.320312 460.515625 327.59375 460.042969 326.890625 C 459.574219 326.1875 459.070312 325.507812 458.53125 324.851562 C 457.996094 324.195312 457.425781 323.570312 456.828125 322.972656 C 456.230469 322.371094 455.601562 321.804688 454.949219 321.265625 C 454.292969 320.730469 453.613281 320.226562 452.910156 319.753906 C 452.207031 319.285156 451.480469 318.847656 450.734375 318.449219 C 449.984375 318.050781 449.222656 317.6875 448.4375 317.363281 C 447.65625 317.039062 446.859375 316.753906 446.050781 316.507812 C 445.238281 316.261719 444.417969 316.054688 443.589844 315.890625 C 442.757812 315.722656 441.921875 315.597656 441.078125 315.515625 C 440.234375 315.429688 439.390625 315.390625 438.542969 315.386719 Z M 456.078125 494.699219 C 456.074219 495.273438 456.046875 495.84375 455.992188 496.414062 C 455.933594 496.988281 455.847656 497.554688 455.734375 498.117188 C 455.625 498.679688 455.484375 499.234375 455.316406 499.785156 C 455.148438 500.335938 454.957031 500.875 454.734375 501.402344 C 454.515625 501.933594 454.269531 502.453125 454 502.957031 C 453.730469 503.464844 453.433594 503.957031 453.113281 504.433594 C 452.796875 504.910156 452.453125 505.371094 452.089844 505.8125 C 451.726562 506.257812 451.339844 506.683594 450.933594 507.089844 C 450.527344 507.496094 450.105469 507.878906 449.660156 508.242188 C 449.214844 508.609375 448.757812 508.949219 448.277344 509.269531 C 447.800781 509.589844 447.308594 509.882812 446.804688 510.152344 C 446.296875 510.425781 445.78125 510.671875 445.25 510.890625 C 444.71875 511.109375 444.179688 511.304688 443.628906 511.472656 C 443.082031 511.636719 442.527344 511.777344 441.960938 511.890625 C 441.398438 512.003906 440.832031 512.085938 440.261719 512.144531 C 439.691406 512.203125 439.117188 512.230469 438.542969 512.230469 L 331.925781 512.230469 C 331.347656 512.230469 330.773438 512.207031 330.203125 512.148438 C 329.628906 512.09375 329.0625 512.011719 328.496094 511.898438 C 327.933594 511.789062 327.375 511.652344 326.824219 511.484375 C 326.273438 511.320312 325.734375 511.125 325.203125 510.90625 C 324.667969 510.6875 324.148438 510.441406 323.640625 510.171875 C 323.136719 509.902344 322.640625 509.609375 322.164062 509.289062 C 321.683594 508.96875 321.222656 508.628906 320.777344 508.265625 C 320.332031 507.898438 319.90625 507.515625 319.5 507.109375 C 319.089844 506.703125 318.707031 506.277344 318.339844 505.832031 C 317.972656 505.390625 317.632812 504.929688 317.3125 504.449219 C 316.992188 503.972656 316.695312 503.480469 316.425781 502.972656 C 316.152344 502.464844 315.90625 501.949219 315.6875 501.417969 C 315.464844 500.886719 315.269531 500.34375 315.105469 499.792969 C 314.9375 499.246094 314.796875 498.6875 314.683594 498.125 C 314.570312 497.558594 314.484375 496.992188 314.429688 496.417969 C 314.371094 495.847656 314.34375 495.273438 314.34375 494.699219 L 314.34375 341.253906 C 314.34375 340.679688 314.371094 340.105469 314.429688 339.535156 C 314.484375 338.960938 314.570312 338.394531 314.683594 337.832031 C 314.796875 337.265625 314.9375 336.710938 315.105469 336.160156 C 315.269531 335.609375 315.464844 335.066406 315.6875 334.535156 C 315.90625 334.003906 316.152344 333.488281 316.425781 332.980469 C 316.695312 332.472656 316.992188 331.980469 317.3125 331.503906 C 317.632812 331.023438 317.972656 330.5625 318.339844 330.121094 C 318.707031 329.675781 319.089844 329.25 319.5 328.84375 C 319.90625 328.4375 320.332031 328.054688 320.777344 327.6875 C 321.222656 327.324219 321.683594 326.984375 322.164062 326.664062 C 322.640625 326.347656 323.136719 326.050781 323.640625 325.78125 C 324.148438 325.511719 324.667969 325.265625 325.203125 325.046875 C 325.734375 324.828125 326.273438 324.636719 326.824219 324.46875 C 327.375 324.304688 327.933594 324.164062 328.496094 324.054688 C 329.0625 323.941406 329.628906 323.859375 330.203125 323.804688 C 330.773438 323.75 331.347656 323.722656 331.925781 323.722656 L 354.15625 323.722656 C 354.699219 327.695312 355.957031 331.421875 357.933594 334.910156 L 335.238281 334.910156 C 334.558594 334.910156 333.882812 334.976562 333.21875 335.109375 C 332.550781 335.242188 331.902344 335.4375 331.273438 335.699219 C 330.644531 335.957031 330.046875 336.277344 329.480469 336.65625 C 328.914062 337.035156 328.390625 337.460938 327.910156 337.945312 C 327.429688 338.425781 327 338.949219 326.621094 339.511719 C 326.242188 340.078125 325.921875 340.675781 325.660156 341.304688 C 325.398438 341.933594 325.203125 342.582031 325.070312 343.246094 C 324.9375 343.914062 324.867188 344.589844 324.867188 345.269531 L 324.867188 490.023438 C 324.867188 490.703125 324.9375 491.375 325.070312 492.042969 C 325.203125 492.710938 325.398438 493.359375 325.660156 493.988281 C 325.921875 494.617188 326.242188 495.214844 326.621094 495.78125 C 326.996094 496.347656 327.425781 496.871094 327.910156 497.351562 C 328.390625 497.832031 328.914062 498.261719 329.480469 498.640625 C 330.046875 499.019531 330.644531 499.339844 331.273438 499.601562 C 331.902344 499.859375 332.546875 500.058594 333.214844 500.191406 C 333.882812 500.324219 334.558594 500.390625 335.238281 500.390625 L 435.230469 500.390625 C 435.910156 500.390625 436.582031 500.324219 437.25 500.191406 C 437.917969 500.058594 438.566406 499.859375 439.195312 499.601562 C 439.824219 499.339844 440.421875 499.019531 440.988281 498.640625 C 441.554688 498.261719 442.078125 497.832031 442.558594 497.351562 C 443.039062 496.871094 443.46875 496.347656 443.847656 495.78125 C 444.226562 495.214844 444.546875 494.617188 444.808594 493.988281 C 445.066406 493.359375 445.265625 492.710938 445.398438 492.042969 C 445.53125 491.375 445.597656 490.703125 445.601562 490.023438 L 445.601562 345.269531 C 445.597656 344.589844 445.53125 343.914062 445.398438 343.246094 C 445.265625 342.582031 445.066406 341.933594 444.808594 341.304688 C 444.546875 340.675781 444.226562 340.078125 443.847656 339.511719 C 443.46875 338.949219 443.039062 338.425781 442.558594 337.945312 C 442.078125 337.460938 441.554688 337.035156 440.988281 336.65625 C 440.421875 336.277344 439.824219 335.957031 439.195312 335.699219 C 438.566406 335.4375 437.917969 335.242188 437.25 335.109375 C 436.582031 334.976562 435.910156 334.910156 435.230469 334.910156 L 412.535156 334.910156 C 414.511719 331.425781 415.765625 327.695312 416.296875 323.722656 L 438.542969 323.722656 C 439.117188 323.722656 439.691406 323.753906 440.261719 323.808594 C 440.832031 323.867188 441.398438 323.949219 441.960938 324.0625 C 442.527344 324.175781 443.082031 324.316406 443.628906 324.484375 C 444.179688 324.648438 444.71875 324.84375 445.25 325.0625 C 445.78125 325.285156 446.296875 325.527344 446.804688 325.800781 C 447.308594 326.070312 447.800781 326.367188 448.277344 326.683594 C 448.757812 327.003906 449.214844 327.34375 449.660156 327.710938 C 450.105469 328.074219 450.527344 328.457031 450.933594 328.863281 C 451.339844 329.269531 451.726562 329.695312 452.089844 330.140625 C 452.453125 330.582031 452.796875 331.042969 453.113281 331.519531 C 453.433594 331.996094 453.730469 332.488281 454 332.996094 C 454.269531 333.5 454.515625 334.019531 454.734375 334.550781 C 454.957031 335.078125 455.148438 335.621094 455.316406 336.167969 C 455.484375 336.71875 455.625 337.273438 455.734375 337.835938 C 455.847656 338.398438 455.933594 338.964844 455.992188 339.539062 C 456.046875 340.109375 456.074219 340.683594 456.078125 341.253906 Z M 364.066406 317.683594 L 370.578125 317.683594 C 371.128906 317.683594 371.675781 317.632812 372.21875 317.523438 C 372.757812 317.414062 373.285156 317.257812 373.792969 317.042969 C 374.304688 316.832031 374.789062 316.574219 375.246094 316.269531 C 375.707031 315.960938 376.128906 315.613281 376.519531 315.222656 C 376.910156 314.832031 377.257812 314.40625 377.566406 313.949219 C 377.871094 313.488281 378.132812 313.003906 378.34375 312.496094 C 378.554688 311.984375 378.714844 311.460938 378.820312 310.917969 C 378.929688 310.378906 378.984375 309.832031 378.984375 309.277344 L 378.984375 305.039062 C 378.984375 304.628906 379.023438 304.222656 379.101562 303.820312 C 379.183594 303.417969 379.300781 303.027344 379.457031 302.648438 C 379.617188 302.269531 379.808594 301.910156 380.035156 301.566406 C 380.265625 301.226562 380.523438 300.910156 380.8125 300.621094 C 381.105469 300.332031 381.417969 300.070312 381.761719 299.84375 C 382.101562 299.617188 382.460938 299.421875 382.839844 299.265625 C 383.222656 299.109375 383.613281 298.992188 384.015625 298.910156 C 384.417969 298.832031 384.824219 298.789062 385.234375 298.789062 C 385.644531 298.789062 386.050781 298.832031 386.453125 298.910156 C 386.855469 298.992188 387.246094 299.109375 387.625 299.265625 C 388.003906 299.421875 388.367188 299.617188 388.707031 299.84375 C 389.046875 300.070312 389.363281 300.332031 389.652344 300.621094 C 389.945312 300.910156 390.203125 301.226562 390.429688 301.566406 C 390.660156 301.910156 390.851562 302.269531 391.007812 302.648438 C 391.164062 303.027344 391.285156 303.417969 391.363281 303.820312 C 391.445312 304.222656 391.484375 304.628906 391.484375 305.039062 L 391.484375 309.328125 C 391.488281 309.875 391.542969 310.417969 391.652344 310.957031 C 391.765625 311.496094 391.925781 312.019531 392.136719 312.527344 C 392.347656 313.03125 392.609375 313.515625 392.914062 313.96875 C 393.222656 314.425781 393.570312 314.847656 393.960938 315.234375 C 394.347656 315.625 394.773438 315.96875 395.230469 316.273438 C 395.6875 316.578125 396.167969 316.835938 396.675781 317.046875 C 397.183594 317.257812 397.707031 317.414062 398.246094 317.523438 C 398.785156 317.628906 399.328125 317.683594 399.878906 317.683594 L 406.425781 317.683594 C 406.667969 317.683594 406.898438 317.730469 407.121094 317.824219 C 407.347656 317.917969 407.542969 318.046875 407.714844 318.21875 C 407.886719 318.390625 408.015625 318.585938 408.109375 318.808594 C 408.203125 319.035156 408.25 319.265625 408.25 319.507812 C 408.25 320.261719 408.214844 321.011719 408.140625 321.761719 C 408.070312 322.511719 407.960938 323.257812 407.8125 323.996094 C 407.667969 324.738281 407.488281 325.46875 407.269531 326.1875 C 407.050781 326.910156 406.800781 327.621094 406.511719 328.316406 C 406.226562 329.011719 405.90625 329.695312 405.550781 330.359375 C 405.195312 331.023438 404.8125 331.671875 404.394531 332.296875 C 403.976562 332.925781 403.527344 333.53125 403.050781 334.113281 C 402.574219 334.699219 402.070312 335.257812 401.539062 335.789062 C 401.007812 336.324219 400.449219 336.832031 399.867188 337.308594 C 399.285156 337.789062 398.683594 338.238281 398.058594 338.660156 C 397.429688 339.078125 396.785156 339.464844 396.121094 339.824219 C 395.457031 340.179688 394.777344 340.503906 394.082031 340.792969 C 393.386719 341.082031 392.679688 341.335938 391.957031 341.558594 C 391.238281 341.777344 390.507812 341.960938 389.769531 342.109375 C 389.03125 342.257812 388.285156 342.371094 387.535156 342.445312 C 386.785156 342.523438 386.035156 342.558594 385.28125 342.5625 C 384.527344 342.5625 383.777344 342.527344 383.027344 342.457031 C 382.277344 342.382812 381.53125 342.273438 380.792969 342.128906 C 380.050781 341.984375 379.320312 341.800781 378.601562 341.585938 C 377.878906 341.367188 377.167969 341.117188 376.472656 340.828125 C 375.773438 340.542969 375.09375 340.222656 374.429688 339.867188 C 373.761719 339.515625 373.117188 339.128906 372.488281 338.710938 C 371.863281 338.292969 371.257812 337.847656 370.671875 337.371094 C 370.089844 336.894531 369.53125 336.390625 368.996094 335.855469 C 368.460938 335.324219 367.957031 334.769531 367.476562 334.1875 C 366.996094 333.605469 366.546875 333.003906 366.128906 332.378906 C 365.707031 331.75 365.320312 331.105469 364.960938 330.441406 C 364.605469 329.777344 364.28125 329.097656 363.992188 328.402344 C 363.703125 327.707031 363.445312 327 363.226562 326.28125 C 363.003906 325.558594 362.820312 324.828125 362.671875 324.089844 C 362.523438 323.351562 362.410156 322.609375 362.335938 321.859375 C 362.261719 321.109375 362.222656 320.355469 362.21875 319.601562 C 362.214844 319.351562 362.253906 319.109375 362.34375 318.878906 C 362.4375 318.644531 362.566406 318.4375 362.742188 318.257812 C 362.914062 318.078125 363.117188 317.9375 363.347656 317.839844 C 363.574219 317.738281 363.816406 317.6875 364.066406 317.683594 Z M 405.726562 343.234375 L 435.230469 343.234375 C 435.5 343.234375 435.757812 343.285156 436.007812 343.386719 C 436.257812 343.492188 436.476562 343.636719 436.667969 343.828125 C 436.859375 344.019531 437.007812 344.242188 437.109375 344.488281 C 437.214844 344.738281 437.265625 345 437.265625 345.269531 L 437.265625 490.023438 C 437.265625 490.292969 437.214844 490.550781 437.109375 490.800781 C 437.007812 491.050781 436.859375 491.269531 436.667969 491.460938 C 436.476562 491.652344 436.257812 491.800781 436.007812 491.902344 C 435.757812 492.007812 435.5 492.058594 435.230469 492.058594 L 335.238281 492.058594 C 334.96875 492.058594 334.707031 492.007812 334.460938 491.902344 C 334.210938 491.800781 333.988281 491.652344 333.800781 491.460938 C 333.609375 491.269531 333.460938 491.050781 333.359375 490.800781 C 333.253906 490.550781 333.203125 490.292969 333.203125 490.023438 L 333.203125 345.269531 C 333.203125 345 333.253906 344.738281 333.359375 344.488281 C 333.460938 344.242188 333.609375 344.019531 333.800781 343.828125 C 333.988281 343.636719 334.210938 343.492188 334.460938 343.386719 C 334.707031 343.285156 334.96875 343.234375 335.238281 343.234375 L 364.730469 343.234375 C 365.433594 343.84375 366.160156 344.425781 366.917969 344.972656 C 367.671875 345.519531 368.449219 346.03125 369.25 346.507812 C 370.050781 346.984375 370.871094 347.425781 371.714844 347.828125 C 372.554688 348.234375 373.410156 348.597656 374.285156 348.925781 C 375.15625 349.25 376.042969 349.539062 376.941406 349.785156 C 377.839844 350.035156 378.75 350.242188 379.667969 350.40625 C 380.585938 350.574219 381.507812 350.695312 382.4375 350.78125 C 383.363281 350.863281 384.296875 350.90625 385.226562 350.90625 C 386.160156 350.90625 387.089844 350.863281 388.019531 350.78125 C 388.949219 350.695312 389.871094 350.574219 390.789062 350.40625 C 391.707031 350.242188 392.613281 350.035156 393.511719 349.785156 C 394.414062 349.539062 395.296875 349.25 396.171875 348.925781 C 397.046875 348.597656 397.902344 348.234375 398.742188 347.828125 C 399.582031 347.425781 400.402344 346.984375 401.203125 346.507812 C 402.003906 346.03125 402.785156 345.519531 403.539062 344.972656 C 404.292969 344.425781 405.023438 343.84375 405.726562 343.234375 Z M 405.726562 343.234375 " fill-opacity="1" fill-rule="nonzero"/></g><path fill="#1685bb" d="M 389.957031 467.445312 L 348.675781 467.445312 C 348.386719 467.414062 348.09375 467.414062 347.804688 467.445312 C 347.511719 467.472656 347.226562 467.535156 346.949219 467.625 C 346.671875 467.714844 346.40625 467.832031 346.152344 467.976562 C 345.898438 468.121094 345.664062 468.292969 345.445312 468.488281 C 345.230469 468.683594 345.035156 468.898438 344.863281 469.136719 C 344.691406 469.375 344.546875 469.625 344.425781 469.890625 C 344.308594 470.160156 344.21875 470.433594 344.15625 470.722656 C 344.09375 471.007812 344.066406 471.296875 344.066406 471.589844 C 344.066406 471.882812 344.09375 472.171875 344.15625 472.457031 C 344.21875 472.742188 344.308594 473.019531 344.425781 473.285156 C 344.546875 473.550781 344.691406 473.804688 344.863281 474.039062 C 345.035156 474.277344 345.230469 474.492188 345.445312 474.6875 C 345.664062 474.882812 345.898438 475.054688 346.152344 475.199219 C 346.40625 475.347656 346.671875 475.464844 346.949219 475.554688 C 347.226562 475.644531 347.511719 475.703125 347.804688 475.734375 C 348.09375 475.765625 348.386719 475.761719 348.675781 475.730469 L 389.957031 475.730469 C 390.25 475.761719 390.539062 475.765625 390.828125 475.734375 C 391.121094 475.703125 391.40625 475.644531 391.683594 475.554688 C 391.960938 475.464844 392.226562 475.347656 392.480469 475.199219 C 392.734375 475.054688 392.96875 474.882812 393.1875 474.6875 C 393.402344 474.492188 393.597656 474.277344 393.769531 474.039062 C 393.941406 473.804688 394.089844 473.550781 394.207031 473.285156 C 394.328125 473.019531 394.417969 472.742188 394.476562 472.457031 C 394.539062 472.171875 394.566406 471.882812 394.566406 471.589844 C 394.566406 471.296875 394.539062 471.007812 394.476562 470.722656 C 394.417969 470.433594 394.328125 470.160156 394.207031 469.890625 C 394.089844 469.625 393.941406 469.375 393.769531 469.136719 C 393.597656 468.898438 393.402344 468.683594 393.1875 468.488281 C 392.96875 468.292969 392.734375 468.121094 392.480469 467.976562 C 392.226562 467.832031 391.960938 467.714844 391.683594 467.625 C 391.40625 467.535156 391.121094 467.472656 390.828125 467.445312 C 390.539062 467.414062 390.25 467.414062 389.957031 467.445312 Z M 389.957031 467.445312 " fill-opacity="1" fill-rule="nonzero"/><path fill="#1685bb" d="M 374.082031 330.8125 L 396.386719 330.8125 C 396.675781 330.84375 396.96875 330.84375 397.257812 330.816406 C 397.550781 330.785156 397.832031 330.726562 398.113281 330.636719 C 398.390625 330.546875 398.65625 330.425781 398.910156 330.28125 C 399.164062 330.136719 399.398438 329.964844 399.613281 329.769531 C 399.832031 329.574219 400.027344 329.359375 400.199219 329.121094 C 400.371094 328.886719 400.515625 328.632812 400.636719 328.367188 C 400.753906 328.101562 400.84375 327.824219 400.90625 327.539062 C 400.964844 327.25 400.996094 326.960938 400.996094 326.671875 C 400.996094 326.378906 400.964844 326.089844 400.90625 325.804688 C 400.84375 325.515625 400.753906 325.242188 400.636719 324.972656 C 400.515625 324.707031 400.371094 324.453125 400.199219 324.21875 C 400.027344 323.980469 399.832031 323.765625 399.613281 323.570312 C 399.398438 323.375 399.164062 323.203125 398.910156 323.058594 C 398.65625 322.914062 398.390625 322.796875 398.113281 322.707031 C 397.832031 322.617188 397.550781 322.554688 397.257812 322.523438 C 396.96875 322.496094 396.675781 322.496094 396.386719 322.527344 L 374.082031 322.527344 C 373.792969 322.496094 373.5 322.496094 373.210938 322.523438 C 372.917969 322.554688 372.632812 322.617188 372.355469 322.707031 C 372.078125 322.796875 371.8125 322.914062 371.558594 323.058594 C 371.304688 323.203125 371.070312 323.375 370.851562 323.570312 C 370.636719 323.765625 370.441406 323.980469 370.269531 324.21875 C 370.097656 324.453125 369.949219 324.707031 369.832031 324.972656 C 369.714844 325.242188 369.621094 325.515625 369.5625 325.804688 C 369.5 326.089844 369.472656 326.378906 369.472656 326.671875 C 369.472656 326.960938 369.5 327.25 369.5625 327.539062 C 369.621094 327.824219 369.714844 328.101562 369.832031 328.367188 C 369.949219 328.632812 370.097656 328.886719 370.269531 329.121094 C 370.441406 329.359375 370.636719 329.574219 370.851562 329.769531 C 371.070312 329.964844 371.304688 330.136719 371.558594 330.28125 C 371.8125 330.425781 372.078125 330.546875 372.355469 330.636719 C 372.632812 330.726562 372.917969 330.785156 373.210938 330.816406 C 373.5 330.84375 373.792969 330.84375 374.082031 330.8125 Z M 374.082031 330.8125 " fill-opacity="1" fill-rule="nonzero"/><path fill="#1685bb" d="M 389.957031 407.292969 L 348.675781 407.292969 C 348.164062 407.347656 347.679688 407.492188 347.222656 407.726562 C 346.765625 407.960938 346.363281 408.269531 346.019531 408.652344 C 345.675781 409.03125 345.414062 409.464844 345.226562 409.945312 C 345.042969 410.425781 344.953125 410.921875 344.953125 411.4375 C 344.953125 411.949219 345.042969 412.445312 345.226562 412.925781 C 345.414062 413.40625 345.675781 413.839844 346.019531 414.222656 C 346.363281 414.605469 346.765625 414.910156 347.222656 415.144531 C 347.679688 415.378906 348.164062 415.523438 348.675781 415.578125 L 389.957031 415.578125 C 390.25 415.609375 390.539062 415.609375 390.828125 415.582031 C 391.121094 415.550781 391.40625 415.492188 391.683594 415.402344 C 391.960938 415.3125 392.226562 415.191406 392.480469 415.046875 C 392.734375 414.902344 392.96875 414.730469 393.1875 414.535156 C 393.402344 414.339844 393.597656 414.125 393.769531 413.886719 C 393.941406 413.652344 394.089844 413.398438 394.207031 413.132812 C 394.328125 412.867188 394.417969 412.589844 394.476562 412.304688 C 394.539062 412.015625 394.566406 411.726562 394.566406 411.4375 C 394.566406 411.144531 394.539062 410.855469 394.476562 410.570312 C 394.417969 410.28125 394.328125 410.007812 394.207031 409.738281 C 394.089844 409.472656 393.941406 409.21875 393.769531 408.984375 C 393.597656 408.746094 393.402344 408.53125 393.1875 408.335938 C 392.96875 408.140625 392.734375 407.96875 392.480469 407.824219 C 392.226562 407.679688 391.960938 407.5625 391.683594 407.46875 C 391.40625 407.378906 391.121094 407.320312 390.828125 407.289062 C 390.539062 407.261719 390.25 407.261719 389.957031 407.292969 Z M 389.957031 407.292969 " fill-opacity="1" fill-rule="nonzero"/><path fill="#1685bb" d="M 344.507812 371.351562 C 344.507812 371.625 344.535156 371.894531 344.589844 372.160156 C 344.644531 372.429688 344.722656 372.691406 344.828125 372.941406 C 344.933594 373.195312 345.0625 373.433594 345.214844 373.664062 C 345.367188 373.890625 345.539062 374.101562 345.734375 374.292969 C 345.925781 374.488281 346.136719 374.660156 346.363281 374.8125 C 346.589844 374.964844 346.832031 375.089844 347.082031 375.195312 C 347.335938 375.300781 347.59375 375.382812 347.863281 375.433594 C 348.132812 375.488281 348.402344 375.515625 348.675781 375.515625 L 389.957031 375.515625 C 390.46875 375.460938 390.953125 375.316406 391.410156 375.082031 C 391.867188 374.851562 392.269531 374.542969 392.613281 374.160156 C 392.957031 373.777344 393.222656 373.34375 393.40625 372.863281 C 393.589844 372.386719 393.679688 371.886719 393.679688 371.375 C 393.679688 370.859375 393.589844 370.363281 393.40625 369.882812 C 393.222656 369.402344 392.957031 368.96875 392.613281 368.589844 C 392.269531 368.207031 391.867188 367.898438 391.410156 367.664062 C 390.953125 367.429688 390.46875 367.285156 389.957031 367.230469 L 348.675781 367.230469 C 348.40625 367.230469 348.136719 367.257812 347.871094 367.3125 C 347.601562 367.363281 347.34375 367.441406 347.09375 367.546875 C 346.84375 367.648438 346.605469 367.777344 346.378906 367.925781 C 346.152344 368.074219 345.941406 368.246094 345.75 368.4375 C 345.554688 368.628906 345.382812 368.835938 345.230469 369.058594 C 345.078125 369.285156 344.949219 369.523438 344.84375 369.769531 C 344.734375 370.019531 344.65625 370.277344 344.597656 370.542969 C 344.542969 370.808594 344.511719 371.078125 344.507812 371.351562 Z M 344.507812 371.351562 " fill-opacity="1" fill-rule="nonzero"/><path fill="#1685bb" d="M 389.957031 447.390625 L 348.675781 447.390625 C 348.164062 447.445312 347.679688 447.589844 347.222656 447.824219 C 346.765625 448.058594 346.363281 448.367188 346.019531 448.75 C 345.675781 449.128906 345.414062 449.5625 345.226562 450.042969 C 345.042969 450.523438 344.953125 451.019531 344.953125 451.535156 C 344.953125 452.046875 345.042969 452.546875 345.226562 453.023438 C 345.414062 453.503906 345.675781 453.9375 346.019531 454.320312 C 346.363281 454.703125 346.765625 455.011719 347.222656 455.242188 C 347.679688 455.476562 348.164062 455.621094 348.675781 455.675781 L 389.957031 455.675781 C 390.46875 455.621094 390.953125 455.476562 391.410156 455.242188 C 391.867188 455.011719 392.269531 454.703125 392.613281 454.320312 C 392.957031 453.9375 393.222656 453.503906 393.40625 453.023438 C 393.589844 452.546875 393.679688 452.046875 393.679688 451.535156 C 393.679688 451.019531 393.589844 450.523438 393.40625 450.042969 C 393.222656 449.5625 392.957031 449.128906 392.613281 448.75 C 392.269531 448.367188 391.867188 448.058594 391.410156 447.824219 C 390.953125 447.589844 390.46875 447.445312 389.957031 447.390625 Z M 389.957031 447.390625 " fill-opacity="1" fill-rule="nonzero"/><path fill="#1685bb" d="M 389.957031 387.238281 L 348.675781 387.238281 C 348.164062 387.292969 347.679688 387.4375 347.222656 387.671875 C 346.765625 387.90625 346.363281 388.214844 346.019531 388.59375 C 345.675781 388.976562 345.414062 389.410156 345.226562 389.890625 C 345.042969 390.371094 344.953125 390.867188 344.953125 391.382812 C 344.953125 391.894531 345.042969 392.390625 345.226562 392.871094 C 345.414062 393.351562 345.675781 393.785156 346.019531 394.167969 C 346.363281 394.550781 346.765625 394.855469 347.222656 395.089844 C 347.679688 395.324219 348.164062 395.46875 348.675781 395.523438 L 389.957031 395.523438 C 390.46875 395.46875 390.953125 395.324219 391.410156 395.089844 C 391.867188 394.855469 392.269531 394.550781 392.613281 394.167969 C 392.957031 393.785156 393.222656 393.351562 393.40625 392.871094 C 393.589844 392.390625 393.679688 391.894531 393.679688 391.382812 C 393.679688 390.867188 393.589844 390.371094 393.40625 389.890625 C 393.222656 389.410156 392.957031 388.976562 392.613281 388.59375 C 392.269531 388.214844 391.867188 387.90625 391.410156 387.671875 C 390.953125 387.4375 390.46875 387.292969 389.957031 387.238281 Z M 389.957031 387.238281 " fill-opacity="1" fill-rule="nonzero"/><path fill="#1685bb" d="M 389.957031 427.335938 L 348.675781 427.335938 C 348.164062 427.390625 347.679688 427.535156 347.222656 427.769531 C 346.765625 428.003906 346.363281 428.3125 346.019531 428.695312 C 345.675781 429.074219 345.414062 429.507812 345.226562 429.988281 C 345.042969 430.46875 344.953125 430.964844 344.953125 431.480469 C 344.953125 431.992188 345.042969 432.492188 345.226562 432.96875 C 345.414062 433.449219 345.675781 433.882812 346.019531 434.265625 C 346.363281 434.648438 346.765625 434.953125 347.222656 435.1875 C 347.679688 435.421875 348.164062 435.566406 348.675781 435.621094 L 389.957031 435.621094 C 390.46875 435.566406 390.953125 435.421875 391.410156 435.1875 C 391.867188 434.953125 392.269531 434.648438 392.613281 434.265625 C 392.957031 433.882812 393.222656 433.449219 393.40625 432.96875 C 393.589844 432.492188 393.679688 431.992188 393.679688 431.480469 C 393.679688 430.964844 393.589844 430.46875 393.40625 429.988281 C 393.222656 429.507812 392.957031 429.074219 392.613281 428.695312 C 392.269531 428.3125 391.867188 428.003906 391.410156 427.769531 C 390.953125 427.535156 390.46875 427.390625 389.957031 427.335938 Z M 389.957031 427.335938 " fill-opacity="1" fill-rule="nonzero"/><path fill="#1685bb" d="M 407.644531 471.730469 C 408.015625 472.363281 408.515625 472.867188 409.148438 473.238281 C 409.78125 473.613281 410.460938 473.808594 411.195312 473.824219 C 411.898438 473.828125 412.558594 473.660156 413.175781 473.324219 C 413.792969 472.992188 414.292969 472.53125 414.675781 471.945312 L 429.179688 449.949219 C 429.324219 449.71875 429.449219 449.476562 429.546875 449.226562 C 429.644531 448.972656 429.71875 448.714844 429.765625 448.445312 C 429.816406 448.179688 429.835938 447.910156 429.832031 447.640625 C 429.828125 447.371094 429.796875 447.101562 429.742188 446.835938 C 429.683594 446.570312 429.601562 446.3125 429.496094 446.066406 C 429.390625 445.816406 429.257812 445.578125 429.105469 445.355469 C 428.953125 445.132812 428.78125 444.925781 428.585938 444.734375 C 428.394531 444.542969 428.183594 444.375 427.957031 444.226562 C 427.730469 444.078125 427.492188 443.949219 427.242188 443.847656 C 426.988281 443.746094 426.730469 443.667969 426.464844 443.617188 C 426.199219 443.566406 425.929688 443.539062 425.660156 443.539062 C 425.386719 443.539062 425.121094 443.566406 424.855469 443.621094 C 424.585938 443.671875 424.328125 443.75 424.078125 443.855469 C 423.828125 443.957031 423.589844 444.082031 423.363281 444.234375 C 423.136719 444.382812 422.929688 444.554688 422.734375 444.742188 C 422.542969 444.933594 422.371094 445.140625 422.21875 445.367188 L 411.457031 461.714844 L 407.300781 454.492188 C 406.933594 453.855469 406.433594 453.351562 405.800781 452.980469 C 405.167969 452.609375 404.484375 452.417969 403.75 452.410156 C 403.011719 452.410156 402.320312 452.59375 401.679688 452.953125 C 401.441406 453.089844 401.21875 453.25 401.011719 453.429688 C 400.804688 453.609375 400.617188 453.808594 400.449219 454.023438 C 400.285156 454.242188 400.140625 454.472656 400.015625 454.71875 C 399.894531 454.964844 399.800781 455.21875 399.726562 455.484375 C 399.65625 455.746094 399.609375 456.015625 399.59375 456.289062 C 399.574219 456.5625 399.582031 456.835938 399.617188 457.105469 C 399.652344 457.378906 399.714844 457.644531 399.800781 457.902344 C 399.890625 458.164062 400.003906 458.410156 400.140625 458.648438 Z M 407.644531 471.730469 " fill-opacity="1" fill-rule="nonzero"/><path fill="#1685bb" d="M 407.644531 395.429688 C 408.015625 396.0625 408.515625 396.566406 409.148438 396.9375 C 409.78125 397.308594 410.464844 397.5 411.195312 397.511719 C 411.898438 397.515625 412.554688 397.351562 413.175781 397.019531 C 413.792969 396.6875 414.292969 396.230469 414.675781 395.644531 L 429.179688 373.648438 C 429.328125 373.417969 429.457031 373.175781 429.558594 372.921875 C 429.660156 372.667969 429.738281 372.410156 429.789062 372.140625 C 429.84375 371.871094 429.867188 371.601562 429.863281 371.324219 C 429.863281 371.050781 429.835938 370.78125 429.78125 370.511719 C 429.726562 370.246094 429.644531 369.984375 429.539062 369.734375 C 429.433594 369.480469 429.304688 369.242188 429.148438 369.015625 C 428.996094 368.789062 428.824219 368.578125 428.628906 368.386719 C 428.433594 368.191406 428.222656 368.019531 427.996094 367.871094 C 427.765625 367.71875 427.527344 367.589844 427.273438 367.488281 C 427.019531 367.382812 426.761719 367.308594 426.492188 367.253906 C 426.222656 367.203125 425.953125 367.179688 425.679688 367.179688 C 425.40625 367.179688 425.132812 367.210938 424.867188 367.265625 C 424.597656 367.320312 424.339844 367.398438 424.085938 367.507812 C 423.835938 367.613281 423.597656 367.742188 423.371094 367.894531 C 423.144531 368.050781 422.933594 368.222656 422.742188 368.417969 C 422.550781 368.613281 422.378906 368.824219 422.230469 369.054688 L 411.503906 385.414062 L 407.347656 378.191406 C 406.984375 377.550781 406.484375 377.046875 405.851562 376.671875 C 405.21875 376.296875 404.53125 376.105469 403.796875 376.097656 C 403.054688 376.09375 402.367188 376.28125 401.726562 376.652344 C 401.488281 376.789062 401.265625 376.945312 401.058594 377.125 C 400.851562 377.304688 400.667969 377.503906 400.5 377.71875 C 400.332031 377.9375 400.1875 378.167969 400.066406 378.410156 C 399.945312 378.65625 399.847656 378.910156 399.777344 379.175781 C 399.703125 379.4375 399.660156 379.707031 399.640625 379.980469 C 399.621094 380.253906 399.628906 380.527344 399.664062 380.796875 C 399.699219 381.066406 399.761719 381.332031 399.851562 381.59375 C 399.9375 381.851562 400.050781 382.097656 400.1875 382.335938 Z M 407.644531 395.429688 " fill-opacity="1" fill-rule="nonzero"/><path fill="#1685bb" d="M 407.644531 433.585938 C 408.015625 434.214844 408.519531 434.714844 409.152344 435.085938 C 409.78125 435.457031 410.464844 435.652344 411.195312 435.667969 C 411.898438 435.671875 412.554688 435.507812 413.175781 435.175781 C 413.792969 434.84375 414.292969 434.386719 414.675781 433.800781 L 429.179688 411.789062 C 429.324219 411.5625 429.449219 411.320312 429.546875 411.070312 C 429.644531 410.816406 429.71875 410.558594 429.765625 410.289062 C 429.816406 410.023438 429.835938 409.753906 429.832031 409.484375 C 429.828125 409.210938 429.796875 408.945312 429.742188 408.679688 C 429.683594 408.414062 429.601562 408.15625 429.496094 407.90625 C 429.390625 407.660156 429.257812 407.421875 429.105469 407.199219 C 428.953125 406.976562 428.78125 406.769531 428.585938 406.578125 C 428.394531 406.386719 428.183594 406.21875 427.957031 406.070312 C 427.730469 405.921875 427.492188 405.792969 427.242188 405.691406 C 426.988281 405.589844 426.730469 405.511719 426.464844 405.460938 C 426.199219 405.410156 425.929688 405.382812 425.660156 405.382812 C 425.386719 405.382812 425.121094 405.410156 424.855469 405.464844 C 424.585938 405.515625 424.328125 405.59375 424.078125 405.695312 C 423.828125 405.800781 423.589844 405.925781 423.363281 406.078125 C 423.136719 406.226562 422.929688 406.394531 422.734375 406.585938 C 422.542969 406.777344 422.371094 406.984375 422.21875 407.210938 L 411.457031 423.558594 L 407.300781 416.335938 C 406.933594 415.699219 406.433594 415.195312 405.800781 414.824219 C 405.167969 414.453125 404.484375 414.261719 403.75 414.253906 C 403.003906 414.25 402.308594 414.433594 401.664062 414.804688 C 401.019531 415.175781 400.511719 415.683594 400.136719 416.328125 C 399.765625 416.972656 399.578125 417.664062 399.578125 418.410156 C 399.578125 419.15625 399.765625 419.847656 400.140625 420.492188 Z M 407.644531 433.585938 " fill-opacity="1" fill-rule="nonzero"/></svg>