<svg xmlns="http://www.w3.org/2000/svg" xmlns:xlink="http://www.w3.org/1999/xlink" width="1080" zoomAndPan="magnify" viewBox="0 0 810 809.999993" height="1080" preserveAspectRatio="xMidYMid meet" version="1.0"><defs><clipPath id="ad32baec7b"><path d="M 321.457031 309.886719 L 480.457031 309.886719 L 480.457031 535.636719 L 321.457031 535.636719 Z M 321.457031 309.886719 " clip-rule="nonzero"/></clipPath></defs><g clip-path="url(#ad32baec7b)"><path fill="#1685bb" d="M 480.660156 320.613281 C 480.660156 314.75 475.886719 309.976562 470.019531 309.976562 L 332.113281 309.976562 C 326.246094 309.976562 321.472656 314.75 321.472656 320.613281 L 321.472656 524.515625 C 321.472656 530.382812 326.246094 535.152344 332.113281 535.152344 L 437.03125 535.152344 C 437.964844 535.15625 438.878906 534.773438 439.539062 534.117188 L 479.621094 494.035156 C 480.277344 493.375 480.65625 492.460938 480.660156 491.527344 Z M 328.566406 524.515625 L 328.566406 320.613281 C 328.566406 318.660156 330.15625 317.070312 332.113281 317.070312 L 470.019531 317.070312 C 471.976562 317.070312 473.566406 318.660156 473.566406 320.613281 L 473.566406 487.980469 L 437.03125 487.980469 C 435.074219 487.980469 433.488281 489.570312 433.488281 491.527344 L 433.488281 528.0625 L 332.113281 528.0625 C 330.15625 528.0625 328.566406 526.472656 328.566406 524.515625 Z M 440.578125 523.046875 L 440.578125 495.074219 L 468.550781 495.074219 Z M 440.578125 523.046875 " fill-opacity="1" fill-rule="nonzero"/></g><path fill="#1685bb" d="M 345.8125 344.03125 L 350.488281 344.03125 L 350.488281 364.613281 C 350.488281 366.570312 352.078125 368.15625 354.035156 368.15625 C 355.996094 368.15625 357.582031 366.570312 357.582031 364.613281 L 357.582031 344.03125 L 362.261719 344.03125 C 364.21875 344.03125 365.808594 342.441406 365.808594 340.484375 C 365.808594 338.527344 364.21875 336.9375 362.261719 336.9375 L 345.8125 336.9375 C 343.851562 336.9375 342.265625 338.527344 342.265625 340.484375 C 342.265625 342.441406 343.851562 344.03125 345.8125 344.03125 Z M 345.8125 344.03125 " fill-opacity="1" fill-rule="nonzero"/><path fill="#1685bb" d="M 395.804688 364.613281 C 395.804688 362.652344 394.21875 361.066406 392.261719 361.066406 L 382.765625 361.066406 L 382.765625 356.09375 L 387.445312 356.09375 C 389.40625 356.09375 390.992188 354.507812 390.992188 352.546875 C 390.992188 350.589844 389.40625 349.003906 387.445312 349.003906 L 382.765625 349.003906 L 382.765625 344.03125 L 392.261719 344.03125 C 394.21875 344.03125 395.804688 342.441406 395.804688 340.484375 C 395.804688 338.527344 394.21875 336.9375 392.261719 336.9375 L 379.222656 336.9375 C 377.261719 336.9375 375.675781 338.527344 375.675781 340.484375 L 375.675781 364.613281 C 375.675781 366.570312 377.261719 368.15625 379.222656 368.15625 L 392.261719 368.15625 C 394.21875 368.15625 395.804688 366.570312 395.804688 364.613281 Z M 395.804688 364.613281 " fill-opacity="1" fill-rule="nonzero"/><path fill="#1685bb" d="M 441.644531 344.03125 L 446.324219 344.03125 L 446.324219 364.613281 C 446.324219 366.570312 447.910156 368.15625 449.871094 368.15625 C 451.828125 368.15625 453.417969 366.570312 453.417969 364.613281 L 453.417969 344.03125 L 458.09375 344.03125 C 460.054688 344.03125 461.640625 342.441406 461.640625 340.484375 C 461.640625 338.527344 460.054688 336.9375 458.09375 336.9375 L 441.644531 336.9375 C 439.6875 336.9375 438.097656 338.527344 438.097656 340.484375 C 438.097656 342.441406 439.6875 344.03125 441.644531 344.03125 Z M 441.644531 344.03125 " fill-opacity="1" fill-rule="nonzero"/><path fill="#1685bb" d="M 421.097656 361.066406 L 410.675781 361.066406 C 408.71875 361.066406 407.132812 362.652344 407.132812 364.613281 C 407.132812 366.570312 408.71875 368.15625 410.675781 368.15625 L 421.097656 368.15625 C 426.378906 368.15625 430.675781 363.859375 430.675781 358.582031 C 430.675781 353.300781 426.378906 349.003906 421.097656 349.003906 L 416.710938 349.003906 C 415.339844 349.003906 414.222656 347.886719 414.222656 346.515625 C 414.222656 345.144531 415.339844 344.03125 416.710938 344.03125 L 427.128906 344.03125 C 429.085938 344.03125 430.675781 342.441406 430.675781 340.484375 C 430.675781 338.527344 429.085938 336.9375 427.128906 336.9375 L 416.710938 336.9375 C 411.429688 336.9375 407.132812 341.234375 407.132812 346.515625 C 407.132812 351.796875 411.429688 356.09375 416.710938 356.09375 L 421.097656 356.09375 C 422.46875 356.09375 423.582031 357.210938 423.582031 358.582031 C 423.582031 359.949219 422.46875 361.066406 421.097656 361.066406 Z M 421.097656 361.066406 " fill-opacity="1" fill-rule="nonzero"/><path fill="#1685bb" d="M 371.007812 383.664062 L 345.8125 383.664062 C 343.851562 383.664062 342.265625 385.253906 342.265625 387.210938 L 342.265625 412.40625 C 342.265625 414.367188 343.851562 415.953125 345.8125 415.953125 L 371.007812 415.953125 C 372.964844 415.953125 374.550781 414.367188 374.550781 412.40625 L 374.550781 387.210938 C 374.550781 385.253906 372.964844 383.664062 371.007812 383.664062 Z M 367.460938 408.863281 L 349.355469 408.863281 L 349.355469 390.757812 L 367.460938 390.757812 Z M 367.460938 408.863281 " fill-opacity="1" fill-rule="nonzero"/><path fill="#1685bb" d="M 371.007812 429.175781 L 345.8125 429.175781 C 343.851562 429.175781 342.265625 430.765625 342.265625 432.722656 L 342.265625 457.917969 C 342.265625 459.875 343.851562 461.464844 345.8125 461.464844 L 371.007812 461.464844 C 372.964844 461.464844 374.550781 459.875 374.550781 457.917969 L 374.550781 432.722656 C 374.550781 430.765625 372.964844 429.175781 371.007812 429.175781 Z M 367.460938 454.371094 L 349.355469 454.371094 L 349.355469 436.269531 L 367.460938 436.269531 Z M 367.460938 454.371094 " fill-opacity="1" fill-rule="nonzero"/><path fill="#1685bb" d="M 371.007812 474.6875 L 345.8125 474.6875 C 343.851562 474.6875 342.265625 476.273438 342.265625 478.234375 L 342.265625 503.429688 C 342.265625 505.386719 343.851562 506.976562 345.8125 506.976562 L 371.007812 506.976562 C 372.964844 506.976562 374.550781 505.386719 374.550781 503.429688 L 374.550781 478.234375 C 374.550781 476.273438 372.964844 474.6875 371.007812 474.6875 Z M 367.460938 499.882812 L 349.355469 499.882812 L 349.355469 481.777344 L 367.460938 481.777344 Z M 367.460938 499.882812 " fill-opacity="1" fill-rule="nonzero"/><path fill="#1685bb" d="M 458.09375 396.265625 L 394.859375 396.265625 C 392.898438 396.265625 391.3125 397.851562 391.3125 399.808594 C 391.3125 401.769531 392.898438 403.355469 394.859375 403.355469 L 458.09375 403.355469 C 460.054688 403.355469 461.640625 401.769531 461.640625 399.808594 C 461.640625 397.851562 460.054688 396.265625 458.09375 396.265625 Z M 458.09375 396.265625 " fill-opacity="1" fill-rule="nonzero"/><path fill="#1685bb" d="M 458.09375 441.773438 L 394.859375 441.773438 C 392.898438 441.773438 391.3125 443.363281 391.3125 445.320312 C 391.3125 447.277344 392.898438 448.867188 394.859375 448.867188 L 458.09375 448.867188 C 460.054688 448.867188 461.640625 447.277344 461.640625 445.320312 C 461.640625 443.363281 460.054688 441.773438 458.09375 441.773438 Z M 458.09375 441.773438 " fill-opacity="1" fill-rule="nonzero"/><path fill="#1685bb" d="M 418.902344 487.285156 L 394.859375 487.285156 C 392.898438 487.285156 391.3125 488.871094 391.3125 490.832031 C 391.3125 492.789062 392.898438 494.375 394.859375 494.375 L 418.902344 494.375 C 420.863281 494.375 422.449219 492.789062 422.449219 490.832031 C 422.449219 488.871094 420.863281 487.285156 418.902344 487.285156 Z M 418.902344 487.285156 " fill-opacity="1" fill-rule="nonzero"/></svg>