<svg xmlns="http://www.w3.org/2000/svg" xmlns:xlink="http://www.w3.org/1999/xlink" width="1080" zoomAndPan="magnify" viewBox="0 0 810 809.999993" height="1080" preserveAspectRatio="xMidYMid meet" version="1.0"><defs><clipPath id="66d7c94d0e"><path d="M 332.589844 373 L 396 373 L 396 465.859375 L 332.589844 465.859375 Z M 332.589844 373 " clip-rule="nonzero"/></clipPath><clipPath id="e9f635b04c"><path d="M 355 344.359375 L 463 344.359375 L 463 405 L 355 405 Z M 355 344.359375 " clip-rule="nonzero"/></clipPath><clipPath id="74f64abdf9"><path d="M 368 442 L 477.339844 442 L 477.339844 465 L 368 465 Z M 368 442 " clip-rule="nonzero"/></clipPath></defs><g clip-path="url(#66d7c94d0e)"><path fill="#1685bb" d="M 370.199219 409.046875 C 370.816406 409.785156 371.730469 410.210938 372.6875 410.210938 C 372.753906 410.210938 372.824219 410.210938 372.890625 410.203125 C 373.917969 410.140625 374.859375 409.585938 375.414062 408.71875 L 384.128906 395.144531 C 384.949219 393.867188 384.753906 392.230469 383.761719 391.175781 L 395.105469 374.253906 L 393.757812 373.351562 L 382.390625 390.308594 C 381.023438 389.867188 379.484375 390.375 378.671875 391.640625 L 372.34375 401.5 L 363.824219 391.3125 C 363.261719 390.640625 362.484375 390.253906 361.679688 390.167969 C 361.367188 390.066406 361.035156 390.007812 360.691406 390.007812 L 345.03125 390.007812 C 345 390.007812 344.96875 390.011719 344.9375 390.011719 C 344.210938 390.015625 342.96875 390.164062 341.554688 390.878906 C 339.375 391.960938 337.023438 394.324219 335.378906 398.515625 C 333.714844 402.722656 332.597656 408.804688 332.589844 417.988281 C 332.59375 420.359375 332.667969 422.941406 332.835938 425.753906 C 332.933594 427.476562 334.363281 428.804688 336.070312 428.804688 C 336.132812 428.804688 336.195312 428.804688 336.261719 428.800781 C 338.046875 428.695312 339.414062 427.160156 339.308594 425.371094 C 339.148438 422.675781 339.078125 420.222656 339.078125 417.988281 C 339.0625 408.167969 340.496094 402.65625 341.898438 399.78125 L 341.898438 460.578125 C 341.898438 463.34375 344.144531 465.585938 346.910156 465.585938 C 349.679688 465.585938 351.921875 463.34375 351.921875 460.578125 L 351.921875 423.992188 L 353.800781 423.992188 L 353.800781 460.578125 C 353.800781 463.34375 356.042969 465.585938 358.8125 465.585938 C 361.578125 465.585938 363.824219 463.34375 363.824219 460.578125 L 363.824219 401.417969 Z M 370.199219 409.046875 " fill-opacity="1" fill-rule="nonzero"/></g><path fill="#1685bb" d="M 361.980469 378.578125 C 361.980469 379.179688 361.921875 379.769531 361.804688 380.359375 C 361.6875 380.945312 361.515625 381.515625 361.285156 382.070312 C 361.058594 382.621094 360.777344 383.148438 360.441406 383.644531 C 360.109375 384.144531 359.734375 384.605469 359.308594 385.027344 C 358.886719 385.449219 358.425781 385.828125 357.925781 386.160156 C 357.429688 386.496094 356.902344 386.773438 356.351562 387.003906 C 355.796875 387.234375 355.226562 387.40625 354.640625 387.523438 C 354.054688 387.640625 353.460938 387.699219 352.859375 387.699219 C 352.261719 387.699219 351.667969 387.640625 351.082031 387.523438 C 350.496094 387.40625 349.925781 387.234375 349.371094 387.003906 C 348.816406 386.773438 348.292969 386.496094 347.796875 386.160156 C 347.296875 385.828125 346.835938 385.449219 346.414062 385.027344 C 345.988281 384.605469 345.613281 384.144531 345.277344 383.644531 C 344.945312 383.148438 344.664062 382.621094 344.4375 382.070312 C 344.207031 381.515625 344.035156 380.945312 343.917969 380.359375 C 343.800781 379.769531 343.742188 379.179688 343.742188 378.578125 C 343.742188 377.980469 343.800781 377.386719 343.917969 376.800781 C 344.035156 376.214844 344.207031 375.644531 344.4375 375.089844 C 344.664062 374.535156 344.945312 374.011719 345.277344 373.511719 C 345.613281 373.015625 345.988281 372.554688 346.414062 372.132812 C 346.835938 371.707031 347.296875 371.328125 347.796875 370.996094 C 348.292969 370.664062 348.816406 370.382812 349.371094 370.15625 C 349.925781 369.925781 350.496094 369.753906 351.082031 369.636719 C 351.667969 369.519531 352.261719 369.460938 352.859375 369.460938 C 353.460938 369.460938 354.054688 369.519531 354.640625 369.636719 C 355.226562 369.753906 355.796875 369.925781 356.351562 370.15625 C 356.902344 370.382812 357.429688 370.664062 357.925781 370.996094 C 358.425781 371.328125 358.886719 371.707031 359.308594 372.132812 C 359.734375 372.554688 360.109375 373.015625 360.441406 373.511719 C 360.777344 374.011719 361.058594 374.535156 361.285156 375.089844 C 361.515625 375.644531 361.6875 376.214844 361.804688 376.800781 C 361.921875 377.386719 361.980469 377.980469 361.980469 378.578125 Z M 361.980469 378.578125 " fill-opacity="1" fill-rule="nonzero"/><g clip-path="url(#e9f635b04c)"><path fill="#1685bb" d="M 462.921875 344.40625 L 355.925781 344.40625 L 355.925781 364.863281 L 357.953125 364.863281 L 357.953125 346.429688 L 460.894531 346.429688 L 460.894531 402.765625 L 385.757812 402.765625 L 385.757812 404.792969 L 462.921875 404.792969 Z M 462.921875 344.40625 " fill-opacity="1" fill-rule="nonzero"/></g><path fill="#1685bb" d="M 397.945312 431.296875 C 397.945312 431.894531 397.886719 432.488281 397.769531 433.074219 C 397.65625 433.664062 397.480469 434.234375 397.253906 434.785156 C 397.023438 435.339844 396.742188 435.867188 396.410156 436.363281 C 396.078125 436.859375 395.699219 437.320312 395.277344 437.746094 C 394.851562 438.167969 394.390625 438.546875 393.894531 438.878906 C 393.394531 439.210938 392.871094 439.492188 392.316406 439.722656 C 391.765625 439.949219 391.195312 440.125 390.605469 440.242188 C 390.019531 440.359375 389.425781 440.414062 388.828125 440.414062 C 388.230469 440.414062 387.636719 440.359375 387.046875 440.242188 C 386.460938 440.125 385.890625 439.949219 385.335938 439.722656 C 384.785156 439.492188 384.257812 439.210938 383.761719 438.878906 C 383.261719 438.546875 382.804688 438.167969 382.378906 437.746094 C 381.957031 437.320312 381.578125 436.859375 381.246094 436.363281 C 380.914062 435.867188 380.632812 435.339844 380.402344 434.785156 C 380.171875 434.234375 380 433.664062 379.882812 433.074219 C 379.765625 432.488281 379.707031 431.894531 379.707031 431.296875 C 379.707031 430.699219 379.765625 430.105469 379.882812 429.519531 C 380 428.929688 380.171875 428.359375 380.402344 427.808594 C 380.632812 427.253906 380.914062 426.730469 381.246094 426.230469 C 381.578125 425.734375 381.957031 425.273438 382.378906 424.847656 C 382.804688 424.425781 383.261719 424.046875 383.761719 423.714844 C 384.257812 423.382812 384.785156 423.101562 385.335938 422.871094 C 385.890625 422.644531 386.460938 422.46875 387.046875 422.351562 C 387.636719 422.238281 388.230469 422.179688 388.828125 422.179688 C 389.425781 422.179688 390.019531 422.238281 390.605469 422.351562 C 391.195312 422.46875 391.765625 422.644531 392.316406 422.871094 C 392.871094 423.101562 393.394531 423.382812 393.894531 423.714844 C 394.390625 424.046875 394.851562 424.425781 395.277344 424.847656 C 395.699219 425.273438 396.078125 425.734375 396.410156 426.230469 C 396.742188 426.730469 397.023438 427.253906 397.253906 427.808594 C 397.480469 428.359375 397.65625 428.929688 397.769531 429.519531 C 397.886719 430.105469 397.945312 430.699219 397.945312 431.296875 Z M 397.945312 431.296875 " fill-opacity="1" fill-rule="nonzero"/><path fill="#1685bb" d="M 432.191406 431.296875 C 432.191406 431.894531 432.132812 432.488281 432.019531 433.074219 C 431.902344 433.664062 431.726562 434.234375 431.5 434.785156 C 431.269531 435.339844 430.988281 435.867188 430.65625 436.363281 C 430.324219 436.859375 429.945312 437.320312 429.523438 437.746094 C 429.097656 438.167969 428.636719 438.546875 428.140625 438.878906 C 427.640625 439.210938 427.117188 439.492188 426.5625 439.722656 C 426.011719 439.949219 425.441406 440.125 424.851562 440.242188 C 424.265625 440.359375 423.671875 440.414062 423.074219 440.414062 C 422.476562 440.414062 421.882812 440.359375 421.296875 440.242188 C 420.707031 440.125 420.136719 439.949219 419.585938 439.722656 C 419.03125 439.492188 418.503906 439.210938 418.007812 438.878906 C 417.511719 438.546875 417.050781 438.167969 416.625 437.746094 C 416.203125 437.320312 415.824219 436.859375 415.492188 436.363281 C 415.160156 435.867188 414.878906 435.339844 414.648438 434.785156 C 414.421875 434.234375 414.246094 433.664062 414.128906 433.074219 C 414.011719 432.488281 413.957031 431.894531 413.957031 431.296875 C 413.957031 430.699219 414.011719 430.105469 414.128906 429.519531 C 414.246094 428.929688 414.421875 428.359375 414.648438 427.808594 C 414.878906 427.253906 415.160156 426.730469 415.492188 426.230469 C 415.824219 425.734375 416.203125 425.273438 416.625 424.847656 C 417.050781 424.425781 417.511719 424.046875 418.007812 423.714844 C 418.503906 423.382812 419.03125 423.101562 419.585938 422.871094 C 420.136719 422.644531 420.707031 422.46875 421.296875 422.351562 C 421.882812 422.238281 422.476562 422.179688 423.074219 422.179688 C 423.671875 422.179688 424.265625 422.238281 424.851562 422.351562 C 425.441406 422.46875 426.011719 422.644531 426.5625 422.871094 C 427.117188 423.101562 427.640625 423.382812 428.140625 423.714844 C 428.636719 424.046875 429.097656 424.425781 429.523438 424.847656 C 429.945312 425.273438 430.324219 425.734375 430.65625 426.230469 C 430.988281 426.730469 431.269531 427.253906 431.5 427.808594 C 431.726562 428.359375 431.902344 428.929688 432.019531 429.519531 C 432.132812 430.105469 432.191406 430.699219 432.191406 431.296875 Z M 432.191406 431.296875 " fill-opacity="1" fill-rule="nonzero"/><g clip-path="url(#74f64abdf9)"><path fill="#1685bb" d="M 377.867188 452.5 L 377.867188 464.789062 L 399.789062 464.789062 L 399.789062 452.519531 C 400.03125 453.011719 400.273438 453.574219 400.511719 454.234375 C 401.347656 456.550781 402.082031 459.957031 402.417969 464.789062 L 409.476562 464.789062 C 409.910156 458.574219 411.019531 454.738281 412.113281 452.5 L 412.113281 464.789062 L 434.035156 464.789062 L 434.035156 452.515625 C 434.277344 453.011719 434.519531 453.574219 434.757812 454.234375 C 435.59375 456.550781 436.328125 459.957031 436.664062 464.789062 L 443.726562 464.789062 C 444.15625 458.574219 445.265625 454.738281 446.359375 452.5 L 446.359375 464.789062 L 468.28125 464.789062 L 468.28125 452.515625 C 468.523438 453.011719 468.765625 453.574219 469.003906 454.234375 C 469.839844 456.550781 470.578125 459.957031 470.910156 464.789062 L 477.40625 464.789062 C 476.867188 456.195312 475.152344 450.992188 472.953125 447.632812 C 471.621094 445.609375 470.066406 444.316406 468.625 443.597656 C 467.242188 442.898438 466.023438 442.742188 465.292969 442.730469 C 465.246094 442.730469 465.199219 442.722656 465.148438 442.722656 L 449.492188 442.722656 C 449.4375 442.722656 449.382812 442.730469 449.332031 442.734375 C 448.597656 442.742188 447.390625 442.902344 446.015625 443.597656 C 443.984375 444.601562 441.8125 446.722656 440.195312 450.386719 C 439.730469 449.347656 439.234375 448.4375 438.707031 447.632812 C 437.375 445.609375 435.816406 444.316406 434.378906 443.597656 C 432.992188 442.898438 431.777344 442.742188 431.046875 442.730469 C 430.996094 442.730469 430.953125 442.722656 430.902344 442.722656 L 415.246094 442.722656 C 415.191406 442.722656 415.136719 442.730469 415.082031 442.730469 C 414.351562 442.742188 413.140625 442.902344 411.765625 443.597656 C 409.738281 444.601562 407.5625 446.71875 405.945312 450.386719 C 405.484375 449.347656 404.984375 448.4375 404.460938 447.628906 C 403.128906 445.609375 401.570312 444.3125 400.132812 443.597656 C 398.746094 442.898438 397.527344 442.742188 396.796875 442.730469 C 396.75 442.730469 396.703125 442.722656 396.65625 442.722656 L 380.996094 442.722656 C 380.941406 442.722656 380.890625 442.730469 380.835938 442.730469 C 380.105469 442.742188 378.894531 442.902344 377.519531 443.597656 C 375.339844 444.675781 372.988281 447.042969 371.34375 451.230469 C 370.066406 454.460938 369.113281 458.796875 368.738281 464.789062 L 375.230469 464.789062 C 375.664062 458.574219 376.773438 454.738281 377.867188 452.5 Z M 377.867188 452.5 " fill-opacity="1" fill-rule="nonzero"/></g><path fill="#1685bb" d="M 466.441406 431.296875 C 466.441406 431.894531 466.382812 432.488281 466.265625 433.074219 C 466.148438 433.664062 465.976562 434.234375 465.746094 434.785156 C 465.515625 435.339844 465.234375 435.867188 464.902344 436.363281 C 464.570312 436.859375 464.191406 437.320312 463.769531 437.746094 C 463.34375 438.167969 462.886719 438.546875 462.386719 438.878906 C 461.890625 439.210938 461.363281 439.492188 460.808594 439.722656 C 460.257812 439.949219 459.6875 440.125 459.101562 440.242188 C 458.511719 440.359375 457.917969 440.414062 457.320312 440.414062 C 456.722656 440.414062 456.128906 440.359375 455.542969 440.242188 C 454.953125 440.125 454.382812 439.949219 453.832031 439.722656 C 453.277344 439.492188 452.753906 439.210938 452.253906 438.878906 C 451.757812 438.546875 451.296875 438.167969 450.871094 437.746094 C 450.449219 437.320312 450.070312 436.859375 449.738281 436.363281 C 449.40625 435.867188 449.125 435.339844 448.894531 434.785156 C 448.667969 434.234375 448.492188 433.664062 448.378906 433.074219 C 448.261719 432.488281 448.203125 431.894531 448.203125 431.296875 C 448.203125 430.699219 448.261719 430.105469 448.378906 429.519531 C 448.492188 428.929688 448.667969 428.359375 448.894531 427.808594 C 449.125 427.253906 449.40625 426.730469 449.738281 426.230469 C 450.070312 425.734375 450.449219 425.273438 450.871094 424.847656 C 451.296875 424.425781 451.757812 424.046875 452.253906 423.714844 C 452.753906 423.382812 453.277344 423.101562 453.832031 422.871094 C 454.382812 422.644531 454.953125 422.46875 455.542969 422.351562 C 456.128906 422.238281 456.722656 422.179688 457.320312 422.179688 C 457.917969 422.179688 458.511719 422.238281 459.101562 422.351562 C 459.6875 422.46875 460.257812 422.644531 460.808594 422.871094 C 461.363281 423.101562 461.890625 423.382812 462.386719 423.714844 C 462.886719 424.046875 463.34375 424.425781 463.769531 424.847656 C 464.191406 425.273438 464.570312 425.734375 464.902344 426.230469 C 465.234375 426.730469 465.515625 427.253906 465.746094 427.808594 C 465.976562 428.359375 466.148438 428.929688 466.265625 429.519531 C 466.382812 430.105469 466.441406 430.699219 466.441406 431.296875 Z M 466.441406 431.296875 " fill-opacity="1" fill-rule="nonzero"/></svg>