<svg xmlns="http://www.w3.org/2000/svg" xmlns:xlink="http://www.w3.org/1999/xlink" width="1080" zoomAndPan="magnify" viewBox="0 0 810 809.999993" height="1080" preserveAspectRatio="xMidYMid meet" version="1.0"><defs><clipPath id="21667e2710"><path d="M 336.003906 318.753906 L 474 318.753906 L 474 491.253906 L 336.003906 491.253906 Z M 336.003906 318.753906 " clip-rule="nonzero"/></clipPath></defs><g clip-path="url(#21667e2710)"><path fill="#1685bb" d="M 464.175781 353.253906 L 439.496094 353.253906 L 439.496094 328.570312 Z M 341.753906 485.492188 L 341.753906 324.503906 L 433.746094 324.503906 L 433.746094 356.128906 C 433.746094 357.710938 435.035156 359.003906 436.621094 359.003906 L 468.242188 359.003906 L 468.242188 485.492188 Z M 437.808594 319.035156 C 437.71875 318.992188 437.628906 318.96875 437.539062 318.933594 C 437.292969 318.855469 437.058594 318.8125 436.8125 318.789062 C 436.742188 318.789062 436.6875 318.753906 436.621094 318.753906 L 338.878906 318.753906 C 337.292969 318.753906 336.003906 320.046875 336.003906 321.628906 L 336.003906 488.367188 C 336.003906 489.949219 337.292969 491.242188 338.878906 491.242188 L 471.117188 491.242188 C 472.699219 491.242188 473.992188 489.949219 473.992188 488.367188 L 473.992188 356.128906 C 473.992188 356.058594 473.957031 356.015625 473.957031 355.949219 C 473.933594 355.6875 473.890625 355.453125 473.8125 355.207031 C 473.777344 355.117188 473.753906 355.027344 473.710938 354.9375 C 473.574219 354.632812 473.394531 354.339844 473.148438 354.09375 L 438.652344 319.597656 C 438.40625 319.351562 438.113281 319.183594 437.808594 319.035156 " fill-opacity="1" fill-rule="nonzero"/></g><path fill="#1685bb" d="M 367.625 399.25 C 373.96875 399.25 379.125 404.402344 379.125 410.746094 C 379.125 417.09375 373.96875 422.246094 367.625 422.246094 C 361.28125 422.246094 356.125 417.09375 356.125 410.746094 C 356.125 404.402344 361.28125 399.25 367.625 399.25 Z M 367.625 427.996094 C 377.136719 427.996094 384.875 420.257812 384.875 410.746094 C 384.875 401.234375 377.136719 393.5 367.625 393.5 C 358.113281 393.5 350.378906 401.234375 350.378906 410.746094 C 350.378906 420.257812 358.113281 427.996094 367.625 427.996094 " fill-opacity="1" fill-rule="nonzero"/><path fill="#1685bb" d="M 379.125 370.5 C 379.125 376.847656 373.96875 382 367.625 382 C 361.28125 382 356.125 376.847656 356.125 370.5 C 356.125 364.15625 361.28125 359.003906 367.625 359.003906 C 370.488281 359.003906 373.082031 360.089844 375.105469 361.832031 L 367.625 369.3125 L 363.910156 365.59375 L 359.84375 369.660156 L 365.59375 375.410156 C 366.15625 375.96875 366.882812 376.25 367.625 376.25 C 368.367188 376.25 369.097656 375.96875 369.65625 375.410156 L 378.417969 366.648438 C 378.84375 367.863281 379.125 369.140625 379.125 370.5 Z M 379.191406 357.746094 C 376.125 354.960938 372.074219 353.253906 367.625 353.253906 C 358.113281 353.253906 350.378906 360.988281 350.378906 370.5 C 350.378906 380.011719 358.113281 387.75 367.625 387.75 C 377.136719 387.75 384.875 380.011719 384.875 370.5 C 384.875 367.523438 384.109375 364.730469 382.785156 362.28125 L 391.21875 353.847656 L 387.152344 349.78125 L 379.191406 357.746094 " fill-opacity="1" fill-rule="nonzero"/><path fill="#1685bb" d="M 379.125 450.996094 C 379.125 457.339844 373.96875 462.492188 367.625 462.492188 C 361.28125 462.492188 356.125 457.339844 356.125 450.996094 C 356.125 444.648438 361.28125 439.496094 367.625 439.496094 C 370.488281 439.496094 373.082031 440.585938 375.105469 442.324219 L 367.625 449.804688 L 363.910156 446.085938 L 359.84375 450.152344 L 365.59375 455.902344 C 366.15625 456.464844 366.882812 456.742188 367.625 456.742188 C 368.367188 456.742188 369.097656 456.464844 369.65625 455.902344 L 378.417969 447.140625 C 378.84375 448.355469 379.125 449.636719 379.125 450.996094 Z M 387.152344 430.277344 L 379.191406 438.238281 C 376.125 435.453125 372.074219 433.746094 367.625 433.746094 C 358.113281 433.746094 350.378906 441.484375 350.378906 450.996094 C 350.378906 460.503906 358.113281 468.242188 367.625 468.242188 C 377.136719 468.242188 384.875 460.503906 384.875 450.996094 C 384.875 448.019531 384.109375 445.222656 382.785156 442.773438 L 391.21875 434.339844 L 387.152344 430.277344 " fill-opacity="1" fill-rule="nonzero"/><path fill="#1685bb" d="M 396.375 367.625 L 430.871094 367.625 L 430.871094 361.875 L 396.375 361.875 L 396.375 367.625 " fill-opacity="1" fill-rule="nonzero"/><path fill="#1685bb" d="M 396.375 379.125 L 448.117188 379.125 L 448.117188 373.375 L 396.375 373.375 L 396.375 379.125 " fill-opacity="1" fill-rule="nonzero"/><path fill="#1685bb" d="M 430.871094 402.125 L 396.375 402.125 L 396.375 407.871094 L 430.871094 407.871094 L 430.871094 402.125 " fill-opacity="1" fill-rule="nonzero"/><path fill="#1685bb" d="M 396.375 419.371094 L 448.117188 419.371094 L 448.117188 413.621094 L 396.375 413.621094 L 396.375 419.371094 " fill-opacity="1" fill-rule="nonzero"/><path fill="#1685bb" d="M 430.871094 442.371094 L 396.375 442.371094 L 396.375 448.121094 L 430.871094 448.121094 L 430.871094 442.371094 " fill-opacity="1" fill-rule="nonzero"/><path fill="#1685bb" d="M 396.375 459.617188 L 448.117188 459.617188 L 448.117188 453.867188 L 396.375 453.867188 L 396.375 459.617188 " fill-opacity="1" fill-rule="nonzero"/><path fill="#1685bb" d="M 402.121094 330.253906 L 353.25 330.253906 L 353.25 336.003906 L 402.121094 336.003906 L 402.121094 330.253906 " fill-opacity="1" fill-rule="nonzero"/><path fill="#1685bb" d="M 427.996094 330.253906 L 407.871094 330.253906 L 407.871094 336.003906 L 427.996094 336.003906 L 427.996094 330.253906 " fill-opacity="1" fill-rule="nonzero"/></svg>