<svg xmlns="http://www.w3.org/2000/svg" xmlns:xlink="http://www.w3.org/1999/xlink" width="1080" zoomAndPan="magnify" viewBox="0 0 810 809.999993" height="1080" preserveAspectRatio="xMidYMid meet" version="1.0"><defs><clipPath id="2cd8ff2d1f"><path d="M 303 330 L 506.933594 330 L 506.933594 514.648438 L 303 514.648438 Z M 303 330 " clip-rule="nonzero"/></clipPath></defs><g clip-path="url(#2cd8ff2d1f)"><path fill="#1685bb" d="M 477.652344 426.90625 L 444.160156 469.496094 C 436.117188 479.714844 425.277344 478.339844 420.023438 466.449219 L 418.066406 462.027344 L 422.199219 493.597656 L 436.914062 493.597656 C 438.871094 493.597656 440.429688 495.082031 440.429688 497.039062 L 440.429688 511.03125 C 440.429688 512.914062 438.835938 514.472656 436.949219 514.472656 L 318.648438 514.472656 C 316.726562 514.472656 315.167969 512.988281 315.167969 511.03125 L 315.167969 497.039062 C 315.167969 495.15625 316.726562 493.597656 318.683594 493.597656 L 333.398438 493.597656 L 337.53125 462.027344 L 330.535156 480.296875 C 329.160156 483.882812 324.953125 487.289062 321.222656 487.871094 L 318.972656 488.234375 C 315.203125 488.8125 310.203125 486.890625 307.808594 483.957031 L 306.398438 482.179688 C 304.003906 479.246094 303.136719 473.953125 304.511719 470.363281 L 328.035156 409.148438 C 330.789062 401.972656 339.308594 396.171875 346.917969 396.171875 L 408.679688 396.171875 C 416.363281 396.171875 424.84375 402.042969 427.597656 409.183594 L 437.023438 433.722656 L 455.652344 409.835938 C 458.042969 406.792969 463.007812 404.761719 466.851562 405.269531 L 472.542969 406.101562 L 500.304688 374.0625 C 501.574219 372.613281 503.785156 372.503906 505.199219 373.738281 C 506.648438 374.96875 506.828125 377.179688 505.558594 378.628906 L 477.617188 410.851562 L 479.320312 415.019531 C 480.769531 418.570312 480.007812 423.898438 477.652344 426.90625 Z M 406.359375 426.835938 C 406.140625 425.277344 407.230469 424.007812 408.789062 424.007812 C 409.984375 424.007812 411.253906 424.914062 411.6875 425.964844 L 426.257812 463.914062 C 428.722656 470.402344 434.195312 471.199219 438.472656 465.761719 L 471.78125 423.136719 C 472.941406 421.617188 473.339844 418.96875 472.613281 417.195312 L 472.179688 416.144531 C 471.492188 414.367188 469.351562 412.734375 467.46875 412.480469 L 466.378906 412.300781 C 464.460938 412.046875 461.957031 413.097656 460.835938 414.546875 L 439.921875 441.296875 L 434.917969 447.710938 L 421.039062 411.503906 C 419.261719 406.902344 413.753906 403.132812 408.789062 403.132812 L 346.808594 403.132812 C 341.84375 403.132812 336.335938 406.9375 334.558594 411.574219 L 311.289062 472.214844 C 310.566406 474.023438 311 476.707031 312.195312 478.195312 L 312.882812 479.0625 C 314.082031 480.550781 316.582031 481.492188 318.464844 481.203125 L 319.589844 481.019531 C 321.472656 480.730469 323.539062 479.097656 324.230469 477.289062 L 343.910156 426 C 344.34375 424.914062 345.648438 424.007812 346.808594 424.007812 C 348.367188 424.007812 349.457031 425.203125 349.238281 426.835938 L 340.429688 493.597656 L 415.203125 493.597656 Z M 433.46875 500.554688 L 322.125 500.554688 L 322.125 507.515625 L 433.46875 507.515625 Z M 377.796875 385.734375 C 362.429688 385.734375 349.960938 373.265625 349.960938 357.898438 C 349.960938 342.53125 362.429688 330.0625 377.796875 330.0625 C 393.167969 330.0625 405.632812 342.53125 405.632812 357.898438 C 405.632812 373.265625 393.167969 385.734375 377.796875 385.734375 Z M 377.796875 378.773438 C 389.324219 378.773438 398.675781 369.421875 398.675781 357.898438 C 398.675781 346.371094 389.324219 337.019531 377.796875 337.019531 C 366.273438 337.019531 356.921875 346.371094 356.921875 357.898438 C 356.921875 369.421875 366.273438 378.773438 377.796875 378.773438 Z M 377.796875 378.773438 " fill-opacity="1" fill-rule="evenodd"/></g></svg>